%TF.GenerationSoftware,KiCad,Pcbnew,5.1.6-c6e7f7d~87~ubuntu18.04.1*%
%TF.CreationDate,2020-11-08T13:28:51+00:00*%
%TF.ProjectId,icepill,69636570-696c-46c2-9e6b-696361645f70,1*%
%TF.SameCoordinates,Original*%
%TF.FileFunction,Copper,L1,Top*%
%TF.FilePolarity,Positive*%
%FSLAX46Y46*%
G04 Gerber Fmt 4.6, Leading zero omitted, Abs format (unit mm)*
G04 Created by KiCad (PCBNEW 5.1.6-c6e7f7d~87~ubuntu18.04.1) date 2020-11-08 13:28:51*
%MOMM*%
%LPD*%
G01*
G04 APERTURE LIST*
%TA.AperFunction,SMDPad,CuDef*%
%ADD10R,0.950000X1.000000*%
%TD*%
%TA.AperFunction,SMDPad,CuDef*%
%ADD11R,2.400000X3.800000*%
%TD*%
%TA.AperFunction,SMDPad,CuDef*%
%ADD12R,2.400000X1.300000*%
%TD*%
%TA.AperFunction,SMDPad,CuDef*%
%ADD13R,1.150000X1.450000*%
%TD*%
%TA.AperFunction,ComponentPad*%
%ADD14O,1.200000X2.000000*%
%TD*%
%TA.AperFunction,ComponentPad*%
%ADD15C,1.900000*%
%TD*%
%TA.AperFunction,ComponentPad*%
%ADD16R,1.900000X1.900000*%
%TD*%
%TA.AperFunction,SMDPad,CuDef*%
%ADD17R,0.700000X0.250000*%
%TD*%
%TA.AperFunction,SMDPad,CuDef*%
%ADD18R,0.250000X0.700000*%
%TD*%
%TA.AperFunction,ViaPad*%
%ADD19C,0.800000*%
%TD*%
%TA.AperFunction,Conductor*%
%ADD20R,5.400000X5.400000*%
%TD*%
%TA.AperFunction,ViaPad*%
%ADD21C,0.600000*%
%TD*%
%TA.AperFunction,Conductor*%
%ADD22C,1.000000*%
%TD*%
%TA.AperFunction,Conductor*%
%ADD23C,0.300000*%
%TD*%
%TA.AperFunction,Conductor*%
%ADD24C,0.800000*%
%TD*%
%TA.AperFunction,Conductor*%
%ADD25C,0.500000*%
%TD*%
%TA.AperFunction,Conductor*%
%ADD26C,0.200000*%
%TD*%
%TA.AperFunction,Conductor*%
%ADD27C,0.250000*%
%TD*%
%TA.AperFunction,Conductor*%
%ADD28C,0.254000*%
%TD*%
G04 APERTURE END LIST*
D10*
%TO.P,R8,2*%
%TO.N,Net-(R8-Pad2)*%
X95974000Y-85852000D03*
%TO.P,R8,1*%
%TO.N,/P2_2*%
X97574000Y-85852000D03*
%TD*%
%TO.P,R7,2*%
%TO.N,Net-(R7-Pad2)*%
X65316000Y-87376000D03*
%TO.P,R7,1*%
%TO.N,/P1_4*%
X63716000Y-87376000D03*
%TD*%
%TO.P,R6,2*%
%TO.N,GND*%
X64300000Y-78486000D03*
%TO.P,R6,1*%
%TO.N,Net-(IC2-Pad1)*%
X62700000Y-78486000D03*
%TD*%
%TO.P,R5,2*%
%TO.N,Net-(IC2-Pad1)*%
X60998000Y-78486000D03*
%TO.P,R5,1*%
%TO.N,1v2*%
X59398000Y-78486000D03*
%TD*%
D11*
%TO.P,IC2,2*%
%TO.N,1v2*%
X57400000Y-73660000D03*
D12*
%TO.P,IC2,3*%
%TO.N,3v3*%
X63500000Y-71360000D03*
%TO.P,IC2,1*%
%TO.N,Net-(IC2-Pad1)*%
X63500000Y-75960000D03*
%TO.P,IC2,2*%
%TO.N,1v2*%
X63500000Y-73660000D03*
%TD*%
D13*
%TO.P,C9,2*%
%TO.N,GND*%
X79872000Y-77470000D03*
%TO.P,C9,1*%
%TO.N,1v2*%
X81672000Y-77470000D03*
%TD*%
%TO.P,C8,2*%
%TO.N,GND*%
X62346000Y-68580000D03*
%TO.P,C8,1*%
%TO.N,3v3*%
X64146000Y-68580000D03*
%TD*%
%TO.P,C6,2*%
%TO.N,GND*%
X104849500Y-75692000D03*
%TO.P,C6,1*%
%TO.N,Net-(C6-Pad1)*%
X103049500Y-75692000D03*
%TD*%
D14*
%TO.P,U1,40*%
%TO.N,/5V*%
X68580000Y-66040000D03*
%TO.P,U1,39*%
%TO.N,GND*%
X71120000Y-66040000D03*
%TO.P,U1,38*%
%TO.N,3v3*%
X73660000Y-66040000D03*
%TO.P,U1,37*%
%TO.N,/F_~IRQ*%
X76200000Y-66040000D03*
%TO.P,U1,36*%
%TO.N,/C_~RST*%
X78740000Y-66040000D03*
%TO.P,U1,35*%
%TO.N,/P6_1*%
X81280000Y-66040000D03*
%TO.P,U1,34*%
%TO.N,/P6_2*%
X83820000Y-66040000D03*
%TO.P,U1,33*%
%TO.N,/P6_3*%
X86360000Y-66040000D03*
%TO.P,U1,32*%
%TO.N,/P6_4*%
X88900000Y-66040000D03*
%TO.P,U1,31*%
%TO.N,/P5_1*%
X91440000Y-66040000D03*
%TO.P,U1,30*%
%TO.N,/P5_2*%
X93980000Y-66040000D03*
%TO.P,U1,29*%
%TO.N,/P5_3*%
X96520000Y-66040000D03*
%TO.P,U1,28*%
%TO.N,/P5_4*%
X99060000Y-66040000D03*
%TO.P,U1,27*%
%TO.N,/P4_1*%
X101600000Y-66040000D03*
%TO.P,U1,26*%
%TO.N,/P4_2*%
X104140000Y-66040000D03*
%TO.P,U1,25*%
%TO.N,Net-(U1-Pad25)*%
X106680000Y-66040000D03*
%TO.P,U1,24*%
%TO.N,Net-(U1-Pad24)*%
X109220000Y-66040000D03*
%TO.P,U1,23*%
%TO.N,Net-(U1-Pad23)*%
X111760000Y-66040000D03*
%TO.P,U1,22*%
%TO.N,/P7_7*%
X114300000Y-66040000D03*
%TO.P,U1,21*%
%TO.N,Net-(U1-Pad21)*%
X116840000Y-66040000D03*
%TO.P,U1,20*%
%TO.N,3v3*%
X116840000Y-81280000D03*
%TO.P,U1,19*%
%TO.N,GND*%
X114300000Y-81280000D03*
%TO.P,U1,18*%
%TO.N,Net-(U1-Pad18)*%
X111760000Y-81280000D03*
%TO.P,U1,17*%
%TO.N,/P3_1*%
X109220000Y-81280000D03*
%TO.P,U1,16*%
%TO.N,/P3_2*%
X106680000Y-81280000D03*
%TO.P,U1,15*%
%TO.N,/P3_3*%
X104140000Y-81280000D03*
%TO.P,U1,14*%
%TO.N,/P3_4*%
X101600000Y-81280000D03*
%TO.P,U1,13*%
%TO.N,/P2_1*%
X99060000Y-81280000D03*
%TO.P,U1,12*%
%TO.N,Net-(R8-Pad2)*%
X96520000Y-81280000D03*
%TO.P,U1,11*%
%TO.N,/P2_3*%
X93980000Y-81280000D03*
%TO.P,U1,10*%
%TO.N,/P2_4*%
X91440000Y-81280000D03*
%TO.P,U1,9*%
%TO.N,/P1_1*%
X88900000Y-81280000D03*
%TO.P,U1,8*%
%TO.N,/P1_2*%
X86360000Y-81280000D03*
%TO.P,U1,7*%
%TO.N,/P1_3*%
X83820000Y-81280000D03*
%TO.P,U1,6*%
%TO.N,Net-(R7-Pad2)*%
X81280000Y-81280000D03*
%TO.P,U1,5*%
%TO.N,/F_CLK*%
X78740000Y-81280000D03*
%TO.P,U1,4*%
%TO.N,/C_SI*%
X76200000Y-81280000D03*
%TO.P,U1,3*%
%TO.N,/C_SO*%
X73660000Y-81280000D03*
%TO.P,U1,2*%
%TO.N,/C_CK*%
X71120000Y-81280000D03*
%TO.P,U1,1*%
%TO.N,/C_~CS*%
%TA.AperFunction,ComponentPad*%
G36*
G01*
X68880000Y-82280000D02*
X68280000Y-82280000D01*
G75*
G02*
X67980000Y-81980000I0J300000D01*
G01*
X67980000Y-80580000D01*
G75*
G02*
X68280000Y-80280000I300000J0D01*
G01*
X68880000Y-80280000D01*
G75*
G02*
X69180000Y-80580000I0J-300000D01*
G01*
X69180000Y-81980000D01*
G75*
G02*
X68880000Y-82280000I-300000J0D01*
G01*
G37*
%TD.AperFunction*%
%TD*%
D10*
%TO.P,D1,2*%
%TO.N,Net-(D1-Pad2)*%
X87084000Y-60960000D03*
%TO.P,D1,1*%
%TO.N,Net-(D1-Pad1)*%
X88684000Y-60960000D03*
%TD*%
%TO.P,R4,2*%
%TO.N,Net-(D1-Pad2)*%
X87084000Y-59436000D03*
%TO.P,R4,1*%
%TO.N,3v3*%
X88684000Y-59436000D03*
%TD*%
%TO.P,R3,2*%
%TO.N,/P1_4*%
X63716000Y-85598000D03*
%TO.P,R3,1*%
%TO.N,/F_~IRQ*%
X65316000Y-85598000D03*
%TD*%
%TO.P,R2,2*%
%TO.N,/P2_2*%
X97574000Y-87630000D03*
%TO.P,R2,1*%
%TO.N,/F_CLK*%
X95974000Y-87630000D03*
%TD*%
D15*
%TO.P,J6,6*%
%TO.N,3v3*%
X81280000Y-55880000D03*
%TO.P,J6,5*%
%TO.N,GND*%
X78740000Y-55880000D03*
%TO.P,J6,4*%
%TO.N,/P6_4*%
X76200000Y-55880000D03*
%TO.P,J6,3*%
%TO.N,/P6_3*%
X73660000Y-55880000D03*
%TO.P,J6,2*%
%TO.N,/P6_2*%
X71120000Y-55880000D03*
D16*
%TO.P,J6,1*%
%TO.N,/P6_1*%
X68580000Y-55880000D03*
%TD*%
D15*
%TO.P,J5,6*%
%TO.N,3v3*%
X104140000Y-55880000D03*
%TO.P,J5,5*%
%TO.N,GND*%
X101600000Y-55880000D03*
%TO.P,J5,4*%
%TO.N,/P5_4*%
X99060000Y-55880000D03*
%TO.P,J5,3*%
%TO.N,/P5_3*%
X96520000Y-55880000D03*
%TO.P,J5,2*%
%TO.N,/P5_2*%
X93980000Y-55880000D03*
D16*
%TO.P,J5,1*%
%TO.N,/P5_1*%
X91440000Y-55880000D03*
%TD*%
D15*
%TO.P,J4,6*%
%TO.N,3v3*%
X127000000Y-55880000D03*
%TO.P,J4,5*%
%TO.N,GND*%
X124460000Y-55880000D03*
%TO.P,J4,4*%
%TO.N,/P4_4*%
X121920000Y-55880000D03*
%TO.P,J4,3*%
%TO.N,/P4_3*%
X119380000Y-55880000D03*
%TO.P,J4,2*%
%TO.N,/P4_2*%
X116840000Y-55880000D03*
D16*
%TO.P,J4,1*%
%TO.N,/P4_1*%
X114300000Y-55880000D03*
%TD*%
D15*
%TO.P,J3,6*%
%TO.N,3v3*%
X114300000Y-91440000D03*
%TO.P,J3,5*%
%TO.N,GND*%
X116840000Y-91440000D03*
%TO.P,J3,4*%
%TO.N,/P3_4*%
X119380000Y-91440000D03*
%TO.P,J3,3*%
%TO.N,/P3_3*%
X121920000Y-91440000D03*
%TO.P,J3,2*%
%TO.N,/P3_2*%
X124460000Y-91440000D03*
D16*
%TO.P,J3,1*%
%TO.N,/P3_1*%
X127000000Y-91440000D03*
%TD*%
D15*
%TO.P,J2,6*%
%TO.N,3v3*%
X91440000Y-91440000D03*
%TO.P,J2,5*%
%TO.N,GND*%
X93980000Y-91440000D03*
%TO.P,J2,4*%
%TO.N,/P2_4*%
X96520000Y-91440000D03*
%TO.P,J2,3*%
%TO.N,/P2_3*%
X99060000Y-91440000D03*
%TO.P,J2,2*%
%TO.N,/P2_2*%
X101600000Y-91440000D03*
D16*
%TO.P,J2,1*%
%TO.N,/P2_1*%
X104140000Y-91440000D03*
%TD*%
D15*
%TO.P,J1,6*%
%TO.N,3v3*%
X68580000Y-91440000D03*
%TO.P,J1,5*%
%TO.N,GND*%
X71120000Y-91440000D03*
%TO.P,J1,4*%
%TO.N,/P1_4*%
X73660000Y-91440000D03*
%TO.P,J1,3*%
%TO.N,/P1_3*%
X76200000Y-91440000D03*
%TO.P,J1,2*%
%TO.N,/P1_2*%
X78740000Y-91440000D03*
D16*
%TO.P,J1,1*%
%TO.N,/P1_1*%
X81280000Y-91440000D03*
%TD*%
D10*
%TO.P,R1,2*%
%TO.N,Net-(C6-Pad1)*%
X102959000Y-73914000D03*
%TO.P,R1,1*%
%TO.N,1v2*%
X104559000Y-73914000D03*
%TD*%
D15*
%TO.P,J7,12*%
%TO.N,3v3*%
X128270000Y-80010000D03*
%TO.P,J7,11*%
X125730000Y-80010000D03*
%TO.P,J7,10*%
%TO.N,GND*%
X128270000Y-77470000D03*
%TO.P,J7,9*%
X125730000Y-77470000D03*
%TO.P,J7,8*%
%TO.N,/P7_10*%
X128270000Y-74930000D03*
%TO.P,J7,7*%
%TO.N,/P7_4*%
X125730000Y-74930000D03*
%TO.P,J7,6*%
%TO.N,/P7_9*%
X128270000Y-72390000D03*
%TO.P,J7,5*%
%TO.N,/P7_3*%
X125730000Y-72390000D03*
%TO.P,J7,4*%
%TO.N,/P7_8*%
X128270000Y-69850000D03*
%TO.P,J7,3*%
%TO.N,/P7_2*%
X125730000Y-69850000D03*
%TO.P,J7,2*%
%TO.N,/P7_7*%
X128270000Y-67310000D03*
D16*
%TO.P,J7,1*%
%TO.N,/P7_1*%
X125730000Y-67310000D03*
%TD*%
D15*
%TO.P,J9,5*%
%TO.N,/C_~RST*%
X78740000Y-60960000D03*
%TO.P,J9,4*%
%TO.N,/F_~IRQ*%
X76200000Y-60960000D03*
%TO.P,J9,3*%
%TO.N,3v3*%
X73660000Y-60960000D03*
%TO.P,J9,2*%
%TO.N,GND*%
X71120000Y-60960000D03*
D16*
%TO.P,J9,1*%
%TO.N,/5V*%
X68580000Y-60960000D03*
%TD*%
D15*
%TO.P,J8,5*%
%TO.N,/F_CLK*%
X78740000Y-86360000D03*
%TO.P,J8,4*%
%TO.N,/C_SI*%
X76200000Y-86360000D03*
%TO.P,J8,3*%
%TO.N,/C_SO*%
X73660000Y-86360000D03*
%TO.P,J8,2*%
%TO.N,/C_CK*%
X71120000Y-86360000D03*
D16*
%TO.P,J8,1*%
%TO.N,/C_~CS*%
X68580000Y-86360000D03*
%TD*%
D17*
%TO.P,IC1,1*%
%TO.N,3v3*%
X89310000Y-70910000D03*
%TO.P,IC1,2*%
%TO.N,/P6_4*%
X89310000Y-71410000D03*
%TO.P,IC1,3*%
%TO.N,/P6_3*%
X89310000Y-71910000D03*
%TO.P,IC1,4*%
%TO.N,/P6_2*%
X89310000Y-72410000D03*
%TO.P,IC1,5*%
%TO.N,1v2*%
X89310000Y-72910000D03*
%TO.P,IC1,6*%
%TO.N,/P6_1*%
X89310000Y-73410000D03*
%TO.P,IC1,7*%
%TO.N,Net-(IC1-Pad7)*%
X89310000Y-73910000D03*
%TO.P,IC1,8*%
%TO.N,/C_~RST*%
X89310000Y-74410000D03*
%TO.P,IC1,9*%
%TO.N,/F_~IRQ*%
X89310000Y-74910000D03*
%TO.P,IC1,10*%
%TO.N,/P1_3*%
X89310000Y-75410000D03*
%TO.P,IC1,11*%
%TO.N,/P1_2*%
X89310000Y-75910000D03*
%TO.P,IC1,12*%
%TO.N,/P1_1*%
X89310000Y-76410000D03*
D18*
%TO.P,IC1,13*%
%TO.N,/P7_4*%
X89960000Y-77060000D03*
%TO.P,IC1,14*%
%TO.N,/C_SO*%
X90460000Y-77060000D03*
%TO.P,IC1,15*%
%TO.N,/C_CK*%
X90960000Y-77060000D03*
%TO.P,IC1,16*%
%TO.N,/C_~CS*%
X91460000Y-77060000D03*
%TO.P,IC1,17*%
%TO.N,/C_SI*%
X91960000Y-77060000D03*
%TO.P,IC1,18*%
%TO.N,/P2_4*%
X92460000Y-77060000D03*
%TO.P,IC1,19*%
%TO.N,/P2_3*%
X92960000Y-77060000D03*
%TO.P,IC1,20*%
%TO.N,/F_CLK*%
X93460000Y-77060000D03*
%TO.P,IC1,21*%
%TO.N,/P2_1*%
X93960000Y-77060000D03*
%TO.P,IC1,22*%
%TO.N,3v3*%
X94460000Y-77060000D03*
%TO.P,IC1,23*%
%TO.N,/P7_10*%
X94960000Y-77060000D03*
%TO.P,IC1,24*%
%TO.N,3v3*%
X95460000Y-77060000D03*
D17*
%TO.P,IC1,25*%
%TO.N,/P3_4*%
X96110000Y-76410000D03*
%TO.P,IC1,26*%
%TO.N,/P3_3*%
X96110000Y-75910000D03*
%TO.P,IC1,27*%
%TO.N,/P3_2*%
X96110000Y-75410000D03*
%TO.P,IC1,28*%
%TO.N,/P3_1*%
X96110000Y-74910000D03*
%TO.P,IC1,29*%
%TO.N,Net-(C6-Pad1)*%
X96110000Y-74410000D03*
%TO.P,IC1,30*%
%TO.N,1v2*%
X96110000Y-73910000D03*
%TO.P,IC1,31*%
%TO.N,/P7_3*%
X96110000Y-73410000D03*
%TO.P,IC1,32*%
%TO.N,/P7_9*%
X96110000Y-72910000D03*
%TO.P,IC1,33*%
%TO.N,3v3*%
X96110000Y-72410000D03*
%TO.P,IC1,34*%
%TO.N,/P7_2*%
X96110000Y-71910000D03*
%TO.P,IC1,35*%
%TO.N,/P7_8*%
X96110000Y-71410000D03*
%TO.P,IC1,36*%
%TO.N,/P7_1*%
X96110000Y-70910000D03*
D18*
%TO.P,IC1,37*%
%TO.N,/P7_7*%
X95460000Y-70260000D03*
%TO.P,IC1,38*%
%TO.N,/P4_4*%
X94960000Y-70260000D03*
%TO.P,IC1,39*%
%TO.N,Net-(D1-Pad1)*%
X94460000Y-70260000D03*
%TO.P,IC1,40*%
X93960000Y-70260000D03*
%TO.P,IC1,41*%
%TO.N,Net-(IC1-Pad41)*%
X93460000Y-70260000D03*
%TO.P,IC1,42*%
%TO.N,/P4_3*%
X92960000Y-70260000D03*
%TO.P,IC1,43*%
%TO.N,/P4_2*%
X92460000Y-70260000D03*
%TO.P,IC1,44*%
%TO.N,/P4_1*%
X91960000Y-70260000D03*
%TO.P,IC1,45*%
%TO.N,/P5_4*%
X91460000Y-70260000D03*
%TO.P,IC1,46*%
%TO.N,/P5_3*%
X90960000Y-70260000D03*
%TO.P,IC1,47*%
%TO.N,/P5_2*%
X90460000Y-70260000D03*
%TO.P,IC1,48*%
%TO.N,/P5_1*%
X89960000Y-70260000D03*
D19*
%TD*%
%TO.N,GND*%
%TO.C,IC1*%
X91110000Y-72060000D03*
%TO.N,GND*%
%TO.C,IC1*%
X91110000Y-73660000D03*
X91110000Y-75260000D03*
X92710000Y-72060000D03*
X92710000Y-73660000D03*
X92710000Y-75260000D03*
X94310000Y-72060000D03*
X94310000Y-73660000D03*
X94310000Y-75260000D03*
D20*
X92710000Y-73660000D03*
%TD*%
D10*
%TO.P,C7,2*%
%TO.N,GND*%
X101384000Y-75438000D03*
%TO.P,C7,1*%
%TO.N,Net-(C6-Pad1)*%
X99784000Y-75438000D03*
%TD*%
%TO.P,C5,2*%
%TO.N,GND*%
X101384000Y-73914000D03*
%TO.P,C5,1*%
%TO.N,1v2*%
X99784000Y-73914000D03*
%TD*%
%TO.P,C4,2*%
%TO.N,GND*%
X84594800Y-72898000D03*
%TO.P,C4,1*%
%TO.N,1v2*%
X86194800Y-72898000D03*
%TD*%
%TO.P,C3,2*%
%TO.N,GND*%
X101384000Y-72390000D03*
%TO.P,C3,1*%
%TO.N,3v3*%
X99784000Y-72390000D03*
%TD*%
%TO.P,C2,2*%
%TO.N,GND*%
X97777200Y-78536800D03*
%TO.P,C2,1*%
%TO.N,3v3*%
X96177200Y-78536800D03*
%TD*%
%TO.P,C1,2*%
%TO.N,GND*%
X84594800Y-69596000D03*
%TO.P,C1,1*%
%TO.N,3v3*%
X86194800Y-69596000D03*
%TD*%
D19*
%TO.N,GND*%
X102514400Y-72390000D03*
D21*
X101396800Y-74676000D03*
X101396800Y-73152000D03*
D19*
X83464400Y-72898000D03*
X83464400Y-69596000D03*
D21*
X101396800Y-76403200D03*
D19*
X99110800Y-79146400D03*
X104838500Y-77089000D03*
X61061600Y-68580000D03*
X65532000Y-78486000D03*
X79857600Y-76047600D03*
X92710000Y-81940400D03*
X92710000Y-83667600D03*
D21*
X77470000Y-83870800D03*
X77470000Y-78638400D03*
D19*
%TO.N,3v3*%
X98450400Y-72085200D03*
X87325200Y-69951600D03*
X96177200Y-77432000D03*
X91643200Y-79552800D03*
X100330000Y-64719200D03*
%TO.N,1v2*%
X98602800Y-74218800D03*
X104546400Y-72745600D03*
X87376000Y-72999600D03*
X86004400Y-75285600D03*
D21*
%TO.N,/C_SI*%
X89662000Y-79756000D03*
%TO.N,/C_~CS*%
X88900000Y-79248000D03*
%TO.N,/C_CK*%
X88011000Y-78867000D03*
%TO.N,/C_SO*%
X88011000Y-77978000D03*
D19*
%TO.N,/F_~IRQ*%
X76200000Y-69215000D03*
%TO.N,/F_CLK*%
X83566000Y-86360000D03*
X89154000Y-83947000D03*
X95250000Y-82804000D03*
D21*
%TO.N,/P7_10*%
X95097600Y-77927200D03*
X102514400Y-78435200D03*
%TO.N,/P7_4*%
X89204800Y-77216000D03*
X101904800Y-77825600D03*
%TO.N,/P7_9*%
X97637600Y-72745600D03*
X99110800Y-71323200D03*
%TO.N,/P7_3*%
X98348800Y-73253600D03*
X103276400Y-71729600D03*
%TO.N,Net-(D1-Pad1)*%
X94337631Y-69637040D03*
D19*
X89154000Y-64211200D03*
%TD*%
D22*
%TO.N,GND*%
X71120000Y-60960000D02*
X71120000Y-66040000D01*
D23*
X101384000Y-72390000D02*
X102514400Y-72390000D01*
X101384000Y-74663200D02*
X101396800Y-74676000D01*
X101384000Y-74638000D02*
X101384000Y-74663200D01*
X101384000Y-74638000D02*
X101384000Y-75438000D01*
X101384000Y-73914000D02*
X101384000Y-74638000D01*
X101384000Y-73139200D02*
X101396800Y-73152000D01*
X101384000Y-73139200D02*
X101384000Y-73914000D01*
X101384000Y-72390000D02*
X101384000Y-73139200D01*
X84594800Y-72898000D02*
X83464400Y-72898000D01*
X84594800Y-69596000D02*
X83464400Y-69596000D01*
X101384000Y-75438000D02*
X101384000Y-76390400D01*
X101384000Y-76390400D02*
X101396800Y-76403200D01*
X97777200Y-78536800D02*
X98552000Y-78536800D01*
X98552000Y-78536800D02*
X98958400Y-78943200D01*
X98958400Y-78943200D02*
X98958400Y-78994000D01*
X98958400Y-78994000D02*
X99110800Y-79146400D01*
X104849500Y-75692000D02*
X104849500Y-77078000D01*
X104849500Y-77078000D02*
X104838500Y-77089000D01*
D24*
X62346000Y-68580000D02*
X61061600Y-68580000D01*
D25*
X64300000Y-78486000D02*
X65532000Y-78486000D01*
D24*
X79872000Y-77470000D02*
X79872000Y-76062000D01*
X79872000Y-76062000D02*
X79857600Y-76047600D01*
X92710000Y-81940400D02*
X92710000Y-83667600D01*
D25*
X77470000Y-78638400D02*
X77470000Y-83870800D01*
D22*
%TO.N,3v3*%
X73660000Y-60960000D02*
X73660000Y-66040000D01*
D26*
X96110000Y-72410000D02*
X97058800Y-72410000D01*
X97058800Y-72410000D02*
X97383600Y-72085200D01*
X97383600Y-72085200D02*
X98247200Y-72085200D01*
X99479200Y-72085200D02*
X99784000Y-72390000D01*
X98399600Y-72085200D02*
X99479200Y-72085200D01*
X98399600Y-72085200D02*
X98450400Y-72085200D01*
X98247200Y-72085200D02*
X98399600Y-72085200D01*
X89310000Y-70910000D02*
X88283600Y-70910000D01*
X88283600Y-70910000D02*
X87325200Y-69951600D01*
D22*
X127000000Y-54610000D02*
X127000000Y-55880000D01*
X126034800Y-53644800D02*
X127000000Y-54610000D01*
X104140000Y-53797200D02*
X103987600Y-53644800D01*
X104140000Y-55880000D02*
X104140000Y-53797200D01*
X103987600Y-53644800D02*
X126034800Y-53644800D01*
X68580000Y-91440000D02*
X68580000Y-93014800D01*
X68580000Y-93014800D02*
X69291200Y-93726000D01*
X91440000Y-93522800D02*
X91643200Y-93726000D01*
X91440000Y-91440000D02*
X91440000Y-93522800D01*
X69291200Y-93726000D02*
X91643200Y-93726000D01*
X124460000Y-81280000D02*
X125730000Y-80010000D01*
X116840000Y-81280000D02*
X124460000Y-81280000D01*
X125730000Y-80010000D02*
X128270000Y-80010000D01*
X129032000Y-80772000D02*
X128270000Y-80010000D01*
X129032000Y-92964000D02*
X129032000Y-80772000D01*
X128270000Y-93726000D02*
X129032000Y-92964000D01*
X114300000Y-93675200D02*
X114249200Y-93726000D01*
X114300000Y-91440000D02*
X114300000Y-93675200D01*
X91643200Y-93726000D02*
X114249200Y-93726000D01*
X114249200Y-93726000D02*
X128270000Y-93726000D01*
X127000000Y-55880000D02*
X127000000Y-61264800D01*
X127000000Y-61264800D02*
X130759200Y-65024000D01*
X130759200Y-79044800D02*
X129032000Y-80772000D01*
X130759200Y-65024000D02*
X130759200Y-79044800D01*
X81280000Y-55880000D02*
X81280000Y-53695600D01*
X81280000Y-53695600D02*
X81229200Y-53644800D01*
D26*
X94460000Y-77060000D02*
X94460000Y-78458000D01*
X94460000Y-78458000D02*
X94792800Y-78790800D01*
X95923200Y-78790800D02*
X96177200Y-78536800D01*
X94792800Y-78790800D02*
X95923200Y-78790800D01*
X95460000Y-77060000D02*
X95805200Y-77060000D01*
D23*
X96177200Y-77432000D02*
X96177200Y-78536800D01*
D26*
X95805200Y-77060000D02*
X96177200Y-77432000D01*
D25*
X91440000Y-91440000D02*
X91440000Y-87934800D01*
X91440000Y-87934800D02*
X90170000Y-86664800D01*
X90170000Y-86664800D02*
X90170000Y-80518000D01*
D23*
X90170000Y-80518000D02*
X90271600Y-80518000D01*
X90271600Y-80518000D02*
X91236800Y-79552800D01*
X91236800Y-79552800D02*
X91643200Y-79552800D01*
D25*
X100330000Y-59690000D02*
X104140000Y-55880000D01*
X100330000Y-64719200D02*
X100330000Y-59690000D01*
D22*
X89357200Y-53644800D02*
X81229200Y-53644800D01*
X103987600Y-53644800D02*
X89357200Y-53644800D01*
D25*
X89509600Y-57353200D02*
X89509600Y-53797200D01*
X90170000Y-58013600D02*
X89509600Y-57353200D01*
X87325200Y-69951600D02*
X87325200Y-69596000D01*
X89509600Y-53797200D02*
X89357200Y-53644800D01*
X87325200Y-69596000D02*
X90170000Y-66751200D01*
X86969600Y-69596000D02*
X87325200Y-69951600D01*
X86194800Y-69596000D02*
X86969600Y-69596000D01*
X86194800Y-69596000D02*
X87325200Y-69596000D01*
X90170000Y-66751200D02*
X90170000Y-59436000D01*
X88684000Y-59436000D02*
X90170000Y-59436000D01*
X90170000Y-59436000D02*
X90170000Y-58013600D01*
D22*
X64247600Y-68478400D02*
X64146000Y-68580000D01*
X64146000Y-70714000D02*
X63500000Y-71360000D01*
X64146000Y-68580000D02*
X64146000Y-70714000D01*
X65684400Y-68427600D02*
X65633600Y-68478400D01*
X65684400Y-54457600D02*
X65684400Y-68427600D01*
X81229200Y-53644800D02*
X66497200Y-53644800D01*
X66497200Y-53644800D02*
X65684400Y-54457600D01*
X65633600Y-68478400D02*
X64247600Y-68478400D01*
X73660000Y-66040000D02*
X73660000Y-66548000D01*
X73660000Y-66548000D02*
X72263000Y-67945000D01*
X66167000Y-67945000D02*
X65633600Y-68478400D01*
X72263000Y-67945000D02*
X66167000Y-67945000D01*
D26*
%TO.N,1v2*%
X98802000Y-73910000D02*
X98903600Y-73910000D01*
X98903600Y-73910000D02*
X98907600Y-73914000D01*
X98907600Y-73914000D02*
X99784000Y-73914000D01*
X98649600Y-74172000D02*
X98602800Y-74218800D01*
X98649600Y-73910000D02*
X98649600Y-74172000D01*
X98649600Y-73910000D02*
X98802000Y-73910000D01*
X96110000Y-73910000D02*
X98649600Y-73910000D01*
D23*
X104559000Y-73914000D02*
X104559000Y-72758200D01*
X104559000Y-72758200D02*
X104546400Y-72745600D01*
D26*
X89310000Y-72910000D02*
X87465600Y-72910000D01*
X87465600Y-72910000D02*
X87376000Y-72999600D01*
X86144000Y-72999600D02*
X86042400Y-72898000D01*
D23*
X87376000Y-72999600D02*
X86144000Y-72999600D01*
D22*
X63500000Y-73660000D02*
X57400000Y-73660000D01*
D23*
X59398000Y-78486000D02*
X59398000Y-77686000D01*
X59398000Y-77686000D02*
X58928000Y-77216000D01*
D24*
X86004400Y-75285600D02*
X81737200Y-75285600D01*
X81737200Y-75285600D02*
X79959200Y-73507600D01*
X79959200Y-73507600D02*
X79959200Y-70510400D01*
X79959200Y-70510400D02*
X78740000Y-69291200D01*
X81672000Y-75350800D02*
X81737200Y-75285600D01*
X81672000Y-77470000D02*
X81672000Y-75350800D01*
D22*
X78740000Y-69291200D02*
X77393800Y-67945000D01*
X77393800Y-67945000D02*
X74422000Y-67945000D01*
X74422000Y-67945000D02*
X72898000Y-69469000D01*
X72898000Y-69469000D02*
X66675000Y-69469000D01*
X66675000Y-69469000D02*
X65786000Y-70358000D01*
X65786000Y-70358000D02*
X65786000Y-72898000D01*
X65024000Y-73660000D02*
X63500000Y-73660000D01*
X65786000Y-72898000D02*
X65024000Y-73660000D01*
D26*
%TO.N,Net-(C6-Pad1)*%
X96110000Y-74410000D02*
X97676400Y-74410000D01*
X98704400Y-75438000D02*
X99784000Y-75438000D01*
X97676400Y-74410000D02*
X98704400Y-75438000D01*
D23*
X102959000Y-75601500D02*
X103049500Y-75692000D01*
X102959000Y-73914000D02*
X102959000Y-75601500D01*
X103049500Y-76719000D02*
X103049500Y-75692000D01*
X102654100Y-77114400D02*
X103049500Y-76719000D01*
X99784000Y-75438000D02*
X99784000Y-75857200D01*
X101041200Y-77114400D02*
X102654100Y-77114400D01*
X99784000Y-75857200D02*
X101041200Y-77114400D01*
D22*
%TO.N,/C_SI*%
X76200000Y-81280000D02*
X76200000Y-86360000D01*
D26*
X91960000Y-77060000D02*
X91960000Y-78093000D01*
X91960000Y-78093000D02*
X90551000Y-79502000D01*
X90551000Y-79502000D02*
X89916000Y-79502000D01*
X89916000Y-79502000D02*
X89662000Y-79756000D01*
D22*
%TO.N,/C_~CS*%
X68580000Y-86360000D02*
X68580000Y-81280000D01*
D26*
X91460000Y-77060000D02*
X91460000Y-77958000D01*
X91460000Y-77958000D02*
X90424000Y-78994000D01*
X90424000Y-78994000D02*
X89154000Y-78994000D01*
X89154000Y-78994000D02*
X88900000Y-79248000D01*
D22*
%TO.N,/C_CK*%
X71120000Y-81280000D02*
X71120000Y-86360000D01*
D26*
X90960000Y-77060000D02*
X90960000Y-77823000D01*
X90960000Y-77823000D02*
X90297000Y-78486000D01*
X90297000Y-78486000D02*
X88392000Y-78486000D01*
X88392000Y-78486000D02*
X88011000Y-78867000D01*
D22*
%TO.N,/C_SO*%
X73660000Y-86360000D02*
X73660000Y-81280000D01*
D26*
X90460000Y-77060000D02*
X90460000Y-77688000D01*
X90460000Y-77688000D02*
X90170000Y-77978000D01*
X90170000Y-77978000D02*
X88011000Y-77978000D01*
D22*
%TO.N,/C_~RST*%
X78740000Y-60960000D02*
X78740000Y-66040000D01*
D26*
X89310000Y-74410000D02*
X82131600Y-74410000D01*
X82131600Y-74410000D02*
X80822800Y-73101200D01*
X80822800Y-68122800D02*
X78740000Y-66040000D01*
X80822800Y-73101200D02*
X80822800Y-68122800D01*
D22*
%TO.N,/F_~IRQ*%
X76200000Y-60960000D02*
X76200000Y-66040000D01*
D26*
X89310000Y-74910000D02*
X87700800Y-74910000D01*
X87700800Y-74910000D02*
X83769200Y-78841600D01*
X83769200Y-78841600D02*
X78689200Y-78841600D01*
X78689200Y-78841600D02*
X78486000Y-78638400D01*
X78486000Y-71501000D02*
X76200000Y-69215000D01*
X78486000Y-78638400D02*
X78486000Y-71501000D01*
D23*
X74676000Y-69215000D02*
X73279000Y-70612000D01*
X76200000Y-69215000D02*
X74676000Y-69215000D01*
X67564000Y-70612000D02*
X66929000Y-71247000D01*
X73279000Y-70612000D02*
X67564000Y-70612000D01*
X66929000Y-83985000D02*
X65316000Y-85598000D01*
X66929000Y-71247000D02*
X66929000Y-83985000D01*
D22*
%TO.N,/F_CLK*%
X78740000Y-81280000D02*
X78740000Y-86360000D01*
D23*
X83566000Y-86360000D02*
X83566000Y-84709000D01*
X83566000Y-84709000D02*
X83820000Y-84455000D01*
X86741000Y-84455000D02*
X87249000Y-83947000D01*
X87249000Y-83947000D02*
X89154000Y-83947000D01*
D26*
X94869000Y-79883000D02*
X95250000Y-80264000D01*
X95250000Y-80264000D02*
X95250000Y-82804000D01*
X93980000Y-79883000D02*
X94869000Y-79883000D01*
X93460000Y-77060000D02*
X93460000Y-79363000D01*
X93460000Y-79363000D02*
X93980000Y-79883000D01*
D23*
X83820000Y-84455000D02*
X86741000Y-84455000D01*
X95250000Y-82804000D02*
X95250000Y-83566000D01*
X95250000Y-83566000D02*
X94792800Y-84023200D01*
X94792800Y-84023200D02*
X94792800Y-87223600D01*
X95199200Y-87630000D02*
X95974000Y-87630000D01*
X94792800Y-87223600D02*
X95199200Y-87630000D01*
D22*
%TO.N,/5V*%
X68580000Y-66040000D02*
X68580000Y-60960000D01*
D25*
%TO.N,/P1_4*%
X63716000Y-85598000D02*
X63716000Y-87376000D01*
X73660000Y-91440000D02*
X71932800Y-89712800D01*
X71932800Y-89712800D02*
X65176400Y-89712800D01*
X63716000Y-88252400D02*
X63716000Y-87376000D01*
X65176400Y-89712800D02*
X63716000Y-88252400D01*
D26*
%TO.N,/P1_3*%
X83820000Y-81280000D02*
X83820000Y-79502000D01*
X89310000Y-75410000D02*
X87912000Y-75410000D01*
X87912000Y-75410000D02*
X84988400Y-78333600D01*
X84988400Y-78333600D02*
X83820000Y-79502000D01*
D25*
X78841600Y-89865200D02*
X77774800Y-89865200D01*
X77774800Y-89865200D02*
X76200000Y-91440000D01*
X81026000Y-87680800D02*
X78841600Y-89865200D01*
X81026000Y-87680800D02*
X81026000Y-84074000D01*
X81026000Y-84074000D02*
X83820000Y-81280000D01*
D26*
%TO.N,/P1_2*%
X86360000Y-77851000D02*
X86360000Y-81280000D01*
X89310000Y-75910000D02*
X88301000Y-75910000D01*
X88301000Y-75910000D02*
X86360000Y-77851000D01*
D25*
X86360000Y-81686400D02*
X86360000Y-81280000D01*
X84683600Y-82956400D02*
X86360000Y-81280000D01*
X83210400Y-82956400D02*
X84683600Y-82956400D01*
X81788000Y-84378800D02*
X83210400Y-82956400D01*
X81788000Y-87985600D02*
X81788000Y-84378800D01*
X78740000Y-91440000D02*
X78740000Y-91033600D01*
X78740000Y-91033600D02*
X81788000Y-87985600D01*
D26*
%TO.N,/P1_1*%
X86995000Y-79502000D02*
X88773000Y-81280000D01*
X86995000Y-77978000D02*
X86995000Y-79502000D01*
X89310000Y-76410000D02*
X88563000Y-76410000D01*
X88773000Y-81280000D02*
X88900000Y-81280000D01*
X88563000Y-76410000D02*
X86995000Y-77978000D01*
D25*
X81280000Y-89560400D02*
X82550000Y-88290400D01*
X81280000Y-91440000D02*
X81280000Y-89560400D01*
X83515200Y-83718400D02*
X86461600Y-83718400D01*
X82550000Y-88290400D02*
X82550000Y-84683600D01*
X82550000Y-84683600D02*
X83515200Y-83718400D01*
X86461600Y-83718400D02*
X88900000Y-81280000D01*
%TO.N,/P2_4*%
X91440000Y-86360000D02*
X96520000Y-91440000D01*
X91440000Y-81280000D02*
X91440000Y-86360000D01*
D26*
X92460000Y-80260000D02*
X91440000Y-81280000D01*
X92460000Y-77060000D02*
X92460000Y-80260000D01*
%TO.N,/P2_3*%
X92960000Y-80260000D02*
X93980000Y-81280000D01*
X92960000Y-77060000D02*
X92960000Y-80260000D01*
D25*
X93980000Y-81280000D02*
X93980000Y-87630000D01*
X93980000Y-87630000D02*
X96012000Y-89662000D01*
X97282000Y-89662000D02*
X99060000Y-91440000D01*
X96012000Y-89662000D02*
X97282000Y-89662000D01*
%TO.N,/P2_2*%
X97574000Y-85852000D02*
X97574000Y-87630000D01*
X97790000Y-87630000D02*
X97574000Y-87630000D01*
X101600000Y-91440000D02*
X97790000Y-87630000D01*
%TO.N,/P2_1*%
X99060000Y-86360000D02*
X104140000Y-91440000D01*
X99060000Y-81280000D02*
X99060000Y-86360000D01*
D26*
X93960000Y-77060000D02*
X93960000Y-79210000D01*
X93960000Y-79210000D02*
X94150000Y-79400000D01*
X97180000Y-79400000D02*
X99060000Y-81280000D01*
X94150000Y-79400000D02*
X97180000Y-79400000D01*
D25*
%TO.N,/P3_4*%
X119380000Y-91440000D02*
X117475000Y-89535000D01*
X117475000Y-89535000D02*
X103886000Y-89535000D01*
X101600000Y-87249000D02*
X101600000Y-81280000D01*
X103886000Y-89535000D02*
X101600000Y-87249000D01*
D26*
X96110000Y-76410000D02*
X96577600Y-76410000D01*
X96577600Y-76410000D02*
X97739200Y-77571600D01*
X101600000Y-80243998D02*
X101600000Y-81280000D01*
X97739200Y-77571600D02*
X98927602Y-77571600D01*
X98927602Y-77571600D02*
X101600000Y-80243998D01*
D25*
%TO.N,/P3_3*%
X104140000Y-87884000D02*
X104140000Y-81280000D01*
X121920000Y-91440000D02*
X119126000Y-88646000D01*
X104902000Y-88646000D02*
X104140000Y-87884000D01*
X119126000Y-88646000D02*
X104902000Y-88646000D01*
D26*
X96110000Y-75910000D02*
X96687200Y-75910000D01*
X96687200Y-75910000D02*
X97942400Y-77165200D01*
X97942400Y-77165200D02*
X99110800Y-77165200D01*
X99110800Y-77165200D02*
X101854000Y-79908400D01*
X102768400Y-79908400D02*
X104140000Y-81280000D01*
X101854000Y-79908400D02*
X102768400Y-79908400D01*
D25*
%TO.N,/P3_2*%
X124460000Y-91440000D02*
X120777000Y-87757000D01*
X120777000Y-87757000D02*
X107696000Y-87757000D01*
X106680000Y-86741000D02*
X106680000Y-81280000D01*
X107696000Y-87757000D02*
X106680000Y-86741000D01*
D26*
X103378000Y-79908400D02*
X105308400Y-79908400D01*
X102971600Y-79502000D02*
X103378000Y-79908400D01*
X102057200Y-79502000D02*
X102971600Y-79502000D01*
X96796800Y-75410000D02*
X98145600Y-76758800D01*
X105308400Y-79908400D02*
X106680000Y-81280000D01*
X96110000Y-75410000D02*
X96796800Y-75410000D01*
X99263200Y-76758800D02*
X99269590Y-76765190D01*
X99269590Y-76765190D02*
X99320390Y-76765190D01*
X98145600Y-76758800D02*
X99263200Y-76758800D01*
X99320390Y-76765190D02*
X102057200Y-79502000D01*
D25*
%TO.N,/P3_1*%
X127000000Y-91440000D02*
X122428000Y-86868000D01*
X122428000Y-86868000D02*
X110109000Y-86868000D01*
X109220000Y-85979000D02*
X109220000Y-81280000D01*
X110109000Y-86868000D02*
X109220000Y-85979000D01*
D26*
X107797600Y-79857600D02*
X109220000Y-81280000D01*
X103537300Y-79502000D02*
X105511600Y-79502000D01*
X103130900Y-79095600D02*
X103537300Y-79502000D01*
X102216498Y-79095600D02*
X103130900Y-79095600D01*
X105867200Y-79857600D02*
X107797600Y-79857600D01*
X96906400Y-74910000D02*
X98348800Y-76352400D01*
X105511600Y-79502000D02*
X105867200Y-79857600D01*
X99218790Y-76358790D02*
X99479688Y-76358790D01*
X96110000Y-74910000D02*
X96906400Y-74910000D01*
X98348800Y-76352400D02*
X99212400Y-76352400D01*
X99212400Y-76352400D02*
X99218790Y-76358790D01*
X99479688Y-76358790D02*
X102216498Y-79095600D01*
%TO.N,/P4_4*%
X98336690Y-69043510D02*
X98743168Y-68637030D01*
X96373990Y-69043510D02*
X98336690Y-69043510D01*
X98743168Y-68637030D02*
X100700067Y-68637030D01*
X95218450Y-69437050D02*
X95980450Y-69437050D01*
X94960000Y-70260000D02*
X94960000Y-69695500D01*
X95980450Y-69437050D02*
X96373990Y-69043510D01*
X94960000Y-69695500D02*
X95218450Y-69437050D01*
X103085980Y-68237020D02*
X103485990Y-67837010D01*
X100700067Y-68637030D02*
X101100077Y-68237020D01*
X101100077Y-68237020D02*
X103085980Y-68237020D01*
X103485990Y-67837010D02*
X107994490Y-67837010D01*
X107994490Y-67837010D02*
X108394500Y-67437000D01*
X108394500Y-67437000D02*
X110109000Y-67437000D01*
X110109000Y-67437000D02*
X110490000Y-67056000D01*
X110490000Y-67056000D02*
X110490000Y-65024000D01*
D25*
X110490000Y-65024000D02*
X116078000Y-59436000D01*
X118364000Y-59436000D02*
X121920000Y-55880000D01*
X116078000Y-59436000D02*
X118364000Y-59436000D01*
D26*
%TO.N,/P4_3*%
X103314500Y-67437000D02*
X107442000Y-67437000D01*
X102914490Y-67837010D02*
X103314500Y-67437000D01*
X100934388Y-67837010D02*
X102914490Y-67837010D01*
X100534378Y-68237020D02*
X100934388Y-67837010D01*
X98577480Y-68237020D02*
X100534378Y-68237020D01*
X98177470Y-68637030D02*
X98577480Y-68237020D01*
X97859970Y-68637030D02*
X98177470Y-68637030D01*
X97853500Y-68643500D02*
X97859970Y-68637030D01*
X92960000Y-69631550D02*
X93218000Y-69373550D01*
X93218000Y-69373550D02*
X93752149Y-69373550D01*
X93752149Y-69373550D02*
X94088659Y-69037040D01*
X94088659Y-69037040D02*
X95803159Y-69037040D01*
X96196699Y-68643500D02*
X97853500Y-68643500D01*
X92960000Y-70260000D02*
X92960000Y-69631550D01*
X95803159Y-69037040D02*
X96196699Y-68643500D01*
X107442000Y-67437000D02*
X107950000Y-66929000D01*
X107950000Y-66929000D02*
X107950000Y-65024000D01*
D25*
X107950000Y-65024000D02*
X114427000Y-58547000D01*
X116713000Y-58547000D02*
X119380000Y-55880000D01*
X114427000Y-58547000D02*
X116713000Y-58547000D01*
%TO.N,/P4_2*%
X112395000Y-57785000D02*
X115443000Y-57785000D01*
X104140000Y-66040000D02*
X112395000Y-57785000D01*
X115443000Y-57785000D02*
X116840000Y-56388000D01*
X116840000Y-56388000D02*
X116840000Y-55880000D01*
D26*
X102743000Y-67437000D02*
X104140000Y-66040000D01*
X100768698Y-67437000D02*
X102743000Y-67437000D01*
X100368689Y-67837010D02*
X100768698Y-67437000D01*
X96037480Y-68237020D02*
X98005980Y-68237020D01*
X98005980Y-68237020D02*
X98405990Y-67837010D01*
X92460000Y-69401500D02*
X92887960Y-68973540D01*
X92887960Y-68973540D02*
X93586460Y-68973540D01*
X98405990Y-67837010D02*
X100368689Y-67837010D01*
X93922970Y-68637030D02*
X95637470Y-68637030D01*
X92460000Y-70260000D02*
X92460000Y-69401500D01*
X93586460Y-68973540D02*
X93922970Y-68637030D01*
X95637470Y-68637030D02*
X96037480Y-68237020D01*
D25*
%TO.N,/P4_1*%
X101600000Y-66040000D02*
X111760000Y-55880000D01*
X111760000Y-55880000D02*
X114300000Y-55880000D01*
D26*
X98234500Y-67431198D02*
X98240302Y-67437000D01*
X97828689Y-67837010D02*
X98234500Y-67431198D01*
X100203000Y-67437000D02*
X101600000Y-66040000D01*
X98240302Y-67437000D02*
X100203000Y-67437000D01*
X91960000Y-69012500D02*
X92398970Y-68573530D01*
X91960000Y-70260000D02*
X91960000Y-69012500D01*
X92398970Y-68573530D02*
X93409169Y-68573530D01*
X95860188Y-67837010D02*
X97828689Y-67837010D01*
X95460179Y-68237020D02*
X95860188Y-67837010D01*
X93409169Y-68573530D02*
X93745679Y-68237020D01*
X93745679Y-68237020D02*
X95460179Y-68237020D01*
D25*
%TO.N,/P5_4*%
X99060000Y-66040000D02*
X99060000Y-55880000D01*
D26*
X91460000Y-68623500D02*
X91909980Y-68173520D01*
X97663000Y-67437000D02*
X99060000Y-66040000D01*
X93243480Y-68173520D02*
X93579990Y-67837010D01*
X91460000Y-70260000D02*
X91460000Y-68623500D01*
X91909980Y-68173520D02*
X93243480Y-68173520D01*
X95694500Y-67437000D02*
X97663000Y-67437000D01*
X95294490Y-67837010D02*
X95694500Y-67437000D01*
X93579990Y-67837010D02*
X95294490Y-67837010D01*
D25*
%TO.N,/P5_3*%
X96520000Y-66040000D02*
X96520000Y-55880000D01*
D26*
X95123000Y-67437000D02*
X96520000Y-66040000D01*
X93408500Y-67437000D02*
X95123000Y-67437000D01*
X93071990Y-67773510D02*
X93408500Y-67437000D01*
X91420990Y-67773510D02*
X93071990Y-67773510D01*
X90960000Y-70260000D02*
X90960000Y-68234500D01*
X90960000Y-68234500D02*
X91420990Y-67773510D01*
D25*
%TO.N,/P5_2*%
X93980000Y-58320000D02*
X93980000Y-55880000D01*
X93980000Y-66040000D02*
X93980000Y-58320000D01*
D26*
X90460000Y-70260000D02*
X90460000Y-67972500D01*
X90460000Y-67972500D02*
X91059000Y-67373500D01*
X92646500Y-67373500D02*
X93980000Y-66040000D01*
X91059000Y-67373500D02*
X92646500Y-67373500D01*
D25*
%TO.N,/P5_1*%
X91440000Y-66040000D02*
X91440000Y-55880000D01*
D26*
X89960000Y-70260000D02*
X89960000Y-67824800D01*
X91440000Y-66344800D02*
X91440000Y-66040000D01*
X89960000Y-67824800D02*
X91440000Y-66344800D01*
D23*
%TO.N,/P6_4*%
X88900000Y-66040000D02*
X88646000Y-66040000D01*
X88646000Y-66040000D02*
X80137000Y-57531000D01*
X80137000Y-57531000D02*
X76581000Y-57531000D01*
X76200000Y-57150000D02*
X76200000Y-55880000D01*
X76581000Y-57531000D02*
X76200000Y-57150000D01*
D26*
X89310000Y-71410000D02*
X88110500Y-71410000D01*
X88110500Y-71410000D02*
X87757000Y-71056500D01*
X87757000Y-71056500D02*
X83185000Y-71056500D01*
X83185000Y-71056500D02*
X82613500Y-70485000D01*
X82613500Y-70485000D02*
X82613500Y-68643500D01*
X82613500Y-68643500D02*
X83248500Y-68008500D01*
X83248500Y-68008500D02*
X87312500Y-68008500D01*
X88900000Y-66421000D02*
X88900000Y-66040000D01*
X87312500Y-68008500D02*
X88900000Y-66421000D01*
D23*
%TO.N,/P6_3*%
X86360000Y-66040000D02*
X86360000Y-64643000D01*
X86360000Y-64643000D02*
X79883000Y-58166000D01*
X79883000Y-58166000D02*
X74168000Y-58166000D01*
X73660000Y-57658000D02*
X73660000Y-55880000D01*
X74168000Y-58166000D02*
X73660000Y-57658000D01*
D26*
X89310000Y-71910000D02*
X87969698Y-71910000D01*
X87969698Y-71910000D02*
X87541689Y-71481990D01*
X87541689Y-71481990D02*
X82969688Y-71481990D01*
X82969688Y-71481990D02*
X82188010Y-70700312D01*
X82188010Y-70700312D02*
X82188010Y-68433990D01*
X82188010Y-68433990D02*
X83058000Y-67564000D01*
X83058000Y-67564000D02*
X85090000Y-67564000D01*
X86360000Y-66294000D02*
X86360000Y-66040000D01*
X85090000Y-67564000D02*
X86360000Y-66294000D01*
D23*
%TO.N,/P6_2*%
X83820000Y-66040000D02*
X83820000Y-62992000D01*
X83820000Y-62992000D02*
X79629000Y-58801000D01*
X79629000Y-58801000D02*
X71755000Y-58801000D01*
X71120000Y-58166000D02*
X71120000Y-55880000D01*
X71755000Y-58801000D02*
X71120000Y-58166000D01*
D26*
X83566000Y-66040000D02*
X83820000Y-66040000D01*
X83312000Y-66548000D02*
X83820000Y-66040000D01*
X87376000Y-71882000D02*
X82740500Y-71882000D01*
X82740500Y-71882000D02*
X81724500Y-70866000D01*
X89310000Y-72410000D02*
X87904000Y-72410000D01*
X87904000Y-72410000D02*
X87376000Y-71882000D01*
X81724500Y-70866000D02*
X81724500Y-68135500D01*
X81724500Y-68135500D02*
X83312000Y-66548000D01*
D23*
%TO.N,/P6_1*%
X81280000Y-66040000D02*
X81280000Y-61341000D01*
X81280000Y-61341000D02*
X79375000Y-59436000D01*
X68580000Y-58547000D02*
X68580000Y-55880000D01*
X69469000Y-59436000D02*
X68580000Y-58547000D01*
D26*
X89310000Y-73410000D02*
X88642000Y-73410000D01*
X88642000Y-73410000D02*
X88138000Y-73914000D01*
X88138000Y-73914000D02*
X82296000Y-73914000D01*
X81280000Y-72898000D02*
X81280000Y-66040000D01*
X82296000Y-73914000D02*
X81280000Y-72898000D01*
D23*
X79375000Y-59436000D02*
X76250800Y-59436000D01*
X76250800Y-59436000D02*
X69469000Y-59436000D01*
D26*
%TO.N,/P7_10*%
X94960000Y-77060000D02*
X94960000Y-77789600D01*
X94960000Y-77789600D02*
X95097600Y-77927200D01*
X124714000Y-76200000D02*
X127000000Y-76200000D01*
X127000000Y-76200000D02*
X128270000Y-74930000D01*
X124053600Y-76860400D02*
X124714000Y-76200000D01*
X124053600Y-79095600D02*
X124053600Y-76860400D01*
X108363298Y-79857600D02*
X123291600Y-79857600D01*
X106026498Y-79451200D02*
X107956898Y-79451200D01*
X105670900Y-79095600D02*
X106026498Y-79451200D01*
X123291600Y-79857600D02*
X124053600Y-79095600D01*
X102514400Y-78435200D02*
X102768400Y-78689200D01*
X102768400Y-78689200D02*
X103276400Y-78689200D01*
X103276400Y-78689200D02*
X103282790Y-78695590D01*
X103282790Y-78695590D02*
X103333590Y-78695590D01*
X107956898Y-79451200D02*
X108363298Y-79857600D01*
X103333590Y-78695590D02*
X103733600Y-79095600D01*
X103733600Y-79095600D02*
X105670900Y-79095600D01*
%TO.N,/P7_4*%
X89960000Y-77060000D02*
X89360800Y-77060000D01*
X89360800Y-77060000D02*
X89204800Y-77216000D01*
X102006400Y-77724000D02*
X101904800Y-77825600D01*
X102971600Y-77724000D02*
X102006400Y-77724000D01*
X103886000Y-78638400D02*
X102971600Y-77724000D01*
X105816400Y-78638400D02*
X103886000Y-78638400D01*
X108153200Y-78994000D02*
X106172000Y-78994000D01*
X125323600Y-74930000D02*
X123596400Y-76657200D01*
X125730000Y-74930000D02*
X125323600Y-74930000D01*
X123596400Y-76657200D02*
X123596400Y-78987102D01*
X123596400Y-78987102D02*
X123183102Y-79400400D01*
X106172000Y-78994000D02*
X105816400Y-78638400D01*
X123183102Y-79400400D02*
X108559600Y-79400400D01*
X108559600Y-79400400D02*
X108153200Y-78994000D01*
%TO.N,/P7_9*%
X96110000Y-72910000D02*
X97473200Y-72910000D01*
X97473200Y-72910000D02*
X97637600Y-72745600D01*
X125149998Y-71120000D02*
X127000000Y-71120000D01*
X125099198Y-71069200D02*
X125149998Y-71120000D01*
X99110800Y-71323200D02*
X99364800Y-71069200D01*
X127000000Y-71120000D02*
X128270000Y-72390000D01*
X99364800Y-71069200D02*
X125099198Y-71069200D01*
%TO.N,/P7_3*%
X96110000Y-73410000D02*
X98192400Y-73410000D01*
X98192400Y-73410000D02*
X98348800Y-73253600D01*
X124815600Y-71475600D02*
X125730000Y-72390000D01*
X103276400Y-71729600D02*
X103530400Y-71475600D01*
X103530400Y-71475600D02*
X124815600Y-71475600D01*
%TO.N,/P7_8*%
X127019999Y-68599999D02*
X128270000Y-69850000D01*
X125049601Y-68599999D02*
X127019999Y-68599999D01*
X123393200Y-70256400D02*
X125049601Y-68599999D01*
X97993200Y-70256400D02*
X123393200Y-70256400D01*
X96110000Y-71410000D02*
X96839600Y-71410000D01*
X96839600Y-71410000D02*
X97993200Y-70256400D01*
%TO.N,/P7_2*%
X125679200Y-69900800D02*
X125730000Y-69850000D01*
X125476000Y-69900800D02*
X125679200Y-69900800D01*
X98196400Y-70662800D02*
X124714000Y-70662800D01*
X96110000Y-71910000D02*
X96949200Y-71910000D01*
X124714000Y-70662800D02*
X125476000Y-69900800D01*
X96949200Y-71910000D02*
X98196400Y-70662800D01*
D25*
%TO.N,/P7_7*%
X128270000Y-65328800D02*
X128270000Y-67310000D01*
X126695200Y-63754000D02*
X128270000Y-65328800D01*
X114300000Y-66040000D02*
X116586000Y-63754000D01*
X116586000Y-63754000D02*
X126695200Y-63754000D01*
D26*
X103270170Y-68637030D02*
X103670180Y-68237020D01*
X98501200Y-69443600D02*
X98501280Y-69443520D01*
X108191380Y-68237020D02*
X108591390Y-67837010D01*
X96133198Y-69850000D02*
X96539598Y-69443600D01*
X112877600Y-67462400D02*
X114300000Y-66040000D01*
X98908700Y-69037200D02*
X100888800Y-69037200D01*
X98502381Y-69443519D02*
X98908700Y-69037200D01*
X100888800Y-69037200D02*
X101288970Y-68637030D01*
X98501280Y-69443520D02*
X98502381Y-69443519D01*
X101288970Y-68637030D02*
X103270170Y-68637030D01*
X110528689Y-67837010D02*
X110903299Y-67462400D01*
X108591390Y-67837010D02*
X110528689Y-67837010D01*
X95460000Y-70097200D02*
X95707200Y-69850000D01*
X110903299Y-67462400D02*
X112877600Y-67462400D01*
X95460000Y-70260000D02*
X95460000Y-70097200D01*
X103670180Y-68237020D02*
X108191380Y-68237020D01*
X95707200Y-69850000D02*
X96133198Y-69850000D01*
X96539598Y-69443600D02*
X98501200Y-69443600D01*
%TO.N,/P7_1*%
X125628400Y-67310000D02*
X125730000Y-67310000D01*
X97790000Y-69850000D02*
X123088400Y-69850000D01*
X96110000Y-70910000D02*
X96730000Y-70910000D01*
X123088400Y-69850000D02*
X125628400Y-67310000D01*
X96730000Y-70910000D02*
X97790000Y-69850000D01*
D27*
%TO.N,Net-(D1-Pad1)*%
X94460000Y-70260000D02*
X94460000Y-69759409D01*
X94460000Y-69759409D02*
X94337631Y-69637040D01*
D25*
X89154000Y-61430000D02*
X88684000Y-60960000D01*
X89154000Y-64211200D02*
X89154000Y-61430000D01*
D26*
X93960000Y-70014671D02*
X94337631Y-69637040D01*
X93960000Y-70260000D02*
X93960000Y-70014671D01*
D25*
%TO.N,Net-(D1-Pad2)*%
X87084000Y-59436000D02*
X87084000Y-60960000D01*
%TO.N,Net-(IC2-Pad1)*%
X60998000Y-78486000D02*
X62700000Y-78486000D01*
X62700000Y-78486000D02*
X62700000Y-76695200D01*
X63500000Y-75960000D02*
X63079600Y-75960000D01*
X62700000Y-76339600D02*
X62700000Y-76695200D01*
X63079600Y-75960000D02*
X62700000Y-76339600D01*
%TO.N,Net-(R7-Pad2)*%
X80264000Y-82296000D02*
X81280000Y-81280000D01*
X80264000Y-87325200D02*
X80264000Y-82296000D01*
X66090800Y-88849200D02*
X78740000Y-88849200D01*
X65316000Y-87376000D02*
X65316000Y-88074400D01*
X78740000Y-88849200D02*
X80264000Y-87325200D01*
X65316000Y-88074400D02*
X66090800Y-88849200D01*
%TO.N,Net-(R8-Pad2)*%
X96520000Y-81280000D02*
X96520000Y-84023200D01*
X95974000Y-84569200D02*
X95974000Y-85852000D01*
X96520000Y-84023200D02*
X95974000Y-84569200D01*
%TD*%
D28*
%TO.N,1v2*%
G36*
X59032257Y-66180769D02*
G01*
X59121955Y-66217923D01*
X59198976Y-66277024D01*
X59258077Y-66354045D01*
X59295231Y-66443743D01*
X59309000Y-66548328D01*
X59309000Y-77215672D01*
X59295231Y-77320257D01*
X59258077Y-77409955D01*
X59198976Y-77486976D01*
X59121955Y-77546077D01*
X59032257Y-77583231D01*
X58927672Y-77597000D01*
X53848328Y-77597000D01*
X53743743Y-77583231D01*
X53654045Y-77546077D01*
X53577024Y-77486976D01*
X53517923Y-77409955D01*
X53480769Y-77320257D01*
X53467000Y-77215672D01*
X53467000Y-66548328D01*
X53480769Y-66443743D01*
X53517923Y-66354045D01*
X53577024Y-66277024D01*
X53654045Y-66217923D01*
X53743743Y-66180769D01*
X53848328Y-66167000D01*
X58927672Y-66167000D01*
X59032257Y-66180769D01*
G37*
X59032257Y-66180769D02*
X59121955Y-66217923D01*
X59198976Y-66277024D01*
X59258077Y-66354045D01*
X59295231Y-66443743D01*
X59309000Y-66548328D01*
X59309000Y-77215672D01*
X59295231Y-77320257D01*
X59258077Y-77409955D01*
X59198976Y-77486976D01*
X59121955Y-77546077D01*
X59032257Y-77583231D01*
X58927672Y-77597000D01*
X53848328Y-77597000D01*
X53743743Y-77583231D01*
X53654045Y-77546077D01*
X53577024Y-77486976D01*
X53517923Y-77409955D01*
X53480769Y-77320257D01*
X53467000Y-77215672D01*
X53467000Y-66548328D01*
X53480769Y-66443743D01*
X53517923Y-66354045D01*
X53577024Y-66277024D01*
X53654045Y-66217923D01*
X53743743Y-66180769D01*
X53848328Y-66167000D01*
X58927672Y-66167000D01*
X59032257Y-66180769D01*
%TD*%
M02*
