M48
; DRILL file {KiCad 5.1.6-c6e7f7d~87~ubuntu18.04.1} date Sun Nov  8 14:53:37 2020
; FORMAT={-:-/ absolute / inch / decimal}
; #@! TF.CreationDate,2020-11-08T14:53:37+00:00
; #@! TF.GenerationSoftware,Kicad,Pcbnew,5.1.6-c6e7f7d~87~ubuntu18.04.1
; #@! TF.FileFunction,Plated,1,2,PTH
FMAT,2
INCH
T1C0.0118
T2C0.0157
T3C0.0315
T4C0.0394
%
G90
G05
T1
X3.05Y-3.096
X3.05Y-3.302
X3.465Y-3.07
X3.465Y-3.105
X3.5Y-3.12
X3.512Y-3.04
X3.53Y-3.14
X3.7141Y-2.7416
X3.744Y-3.068
X3.844Y-2.864
X3.872Y-2.884
X3.902Y-2.808
X3.992Y-2.88
X3.992Y-2.94
X3.992Y-3.008
X4.012Y-3.064
X4.036Y-3.088
X4.066Y-2.824
T2
X2.404Y-2.7
X2.58Y-3.09
X3.0Y-2.725
X3.144Y-2.994
X3.286Y-2.74
X3.286Y-2.87
X3.29Y-3.4
X3.386Y-2.964
X3.438Y-2.754
X3.44Y-2.874
X3.51Y-2.528
X3.51Y-3.305
X3.608Y-3.132
X3.65Y-3.226
X3.65Y-3.294
X3.75Y-3.26
X3.7865Y-3.0485
X3.876Y-2.838
X3.882Y-2.922
X3.902Y-3.116
X3.95Y-2.548
X4.036Y-2.85
X4.116Y-2.864
X4.1275Y-3.035
X3.587Y-2.837
X3.587Y-2.9
X3.587Y-2.963
X3.65Y-2.837
X3.65Y-2.9
X3.65Y-2.963
X3.713Y-2.837
X3.713Y-2.9
X3.713Y-2.963
T3
X2.7Y-2.6
X2.7Y-3.2
X2.8Y-2.6
X2.8Y-3.2
X2.9Y-2.6
X2.9Y-3.2
X3.0Y-2.6
X3.0Y-3.2
X3.1Y-2.6
X3.1Y-3.2
X3.2Y-2.6
X3.2Y-3.2
X3.3Y-2.6
X3.3Y-3.2
X3.4Y-2.6
X3.4Y-3.2
X3.5Y-2.6
X3.5Y-3.2
X3.6Y-2.6
X3.6Y-3.2
X3.7Y-2.6
X3.7Y-3.2
X3.8Y-2.6
X3.8Y-3.2
X3.9Y-2.6
X3.9Y-3.2
X4.0Y-2.6
X4.0Y-3.2
X4.1Y-2.6
X4.1Y-3.2
X4.2Y-2.6
X4.2Y-3.2
X4.3Y-2.6
X4.3Y-3.2
X4.4Y-2.6
X4.4Y-3.2
X4.5Y-2.6
X4.5Y-3.2
X4.6Y-2.6
X4.6Y-3.2
T4
X3.6Y-3.6
X3.7Y-3.6
X3.8Y-3.6
X3.9Y-3.6
X4.0Y-3.6
X4.1Y-3.6
X3.6Y-2.2
X3.7Y-2.2
X3.8Y-2.2
X3.9Y-2.2
X4.0Y-2.2
X4.1Y-2.2
X2.7Y-3.6
X2.8Y-3.6
X2.9Y-3.6
X3.0Y-3.6
X3.1Y-3.6
X3.2Y-3.6
X4.5Y-2.2
X4.6Y-2.2
X4.7Y-2.2
X4.8Y-2.2
X4.9Y-2.2
X5.0Y-2.2
X2.7Y-2.2
X2.8Y-2.2
X2.9Y-2.2
X3.0Y-2.2
X3.1Y-2.2
X3.2Y-2.2
X2.7Y-2.4
X2.8Y-2.4
X2.9Y-2.4
X3.0Y-2.4
X3.1Y-2.4
X2.7Y-3.4
X2.8Y-3.4
X2.9Y-3.4
X3.0Y-3.4
X3.1Y-3.4
X4.95Y-2.65
X4.95Y-2.75
X4.95Y-2.85
X4.95Y-2.95
X4.95Y-3.05
X4.95Y-3.15
X5.05Y-2.65
X5.05Y-2.75
X5.05Y-2.85
X5.05Y-2.95
X5.05Y-3.05
X5.05Y-3.15
X4.5Y-3.6
X4.6Y-3.6
X4.7Y-3.6
X4.8Y-3.6
X4.9Y-3.6
X5.0Y-3.6
T0
M30
