%TF.GenerationSoftware,KiCad,Pcbnew,5.1.6-c6e7f7d~87~ubuntu18.04.1*%
%TF.CreationDate,2020-11-08T15:05:41+00:00*%
%TF.ProjectId,icepill,69636570-696c-46c2-9e6b-696361645f70,1*%
%TF.SameCoordinates,Original*%
%TF.FileFunction,Soldermask,Top*%
%TF.FilePolarity,Negative*%
%FSLAX46Y46*%
G04 Gerber Fmt 4.6, Leading zero omitted, Abs format (unit mm)*
G04 Created by KiCad (PCBNEW 5.1.6-c6e7f7d~87~ubuntu18.04.1) date 2020-11-08 15:05:41*
%MOMM*%
%LPD*%
G01*
G04 APERTURE LIST*
%ADD10R,1.050000X1.100000*%
%ADD11R,2.500000X3.900000*%
%ADD12R,2.500000X1.400000*%
%ADD13R,1.250000X1.550000*%
%ADD14O,1.300000X2.100000*%
%ADD15C,2.000000*%
%ADD16R,2.000000X2.000000*%
%ADD17C,6.300000*%
%ADD18C,0.700000*%
%ADD19R,0.800000X0.350000*%
%ADD20R,0.350000X0.800000*%
%ADD21R,0.800000X0.800000*%
G04 APERTURE END LIST*
D10*
%TO.C,R8*%
X95974000Y-85852000D03*
X97574000Y-85852000D03*
%TD*%
%TO.C,R7*%
X65316000Y-87376000D03*
X63716000Y-87376000D03*
%TD*%
%TO.C,R6*%
X64300000Y-78486000D03*
X62700000Y-78486000D03*
%TD*%
%TO.C,R5*%
X60998000Y-78486000D03*
X59398000Y-78486000D03*
%TD*%
D11*
%TO.C,IC2*%
X57400000Y-73660000D03*
D12*
X63500000Y-71360000D03*
X63500000Y-75960000D03*
X63500000Y-73660000D03*
%TD*%
D13*
%TO.C,C9*%
X79872000Y-77470000D03*
X81672000Y-77470000D03*
%TD*%
%TO.C,C8*%
X62346000Y-68580000D03*
X64146000Y-68580000D03*
%TD*%
%TO.C,C6*%
X104849500Y-75692000D03*
X103049500Y-75692000D03*
%TD*%
D14*
%TO.C,U1*%
X68580000Y-66040000D03*
X71120000Y-66040000D03*
X73660000Y-66040000D03*
X76200000Y-66040000D03*
X78740000Y-66040000D03*
X81280000Y-66040000D03*
X83820000Y-66040000D03*
X86360000Y-66040000D03*
X88900000Y-66040000D03*
X91440000Y-66040000D03*
X93980000Y-66040000D03*
X96520000Y-66040000D03*
X99060000Y-66040000D03*
X101600000Y-66040000D03*
X104140000Y-66040000D03*
X106680000Y-66040000D03*
X109220000Y-66040000D03*
X111760000Y-66040000D03*
X114300000Y-66040000D03*
X116840000Y-66040000D03*
X116840000Y-81280000D03*
X114300000Y-81280000D03*
X111760000Y-81280000D03*
X109220000Y-81280000D03*
X106680000Y-81280000D03*
X104140000Y-81280000D03*
X101600000Y-81280000D03*
X99060000Y-81280000D03*
X96520000Y-81280000D03*
X93980000Y-81280000D03*
X91440000Y-81280000D03*
X88900000Y-81280000D03*
X86360000Y-81280000D03*
X83820000Y-81280000D03*
X81280000Y-81280000D03*
X78740000Y-81280000D03*
X76200000Y-81280000D03*
X73660000Y-81280000D03*
X71120000Y-81280000D03*
G36*
G01*
X68905000Y-82330000D02*
X68255000Y-82330000D01*
G75*
G02*
X67930000Y-82005000I0J325000D01*
G01*
X67930000Y-80555000D01*
G75*
G02*
X68255000Y-80230000I325000J0D01*
G01*
X68905000Y-80230000D01*
G75*
G02*
X69230000Y-80555000I0J-325000D01*
G01*
X69230000Y-82005000D01*
G75*
G02*
X68905000Y-82330000I-325000J0D01*
G01*
G37*
%TD*%
D10*
%TO.C,D1*%
X87084000Y-60960000D03*
X88684000Y-60960000D03*
%TD*%
%TO.C,R4*%
X87084000Y-59436000D03*
X88684000Y-59436000D03*
%TD*%
%TO.C,R3*%
X63716000Y-85598000D03*
X65316000Y-85598000D03*
%TD*%
%TO.C,R2*%
X97574000Y-87630000D03*
X95974000Y-87630000D03*
%TD*%
D15*
%TO.C,J6*%
X81280000Y-55880000D03*
X78740000Y-55880000D03*
X76200000Y-55880000D03*
X73660000Y-55880000D03*
X71120000Y-55880000D03*
D16*
X68580000Y-55880000D03*
%TD*%
D15*
%TO.C,J5*%
X104140000Y-55880000D03*
X101600000Y-55880000D03*
X99060000Y-55880000D03*
X96520000Y-55880000D03*
X93980000Y-55880000D03*
D16*
X91440000Y-55880000D03*
%TD*%
D15*
%TO.C,J4*%
X127000000Y-55880000D03*
X124460000Y-55880000D03*
X121920000Y-55880000D03*
X119380000Y-55880000D03*
X116840000Y-55880000D03*
D16*
X114300000Y-55880000D03*
%TD*%
D15*
%TO.C,J3*%
X114300000Y-91440000D03*
X116840000Y-91440000D03*
X119380000Y-91440000D03*
X121920000Y-91440000D03*
X124460000Y-91440000D03*
D16*
X127000000Y-91440000D03*
%TD*%
D15*
%TO.C,J2*%
X91440000Y-91440000D03*
X93980000Y-91440000D03*
X96520000Y-91440000D03*
X99060000Y-91440000D03*
X101600000Y-91440000D03*
D16*
X104140000Y-91440000D03*
%TD*%
D15*
%TO.C,J1*%
X68580000Y-91440000D03*
X71120000Y-91440000D03*
X73660000Y-91440000D03*
X76200000Y-91440000D03*
X78740000Y-91440000D03*
D16*
X81280000Y-91440000D03*
%TD*%
D17*
%TO.C,X4*%
X55880000Y-54610000D03*
D18*
X55880000Y-52110000D03*
X58380000Y-54610000D03*
X55880000Y-57110000D03*
X53380000Y-54610000D03*
X54080000Y-52810000D03*
X57680000Y-52810000D03*
X54080000Y-56410000D03*
X57680000Y-56410000D03*
%TD*%
D17*
%TO.C,X3*%
X133350000Y-54610000D03*
D18*
X133350000Y-52110000D03*
X135850000Y-54610000D03*
X133350000Y-57110000D03*
X130850000Y-54610000D03*
X131550000Y-52810000D03*
X135150000Y-52810000D03*
X131550000Y-56410000D03*
X135150000Y-56410000D03*
%TD*%
D17*
%TO.C,X2*%
X133350000Y-92710000D03*
D18*
X133350000Y-90210000D03*
X135850000Y-92710000D03*
X133350000Y-95210000D03*
X130850000Y-92710000D03*
X131550000Y-90910000D03*
X135150000Y-90910000D03*
X131550000Y-94510000D03*
X135150000Y-94510000D03*
%TD*%
D17*
%TO.C,X1*%
X55880000Y-92710000D03*
D18*
X55880000Y-90210000D03*
X58380000Y-92710000D03*
X55880000Y-95210000D03*
X53380000Y-92710000D03*
X54080000Y-90910000D03*
X57680000Y-90910000D03*
X54080000Y-94510000D03*
X57680000Y-94510000D03*
%TD*%
D10*
%TO.C,R1*%
X102959000Y-73914000D03*
X104559000Y-73914000D03*
%TD*%
D15*
%TO.C,J7*%
X128270000Y-80010000D03*
X125730000Y-80010000D03*
X128270000Y-77470000D03*
X125730000Y-77470000D03*
X128270000Y-74930000D03*
X125730000Y-74930000D03*
X128270000Y-72390000D03*
X125730000Y-72390000D03*
X128270000Y-69850000D03*
X125730000Y-69850000D03*
X128270000Y-67310000D03*
D16*
X125730000Y-67310000D03*
%TD*%
D15*
%TO.C,J9*%
X78740000Y-60960000D03*
X76200000Y-60960000D03*
X73660000Y-60960000D03*
X71120000Y-60960000D03*
D16*
X68580000Y-60960000D03*
%TD*%
D15*
%TO.C,J8*%
X78740000Y-86360000D03*
X76200000Y-86360000D03*
X73660000Y-86360000D03*
X71120000Y-86360000D03*
D16*
X68580000Y-86360000D03*
%TD*%
D19*
%TO.C,IC1*%
X89310000Y-70910000D03*
X89310000Y-71410000D03*
X89310000Y-71910000D03*
X89310000Y-72410000D03*
X89310000Y-72910000D03*
X89310000Y-73410000D03*
X89310000Y-73910000D03*
X89310000Y-74410000D03*
X89310000Y-74910000D03*
X89310000Y-75410000D03*
X89310000Y-75910000D03*
X89310000Y-76410000D03*
D20*
X89960000Y-77060000D03*
X90460000Y-77060000D03*
X90960000Y-77060000D03*
X91460000Y-77060000D03*
X91960000Y-77060000D03*
X92460000Y-77060000D03*
X92960000Y-77060000D03*
X93460000Y-77060000D03*
X93960000Y-77060000D03*
X94460000Y-77060000D03*
X94960000Y-77060000D03*
X95460000Y-77060000D03*
D19*
X96110000Y-76410000D03*
X96110000Y-75910000D03*
X96110000Y-75410000D03*
X96110000Y-74910000D03*
X96110000Y-74410000D03*
X96110000Y-73910000D03*
X96110000Y-73410000D03*
X96110000Y-72910000D03*
X96110000Y-72410000D03*
X96110000Y-71910000D03*
X96110000Y-71410000D03*
X96110000Y-70910000D03*
D20*
X95460000Y-70260000D03*
X94960000Y-70260000D03*
X94460000Y-70260000D03*
X93960000Y-70260000D03*
X93460000Y-70260000D03*
X92960000Y-70260000D03*
X92460000Y-70260000D03*
X91960000Y-70260000D03*
X91460000Y-70260000D03*
X90960000Y-70260000D03*
X90460000Y-70260000D03*
X89960000Y-70260000D03*
D21*
X90610000Y-71560000D03*
X90610000Y-72960000D03*
X90610000Y-74360000D03*
X90610000Y-75760000D03*
X92010000Y-71560000D03*
X92010000Y-72960000D03*
X92010000Y-74360000D03*
X92010000Y-75760000D03*
X93410000Y-71560000D03*
X93410000Y-72960000D03*
X93410000Y-74360000D03*
X93410000Y-75760000D03*
X94810000Y-71560000D03*
X94810000Y-72960000D03*
X94810000Y-74360000D03*
X94810000Y-75760000D03*
%TD*%
D10*
%TO.C,C7*%
X101384000Y-75438000D03*
X99784000Y-75438000D03*
%TD*%
%TO.C,C5*%
X101384000Y-73914000D03*
X99784000Y-73914000D03*
%TD*%
%TO.C,C4*%
X84594800Y-72898000D03*
X86194800Y-72898000D03*
%TD*%
%TO.C,C3*%
X101384000Y-72390000D03*
X99784000Y-72390000D03*
%TD*%
%TO.C,C2*%
X97777200Y-78536800D03*
X96177200Y-78536800D03*
%TD*%
%TO.C,C1*%
X84594800Y-69596000D03*
X86194800Y-69596000D03*
%TD*%
M02*
