M48
; DRILL file {KiCad 5.1.6-c6e7f7d~87~ubuntu18.04.1} date Sun Nov  8 15:05:42 2020
; FORMAT={-:-/ absolute / inch / decimal}
; #@! TF.CreationDate,2020-11-08T15:05:42+00:00
; #@! TF.GenerationSoftware,Kicad,Pcbnew,5.1.6-c6e7f7d~87~ubuntu18.04.1
; #@! TF.FileFunction,NonPlated,1,2,NPTH
FMAT,2
INCH
T1C0.0236
T2C0.1299
%
G90
G05
T1
X2.1016Y-3.65
X2.1291Y-3.5791
X2.1291Y-3.7209
X2.2Y-3.5516
X2.2Y-3.7484
X2.2709Y-3.5791
X2.2709Y-3.7209
X2.2984Y-3.65
X5.1516Y-2.15
X5.1791Y-2.0791
X5.1791Y-2.2209
X5.25Y-2.0516
X5.25Y-2.2484
X5.3209Y-2.0791
X5.3209Y-2.2209
X5.3484Y-2.15
X2.1016Y-2.15
X2.1291Y-2.0791
X2.1291Y-2.2209
X2.2Y-2.0516
X2.2Y-2.2484
X2.2709Y-2.0791
X2.2709Y-2.2209
X2.2984Y-2.15
X5.1516Y-3.65
X5.1791Y-3.5791
X5.1791Y-3.7209
X5.25Y-3.5516
X5.25Y-3.7484
X5.3209Y-3.5791
X5.3209Y-3.7209
X5.3484Y-3.65
T2
X2.2Y-3.65
X5.25Y-2.15
X2.2Y-2.15
X5.25Y-3.65
T0
M30
