%TF.GenerationSoftware,KiCad,Pcbnew,5.1.6-c6e7f7d~87~ubuntu18.04.1*%
%TF.CreationDate,2020-11-08T03:55:42+00:00*%
%TF.ProjectId,icepill,69636570-696c-46c2-9e6b-696361645f70,1*%
%TF.SameCoordinates,Original*%
%TF.FileFunction,Legend,Top*%
%TF.FilePolarity,Positive*%
%FSLAX46Y46*%
G04 Gerber Fmt 4.6, Leading zero omitted, Abs format (unit mm)*
G04 Created by KiCad (PCBNEW 5.1.6-c6e7f7d~87~ubuntu18.04.1) date 2020-11-08 03:55:42*
%MOMM*%
%LPD*%
G01*
G04 APERTURE LIST*
%ADD10C,0.150000*%
%ADD11C,0.120000*%
%ADD12R,1.050000X1.100000*%
%ADD13R,2.500000X3.900000*%
%ADD14R,2.500000X1.400000*%
%ADD15R,1.250000X1.550000*%
%ADD16O,1.300000X2.100000*%
%ADD17C,2.000000*%
%ADD18R,2.000000X2.000000*%
%ADD19C,6.300000*%
%ADD20C,0.700000*%
%ADD21R,0.800000X0.350000*%
%ADD22R,0.350000X0.800000*%
%ADD23R,0.800000X0.800000*%
G04 APERTURE END LIST*
D10*
X56832952Y-88209380D02*
X56499619Y-87733190D01*
X56261523Y-88209380D02*
X56261523Y-87209380D01*
X56642476Y-87209380D01*
X56737714Y-87257000D01*
X56785333Y-87304619D01*
X56832952Y-87399857D01*
X56832952Y-87542714D01*
X56785333Y-87637952D01*
X56737714Y-87685571D01*
X56642476Y-87733190D01*
X56261523Y-87733190D01*
X57166285Y-87209380D02*
X57785333Y-87209380D01*
X57451999Y-87590333D01*
X57594857Y-87590333D01*
X57690095Y-87637952D01*
X57737714Y-87685571D01*
X57785333Y-87780809D01*
X57785333Y-88018904D01*
X57737714Y-88114142D01*
X57690095Y-88161761D01*
X57594857Y-88209380D01*
X57309142Y-88209380D01*
X57213904Y-88161761D01*
X57166285Y-88114142D01*
X58213904Y-88114142D02*
X58261523Y-88161761D01*
X58213904Y-88209380D01*
X58166285Y-88161761D01*
X58213904Y-88114142D01*
X58213904Y-88209380D01*
X58213904Y-87590333D02*
X58261523Y-87637952D01*
X58213904Y-87685571D01*
X58166285Y-87637952D01*
X58213904Y-87590333D01*
X58213904Y-87685571D01*
X59975809Y-88209380D02*
X59404380Y-88209380D01*
X59690095Y-88209380D02*
X59690095Y-87209380D01*
X59594857Y-87352238D01*
X59499619Y-87447476D01*
X59404380Y-87495095D01*
X60594857Y-87209380D02*
X60690095Y-87209380D01*
X60785333Y-87257000D01*
X60832952Y-87304619D01*
X60880571Y-87399857D01*
X60928190Y-87590333D01*
X60928190Y-87828428D01*
X60880571Y-88018904D01*
X60832952Y-88114142D01*
X60785333Y-88161761D01*
X60690095Y-88209380D01*
X60594857Y-88209380D01*
X60499619Y-88161761D01*
X60451999Y-88114142D01*
X60404380Y-88018904D01*
X60356761Y-87828428D01*
X60356761Y-87590333D01*
X60404380Y-87399857D01*
X60451999Y-87304619D01*
X60499619Y-87257000D01*
X60594857Y-87209380D01*
X61547238Y-87828428D02*
X61928190Y-87828428D01*
X61547238Y-88018904D02*
X61356761Y-87828428D01*
X61547238Y-87637952D01*
X61547238Y-88018904D01*
X61928190Y-88018904D02*
X61928190Y-87637952D01*
X62118666Y-87828428D01*
X61928190Y-88018904D01*
X62594857Y-88209380D02*
X62594857Y-87209380D01*
X63642476Y-88209380D02*
X63309142Y-87733190D01*
X63071047Y-88209380D02*
X63071047Y-87209380D01*
X63451999Y-87209380D01*
X63547238Y-87257000D01*
X63594857Y-87304619D01*
X63642476Y-87399857D01*
X63642476Y-87542714D01*
X63594857Y-87637952D01*
X63547238Y-87685571D01*
X63451999Y-87733190D01*
X63071047Y-87733190D01*
X64737714Y-88304619D02*
X64642476Y-88257000D01*
X64547238Y-88161761D01*
X64404380Y-88018904D01*
X64309142Y-87971285D01*
X64213904Y-87971285D01*
X64261523Y-88209380D02*
X64166285Y-88161761D01*
X64071047Y-88066523D01*
X64023428Y-87876047D01*
X64023428Y-87542714D01*
X64071047Y-87352238D01*
X64166285Y-87257000D01*
X64261523Y-87209380D01*
X64451999Y-87209380D01*
X64547238Y-87257000D01*
X64642476Y-87352238D01*
X64690095Y-87542714D01*
X64690095Y-87876047D01*
X64642476Y-88066523D01*
X64547238Y-88161761D01*
X64451999Y-88209380D01*
X64261523Y-88209380D01*
X56975857Y-86685380D02*
X56642523Y-86209190D01*
X56404428Y-86685380D02*
X56404428Y-85685380D01*
X56785380Y-85685380D01*
X56880619Y-85733000D01*
X56928238Y-85780619D01*
X56975857Y-85875857D01*
X56975857Y-86018714D01*
X56928238Y-86113952D01*
X56880619Y-86161571D01*
X56785380Y-86209190D01*
X56404428Y-86209190D01*
X57356809Y-85780619D02*
X57404428Y-85733000D01*
X57499666Y-85685380D01*
X57737761Y-85685380D01*
X57833000Y-85733000D01*
X57880619Y-85780619D01*
X57928238Y-85875857D01*
X57928238Y-85971095D01*
X57880619Y-86113952D01*
X57309190Y-86685380D01*
X57928238Y-86685380D01*
X58356809Y-86590142D02*
X58404428Y-86637761D01*
X58356809Y-86685380D01*
X58309190Y-86637761D01*
X58356809Y-86590142D01*
X58356809Y-86685380D01*
X58356809Y-86066333D02*
X58404428Y-86113952D01*
X58356809Y-86161571D01*
X58309190Y-86113952D01*
X58356809Y-86066333D01*
X58356809Y-86161571D01*
X60404428Y-86685380D02*
X60594904Y-86685380D01*
X60690142Y-86637761D01*
X60737761Y-86590142D01*
X60833000Y-86447285D01*
X60880619Y-86256809D01*
X60880619Y-85875857D01*
X60833000Y-85780619D01*
X60785380Y-85733000D01*
X60690142Y-85685380D01*
X60499666Y-85685380D01*
X60404428Y-85733000D01*
X60356809Y-85780619D01*
X60309190Y-85875857D01*
X60309190Y-86113952D01*
X60356809Y-86209190D01*
X60404428Y-86256809D01*
X60499666Y-86304428D01*
X60690142Y-86304428D01*
X60785380Y-86256809D01*
X60833000Y-86209190D01*
X60880619Y-86113952D01*
X61499666Y-86304428D02*
X61880619Y-86304428D01*
X61499666Y-86494904D02*
X61309190Y-86304428D01*
X61499666Y-86113952D01*
X61499666Y-86494904D01*
X61880619Y-86494904D02*
X61880619Y-86113952D01*
X62071095Y-86304428D01*
X61880619Y-86494904D01*
X62547285Y-86685380D02*
X62547285Y-85685380D01*
X62880619Y-86399666D01*
X63213952Y-85685380D01*
X63213952Y-86685380D01*
X64261571Y-86590142D02*
X64213952Y-86637761D01*
X64071095Y-86685380D01*
X63975857Y-86685380D01*
X63833000Y-86637761D01*
X63737761Y-86542523D01*
X63690142Y-86447285D01*
X63642523Y-86256809D01*
X63642523Y-86113952D01*
X63690142Y-85923476D01*
X63737761Y-85828238D01*
X63833000Y-85733000D01*
X63975857Y-85685380D01*
X64071095Y-85685380D01*
X64213952Y-85733000D01*
X64261571Y-85780619D01*
X64880619Y-85685380D02*
X65071095Y-85685380D01*
X65166333Y-85733000D01*
X65261571Y-85828238D01*
X65309190Y-86018714D01*
X65309190Y-86352047D01*
X65261571Y-86542523D01*
X65166333Y-86637761D01*
X65071095Y-86685380D01*
X64880619Y-86685380D01*
X64785380Y-86637761D01*
X64690142Y-86542523D01*
X64642523Y-86352047D01*
X64642523Y-86018714D01*
X64690142Y-85828238D01*
X64785380Y-85733000D01*
X64880619Y-85685380D01*
X67831428Y-62426904D02*
X67450476Y-62426904D01*
X67412380Y-62807857D01*
X67450476Y-62769761D01*
X67526666Y-62731666D01*
X67717142Y-62731666D01*
X67793333Y-62769761D01*
X67831428Y-62807857D01*
X67869523Y-62884047D01*
X67869523Y-63074523D01*
X67831428Y-63150714D01*
X67793333Y-63188809D01*
X67717142Y-63226904D01*
X67526666Y-63226904D01*
X67450476Y-63188809D01*
X67412380Y-63150714D01*
X68098095Y-62426904D02*
X68364761Y-63226904D01*
X68631428Y-62426904D01*
X70269523Y-62426904D02*
X70345714Y-62426904D01*
X70421904Y-62465000D01*
X70460000Y-62503095D01*
X70498095Y-62579285D01*
X70536190Y-62731666D01*
X70536190Y-62922142D01*
X70498095Y-63074523D01*
X70460000Y-63150714D01*
X70421904Y-63188809D01*
X70345714Y-63226904D01*
X70269523Y-63226904D01*
X70193333Y-63188809D01*
X70155238Y-63150714D01*
X70117142Y-63074523D01*
X70079047Y-62922142D01*
X70079047Y-62731666D01*
X70117142Y-62579285D01*
X70155238Y-62503095D01*
X70193333Y-62465000D01*
X70269523Y-62426904D01*
X70764761Y-62426904D02*
X71031428Y-63226904D01*
X71298095Y-62426904D01*
X72707619Y-62426904D02*
X73202857Y-62426904D01*
X72936190Y-62731666D01*
X73050476Y-62731666D01*
X73126666Y-62769761D01*
X73164761Y-62807857D01*
X73202857Y-62884047D01*
X73202857Y-63074523D01*
X73164761Y-63150714D01*
X73126666Y-63188809D01*
X73050476Y-63226904D01*
X72821904Y-63226904D01*
X72745714Y-63188809D01*
X72707619Y-63150714D01*
X73431428Y-62426904D02*
X73698095Y-63226904D01*
X73964761Y-62426904D01*
X75260000Y-62094000D02*
X75640952Y-62094000D01*
X75450476Y-63226904D02*
X75450476Y-62426904D01*
X75640952Y-62094000D02*
X76440952Y-62094000D01*
X76288571Y-63226904D02*
X76021904Y-62845952D01*
X75831428Y-63226904D02*
X75831428Y-62426904D01*
X76136190Y-62426904D01*
X76212380Y-62465000D01*
X76250476Y-62503095D01*
X76288571Y-62579285D01*
X76288571Y-62693571D01*
X76250476Y-62769761D01*
X76212380Y-62807857D01*
X76136190Y-62845952D01*
X75831428Y-62845952D01*
X76440952Y-62094000D02*
X77279047Y-62094000D01*
X77164761Y-63303095D02*
X77088571Y-63265000D01*
X77012380Y-63188809D01*
X76898095Y-63074523D01*
X76821904Y-63036428D01*
X76745714Y-63036428D01*
X76783809Y-63226904D02*
X76707619Y-63188809D01*
X76631428Y-63112619D01*
X76593333Y-62960238D01*
X76593333Y-62693571D01*
X76631428Y-62541190D01*
X76707619Y-62465000D01*
X76783809Y-62426904D01*
X76936190Y-62426904D01*
X77012380Y-62465000D01*
X77088571Y-62541190D01*
X77126666Y-62693571D01*
X77126666Y-62960238D01*
X77088571Y-63112619D01*
X77012380Y-63188809D01*
X76936190Y-63226904D01*
X76783809Y-63226904D01*
X77888571Y-62094000D02*
X78688571Y-62094000D01*
X78536190Y-63226904D02*
X78269523Y-62845952D01*
X78079047Y-63226904D02*
X78079047Y-62426904D01*
X78383809Y-62426904D01*
X78460000Y-62465000D01*
X78498095Y-62503095D01*
X78536190Y-62579285D01*
X78536190Y-62693571D01*
X78498095Y-62769761D01*
X78460000Y-62807857D01*
X78383809Y-62845952D01*
X78079047Y-62845952D01*
X78688571Y-62094000D02*
X79450476Y-62094000D01*
X78840952Y-63188809D02*
X78955238Y-63226904D01*
X79145714Y-63226904D01*
X79221904Y-63188809D01*
X79260000Y-63150714D01*
X79298095Y-63074523D01*
X79298095Y-62998333D01*
X79260000Y-62922142D01*
X79221904Y-62884047D01*
X79145714Y-62845952D01*
X78993333Y-62807857D01*
X78917142Y-62769761D01*
X78879047Y-62731666D01*
X78840952Y-62655476D01*
X78840952Y-62579285D01*
X78879047Y-62503095D01*
X78917142Y-62465000D01*
X78993333Y-62426904D01*
X79183809Y-62426904D01*
X79298095Y-62465000D01*
X79450476Y-62094000D02*
X80060000Y-62094000D01*
X79526666Y-62426904D02*
X79983809Y-62426904D01*
X79755238Y-63226904D02*
X79755238Y-62426904D01*
X67247333Y-83811000D02*
X68047333Y-83811000D01*
X67894952Y-84867714D02*
X67856857Y-84905809D01*
X67742571Y-84943904D01*
X67666380Y-84943904D01*
X67552095Y-84905809D01*
X67475904Y-84829619D01*
X67437809Y-84753428D01*
X67399714Y-84601047D01*
X67399714Y-84486761D01*
X67437809Y-84334380D01*
X67475904Y-84258190D01*
X67552095Y-84182000D01*
X67666380Y-84143904D01*
X67742571Y-84143904D01*
X67856857Y-84182000D01*
X67894952Y-84220095D01*
X68047333Y-83811000D02*
X68809238Y-83811000D01*
X68199714Y-84905809D02*
X68314000Y-84943904D01*
X68504476Y-84943904D01*
X68580666Y-84905809D01*
X68618761Y-84867714D01*
X68656857Y-84791523D01*
X68656857Y-84715333D01*
X68618761Y-84639142D01*
X68580666Y-84601047D01*
X68504476Y-84562952D01*
X68352095Y-84524857D01*
X68275904Y-84486761D01*
X68237809Y-84448666D01*
X68199714Y-84372476D01*
X68199714Y-84296285D01*
X68237809Y-84220095D01*
X68275904Y-84182000D01*
X68352095Y-84143904D01*
X68542571Y-84143904D01*
X68656857Y-84182000D01*
X70675904Y-84867714D02*
X70637809Y-84905809D01*
X70523523Y-84943904D01*
X70447333Y-84943904D01*
X70333047Y-84905809D01*
X70256857Y-84829619D01*
X70218761Y-84753428D01*
X70180666Y-84601047D01*
X70180666Y-84486761D01*
X70218761Y-84334380D01*
X70256857Y-84258190D01*
X70333047Y-84182000D01*
X70447333Y-84143904D01*
X70523523Y-84143904D01*
X70637809Y-84182000D01*
X70675904Y-84220095D01*
X71018761Y-84943904D02*
X71018761Y-84143904D01*
X71475904Y-84943904D02*
X71133047Y-84486761D01*
X71475904Y-84143904D02*
X71018761Y-84601047D01*
X72999714Y-84905809D02*
X73114000Y-84943904D01*
X73304476Y-84943904D01*
X73380666Y-84905809D01*
X73418761Y-84867714D01*
X73456857Y-84791523D01*
X73456857Y-84715333D01*
X73418761Y-84639142D01*
X73380666Y-84601047D01*
X73304476Y-84562952D01*
X73152095Y-84524857D01*
X73075904Y-84486761D01*
X73037809Y-84448666D01*
X72999714Y-84372476D01*
X72999714Y-84296285D01*
X73037809Y-84220095D01*
X73075904Y-84182000D01*
X73152095Y-84143904D01*
X73342571Y-84143904D01*
X73456857Y-84182000D01*
X73952095Y-84143904D02*
X74104476Y-84143904D01*
X74180666Y-84182000D01*
X74256857Y-84258190D01*
X74294952Y-84410571D01*
X74294952Y-84677238D01*
X74256857Y-84829619D01*
X74180666Y-84905809D01*
X74104476Y-84943904D01*
X73952095Y-84943904D01*
X73875904Y-84905809D01*
X73799714Y-84829619D01*
X73761619Y-84677238D01*
X73761619Y-84410571D01*
X73799714Y-84258190D01*
X73875904Y-84182000D01*
X73952095Y-84143904D01*
X75818761Y-84905809D02*
X75933047Y-84943904D01*
X76123523Y-84943904D01*
X76199714Y-84905809D01*
X76237809Y-84867714D01*
X76275904Y-84791523D01*
X76275904Y-84715333D01*
X76237809Y-84639142D01*
X76199714Y-84601047D01*
X76123523Y-84562952D01*
X75971142Y-84524857D01*
X75894952Y-84486761D01*
X75856857Y-84448666D01*
X75818761Y-84372476D01*
X75818761Y-84296285D01*
X75856857Y-84220095D01*
X75894952Y-84182000D01*
X75971142Y-84143904D01*
X76161619Y-84143904D01*
X76275904Y-84182000D01*
X76618761Y-84943904D02*
X76618761Y-84143904D01*
X78218761Y-84943904D02*
X78218761Y-84143904D01*
X78485428Y-84715333D01*
X78752095Y-84143904D01*
X78752095Y-84943904D01*
X79590190Y-84867714D02*
X79552095Y-84905809D01*
X79437809Y-84943904D01*
X79361619Y-84943904D01*
X79247333Y-84905809D01*
X79171142Y-84829619D01*
X79133047Y-84753428D01*
X79094952Y-84601047D01*
X79094952Y-84486761D01*
X79133047Y-84334380D01*
X79171142Y-84258190D01*
X79247333Y-84182000D01*
X79361619Y-84143904D01*
X79437809Y-84143904D01*
X79552095Y-84182000D01*
X79590190Y-84220095D01*
X80085428Y-84143904D02*
X80237809Y-84143904D01*
X80314000Y-84182000D01*
X80390190Y-84258190D01*
X80428285Y-84410571D01*
X80428285Y-84677238D01*
X80390190Y-84829619D01*
X80314000Y-84905809D01*
X80237809Y-84943904D01*
X80085428Y-84943904D01*
X80009238Y-84905809D01*
X79933047Y-84829619D01*
X79894952Y-84677238D01*
X79894952Y-84410571D01*
X79933047Y-84258190D01*
X80009238Y-84182000D01*
X80085428Y-84143904D01*
D11*
X84074000Y-89535000D02*
X81661000Y-90678000D01*
X81407000Y-89535000D02*
X78994000Y-90678000D01*
X78740000Y-89535000D02*
X76327000Y-90678000D01*
X77089000Y-89535000D02*
X74295000Y-90932000D01*
D10*
X121309380Y-81040952D02*
X121309380Y-80421904D01*
X121690333Y-80755238D01*
X121690333Y-80612380D01*
X121737952Y-80517142D01*
X121785571Y-80469523D01*
X121880809Y-80421904D01*
X122118904Y-80421904D01*
X122214142Y-80469523D01*
X122261761Y-80517142D01*
X122309380Y-80612380D01*
X122309380Y-80898095D01*
X122261761Y-80993333D01*
X122214142Y-81040952D01*
X121309380Y-80136190D02*
X122309380Y-79802857D01*
X121309380Y-79469523D01*
X121309380Y-78183809D02*
X121309380Y-78088571D01*
X121357000Y-77993333D01*
X121404619Y-77945714D01*
X121499857Y-77898095D01*
X121690333Y-77850476D01*
X121928428Y-77850476D01*
X122118904Y-77898095D01*
X122214142Y-77945714D01*
X122261761Y-77993333D01*
X122309380Y-78088571D01*
X122309380Y-78183809D01*
X122261761Y-78279047D01*
X122214142Y-78326666D01*
X122118904Y-78374285D01*
X121928428Y-78421904D01*
X121690333Y-78421904D01*
X121499857Y-78374285D01*
X121404619Y-78326666D01*
X121357000Y-78279047D01*
X121309380Y-78183809D01*
X121309380Y-77564761D02*
X122309380Y-77231428D01*
X121309380Y-76898095D01*
X122309380Y-75279047D02*
X122309380Y-75850476D01*
X122309380Y-75564761D02*
X121309380Y-75564761D01*
X121452238Y-75660000D01*
X121547476Y-75755238D01*
X121595095Y-75850476D01*
X121309380Y-74945714D02*
X121309380Y-74326666D01*
X121690333Y-74660000D01*
X121690333Y-74517142D01*
X121737952Y-74421904D01*
X121785571Y-74374285D01*
X121880809Y-74326666D01*
X122118904Y-74326666D01*
X122214142Y-74374285D01*
X122261761Y-74421904D01*
X122309380Y-74517142D01*
X122309380Y-74802857D01*
X122261761Y-74898095D01*
X122214142Y-74945714D01*
X121309380Y-73231428D02*
X121309380Y-72612380D01*
X121690333Y-72945714D01*
X121690333Y-72802857D01*
X121737952Y-72707619D01*
X121785571Y-72660000D01*
X121880809Y-72612380D01*
X122118904Y-72612380D01*
X122214142Y-72660000D01*
X122261761Y-72707619D01*
X122309380Y-72802857D01*
X122309380Y-73088571D01*
X122261761Y-73183809D01*
X122214142Y-73231428D01*
X122309380Y-71660000D02*
X122309380Y-72231428D01*
X122309380Y-71945714D02*
X121309380Y-71945714D01*
X121452238Y-72040952D01*
X121547476Y-72136190D01*
X121595095Y-72231428D01*
X121309380Y-70564761D02*
X121309380Y-69945714D01*
X121690333Y-70279047D01*
X121690333Y-70136190D01*
X121737952Y-70040952D01*
X121785571Y-69993333D01*
X121880809Y-69945714D01*
X122118904Y-69945714D01*
X122214142Y-69993333D01*
X122261761Y-70040952D01*
X122309380Y-70136190D01*
X122309380Y-70421904D01*
X122261761Y-70517142D01*
X122214142Y-70564761D01*
X121642714Y-69088571D02*
X122309380Y-69088571D01*
X121261761Y-69326666D02*
X121976047Y-69564761D01*
X121976047Y-68945714D01*
X121309380Y-67898095D02*
X121309380Y-67279047D01*
X121690333Y-67612380D01*
X121690333Y-67469523D01*
X121737952Y-67374285D01*
X121785571Y-67326666D01*
X121880809Y-67279047D01*
X122118904Y-67279047D01*
X122214142Y-67326666D01*
X122261761Y-67374285D01*
X122309380Y-67469523D01*
X122309380Y-67755238D01*
X122261761Y-67850476D01*
X122214142Y-67898095D01*
X121309380Y-66421904D02*
X121309380Y-66612380D01*
X121357000Y-66707619D01*
X121404619Y-66755238D01*
X121547476Y-66850476D01*
X121737952Y-66898095D01*
X122118904Y-66898095D01*
X122214142Y-66850476D01*
X122261761Y-66802857D01*
X122309380Y-66707619D01*
X122309380Y-66517142D01*
X122261761Y-66421904D01*
X122214142Y-66374285D01*
X122118904Y-66326666D01*
X121880809Y-66326666D01*
X121785571Y-66374285D01*
X121737952Y-66421904D01*
X121690333Y-66517142D01*
X121690333Y-66707619D01*
X121737952Y-66802857D01*
X121785571Y-66850476D01*
X121880809Y-66898095D01*
X122959380Y-81040952D02*
X122959380Y-80421904D01*
X123340333Y-80755238D01*
X123340333Y-80612380D01*
X123387952Y-80517142D01*
X123435571Y-80469523D01*
X123530809Y-80421904D01*
X123768904Y-80421904D01*
X123864142Y-80469523D01*
X123911761Y-80517142D01*
X123959380Y-80612380D01*
X123959380Y-80898095D01*
X123911761Y-80993333D01*
X123864142Y-81040952D01*
X122959380Y-80136190D02*
X123959380Y-79802857D01*
X122959380Y-79469523D01*
X122959380Y-78183809D02*
X122959380Y-78088571D01*
X123007000Y-77993333D01*
X123054619Y-77945714D01*
X123149857Y-77898095D01*
X123340333Y-77850476D01*
X123578428Y-77850476D01*
X123768904Y-77898095D01*
X123864142Y-77945714D01*
X123911761Y-77993333D01*
X123959380Y-78088571D01*
X123959380Y-78183809D01*
X123911761Y-78279047D01*
X123864142Y-78326666D01*
X123768904Y-78374285D01*
X123578428Y-78421904D01*
X123340333Y-78421904D01*
X123149857Y-78374285D01*
X123054619Y-78326666D01*
X123007000Y-78279047D01*
X122959380Y-78183809D01*
X122959380Y-77564761D02*
X123959380Y-77231428D01*
X122959380Y-76898095D01*
X123054619Y-75850476D02*
X123007000Y-75802857D01*
X122959380Y-75707619D01*
X122959380Y-75469523D01*
X123007000Y-75374285D01*
X123054619Y-75326666D01*
X123149857Y-75279047D01*
X123245095Y-75279047D01*
X123387952Y-75326666D01*
X123959380Y-75898095D01*
X123959380Y-75279047D01*
X122959380Y-74945714D02*
X122959380Y-74326666D01*
X123340333Y-74660000D01*
X123340333Y-74517142D01*
X123387952Y-74421904D01*
X123435571Y-74374285D01*
X123530809Y-74326666D01*
X123768904Y-74326666D01*
X123864142Y-74374285D01*
X123911761Y-74421904D01*
X123959380Y-74517142D01*
X123959380Y-74802857D01*
X123911761Y-74898095D01*
X123864142Y-74945714D01*
X122959380Y-73231428D02*
X122959380Y-72612380D01*
X123340333Y-72945714D01*
X123340333Y-72802857D01*
X123387952Y-72707619D01*
X123435571Y-72660000D01*
X123530809Y-72612380D01*
X123768904Y-72612380D01*
X123864142Y-72660000D01*
X123911761Y-72707619D01*
X123959380Y-72802857D01*
X123959380Y-73088571D01*
X123911761Y-73183809D01*
X123864142Y-73231428D01*
X123054619Y-72231428D02*
X123007000Y-72183809D01*
X122959380Y-72088571D01*
X122959380Y-71850476D01*
X123007000Y-71755238D01*
X123054619Y-71707619D01*
X123149857Y-71660000D01*
X123245095Y-71660000D01*
X123387952Y-71707619D01*
X123959380Y-72279047D01*
X123959380Y-71660000D01*
X122959380Y-70564761D02*
X122959380Y-69945714D01*
X123340333Y-70279047D01*
X123340333Y-70136190D01*
X123387952Y-70040952D01*
X123435571Y-69993333D01*
X123530809Y-69945714D01*
X123768904Y-69945714D01*
X123864142Y-69993333D01*
X123911761Y-70040952D01*
X123959380Y-70136190D01*
X123959380Y-70421904D01*
X123911761Y-70517142D01*
X123864142Y-70564761D01*
X122959380Y-69040952D02*
X122959380Y-69517142D01*
X123435571Y-69564761D01*
X123387952Y-69517142D01*
X123340333Y-69421904D01*
X123340333Y-69183809D01*
X123387952Y-69088571D01*
X123435571Y-69040952D01*
X123530809Y-68993333D01*
X123768904Y-68993333D01*
X123864142Y-69040952D01*
X123911761Y-69088571D01*
X123959380Y-69183809D01*
X123959380Y-69421904D01*
X123911761Y-69517142D01*
X123864142Y-69564761D01*
X122959380Y-67898095D02*
X122959380Y-67279047D01*
X123340333Y-67612380D01*
X123340333Y-67469523D01*
X123387952Y-67374285D01*
X123435571Y-67326666D01*
X123530809Y-67279047D01*
X123768904Y-67279047D01*
X123864142Y-67326666D01*
X123911761Y-67374285D01*
X123959380Y-67469523D01*
X123959380Y-67755238D01*
X123911761Y-67850476D01*
X123864142Y-67898095D01*
X122959380Y-66945714D02*
X122959380Y-66279047D01*
X123959380Y-66707619D01*
X77343523Y-89352380D02*
X77534000Y-89352380D01*
X77629238Y-89304761D01*
X77676857Y-89257142D01*
X77772095Y-89114285D01*
X77819714Y-88923809D01*
X77819714Y-88542857D01*
X77772095Y-88447619D01*
X77724476Y-88400000D01*
X77629238Y-88352380D01*
X77438761Y-88352380D01*
X77343523Y-88400000D01*
X77295904Y-88447619D01*
X77248285Y-88542857D01*
X77248285Y-88780952D01*
X77295904Y-88876190D01*
X77343523Y-88923809D01*
X77438761Y-88971428D01*
X77629238Y-88971428D01*
X77724476Y-88923809D01*
X77772095Y-88876190D01*
X77819714Y-88780952D01*
X79534000Y-89352380D02*
X78962571Y-89352380D01*
X79248285Y-89352380D02*
X79248285Y-88352380D01*
X79153047Y-88495238D01*
X79057809Y-88590476D01*
X78962571Y-88638095D01*
X80153047Y-88352380D02*
X80248285Y-88352380D01*
X80343523Y-88400000D01*
X80391142Y-88447619D01*
X80438761Y-88542857D01*
X80486380Y-88733333D01*
X80486380Y-88971428D01*
X80438761Y-89161904D01*
X80391142Y-89257142D01*
X80343523Y-89304761D01*
X80248285Y-89352380D01*
X80153047Y-89352380D01*
X80057809Y-89304761D01*
X80010190Y-89257142D01*
X79962571Y-89161904D01*
X79914952Y-88971428D01*
X79914952Y-88733333D01*
X79962571Y-88542857D01*
X80010190Y-88447619D01*
X80057809Y-88400000D01*
X80153047Y-88352380D01*
X82200666Y-89352380D02*
X81629238Y-89352380D01*
X81914952Y-89352380D02*
X81914952Y-88352380D01*
X81819714Y-88495238D01*
X81724476Y-88590476D01*
X81629238Y-88638095D01*
X83153047Y-89352380D02*
X82581619Y-89352380D01*
X82867333Y-89352380D02*
X82867333Y-88352380D01*
X82772095Y-88495238D01*
X82676857Y-88590476D01*
X82581619Y-88638095D01*
X84867333Y-89352380D02*
X84295904Y-89352380D01*
X84581619Y-89352380D02*
X84581619Y-88352380D01*
X84486380Y-88495238D01*
X84391142Y-88590476D01*
X84295904Y-88638095D01*
X85248285Y-88447619D02*
X85295904Y-88400000D01*
X85391142Y-88352380D01*
X85629238Y-88352380D01*
X85724476Y-88400000D01*
X85772095Y-88447619D01*
X85819714Y-88542857D01*
X85819714Y-88638095D01*
X85772095Y-88780952D01*
X85200666Y-89352380D01*
X85819714Y-89352380D01*
X113269047Y-88606380D02*
X113888095Y-88606380D01*
X113554761Y-88987333D01*
X113697619Y-88987333D01*
X113792857Y-89034952D01*
X113840476Y-89082571D01*
X113888095Y-89177809D01*
X113888095Y-89415904D01*
X113840476Y-89511142D01*
X113792857Y-89558761D01*
X113697619Y-89606380D01*
X113411904Y-89606380D01*
X113316666Y-89558761D01*
X113269047Y-89511142D01*
X114173809Y-88606380D02*
X114507142Y-89606380D01*
X114840476Y-88606380D01*
X116126190Y-88606380D02*
X116221428Y-88606380D01*
X116316666Y-88654000D01*
X116364285Y-88701619D01*
X116411904Y-88796857D01*
X116459523Y-88987333D01*
X116459523Y-89225428D01*
X116411904Y-89415904D01*
X116364285Y-89511142D01*
X116316666Y-89558761D01*
X116221428Y-89606380D01*
X116126190Y-89606380D01*
X116030952Y-89558761D01*
X115983333Y-89511142D01*
X115935714Y-89415904D01*
X115888095Y-89225428D01*
X115888095Y-88987333D01*
X115935714Y-88796857D01*
X115983333Y-88701619D01*
X116030952Y-88654000D01*
X116126190Y-88606380D01*
X116745238Y-88606380D02*
X117078571Y-89606380D01*
X117411904Y-88606380D01*
X118459523Y-88701619D02*
X118507142Y-88654000D01*
X118602380Y-88606380D01*
X118840476Y-88606380D01*
X118935714Y-88654000D01*
X118983333Y-88701619D01*
X119030952Y-88796857D01*
X119030952Y-88892095D01*
X118983333Y-89034952D01*
X118411904Y-89606380D01*
X119030952Y-89606380D01*
X119935714Y-88606380D02*
X119459523Y-88606380D01*
X119411904Y-89082571D01*
X119459523Y-89034952D01*
X119554761Y-88987333D01*
X119792857Y-88987333D01*
X119888095Y-89034952D01*
X119935714Y-89082571D01*
X119983333Y-89177809D01*
X119983333Y-89415904D01*
X119935714Y-89511142D01*
X119888095Y-89558761D01*
X119792857Y-89606380D01*
X119554761Y-89606380D01*
X119459523Y-89558761D01*
X119411904Y-89511142D01*
X121126190Y-88701619D02*
X121173809Y-88654000D01*
X121269047Y-88606380D01*
X121507142Y-88606380D01*
X121602380Y-88654000D01*
X121650000Y-88701619D01*
X121697619Y-88796857D01*
X121697619Y-88892095D01*
X121650000Y-89034952D01*
X121078571Y-89606380D01*
X121697619Y-89606380D01*
X122554761Y-88606380D02*
X122364285Y-88606380D01*
X122269047Y-88654000D01*
X122221428Y-88701619D01*
X122126190Y-88844476D01*
X122078571Y-89034952D01*
X122078571Y-89415904D01*
X122126190Y-89511142D01*
X122173809Y-89558761D01*
X122269047Y-89606380D01*
X122459523Y-89606380D01*
X122554761Y-89558761D01*
X122602380Y-89511142D01*
X122650000Y-89415904D01*
X122650000Y-89177809D01*
X122602380Y-89082571D01*
X122554761Y-89034952D01*
X122459523Y-88987333D01*
X122269047Y-88987333D01*
X122173809Y-89034952D01*
X122126190Y-89082571D01*
X122078571Y-89177809D01*
X123792857Y-88701619D02*
X123840476Y-88654000D01*
X123935714Y-88606380D01*
X124173809Y-88606380D01*
X124269047Y-88654000D01*
X124316666Y-88701619D01*
X124364285Y-88796857D01*
X124364285Y-88892095D01*
X124316666Y-89034952D01*
X123745238Y-89606380D01*
X124364285Y-89606380D01*
X124697619Y-88606380D02*
X125364285Y-88606380D01*
X124935714Y-89606380D01*
X126459523Y-88701619D02*
X126507142Y-88654000D01*
X126602380Y-88606380D01*
X126840476Y-88606380D01*
X126935714Y-88654000D01*
X126983333Y-88701619D01*
X127030952Y-88796857D01*
X127030952Y-88892095D01*
X126983333Y-89034952D01*
X126411904Y-89606380D01*
X127030952Y-89606380D01*
X127602380Y-89034952D02*
X127507142Y-88987333D01*
X127459523Y-88939714D01*
X127411904Y-88844476D01*
X127411904Y-88796857D01*
X127459523Y-88701619D01*
X127507142Y-88654000D01*
X127602380Y-88606380D01*
X127792857Y-88606380D01*
X127888095Y-88654000D01*
X127935714Y-88701619D01*
X127983333Y-88796857D01*
X127983333Y-88844476D01*
X127935714Y-88939714D01*
X127888095Y-88987333D01*
X127792857Y-89034952D01*
X127602380Y-89034952D01*
X127507142Y-89082571D01*
X127459523Y-89130190D01*
X127411904Y-89225428D01*
X127411904Y-89415904D01*
X127459523Y-89511142D01*
X127507142Y-89558761D01*
X127602380Y-89606380D01*
X127792857Y-89606380D01*
X127888095Y-89558761D01*
X127935714Y-89511142D01*
X127983333Y-89415904D01*
X127983333Y-89225428D01*
X127935714Y-89130190D01*
X127888095Y-89082571D01*
X127792857Y-89034952D01*
X90409047Y-88606380D02*
X91028095Y-88606380D01*
X90694761Y-88987333D01*
X90837619Y-88987333D01*
X90932857Y-89034952D01*
X90980476Y-89082571D01*
X91028095Y-89177809D01*
X91028095Y-89415904D01*
X90980476Y-89511142D01*
X90932857Y-89558761D01*
X90837619Y-89606380D01*
X90551904Y-89606380D01*
X90456666Y-89558761D01*
X90409047Y-89511142D01*
X91313809Y-88606380D02*
X91647142Y-89606380D01*
X91980476Y-88606380D01*
X93266190Y-88606380D02*
X93361428Y-88606380D01*
X93456666Y-88654000D01*
X93504285Y-88701619D01*
X93551904Y-88796857D01*
X93599523Y-88987333D01*
X93599523Y-89225428D01*
X93551904Y-89415904D01*
X93504285Y-89511142D01*
X93456666Y-89558761D01*
X93361428Y-89606380D01*
X93266190Y-89606380D01*
X93170952Y-89558761D01*
X93123333Y-89511142D01*
X93075714Y-89415904D01*
X93028095Y-89225428D01*
X93028095Y-88987333D01*
X93075714Y-88796857D01*
X93123333Y-88701619D01*
X93170952Y-88654000D01*
X93266190Y-88606380D01*
X93885238Y-88606380D02*
X94218571Y-89606380D01*
X94551904Y-88606380D01*
X96170952Y-89606380D02*
X95599523Y-89606380D01*
X95885238Y-89606380D02*
X95885238Y-88606380D01*
X95790000Y-88749238D01*
X95694761Y-88844476D01*
X95599523Y-88892095D01*
X96742380Y-89034952D02*
X96647142Y-88987333D01*
X96599523Y-88939714D01*
X96551904Y-88844476D01*
X96551904Y-88796857D01*
X96599523Y-88701619D01*
X96647142Y-88654000D01*
X96742380Y-88606380D01*
X96932857Y-88606380D01*
X97028095Y-88654000D01*
X97075714Y-88701619D01*
X97123333Y-88796857D01*
X97123333Y-88844476D01*
X97075714Y-88939714D01*
X97028095Y-88987333D01*
X96932857Y-89034952D01*
X96742380Y-89034952D01*
X96647142Y-89082571D01*
X96599523Y-89130190D01*
X96551904Y-89225428D01*
X96551904Y-89415904D01*
X96599523Y-89511142D01*
X96647142Y-89558761D01*
X96742380Y-89606380D01*
X96932857Y-89606380D01*
X97028095Y-89558761D01*
X97075714Y-89511142D01*
X97123333Y-89415904D01*
X97123333Y-89225428D01*
X97075714Y-89130190D01*
X97028095Y-89082571D01*
X96932857Y-89034952D01*
X98837619Y-89606380D02*
X98266190Y-89606380D01*
X98551904Y-89606380D02*
X98551904Y-88606380D01*
X98456666Y-88749238D01*
X98361428Y-88844476D01*
X98266190Y-88892095D01*
X99313809Y-89606380D02*
X99504285Y-89606380D01*
X99599523Y-89558761D01*
X99647142Y-89511142D01*
X99742380Y-89368285D01*
X99790000Y-89177809D01*
X99790000Y-88796857D01*
X99742380Y-88701619D01*
X99694761Y-88654000D01*
X99599523Y-88606380D01*
X99409047Y-88606380D01*
X99313809Y-88654000D01*
X99266190Y-88701619D01*
X99218571Y-88796857D01*
X99218571Y-89034952D01*
X99266190Y-89130190D01*
X99313809Y-89177809D01*
X99409047Y-89225428D01*
X99599523Y-89225428D01*
X99694761Y-89177809D01*
X99742380Y-89130190D01*
X99790000Y-89034952D01*
X100932857Y-88701619D02*
X100980476Y-88654000D01*
X101075714Y-88606380D01*
X101313809Y-88606380D01*
X101409047Y-88654000D01*
X101456666Y-88701619D01*
X101504285Y-88796857D01*
X101504285Y-88892095D01*
X101456666Y-89034952D01*
X100885238Y-89606380D01*
X101504285Y-89606380D01*
X102123333Y-88606380D02*
X102218571Y-88606380D01*
X102313809Y-88654000D01*
X102361428Y-88701619D01*
X102409047Y-88796857D01*
X102456666Y-88987333D01*
X102456666Y-89225428D01*
X102409047Y-89415904D01*
X102361428Y-89511142D01*
X102313809Y-89558761D01*
X102218571Y-89606380D01*
X102123333Y-89606380D01*
X102028095Y-89558761D01*
X101980476Y-89511142D01*
X101932857Y-89415904D01*
X101885238Y-89225428D01*
X101885238Y-88987333D01*
X101932857Y-88796857D01*
X101980476Y-88701619D01*
X102028095Y-88654000D01*
X102123333Y-88606380D01*
X103599523Y-88701619D02*
X103647142Y-88654000D01*
X103742380Y-88606380D01*
X103980476Y-88606380D01*
X104075714Y-88654000D01*
X104123333Y-88701619D01*
X104170952Y-88796857D01*
X104170952Y-88892095D01*
X104123333Y-89034952D01*
X103551904Y-89606380D01*
X104170952Y-89606380D01*
X105123333Y-89606380D02*
X104551904Y-89606380D01*
X104837619Y-89606380D02*
X104837619Y-88606380D01*
X104742380Y-88749238D01*
X104647142Y-88844476D01*
X104551904Y-88892095D01*
X113792857Y-57951714D02*
X113792857Y-58618380D01*
X113554761Y-57570761D02*
X113316666Y-58285047D01*
X113935714Y-58285047D01*
X114745238Y-57951714D02*
X114745238Y-58618380D01*
X114507142Y-57570761D02*
X114269047Y-58285047D01*
X114888095Y-58285047D01*
X116459523Y-57951714D02*
X116459523Y-58618380D01*
X116221428Y-57570761D02*
X115983333Y-58285047D01*
X116602380Y-58285047D01*
X116888095Y-57618380D02*
X117507142Y-57618380D01*
X117173809Y-57999333D01*
X117316666Y-57999333D01*
X117411904Y-58046952D01*
X117459523Y-58094571D01*
X117507142Y-58189809D01*
X117507142Y-58427904D01*
X117459523Y-58523142D01*
X117411904Y-58570761D01*
X117316666Y-58618380D01*
X117030952Y-58618380D01*
X116935714Y-58570761D01*
X116888095Y-58523142D01*
X119126190Y-57951714D02*
X119126190Y-58618380D01*
X118888095Y-57570761D02*
X118650000Y-58285047D01*
X119269047Y-58285047D01*
X119602380Y-57713619D02*
X119650000Y-57666000D01*
X119745238Y-57618380D01*
X119983333Y-57618380D01*
X120078571Y-57666000D01*
X120126190Y-57713619D01*
X120173809Y-57808857D01*
X120173809Y-57904095D01*
X120126190Y-58046952D01*
X119554761Y-58618380D01*
X120173809Y-58618380D01*
X121269047Y-57618380D02*
X121888095Y-57618380D01*
X121554761Y-57999333D01*
X121697619Y-57999333D01*
X121792857Y-58046952D01*
X121840476Y-58094571D01*
X121888095Y-58189809D01*
X121888095Y-58427904D01*
X121840476Y-58523142D01*
X121792857Y-58570761D01*
X121697619Y-58618380D01*
X121411904Y-58618380D01*
X121316666Y-58570761D01*
X121269047Y-58523142D01*
X122459523Y-58046952D02*
X122364285Y-57999333D01*
X122316666Y-57951714D01*
X122269047Y-57856476D01*
X122269047Y-57808857D01*
X122316666Y-57713619D01*
X122364285Y-57666000D01*
X122459523Y-57618380D01*
X122650000Y-57618380D01*
X122745238Y-57666000D01*
X122792857Y-57713619D01*
X122840476Y-57808857D01*
X122840476Y-57856476D01*
X122792857Y-57951714D01*
X122745238Y-57999333D01*
X122650000Y-58046952D01*
X122459523Y-58046952D01*
X122364285Y-58094571D01*
X122316666Y-58142190D01*
X122269047Y-58237428D01*
X122269047Y-58427904D01*
X122316666Y-58523142D01*
X122364285Y-58570761D01*
X122459523Y-58618380D01*
X122650000Y-58618380D01*
X122745238Y-58570761D01*
X122792857Y-58523142D01*
X122840476Y-58427904D01*
X122840476Y-58237428D01*
X122792857Y-58142190D01*
X122745238Y-58094571D01*
X122650000Y-58046952D01*
X124221428Y-57618380D02*
X124316666Y-57618380D01*
X124411904Y-57666000D01*
X124459523Y-57713619D01*
X124507142Y-57808857D01*
X124554761Y-57999333D01*
X124554761Y-58237428D01*
X124507142Y-58427904D01*
X124459523Y-58523142D01*
X124411904Y-58570761D01*
X124316666Y-58618380D01*
X124221428Y-58618380D01*
X124126190Y-58570761D01*
X124078571Y-58523142D01*
X124030952Y-58427904D01*
X123983333Y-58237428D01*
X123983333Y-57999333D01*
X124030952Y-57808857D01*
X124078571Y-57713619D01*
X124126190Y-57666000D01*
X124221428Y-57618380D01*
X124840476Y-57618380D02*
X125173809Y-58618380D01*
X125507142Y-57618380D01*
X126507142Y-57618380D02*
X127126190Y-57618380D01*
X126792857Y-57999333D01*
X126935714Y-57999333D01*
X127030952Y-58046952D01*
X127078571Y-58094571D01*
X127126190Y-58189809D01*
X127126190Y-58427904D01*
X127078571Y-58523142D01*
X127030952Y-58570761D01*
X126935714Y-58618380D01*
X126650000Y-58618380D01*
X126554761Y-58570761D01*
X126507142Y-58523142D01*
X127411904Y-57618380D02*
X127745238Y-58618380D01*
X128078571Y-57618380D01*
X90932857Y-57951714D02*
X90932857Y-58618380D01*
X90694761Y-57570761D02*
X90456666Y-58285047D01*
X91075714Y-58285047D01*
X91599523Y-58046952D02*
X91504285Y-57999333D01*
X91456666Y-57951714D01*
X91409047Y-57856476D01*
X91409047Y-57808857D01*
X91456666Y-57713619D01*
X91504285Y-57666000D01*
X91599523Y-57618380D01*
X91790000Y-57618380D01*
X91885238Y-57666000D01*
X91932857Y-57713619D01*
X91980476Y-57808857D01*
X91980476Y-57856476D01*
X91932857Y-57951714D01*
X91885238Y-57999333D01*
X91790000Y-58046952D01*
X91599523Y-58046952D01*
X91504285Y-58094571D01*
X91456666Y-58142190D01*
X91409047Y-58237428D01*
X91409047Y-58427904D01*
X91456666Y-58523142D01*
X91504285Y-58570761D01*
X91599523Y-58618380D01*
X91790000Y-58618380D01*
X91885238Y-58570761D01*
X91932857Y-58523142D01*
X91980476Y-58427904D01*
X91980476Y-58237428D01*
X91932857Y-58142190D01*
X91885238Y-58094571D01*
X91790000Y-58046952D01*
X93599523Y-57951714D02*
X93599523Y-58618380D01*
X93361428Y-57570761D02*
X93123333Y-58285047D01*
X93742380Y-58285047D01*
X94028095Y-57618380D02*
X94694761Y-57618380D01*
X94266190Y-58618380D01*
X96266190Y-57951714D02*
X96266190Y-58618380D01*
X96028095Y-57570761D02*
X95790000Y-58285047D01*
X96409047Y-58285047D01*
X97218571Y-57618380D02*
X97028095Y-57618380D01*
X96932857Y-57666000D01*
X96885238Y-57713619D01*
X96790000Y-57856476D01*
X96742380Y-58046952D01*
X96742380Y-58427904D01*
X96790000Y-58523142D01*
X96837619Y-58570761D01*
X96932857Y-58618380D01*
X97123333Y-58618380D01*
X97218571Y-58570761D01*
X97266190Y-58523142D01*
X97313809Y-58427904D01*
X97313809Y-58189809D01*
X97266190Y-58094571D01*
X97218571Y-58046952D01*
X97123333Y-57999333D01*
X96932857Y-57999333D01*
X96837619Y-58046952D01*
X96790000Y-58094571D01*
X96742380Y-58189809D01*
X98932857Y-57951714D02*
X98932857Y-58618380D01*
X98694761Y-57570761D02*
X98456666Y-58285047D01*
X99075714Y-58285047D01*
X99932857Y-57618380D02*
X99456666Y-57618380D01*
X99409047Y-58094571D01*
X99456666Y-58046952D01*
X99551904Y-57999333D01*
X99790000Y-57999333D01*
X99885238Y-58046952D01*
X99932857Y-58094571D01*
X99980476Y-58189809D01*
X99980476Y-58427904D01*
X99932857Y-58523142D01*
X99885238Y-58570761D01*
X99790000Y-58618380D01*
X99551904Y-58618380D01*
X99456666Y-58570761D01*
X99409047Y-58523142D01*
X101361428Y-57618380D02*
X101456666Y-57618380D01*
X101551904Y-57666000D01*
X101599523Y-57713619D01*
X101647142Y-57808857D01*
X101694761Y-57999333D01*
X101694761Y-58237428D01*
X101647142Y-58427904D01*
X101599523Y-58523142D01*
X101551904Y-58570761D01*
X101456666Y-58618380D01*
X101361428Y-58618380D01*
X101266190Y-58570761D01*
X101218571Y-58523142D01*
X101170952Y-58427904D01*
X101123333Y-58237428D01*
X101123333Y-57999333D01*
X101170952Y-57808857D01*
X101218571Y-57713619D01*
X101266190Y-57666000D01*
X101361428Y-57618380D01*
X101980476Y-57618380D02*
X102313809Y-58618380D01*
X102647142Y-57618380D01*
X103647142Y-57618380D02*
X104266190Y-57618380D01*
X103932857Y-57999333D01*
X104075714Y-57999333D01*
X104170952Y-58046952D01*
X104218571Y-58094571D01*
X104266190Y-58189809D01*
X104266190Y-58427904D01*
X104218571Y-58523142D01*
X104170952Y-58570761D01*
X104075714Y-58618380D01*
X103790000Y-58618380D01*
X103694761Y-58570761D01*
X103647142Y-58523142D01*
X104551904Y-57618380D02*
X104885238Y-58618380D01*
X105218571Y-57618380D01*
X68453809Y-57618380D02*
X68263333Y-57618380D01*
X68168095Y-57666000D01*
X68120476Y-57713619D01*
X68025238Y-57856476D01*
X67977619Y-58046952D01*
X67977619Y-58427904D01*
X68025238Y-58523142D01*
X68072857Y-58570761D01*
X68168095Y-58618380D01*
X68358571Y-58618380D01*
X68453809Y-58570761D01*
X68501428Y-58523142D01*
X68549047Y-58427904D01*
X68549047Y-58189809D01*
X68501428Y-58094571D01*
X68453809Y-58046952D01*
X68358571Y-57999333D01*
X68168095Y-57999333D01*
X68072857Y-58046952D01*
X68025238Y-58094571D01*
X67977619Y-58189809D01*
X70930000Y-57951714D02*
X70930000Y-58618380D01*
X70691904Y-57570761D02*
X70453809Y-58285047D01*
X71072857Y-58285047D01*
X72882380Y-57618380D02*
X73501428Y-57618380D01*
X73168095Y-57999333D01*
X73310952Y-57999333D01*
X73406190Y-58046952D01*
X73453809Y-58094571D01*
X73501428Y-58189809D01*
X73501428Y-58427904D01*
X73453809Y-58523142D01*
X73406190Y-58570761D01*
X73310952Y-58618380D01*
X73025238Y-58618380D01*
X72930000Y-58570761D01*
X72882380Y-58523142D01*
X75406190Y-57713619D02*
X75453809Y-57666000D01*
X75549047Y-57618380D01*
X75787142Y-57618380D01*
X75882380Y-57666000D01*
X75930000Y-57713619D01*
X75977619Y-57808857D01*
X75977619Y-57904095D01*
X75930000Y-58046952D01*
X75358571Y-58618380D01*
X75977619Y-58618380D01*
X78120476Y-57618380D02*
X78215714Y-57618380D01*
X78310952Y-57666000D01*
X78358571Y-57713619D01*
X78406190Y-57808857D01*
X78453809Y-57999333D01*
X78453809Y-58237428D01*
X78406190Y-58427904D01*
X78358571Y-58523142D01*
X78310952Y-58570761D01*
X78215714Y-58618380D01*
X78120476Y-58618380D01*
X78025238Y-58570761D01*
X77977619Y-58523142D01*
X77930000Y-58427904D01*
X77882380Y-58237428D01*
X77882380Y-57999333D01*
X77930000Y-57808857D01*
X77977619Y-57713619D01*
X78025238Y-57666000D01*
X78120476Y-57618380D01*
X78739523Y-57618380D02*
X79072857Y-58618380D01*
X79406190Y-57618380D01*
X80406190Y-57618380D02*
X81025238Y-57618380D01*
X80691904Y-57999333D01*
X80834761Y-57999333D01*
X80929999Y-58046952D01*
X80977619Y-58094571D01*
X81025238Y-58189809D01*
X81025238Y-58427904D01*
X80977619Y-58523142D01*
X80929999Y-58570761D01*
X80834761Y-58618380D01*
X80549047Y-58618380D01*
X80453809Y-58570761D01*
X80406190Y-58523142D01*
X81310952Y-57618380D02*
X81644285Y-58618380D01*
X81977619Y-57618380D01*
D11*
X88900000Y-70104000D02*
G75*
G03*
X88900000Y-70104000I-254000J0D01*
G01*
D10*
X66492380Y-94154285D02*
X65492380Y-94154285D01*
X65492380Y-93773333D01*
X65540000Y-93678095D01*
X65587619Y-93630476D01*
X65682857Y-93582857D01*
X65825714Y-93582857D01*
X65920952Y-93630476D01*
X65968571Y-93678095D01*
X66016190Y-93773333D01*
X66016190Y-94154285D01*
X66492380Y-93154285D02*
X65492380Y-93154285D01*
X66206666Y-92820952D01*
X65492380Y-92487619D01*
X66492380Y-92487619D01*
X65492380Y-91820952D02*
X65492380Y-91630476D01*
X65540000Y-91535238D01*
X65635238Y-91440000D01*
X65825714Y-91392380D01*
X66159047Y-91392380D01*
X66349523Y-91440000D01*
X66444761Y-91535238D01*
X66492380Y-91630476D01*
X66492380Y-91820952D01*
X66444761Y-91916190D01*
X66349523Y-92011428D01*
X66159047Y-92059047D01*
X65825714Y-92059047D01*
X65635238Y-92011428D01*
X65540000Y-91916190D01*
X65492380Y-91820952D01*
X66492380Y-90963809D02*
X65492380Y-90963809D01*
X65492380Y-90725714D01*
X65540000Y-90582857D01*
X65635238Y-90487619D01*
X65730476Y-90440000D01*
X65920952Y-90392380D01*
X66063809Y-90392380D01*
X66254285Y-90440000D01*
X66349523Y-90487619D01*
X66444761Y-90582857D01*
X66492380Y-90725714D01*
X66492380Y-90963809D01*
X66492380Y-88678095D02*
X66492380Y-89249523D01*
X66492380Y-88963809D02*
X65492380Y-88963809D01*
X65635238Y-89059047D01*
X65730476Y-89154285D01*
X65778095Y-89249523D01*
X89352380Y-94154285D02*
X88352380Y-94154285D01*
X88352380Y-93773333D01*
X88400000Y-93678095D01*
X88447619Y-93630476D01*
X88542857Y-93582857D01*
X88685714Y-93582857D01*
X88780952Y-93630476D01*
X88828571Y-93678095D01*
X88876190Y-93773333D01*
X88876190Y-94154285D01*
X89352380Y-93154285D02*
X88352380Y-93154285D01*
X89066666Y-92820952D01*
X88352380Y-92487619D01*
X89352380Y-92487619D01*
X88352380Y-91820952D02*
X88352380Y-91630476D01*
X88400000Y-91535238D01*
X88495238Y-91440000D01*
X88685714Y-91392380D01*
X89019047Y-91392380D01*
X89209523Y-91440000D01*
X89304761Y-91535238D01*
X89352380Y-91630476D01*
X89352380Y-91820952D01*
X89304761Y-91916190D01*
X89209523Y-92011428D01*
X89019047Y-92059047D01*
X88685714Y-92059047D01*
X88495238Y-92011428D01*
X88400000Y-91916190D01*
X88352380Y-91820952D01*
X89352380Y-90963809D02*
X88352380Y-90963809D01*
X88352380Y-90725714D01*
X88400000Y-90582857D01*
X88495238Y-90487619D01*
X88590476Y-90440000D01*
X88780952Y-90392380D01*
X88923809Y-90392380D01*
X89114285Y-90440000D01*
X89209523Y-90487619D01*
X89304761Y-90582857D01*
X89352380Y-90725714D01*
X89352380Y-90963809D01*
X88447619Y-89249523D02*
X88400000Y-89201904D01*
X88352380Y-89106666D01*
X88352380Y-88868571D01*
X88400000Y-88773333D01*
X88447619Y-88725714D01*
X88542857Y-88678095D01*
X88638095Y-88678095D01*
X88780952Y-88725714D01*
X89352380Y-89297142D01*
X89352380Y-88678095D01*
X112212380Y-94154285D02*
X111212380Y-94154285D01*
X111212380Y-93773333D01*
X111260000Y-93678095D01*
X111307619Y-93630476D01*
X111402857Y-93582857D01*
X111545714Y-93582857D01*
X111640952Y-93630476D01*
X111688571Y-93678095D01*
X111736190Y-93773333D01*
X111736190Y-94154285D01*
X112212380Y-93154285D02*
X111212380Y-93154285D01*
X111926666Y-92820952D01*
X111212380Y-92487619D01*
X112212380Y-92487619D01*
X111212380Y-91820952D02*
X111212380Y-91630476D01*
X111260000Y-91535238D01*
X111355238Y-91440000D01*
X111545714Y-91392380D01*
X111879047Y-91392380D01*
X112069523Y-91440000D01*
X112164761Y-91535238D01*
X112212380Y-91630476D01*
X112212380Y-91820952D01*
X112164761Y-91916190D01*
X112069523Y-92011428D01*
X111879047Y-92059047D01*
X111545714Y-92059047D01*
X111355238Y-92011428D01*
X111260000Y-91916190D01*
X111212380Y-91820952D01*
X112212380Y-90963809D02*
X111212380Y-90963809D01*
X111212380Y-90725714D01*
X111260000Y-90582857D01*
X111355238Y-90487619D01*
X111450476Y-90440000D01*
X111640952Y-90392380D01*
X111783809Y-90392380D01*
X111974285Y-90440000D01*
X112069523Y-90487619D01*
X112164761Y-90582857D01*
X112212380Y-90725714D01*
X112212380Y-90963809D01*
X111212380Y-89297142D02*
X111212380Y-88678095D01*
X111593333Y-89011428D01*
X111593333Y-88868571D01*
X111640952Y-88773333D01*
X111688571Y-88725714D01*
X111783809Y-88678095D01*
X112021904Y-88678095D01*
X112117142Y-88725714D01*
X112164761Y-88773333D01*
X112212380Y-88868571D01*
X112212380Y-89154285D01*
X112164761Y-89249523D01*
X112117142Y-89297142D01*
X124539714Y-82748380D02*
X124539714Y-81748380D01*
X124920666Y-81748380D01*
X125015904Y-81796000D01*
X125063523Y-81843619D01*
X125111142Y-81938857D01*
X125111142Y-82081714D01*
X125063523Y-82176952D01*
X125015904Y-82224571D01*
X124920666Y-82272190D01*
X124539714Y-82272190D01*
X125539714Y-82748380D02*
X125539714Y-81748380D01*
X125873047Y-82462666D01*
X126206380Y-81748380D01*
X126206380Y-82748380D01*
X126873047Y-81748380D02*
X127063523Y-81748380D01*
X127158761Y-81796000D01*
X127254000Y-81891238D01*
X127301619Y-82081714D01*
X127301619Y-82415047D01*
X127254000Y-82605523D01*
X127158761Y-82700761D01*
X127063523Y-82748380D01*
X126873047Y-82748380D01*
X126777809Y-82700761D01*
X126682571Y-82605523D01*
X126634952Y-82415047D01*
X126634952Y-82081714D01*
X126682571Y-81891238D01*
X126777809Y-81796000D01*
X126873047Y-81748380D01*
X127730190Y-82748380D02*
X127730190Y-81748380D01*
X127968285Y-81748380D01*
X128111142Y-81796000D01*
X128206380Y-81891238D01*
X128254000Y-81986476D01*
X128301619Y-82176952D01*
X128301619Y-82319809D01*
X128254000Y-82510285D01*
X128206380Y-82605523D01*
X128111142Y-82700761D01*
X127968285Y-82748380D01*
X127730190Y-82748380D01*
X129396857Y-81748380D02*
X130063523Y-81748380D01*
X129634952Y-82748380D01*
X89352380Y-58594285D02*
X88352380Y-58594285D01*
X88352380Y-58213333D01*
X88400000Y-58118095D01*
X88447619Y-58070476D01*
X88542857Y-58022857D01*
X88685714Y-58022857D01*
X88780952Y-58070476D01*
X88828571Y-58118095D01*
X88876190Y-58213333D01*
X88876190Y-58594285D01*
X89352380Y-57594285D02*
X88352380Y-57594285D01*
X89066666Y-57260952D01*
X88352380Y-56927619D01*
X89352380Y-56927619D01*
X88352380Y-56260952D02*
X88352380Y-56070476D01*
X88400000Y-55975238D01*
X88495238Y-55880000D01*
X88685714Y-55832380D01*
X89019047Y-55832380D01*
X89209523Y-55880000D01*
X89304761Y-55975238D01*
X89352380Y-56070476D01*
X89352380Y-56260952D01*
X89304761Y-56356190D01*
X89209523Y-56451428D01*
X89019047Y-56499047D01*
X88685714Y-56499047D01*
X88495238Y-56451428D01*
X88400000Y-56356190D01*
X88352380Y-56260952D01*
X89352380Y-55403809D02*
X88352380Y-55403809D01*
X88352380Y-55165714D01*
X88400000Y-55022857D01*
X88495238Y-54927619D01*
X88590476Y-54880000D01*
X88780952Y-54832380D01*
X88923809Y-54832380D01*
X89114285Y-54880000D01*
X89209523Y-54927619D01*
X89304761Y-55022857D01*
X89352380Y-55165714D01*
X89352380Y-55403809D01*
X88352380Y-53165714D02*
X88352380Y-53641904D01*
X88828571Y-53689523D01*
X88780952Y-53641904D01*
X88733333Y-53546666D01*
X88733333Y-53308571D01*
X88780952Y-53213333D01*
X88828571Y-53165714D01*
X88923809Y-53118095D01*
X89161904Y-53118095D01*
X89257142Y-53165714D01*
X89304761Y-53213333D01*
X89352380Y-53308571D01*
X89352380Y-53546666D01*
X89304761Y-53641904D01*
X89257142Y-53689523D01*
X112212380Y-58594285D02*
X111212380Y-58594285D01*
X111212380Y-58213333D01*
X111260000Y-58118095D01*
X111307619Y-58070476D01*
X111402857Y-58022857D01*
X111545714Y-58022857D01*
X111640952Y-58070476D01*
X111688571Y-58118095D01*
X111736190Y-58213333D01*
X111736190Y-58594285D01*
X112212380Y-57594285D02*
X111212380Y-57594285D01*
X111926666Y-57260952D01*
X111212380Y-56927619D01*
X112212380Y-56927619D01*
X111212380Y-56260952D02*
X111212380Y-56070476D01*
X111260000Y-55975238D01*
X111355238Y-55880000D01*
X111545714Y-55832380D01*
X111879047Y-55832380D01*
X112069523Y-55880000D01*
X112164761Y-55975238D01*
X112212380Y-56070476D01*
X112212380Y-56260952D01*
X112164761Y-56356190D01*
X112069523Y-56451428D01*
X111879047Y-56499047D01*
X111545714Y-56499047D01*
X111355238Y-56451428D01*
X111260000Y-56356190D01*
X111212380Y-56260952D01*
X112212380Y-55403809D02*
X111212380Y-55403809D01*
X111212380Y-55165714D01*
X111260000Y-55022857D01*
X111355238Y-54927619D01*
X111450476Y-54880000D01*
X111640952Y-54832380D01*
X111783809Y-54832380D01*
X111974285Y-54880000D01*
X112069523Y-54927619D01*
X112164761Y-55022857D01*
X112212380Y-55165714D01*
X112212380Y-55403809D01*
X111545714Y-53213333D02*
X112212380Y-53213333D01*
X111164761Y-53451428D02*
X111879047Y-53689523D01*
X111879047Y-53070476D01*
X66492380Y-58594285D02*
X65492380Y-58594285D01*
X65492380Y-58213333D01*
X65540000Y-58118095D01*
X65587619Y-58070476D01*
X65682857Y-58022857D01*
X65825714Y-58022857D01*
X65920952Y-58070476D01*
X65968571Y-58118095D01*
X66016190Y-58213333D01*
X66016190Y-58594285D01*
X66492380Y-57594285D02*
X65492380Y-57594285D01*
X66206666Y-57260952D01*
X65492380Y-56927619D01*
X66492380Y-56927619D01*
X65492380Y-56260952D02*
X65492380Y-56070476D01*
X65540000Y-55975238D01*
X65635238Y-55880000D01*
X65825714Y-55832380D01*
X66159047Y-55832380D01*
X66349523Y-55880000D01*
X66444761Y-55975238D01*
X66492380Y-56070476D01*
X66492380Y-56260952D01*
X66444761Y-56356190D01*
X66349523Y-56451428D01*
X66159047Y-56499047D01*
X65825714Y-56499047D01*
X65635238Y-56451428D01*
X65540000Y-56356190D01*
X65492380Y-56260952D01*
X66492380Y-55403809D02*
X65492380Y-55403809D01*
X65492380Y-55165714D01*
X65540000Y-55022857D01*
X65635238Y-54927619D01*
X65730476Y-54880000D01*
X65920952Y-54832380D01*
X66063809Y-54832380D01*
X66254285Y-54880000D01*
X66349523Y-54927619D01*
X66444761Y-55022857D01*
X66492380Y-55165714D01*
X66492380Y-55403809D01*
X65492380Y-53213333D02*
X65492380Y-53403809D01*
X65540000Y-53499047D01*
X65587619Y-53546666D01*
X65730476Y-53641904D01*
X65920952Y-53689523D01*
X66301904Y-53689523D01*
X66397142Y-53641904D01*
X66444761Y-53594285D01*
X66492380Y-53499047D01*
X66492380Y-53308571D01*
X66444761Y-53213333D01*
X66397142Y-53165714D01*
X66301904Y-53118095D01*
X66063809Y-53118095D01*
X65968571Y-53165714D01*
X65920952Y-53213333D01*
X65873333Y-53308571D01*
X65873333Y-53499047D01*
X65920952Y-53594285D01*
X65968571Y-53641904D01*
X66063809Y-53689523D01*
X53472395Y-60168780D02*
X53472395Y-59502114D01*
X53472395Y-59168780D02*
X53424776Y-59216400D01*
X53472395Y-59264019D01*
X53520014Y-59216400D01*
X53472395Y-59168780D01*
X53472395Y-59264019D01*
X54520014Y-60073542D02*
X54472395Y-60121161D01*
X54329538Y-60168780D01*
X54234300Y-60168780D01*
X54091442Y-60121161D01*
X53996204Y-60025923D01*
X53948585Y-59930685D01*
X53900966Y-59740209D01*
X53900966Y-59597352D01*
X53948585Y-59406876D01*
X53996204Y-59311638D01*
X54091442Y-59216400D01*
X54234300Y-59168780D01*
X54329538Y-59168780D01*
X54472395Y-59216400D01*
X54520014Y-59264019D01*
X54948585Y-59644971D02*
X55281919Y-59644971D01*
X55424776Y-60168780D02*
X54948585Y-60168780D01*
X54948585Y-59168780D01*
X55424776Y-59168780D01*
X56615252Y-60168780D02*
X56615252Y-59168780D01*
X56996204Y-59168780D01*
X57091442Y-59216400D01*
X57139061Y-59264019D01*
X57186680Y-59359257D01*
X57186680Y-59502114D01*
X57139061Y-59597352D01*
X57091442Y-59644971D01*
X56996204Y-59692590D01*
X56615252Y-59692590D01*
X57615252Y-60168780D02*
X57615252Y-59502114D01*
X57615252Y-59168780D02*
X57567633Y-59216400D01*
X57615252Y-59264019D01*
X57662871Y-59216400D01*
X57615252Y-59168780D01*
X57615252Y-59264019D01*
X58234300Y-60168780D02*
X58139061Y-60121161D01*
X58091442Y-60025923D01*
X58091442Y-59168780D01*
X58758109Y-60168780D02*
X58662871Y-60121161D01*
X58615252Y-60025923D01*
X58615252Y-59168780D01*
X53472395Y-61818780D02*
X53472395Y-61152114D01*
X53472395Y-61342590D02*
X53520014Y-61247352D01*
X53567633Y-61199733D01*
X53662871Y-61152114D01*
X53758109Y-61152114D01*
X54615252Y-61818780D02*
X54043823Y-61818780D01*
X54329538Y-61818780D02*
X54329538Y-60818780D01*
X54234300Y-60961638D01*
X54139061Y-61056876D01*
X54043823Y-61104495D01*
X55758109Y-61533066D02*
X56234300Y-61533066D01*
X55662871Y-61818780D02*
X55996204Y-60818780D01*
X56329538Y-61818780D01*
X57186680Y-60866400D02*
X57091442Y-60818780D01*
X56948585Y-60818780D01*
X56805728Y-60866400D01*
X56710490Y-60961638D01*
X56662871Y-61056876D01*
X56615252Y-61247352D01*
X56615252Y-61390209D01*
X56662871Y-61580685D01*
X56710490Y-61675923D01*
X56805728Y-61771161D01*
X56948585Y-61818780D01*
X57043823Y-61818780D01*
X57186680Y-61771161D01*
X57234300Y-61723542D01*
X57234300Y-61390209D01*
X57043823Y-61390209D01*
X58186680Y-60866400D02*
X58091442Y-60818780D01*
X57948585Y-60818780D01*
X57805728Y-60866400D01*
X57710490Y-60961638D01*
X57662871Y-61056876D01*
X57615252Y-61247352D01*
X57615252Y-61390209D01*
X57662871Y-61580685D01*
X57710490Y-61675923D01*
X57805728Y-61771161D01*
X57948585Y-61818780D01*
X58043823Y-61818780D01*
X58186680Y-61771161D01*
X58234300Y-61723542D01*
X58234300Y-61390209D01*
X58043823Y-61390209D01*
X53424776Y-62564019D02*
X53472395Y-62516400D01*
X53567633Y-62468780D01*
X53805728Y-62468780D01*
X53900966Y-62516400D01*
X53948585Y-62564019D01*
X53996204Y-62659257D01*
X53996204Y-62754495D01*
X53948585Y-62897352D01*
X53377157Y-63468780D01*
X53996204Y-63468780D01*
X54615252Y-62468780D02*
X54710490Y-62468780D01*
X54805728Y-62516400D01*
X54853347Y-62564019D01*
X54900966Y-62659257D01*
X54948585Y-62849733D01*
X54948585Y-63087828D01*
X54900966Y-63278304D01*
X54853347Y-63373542D01*
X54805728Y-63421161D01*
X54710490Y-63468780D01*
X54615252Y-63468780D01*
X54520014Y-63421161D01*
X54472395Y-63373542D01*
X54424776Y-63278304D01*
X54377157Y-63087828D01*
X54377157Y-62849733D01*
X54424776Y-62659257D01*
X54472395Y-62564019D01*
X54520014Y-62516400D01*
X54615252Y-62468780D01*
X55329538Y-62564019D02*
X55377157Y-62516400D01*
X55472395Y-62468780D01*
X55710490Y-62468780D01*
X55805728Y-62516400D01*
X55853347Y-62564019D01*
X55900966Y-62659257D01*
X55900966Y-62754495D01*
X55853347Y-62897352D01*
X55281919Y-63468780D01*
X55900966Y-63468780D01*
X56520014Y-62468780D02*
X56615252Y-62468780D01*
X56710490Y-62516400D01*
X56758109Y-62564019D01*
X56805728Y-62659257D01*
X56853347Y-62849733D01*
X56853347Y-63087828D01*
X56805728Y-63278304D01*
X56758109Y-63373542D01*
X56710490Y-63421161D01*
X56615252Y-63468780D01*
X56520014Y-63468780D01*
X56424776Y-63421161D01*
X56377157Y-63373542D01*
X56329538Y-63278304D01*
X56281919Y-63087828D01*
X56281919Y-62849733D01*
X56329538Y-62659257D01*
X56377157Y-62564019D01*
X56424776Y-62516400D01*
X56520014Y-62468780D01*
X57281919Y-63087828D02*
X58043823Y-63087828D01*
X59043823Y-63468780D02*
X58472395Y-63468780D01*
X58758109Y-63468780D02*
X58758109Y-62468780D01*
X58662871Y-62611638D01*
X58567633Y-62706876D01*
X58472395Y-62754495D01*
X59996204Y-63468780D02*
X59424776Y-63468780D01*
X59710490Y-63468780D02*
X59710490Y-62468780D01*
X59615252Y-62611638D01*
X59520014Y-62706876D01*
X59424776Y-62754495D01*
%TO.C,R6*%
X63375000Y-78161000D02*
X63625000Y-78161000D01*
X63625000Y-78161000D02*
X63625000Y-78811000D01*
X63625000Y-78811000D02*
X63375000Y-78811000D01*
X63375000Y-78811000D02*
X63375000Y-78161000D01*
%TO.C,R5*%
X60073000Y-78161000D02*
X60323000Y-78161000D01*
X60323000Y-78161000D02*
X60323000Y-78811000D01*
X60323000Y-78811000D02*
X60073000Y-78811000D01*
X60073000Y-78811000D02*
X60073000Y-78161000D01*
%TO.C,IC2*%
X58700000Y-76960000D02*
X62200000Y-76960000D01*
X62200000Y-76960000D02*
X62200000Y-70360000D01*
X62200000Y-70360000D02*
X58700000Y-70360000D01*
X58700000Y-70360000D02*
X58700000Y-76960000D01*
%TO.C,C9*%
X80897000Y-76920000D02*
X80897000Y-78020000D01*
X80647000Y-76920000D02*
X80897000Y-76920000D01*
X80647000Y-78020000D02*
X80647000Y-76920000D01*
X80897000Y-78020000D02*
X80647000Y-78020000D01*
%TO.C,C8*%
X63371000Y-68030000D02*
X63371000Y-69130000D01*
X63121000Y-68030000D02*
X63371000Y-68030000D01*
X63121000Y-69130000D02*
X63121000Y-68030000D01*
X63371000Y-69130000D02*
X63121000Y-69130000D01*
%TO.C,C6*%
X103824500Y-76242000D02*
X103824500Y-75142000D01*
X104074500Y-76242000D02*
X103824500Y-76242000D01*
X104074500Y-75142000D02*
X104074500Y-76242000D01*
X103824500Y-75142000D02*
X104074500Y-75142000D01*
%TO.C,U1*%
X66710000Y-82160000D02*
X66710000Y-63660000D01*
X66710000Y-63660000D02*
X118710000Y-63660000D01*
X118710000Y-63660000D02*
X118710000Y-83660000D01*
X118710000Y-83660000D02*
X68210000Y-83660000D01*
X66710000Y-80160000D02*
X118710000Y-80160000D01*
X118710000Y-67160000D02*
X66710000Y-67160000D01*
X66710000Y-78660000D02*
X74210000Y-78660000D01*
X74210000Y-78660000D02*
X74210000Y-68660000D01*
X74210000Y-68660000D02*
X66710000Y-68660000D01*
X68210000Y-83660000D02*
X66710000Y-82160000D01*
%TO.C,D1*%
X88009000Y-60960000D02*
X87759000Y-61285000D01*
X88009000Y-60960000D02*
X87759000Y-60635000D01*
X87759000Y-61285000D02*
X87759000Y-60635000D01*
%TO.C,R4*%
X88009000Y-59761000D02*
X87759000Y-59761000D01*
X87759000Y-59761000D02*
X87759000Y-59111000D01*
X87759000Y-59111000D02*
X88009000Y-59111000D01*
X88009000Y-59111000D02*
X88009000Y-59761000D01*
%TO.C,R3*%
X68455000Y-89225000D02*
X68455000Y-88575000D01*
X68705000Y-89225000D02*
X68455000Y-89225000D01*
X68705000Y-88575000D02*
X68705000Y-89225000D01*
X68455000Y-88575000D02*
X68705000Y-88575000D01*
%TO.C,R2*%
X73531000Y-88575000D02*
X73531000Y-89225000D01*
X73281000Y-88575000D02*
X73531000Y-88575000D01*
X73281000Y-89225000D02*
X73281000Y-88575000D01*
X73531000Y-89225000D02*
X73281000Y-89225000D01*
%TO.C,J6*%
X67310000Y-57150000D02*
X67310000Y-54610000D01*
X82550000Y-57150000D02*
X67310000Y-57150000D01*
X82550000Y-54610000D02*
X82550000Y-57150000D01*
X67310000Y-54610000D02*
X82550000Y-54610000D01*
%TO.C,J5*%
X90170000Y-57150000D02*
X90170000Y-54610000D01*
X105410000Y-57150000D02*
X90170000Y-57150000D01*
X105410000Y-54610000D02*
X105410000Y-57150000D01*
X90170000Y-54610000D02*
X105410000Y-54610000D01*
%TO.C,J4*%
X113030000Y-57150000D02*
X113030000Y-54610000D01*
X128270000Y-57150000D02*
X113030000Y-57150000D01*
X128270000Y-54610000D02*
X128270000Y-57150000D01*
X113030000Y-54610000D02*
X128270000Y-54610000D01*
%TO.C,J3*%
X128270000Y-90170000D02*
X128270000Y-92710000D01*
X113030000Y-90170000D02*
X128270000Y-90170000D01*
X113030000Y-92710000D02*
X113030000Y-90170000D01*
X128270000Y-92710000D02*
X113030000Y-92710000D01*
%TO.C,J2*%
X105410000Y-90170000D02*
X105410000Y-92710000D01*
X90170000Y-90170000D02*
X105410000Y-90170000D01*
X90170000Y-92710000D02*
X90170000Y-90170000D01*
X105410000Y-92710000D02*
X90170000Y-92710000D01*
%TO.C,J1*%
X82550000Y-90170000D02*
X82550000Y-92710000D01*
X67310000Y-90170000D02*
X82550000Y-90170000D01*
X67310000Y-92710000D02*
X67310000Y-90170000D01*
X82550000Y-92710000D02*
X67310000Y-92710000D01*
%TO.C,R1*%
X103884000Y-74239000D02*
X103634000Y-74239000D01*
X103634000Y-74239000D02*
X103634000Y-73589000D01*
X103634000Y-73589000D02*
X103884000Y-73589000D01*
X103884000Y-73589000D02*
X103884000Y-74239000D01*
%TO.C,J7*%
X129540000Y-66040000D02*
X129540000Y-81280000D01*
X129540000Y-81280000D02*
X124460000Y-81280000D01*
X124460000Y-81280000D02*
X124460000Y-74930000D01*
X124460000Y-72390000D02*
X124460000Y-66040000D01*
X124460000Y-66040000D02*
X129540000Y-66040000D01*
%TO.C,J9*%
X67310000Y-59690000D02*
X80010000Y-59690000D01*
X80010000Y-59690000D02*
X80010000Y-62230000D01*
X80010000Y-62230000D02*
X67310000Y-62230000D01*
X67310000Y-62230000D02*
X67310000Y-59690000D01*
%TO.C,J8*%
X67310000Y-85090000D02*
X80010000Y-85090000D01*
X80010000Y-85090000D02*
X80010000Y-87630000D01*
X80010000Y-87630000D02*
X67310000Y-87630000D01*
X67310000Y-87630000D02*
X67310000Y-85090000D01*
%TO.C,IC1*%
X89210000Y-77160000D02*
X89210000Y-76810000D01*
X89560000Y-77160000D02*
X89210000Y-77160000D01*
X96210000Y-77160000D02*
X96210000Y-76810000D01*
X95860000Y-77160000D02*
X96210000Y-77160000D01*
X96210000Y-70160000D02*
X96210000Y-70510000D01*
X95860000Y-70160000D02*
X96210000Y-70160000D01*
X89210000Y-70510000D02*
X89560000Y-70160000D01*
%TO.C,C7*%
X100459000Y-75113000D02*
X100709000Y-75113000D01*
X100709000Y-75113000D02*
X100709000Y-75763000D01*
X100709000Y-75763000D02*
X100459000Y-75763000D01*
X100459000Y-75763000D02*
X100459000Y-75113000D01*
%TO.C,C5*%
X100459000Y-73589000D02*
X100709000Y-73589000D01*
X100709000Y-73589000D02*
X100709000Y-74239000D01*
X100709000Y-74239000D02*
X100459000Y-74239000D01*
X100459000Y-74239000D02*
X100459000Y-73589000D01*
%TO.C,C4*%
X85519800Y-73223000D02*
X85269800Y-73223000D01*
X85269800Y-73223000D02*
X85269800Y-72573000D01*
X85269800Y-72573000D02*
X85519800Y-72573000D01*
X85519800Y-72573000D02*
X85519800Y-73223000D01*
%TO.C,C3*%
X100459000Y-72065000D02*
X100709000Y-72065000D01*
X100709000Y-72065000D02*
X100709000Y-72715000D01*
X100709000Y-72715000D02*
X100459000Y-72715000D01*
X100459000Y-72715000D02*
X100459000Y-72065000D01*
%TO.C,C2*%
X96852200Y-78211800D02*
X97102200Y-78211800D01*
X97102200Y-78211800D02*
X97102200Y-78861800D01*
X97102200Y-78861800D02*
X96852200Y-78861800D01*
X96852200Y-78861800D02*
X96852200Y-78211800D01*
%TO.C,C1*%
X85519800Y-69921000D02*
X85269800Y-69921000D01*
X85269800Y-69921000D02*
X85269800Y-69271000D01*
X85269800Y-69271000D02*
X85519800Y-69271000D01*
X85519800Y-69271000D02*
X85519800Y-69921000D01*
%TO.C,R6*%
X63366666Y-80117904D02*
X63100000Y-79736952D01*
X62909523Y-80117904D02*
X62909523Y-79317904D01*
X63214285Y-79317904D01*
X63290476Y-79356000D01*
X63328571Y-79394095D01*
X63366666Y-79470285D01*
X63366666Y-79584571D01*
X63328571Y-79660761D01*
X63290476Y-79698857D01*
X63214285Y-79736952D01*
X62909523Y-79736952D01*
X64052380Y-79317904D02*
X63900000Y-79317904D01*
X63823809Y-79356000D01*
X63785714Y-79394095D01*
X63709523Y-79508380D01*
X63671428Y-79660761D01*
X63671428Y-79965523D01*
X63709523Y-80041714D01*
X63747619Y-80079809D01*
X63823809Y-80117904D01*
X63976190Y-80117904D01*
X64052380Y-80079809D01*
X64090476Y-80041714D01*
X64128571Y-79965523D01*
X64128571Y-79775047D01*
X64090476Y-79698857D01*
X64052380Y-79660761D01*
X63976190Y-79622666D01*
X63823809Y-79622666D01*
X63747619Y-79660761D01*
X63709523Y-79698857D01*
X63671428Y-79775047D01*
%TO.C,R5*%
X60064666Y-80117904D02*
X59798000Y-79736952D01*
X59607523Y-80117904D02*
X59607523Y-79317904D01*
X59912285Y-79317904D01*
X59988476Y-79356000D01*
X60026571Y-79394095D01*
X60064666Y-79470285D01*
X60064666Y-79584571D01*
X60026571Y-79660761D01*
X59988476Y-79698857D01*
X59912285Y-79736952D01*
X59607523Y-79736952D01*
X60788476Y-79317904D02*
X60407523Y-79317904D01*
X60369428Y-79698857D01*
X60407523Y-79660761D01*
X60483714Y-79622666D01*
X60674190Y-79622666D01*
X60750380Y-79660761D01*
X60788476Y-79698857D01*
X60826571Y-79775047D01*
X60826571Y-79965523D01*
X60788476Y-80041714D01*
X60750380Y-80079809D01*
X60674190Y-80117904D01*
X60483714Y-80117904D01*
X60407523Y-80079809D01*
X60369428Y-80041714D01*
%TO.C,IC2*%
X56623047Y-76815904D02*
X56623047Y-76015904D01*
X57461142Y-76739714D02*
X57423047Y-76777809D01*
X57308761Y-76815904D01*
X57232571Y-76815904D01*
X57118285Y-76777809D01*
X57042095Y-76701619D01*
X57004000Y-76625428D01*
X56965904Y-76473047D01*
X56965904Y-76358761D01*
X57004000Y-76206380D01*
X57042095Y-76130190D01*
X57118285Y-76054000D01*
X57232571Y-76015904D01*
X57308761Y-76015904D01*
X57423047Y-76054000D01*
X57461142Y-76092095D01*
X57765904Y-76092095D02*
X57804000Y-76054000D01*
X57880190Y-76015904D01*
X58070666Y-76015904D01*
X58146857Y-76054000D01*
X58184952Y-76092095D01*
X58223047Y-76168285D01*
X58223047Y-76244476D01*
X58184952Y-76358761D01*
X57727809Y-76815904D01*
X58223047Y-76815904D01*
%TO.C,C9*%
X80638666Y-79279714D02*
X80600571Y-79317809D01*
X80486285Y-79355904D01*
X80410095Y-79355904D01*
X80295809Y-79317809D01*
X80219619Y-79241619D01*
X80181523Y-79165428D01*
X80143428Y-79013047D01*
X80143428Y-78898761D01*
X80181523Y-78746380D01*
X80219619Y-78670190D01*
X80295809Y-78594000D01*
X80410095Y-78555904D01*
X80486285Y-78555904D01*
X80600571Y-78594000D01*
X80638666Y-78632095D01*
X81019619Y-79355904D02*
X81172000Y-79355904D01*
X81248190Y-79317809D01*
X81286285Y-79279714D01*
X81362476Y-79165428D01*
X81400571Y-79013047D01*
X81400571Y-78708285D01*
X81362476Y-78632095D01*
X81324380Y-78594000D01*
X81248190Y-78555904D01*
X81095809Y-78555904D01*
X81019619Y-78594000D01*
X80981523Y-78632095D01*
X80943428Y-78708285D01*
X80943428Y-78898761D01*
X80981523Y-78974952D01*
X81019619Y-79013047D01*
X81095809Y-79051142D01*
X81248190Y-79051142D01*
X81324380Y-79013047D01*
X81362476Y-78974952D01*
X81400571Y-78898761D01*
%TO.C,C8*%
X63112666Y-67341714D02*
X63074571Y-67379809D01*
X62960285Y-67417904D01*
X62884095Y-67417904D01*
X62769809Y-67379809D01*
X62693619Y-67303619D01*
X62655523Y-67227428D01*
X62617428Y-67075047D01*
X62617428Y-66960761D01*
X62655523Y-66808380D01*
X62693619Y-66732190D01*
X62769809Y-66656000D01*
X62884095Y-66617904D01*
X62960285Y-66617904D01*
X63074571Y-66656000D01*
X63112666Y-66694095D01*
X63569809Y-66960761D02*
X63493619Y-66922666D01*
X63455523Y-66884571D01*
X63417428Y-66808380D01*
X63417428Y-66770285D01*
X63455523Y-66694095D01*
X63493619Y-66656000D01*
X63569809Y-66617904D01*
X63722190Y-66617904D01*
X63798380Y-66656000D01*
X63836476Y-66694095D01*
X63874571Y-66770285D01*
X63874571Y-66808380D01*
X63836476Y-66884571D01*
X63798380Y-66922666D01*
X63722190Y-66960761D01*
X63569809Y-66960761D01*
X63493619Y-66998857D01*
X63455523Y-67036952D01*
X63417428Y-67113142D01*
X63417428Y-67265523D01*
X63455523Y-67341714D01*
X63493619Y-67379809D01*
X63569809Y-67417904D01*
X63722190Y-67417904D01*
X63798380Y-67379809D01*
X63836476Y-67341714D01*
X63874571Y-67265523D01*
X63874571Y-67113142D01*
X63836476Y-67036952D01*
X63798380Y-66998857D01*
X63722190Y-66960761D01*
%TO.C,C6*%
X106292666Y-75977714D02*
X106254571Y-76015809D01*
X106140285Y-76053904D01*
X106064095Y-76053904D01*
X105949809Y-76015809D01*
X105873619Y-75939619D01*
X105835523Y-75863428D01*
X105797428Y-75711047D01*
X105797428Y-75596761D01*
X105835523Y-75444380D01*
X105873619Y-75368190D01*
X105949809Y-75292000D01*
X106064095Y-75253904D01*
X106140285Y-75253904D01*
X106254571Y-75292000D01*
X106292666Y-75330095D01*
X106978380Y-75253904D02*
X106826000Y-75253904D01*
X106749809Y-75292000D01*
X106711714Y-75330095D01*
X106635523Y-75444380D01*
X106597428Y-75596761D01*
X106597428Y-75901523D01*
X106635523Y-75977714D01*
X106673619Y-76015809D01*
X106749809Y-76053904D01*
X106902190Y-76053904D01*
X106978380Y-76015809D01*
X107016476Y-75977714D01*
X107054571Y-75901523D01*
X107054571Y-75711047D01*
X107016476Y-75634857D01*
X106978380Y-75596761D01*
X106902190Y-75558666D01*
X106749809Y-75558666D01*
X106673619Y-75596761D01*
X106635523Y-75634857D01*
X106597428Y-75711047D01*
%TO.C,U1*%
X67125904Y-78079523D02*
X67773523Y-78079523D01*
X67849714Y-78041428D01*
X67887809Y-78003333D01*
X67925904Y-77927142D01*
X67925904Y-77774761D01*
X67887809Y-77698571D01*
X67849714Y-77660476D01*
X67773523Y-77622380D01*
X67125904Y-77622380D01*
X67925904Y-76822380D02*
X67925904Y-77279523D01*
X67925904Y-77050952D02*
X67125904Y-77050952D01*
X67240190Y-77127142D01*
X67316380Y-77203333D01*
X67354476Y-77279523D01*
%TO.C,D1*%
X86531523Y-62591904D02*
X86531523Y-61791904D01*
X86722000Y-61791904D01*
X86836285Y-61830000D01*
X86912476Y-61906190D01*
X86950571Y-61982380D01*
X86988666Y-62134761D01*
X86988666Y-62249047D01*
X86950571Y-62401428D01*
X86912476Y-62477619D01*
X86836285Y-62553809D01*
X86722000Y-62591904D01*
X86531523Y-62591904D01*
X87750571Y-62591904D02*
X87293428Y-62591904D01*
X87522000Y-62591904D02*
X87522000Y-61791904D01*
X87445809Y-61906190D01*
X87369619Y-61982380D01*
X87293428Y-62020476D01*
%TO.C,R4*%
X86988666Y-58527904D02*
X86722000Y-58146952D01*
X86531523Y-58527904D02*
X86531523Y-57727904D01*
X86836285Y-57727904D01*
X86912476Y-57766000D01*
X86950571Y-57804095D01*
X86988666Y-57880285D01*
X86988666Y-57994571D01*
X86950571Y-58070761D01*
X86912476Y-58108857D01*
X86836285Y-58146952D01*
X86531523Y-58146952D01*
X87674380Y-57994571D02*
X87674380Y-58527904D01*
X87483904Y-57689809D02*
X87293428Y-58261238D01*
X87788666Y-58261238D01*
%TO.C,R3*%
X70732666Y-89261904D02*
X70466000Y-88880952D01*
X70275523Y-89261904D02*
X70275523Y-88461904D01*
X70580285Y-88461904D01*
X70656476Y-88500000D01*
X70694571Y-88538095D01*
X70732666Y-88614285D01*
X70732666Y-88728571D01*
X70694571Y-88804761D01*
X70656476Y-88842857D01*
X70580285Y-88880952D01*
X70275523Y-88880952D01*
X70999333Y-88461904D02*
X71494571Y-88461904D01*
X71227904Y-88766666D01*
X71342190Y-88766666D01*
X71418380Y-88804761D01*
X71456476Y-88842857D01*
X71494571Y-88919047D01*
X71494571Y-89109523D01*
X71456476Y-89185714D01*
X71418380Y-89223809D01*
X71342190Y-89261904D01*
X71113619Y-89261904D01*
X71037428Y-89223809D01*
X70999333Y-89185714D01*
%TO.C,R2*%
X75558666Y-89261904D02*
X75292000Y-88880952D01*
X75101523Y-89261904D02*
X75101523Y-88461904D01*
X75406285Y-88461904D01*
X75482476Y-88500000D01*
X75520571Y-88538095D01*
X75558666Y-88614285D01*
X75558666Y-88728571D01*
X75520571Y-88804761D01*
X75482476Y-88842857D01*
X75406285Y-88880952D01*
X75101523Y-88880952D01*
X75863428Y-88538095D02*
X75901523Y-88500000D01*
X75977714Y-88461904D01*
X76168190Y-88461904D01*
X76244380Y-88500000D01*
X76282476Y-88538095D01*
X76320571Y-88614285D01*
X76320571Y-88690476D01*
X76282476Y-88804761D01*
X75825333Y-89261904D01*
X76320571Y-89261904D01*
%TO.C,R1*%
X106292666Y-74275904D02*
X106026000Y-73894952D01*
X105835523Y-74275904D02*
X105835523Y-73475904D01*
X106140285Y-73475904D01*
X106216476Y-73514000D01*
X106254571Y-73552095D01*
X106292666Y-73628285D01*
X106292666Y-73742571D01*
X106254571Y-73818761D01*
X106216476Y-73856857D01*
X106140285Y-73894952D01*
X105835523Y-73894952D01*
X107054571Y-74275904D02*
X106597428Y-74275904D01*
X106826000Y-74275904D02*
X106826000Y-73475904D01*
X106749809Y-73590190D01*
X106673619Y-73666380D01*
X106597428Y-73704476D01*
%TO.C,J9*%
X80732380Y-61293333D02*
X81446666Y-61293333D01*
X81589523Y-61340952D01*
X81684761Y-61436190D01*
X81732380Y-61579047D01*
X81732380Y-61674285D01*
X81732380Y-60769523D02*
X81732380Y-60579047D01*
X81684761Y-60483809D01*
X81637142Y-60436190D01*
X81494285Y-60340952D01*
X81303809Y-60293333D01*
X80922857Y-60293333D01*
X80827619Y-60340952D01*
X80780000Y-60388571D01*
X80732380Y-60483809D01*
X80732380Y-60674285D01*
X80780000Y-60769523D01*
X80827619Y-60817142D01*
X80922857Y-60864761D01*
X81160952Y-60864761D01*
X81256190Y-60817142D01*
X81303809Y-60769523D01*
X81351428Y-60674285D01*
X81351428Y-60483809D01*
X81303809Y-60388571D01*
X81256190Y-60340952D01*
X81160952Y-60293333D01*
%TO.C,J8*%
X80732380Y-86693333D02*
X81446666Y-86693333D01*
X81589523Y-86740952D01*
X81684761Y-86836190D01*
X81732380Y-86979047D01*
X81732380Y-87074285D01*
X81160952Y-86074285D02*
X81113333Y-86169523D01*
X81065714Y-86217142D01*
X80970476Y-86264761D01*
X80922857Y-86264761D01*
X80827619Y-86217142D01*
X80780000Y-86169523D01*
X80732380Y-86074285D01*
X80732380Y-85883809D01*
X80780000Y-85788571D01*
X80827619Y-85740952D01*
X80922857Y-85693333D01*
X80970476Y-85693333D01*
X81065714Y-85740952D01*
X81113333Y-85788571D01*
X81160952Y-85883809D01*
X81160952Y-86074285D01*
X81208571Y-86169523D01*
X81256190Y-86217142D01*
X81351428Y-86264761D01*
X81541904Y-86264761D01*
X81637142Y-86217142D01*
X81684761Y-86169523D01*
X81732380Y-86074285D01*
X81732380Y-85883809D01*
X81684761Y-85788571D01*
X81637142Y-85740952D01*
X81541904Y-85693333D01*
X81351428Y-85693333D01*
X81256190Y-85740952D01*
X81208571Y-85788571D01*
X81160952Y-85883809D01*
%TO.C,IC1*%
X88881047Y-69449904D02*
X88881047Y-68649904D01*
X89719142Y-69373714D02*
X89681047Y-69411809D01*
X89566761Y-69449904D01*
X89490571Y-69449904D01*
X89376285Y-69411809D01*
X89300095Y-69335619D01*
X89262000Y-69259428D01*
X89223904Y-69107047D01*
X89223904Y-68992761D01*
X89262000Y-68840380D01*
X89300095Y-68764190D01*
X89376285Y-68688000D01*
X89490571Y-68649904D01*
X89566761Y-68649904D01*
X89681047Y-68688000D01*
X89719142Y-68726095D01*
X90481047Y-69449904D02*
X90023904Y-69449904D01*
X90252476Y-69449904D02*
X90252476Y-68649904D01*
X90176285Y-68764190D01*
X90100095Y-68840380D01*
X90023904Y-68878476D01*
%TO.C,C7*%
X97656666Y-75977714D02*
X97618571Y-76015809D01*
X97504285Y-76053904D01*
X97428095Y-76053904D01*
X97313809Y-76015809D01*
X97237619Y-75939619D01*
X97199523Y-75863428D01*
X97161428Y-75711047D01*
X97161428Y-75596761D01*
X97199523Y-75444380D01*
X97237619Y-75368190D01*
X97313809Y-75292000D01*
X97428095Y-75253904D01*
X97504285Y-75253904D01*
X97618571Y-75292000D01*
X97656666Y-75330095D01*
X97923333Y-75253904D02*
X98456666Y-75253904D01*
X98113809Y-76053904D01*
%TO.C,C5*%
X97656666Y-74453714D02*
X97618571Y-74491809D01*
X97504285Y-74529904D01*
X97428095Y-74529904D01*
X97313809Y-74491809D01*
X97237619Y-74415619D01*
X97199523Y-74339428D01*
X97161428Y-74187047D01*
X97161428Y-74072761D01*
X97199523Y-73920380D01*
X97237619Y-73844190D01*
X97313809Y-73768000D01*
X97428095Y-73729904D01*
X97504285Y-73729904D01*
X97618571Y-73768000D01*
X97656666Y-73806095D01*
X98380476Y-73729904D02*
X97999523Y-73729904D01*
X97961428Y-74110857D01*
X97999523Y-74072761D01*
X98075714Y-74034666D01*
X98266190Y-74034666D01*
X98342380Y-74072761D01*
X98380476Y-74110857D01*
X98418571Y-74187047D01*
X98418571Y-74377523D01*
X98380476Y-74453714D01*
X98342380Y-74491809D01*
X98266190Y-74529904D01*
X98075714Y-74529904D01*
X97999523Y-74491809D01*
X97961428Y-74453714D01*
%TO.C,C4*%
X85210666Y-74453714D02*
X85172571Y-74491809D01*
X85058285Y-74529904D01*
X84982095Y-74529904D01*
X84867809Y-74491809D01*
X84791619Y-74415619D01*
X84753523Y-74339428D01*
X84715428Y-74187047D01*
X84715428Y-74072761D01*
X84753523Y-73920380D01*
X84791619Y-73844190D01*
X84867809Y-73768000D01*
X84982095Y-73729904D01*
X85058285Y-73729904D01*
X85172571Y-73768000D01*
X85210666Y-73806095D01*
X85896380Y-73996571D02*
X85896380Y-74529904D01*
X85705904Y-73691809D02*
X85515428Y-74263238D01*
X86010666Y-74263238D01*
%TO.C,C3*%
X97656666Y-72929714D02*
X97618571Y-72967809D01*
X97504285Y-73005904D01*
X97428095Y-73005904D01*
X97313809Y-72967809D01*
X97237619Y-72891619D01*
X97199523Y-72815428D01*
X97161428Y-72663047D01*
X97161428Y-72548761D01*
X97199523Y-72396380D01*
X97237619Y-72320190D01*
X97313809Y-72244000D01*
X97428095Y-72205904D01*
X97504285Y-72205904D01*
X97618571Y-72244000D01*
X97656666Y-72282095D01*
X97923333Y-72205904D02*
X98418571Y-72205904D01*
X98151904Y-72510666D01*
X98266190Y-72510666D01*
X98342380Y-72548761D01*
X98380476Y-72586857D01*
X98418571Y-72663047D01*
X98418571Y-72853523D01*
X98380476Y-72929714D01*
X98342380Y-72967809D01*
X98266190Y-73005904D01*
X98037619Y-73005904D01*
X97961428Y-72967809D01*
X97923333Y-72929714D01*
%TO.C,C2*%
X97656666Y-77501714D02*
X97618571Y-77539809D01*
X97504285Y-77577904D01*
X97428095Y-77577904D01*
X97313809Y-77539809D01*
X97237619Y-77463619D01*
X97199523Y-77387428D01*
X97161428Y-77235047D01*
X97161428Y-77120761D01*
X97199523Y-76968380D01*
X97237619Y-76892190D01*
X97313809Y-76816000D01*
X97428095Y-76777904D01*
X97504285Y-76777904D01*
X97618571Y-76816000D01*
X97656666Y-76854095D01*
X97961428Y-76854095D02*
X97999523Y-76816000D01*
X98075714Y-76777904D01*
X98266190Y-76777904D01*
X98342380Y-76816000D01*
X98380476Y-76854095D01*
X98418571Y-76930285D01*
X98418571Y-77006476D01*
X98380476Y-77120761D01*
X97923333Y-77577904D01*
X98418571Y-77577904D01*
%TO.C,C1*%
X85210666Y-71151714D02*
X85172571Y-71189809D01*
X85058285Y-71227904D01*
X84982095Y-71227904D01*
X84867809Y-71189809D01*
X84791619Y-71113619D01*
X84753523Y-71037428D01*
X84715428Y-70885047D01*
X84715428Y-70770761D01*
X84753523Y-70618380D01*
X84791619Y-70542190D01*
X84867809Y-70466000D01*
X84982095Y-70427904D01*
X85058285Y-70427904D01*
X85172571Y-70466000D01*
X85210666Y-70504095D01*
X85972571Y-71227904D02*
X85515428Y-71227904D01*
X85744000Y-71227904D02*
X85744000Y-70427904D01*
X85667809Y-70542190D01*
X85591619Y-70618380D01*
X85515428Y-70656476D01*
%TD*%
%LPC*%
D12*
%TO.C,R6*%
X64300000Y-78486000D03*
X62700000Y-78486000D03*
%TD*%
%TO.C,R5*%
X60998000Y-78486000D03*
X59398000Y-78486000D03*
%TD*%
D13*
%TO.C,IC2*%
X57400000Y-73660000D03*
D14*
X63500000Y-71360000D03*
X63500000Y-75960000D03*
X63500000Y-73660000D03*
%TD*%
D15*
%TO.C,C9*%
X79872000Y-77470000D03*
X81672000Y-77470000D03*
%TD*%
%TO.C,C8*%
X62346000Y-68580000D03*
X64146000Y-68580000D03*
%TD*%
%TO.C,C6*%
X104849500Y-75692000D03*
X103049500Y-75692000D03*
%TD*%
D16*
%TO.C,U1*%
X68580000Y-66040000D03*
X71120000Y-66040000D03*
X73660000Y-66040000D03*
X76200000Y-66040000D03*
X78740000Y-66040000D03*
X81280000Y-66040000D03*
X83820000Y-66040000D03*
X86360000Y-66040000D03*
X88900000Y-66040000D03*
X91440000Y-66040000D03*
X93980000Y-66040000D03*
X96520000Y-66040000D03*
X99060000Y-66040000D03*
X101600000Y-66040000D03*
X104140000Y-66040000D03*
X106680000Y-66040000D03*
X109220000Y-66040000D03*
X111760000Y-66040000D03*
X114300000Y-66040000D03*
X116840000Y-66040000D03*
X116840000Y-81280000D03*
X114300000Y-81280000D03*
X111760000Y-81280000D03*
X109220000Y-81280000D03*
X106680000Y-81280000D03*
X104140000Y-81280000D03*
X101600000Y-81280000D03*
X99060000Y-81280000D03*
X96520000Y-81280000D03*
X93980000Y-81280000D03*
X91440000Y-81280000D03*
X88900000Y-81280000D03*
X86360000Y-81280000D03*
X83820000Y-81280000D03*
X81280000Y-81280000D03*
X78740000Y-81280000D03*
X76200000Y-81280000D03*
X73660000Y-81280000D03*
X71120000Y-81280000D03*
G36*
G01*
X68905000Y-82330000D02*
X68255000Y-82330000D01*
G75*
G02*
X67930000Y-82005000I0J325000D01*
G01*
X67930000Y-80555000D01*
G75*
G02*
X68255000Y-80230000I325000J0D01*
G01*
X68905000Y-80230000D01*
G75*
G02*
X69230000Y-80555000I0J-325000D01*
G01*
X69230000Y-82005000D01*
G75*
G02*
X68905000Y-82330000I-325000J0D01*
G01*
G37*
%TD*%
D12*
%TO.C,D1*%
X87084000Y-60960000D03*
X88684000Y-60960000D03*
%TD*%
%TO.C,R4*%
X87084000Y-59436000D03*
X88684000Y-59436000D03*
%TD*%
%TO.C,R3*%
X69380000Y-88900000D03*
X67780000Y-88900000D03*
%TD*%
%TO.C,R2*%
X72606000Y-88900000D03*
X74206000Y-88900000D03*
%TD*%
D17*
%TO.C,J6*%
X81280000Y-55880000D03*
X78740000Y-55880000D03*
X76200000Y-55880000D03*
X73660000Y-55880000D03*
X71120000Y-55880000D03*
D18*
X68580000Y-55880000D03*
%TD*%
D17*
%TO.C,J5*%
X104140000Y-55880000D03*
X101600000Y-55880000D03*
X99060000Y-55880000D03*
X96520000Y-55880000D03*
X93980000Y-55880000D03*
D18*
X91440000Y-55880000D03*
%TD*%
D17*
%TO.C,J4*%
X127000000Y-55880000D03*
X124460000Y-55880000D03*
X121920000Y-55880000D03*
X119380000Y-55880000D03*
X116840000Y-55880000D03*
D18*
X114300000Y-55880000D03*
%TD*%
D17*
%TO.C,J3*%
X114300000Y-91440000D03*
X116840000Y-91440000D03*
X119380000Y-91440000D03*
X121920000Y-91440000D03*
X124460000Y-91440000D03*
D18*
X127000000Y-91440000D03*
%TD*%
D17*
%TO.C,J2*%
X91440000Y-91440000D03*
X93980000Y-91440000D03*
X96520000Y-91440000D03*
X99060000Y-91440000D03*
X101600000Y-91440000D03*
D18*
X104140000Y-91440000D03*
%TD*%
D17*
%TO.C,J1*%
X68580000Y-91440000D03*
X71120000Y-91440000D03*
X73660000Y-91440000D03*
X76200000Y-91440000D03*
X78740000Y-91440000D03*
D18*
X81280000Y-91440000D03*
%TD*%
D19*
%TO.C,X4*%
X55880000Y-54610000D03*
D20*
X55880000Y-52110000D03*
X58380000Y-54610000D03*
X55880000Y-57110000D03*
X53380000Y-54610000D03*
X54080000Y-52810000D03*
X57680000Y-52810000D03*
X54080000Y-56410000D03*
X57680000Y-56410000D03*
%TD*%
D19*
%TO.C,X3*%
X133350000Y-54610000D03*
D20*
X133350000Y-52110000D03*
X135850000Y-54610000D03*
X133350000Y-57110000D03*
X130850000Y-54610000D03*
X131550000Y-52810000D03*
X135150000Y-52810000D03*
X131550000Y-56410000D03*
X135150000Y-56410000D03*
%TD*%
D19*
%TO.C,X2*%
X133350000Y-92710000D03*
D20*
X133350000Y-90210000D03*
X135850000Y-92710000D03*
X133350000Y-95210000D03*
X130850000Y-92710000D03*
X131550000Y-90910000D03*
X135150000Y-90910000D03*
X131550000Y-94510000D03*
X135150000Y-94510000D03*
%TD*%
D19*
%TO.C,X1*%
X55880000Y-92710000D03*
D20*
X55880000Y-90210000D03*
X58380000Y-92710000D03*
X55880000Y-95210000D03*
X53380000Y-92710000D03*
X54080000Y-90910000D03*
X57680000Y-90910000D03*
X54080000Y-94510000D03*
X57680000Y-94510000D03*
%TD*%
D12*
%TO.C,R1*%
X102959000Y-73914000D03*
X104559000Y-73914000D03*
%TD*%
D17*
%TO.C,J7*%
X128270000Y-80010000D03*
X125730000Y-80010000D03*
X128270000Y-77470000D03*
X125730000Y-77470000D03*
X128270000Y-74930000D03*
X125730000Y-74930000D03*
X128270000Y-72390000D03*
X125730000Y-72390000D03*
X128270000Y-69850000D03*
X125730000Y-69850000D03*
X128270000Y-67310000D03*
D18*
X125730000Y-67310000D03*
%TD*%
D17*
%TO.C,J9*%
X78740000Y-60960000D03*
X76200000Y-60960000D03*
X73660000Y-60960000D03*
X71120000Y-60960000D03*
D18*
X68580000Y-60960000D03*
%TD*%
D17*
%TO.C,J8*%
X78740000Y-86360000D03*
X76200000Y-86360000D03*
X73660000Y-86360000D03*
X71120000Y-86360000D03*
D18*
X68580000Y-86360000D03*
%TD*%
D21*
%TO.C,IC1*%
X89310000Y-70910000D03*
X89310000Y-71410000D03*
X89310000Y-71910000D03*
X89310000Y-72410000D03*
X89310000Y-72910000D03*
X89310000Y-73410000D03*
X89310000Y-73910000D03*
X89310000Y-74410000D03*
X89310000Y-74910000D03*
X89310000Y-75410000D03*
X89310000Y-75910000D03*
X89310000Y-76410000D03*
D22*
X89960000Y-77060000D03*
X90460000Y-77060000D03*
X90960000Y-77060000D03*
X91460000Y-77060000D03*
X91960000Y-77060000D03*
X92460000Y-77060000D03*
X92960000Y-77060000D03*
X93460000Y-77060000D03*
X93960000Y-77060000D03*
X94460000Y-77060000D03*
X94960000Y-77060000D03*
X95460000Y-77060000D03*
D21*
X96110000Y-76410000D03*
X96110000Y-75910000D03*
X96110000Y-75410000D03*
X96110000Y-74910000D03*
X96110000Y-74410000D03*
X96110000Y-73910000D03*
X96110000Y-73410000D03*
X96110000Y-72910000D03*
X96110000Y-72410000D03*
X96110000Y-71910000D03*
X96110000Y-71410000D03*
X96110000Y-70910000D03*
D22*
X95460000Y-70260000D03*
X94960000Y-70260000D03*
X94460000Y-70260000D03*
X93960000Y-70260000D03*
X93460000Y-70260000D03*
X92960000Y-70260000D03*
X92460000Y-70260000D03*
X91960000Y-70260000D03*
X91460000Y-70260000D03*
X90960000Y-70260000D03*
X90460000Y-70260000D03*
X89960000Y-70260000D03*
D23*
X90610000Y-71560000D03*
X90610000Y-72960000D03*
X90610000Y-74360000D03*
X90610000Y-75760000D03*
X92010000Y-71560000D03*
X92010000Y-72960000D03*
X92010000Y-74360000D03*
X92010000Y-75760000D03*
X93410000Y-71560000D03*
X93410000Y-72960000D03*
X93410000Y-74360000D03*
X93410000Y-75760000D03*
X94810000Y-71560000D03*
X94810000Y-72960000D03*
X94810000Y-74360000D03*
X94810000Y-75760000D03*
%TD*%
D12*
%TO.C,C7*%
X101384000Y-75438000D03*
X99784000Y-75438000D03*
%TD*%
%TO.C,C5*%
X101384000Y-73914000D03*
X99784000Y-73914000D03*
%TD*%
%TO.C,C4*%
X84594800Y-72898000D03*
X86194800Y-72898000D03*
%TD*%
%TO.C,C3*%
X101384000Y-72390000D03*
X99784000Y-72390000D03*
%TD*%
%TO.C,C2*%
X97777200Y-78536800D03*
X96177200Y-78536800D03*
%TD*%
%TO.C,C1*%
X84594800Y-69596000D03*
X86194800Y-69596000D03*
%TD*%
M02*
