%TF.GenerationSoftware,KiCad,Pcbnew,5.1.6-c6e7f7d~87~ubuntu18.04.1*%
%TF.CreationDate,2020-11-08T15:05:41+00:00*%
%TF.ProjectId,icepill,69636570-696c-46c2-9e6b-696361645f70,1*%
%TF.SameCoordinates,Original*%
%TF.FileFunction,Legend,Top*%
%TF.FilePolarity,Positive*%
%FSLAX46Y46*%
G04 Gerber Fmt 4.6, Leading zero omitted, Abs format (unit mm)*
G04 Created by KiCad (PCBNEW 5.1.6-c6e7f7d~87~ubuntu18.04.1) date 2020-11-08 15:05:41*
%MOMM*%
%LPD*%
G01*
G04 APERTURE LIST*
%ADD10C,0.150000*%
%ADD11C,0.120000*%
%ADD12R,1.050000X1.100000*%
%ADD13R,2.500000X3.900000*%
%ADD14R,2.500000X1.400000*%
%ADD15R,1.250000X1.550000*%
%ADD16O,1.300000X2.100000*%
%ADD17C,2.000000*%
%ADD18R,2.000000X2.000000*%
%ADD19C,6.300000*%
%ADD20C,0.700000*%
%ADD21R,0.800000X0.350000*%
%ADD22R,0.350000X0.800000*%
%ADD23R,0.800000X0.800000*%
G04 APERTURE END LIST*
D10*
X101745023Y-85987380D02*
X101411690Y-85511190D01*
X101173595Y-85987380D02*
X101173595Y-84987380D01*
X101554547Y-84987380D01*
X101649785Y-85035000D01*
X101697404Y-85082619D01*
X101745023Y-85177857D01*
X101745023Y-85320714D01*
X101697404Y-85415952D01*
X101649785Y-85463571D01*
X101554547Y-85511190D01*
X101173595Y-85511190D01*
X102316452Y-85415952D02*
X102221214Y-85368333D01*
X102173595Y-85320714D01*
X102125976Y-85225476D01*
X102125976Y-85177857D01*
X102173595Y-85082619D01*
X102221214Y-85035000D01*
X102316452Y-84987380D01*
X102506928Y-84987380D01*
X102602166Y-85035000D01*
X102649785Y-85082619D01*
X102697404Y-85177857D01*
X102697404Y-85225476D01*
X102649785Y-85320714D01*
X102602166Y-85368333D01*
X102506928Y-85415952D01*
X102316452Y-85415952D01*
X102221214Y-85463571D01*
X102173595Y-85511190D01*
X102125976Y-85606428D01*
X102125976Y-85796904D01*
X102173595Y-85892142D01*
X102221214Y-85939761D01*
X102316452Y-85987380D01*
X102506928Y-85987380D01*
X102602166Y-85939761D01*
X102649785Y-85892142D01*
X102697404Y-85796904D01*
X102697404Y-85606428D01*
X102649785Y-85511190D01*
X102602166Y-85463571D01*
X102506928Y-85415952D01*
X103125976Y-85892142D02*
X103173595Y-85939761D01*
X103125976Y-85987380D01*
X103078357Y-85939761D01*
X103125976Y-85892142D01*
X103125976Y-85987380D01*
X103125976Y-85368333D02*
X103173595Y-85415952D01*
X103125976Y-85463571D01*
X103078357Y-85415952D01*
X103125976Y-85368333D01*
X103125976Y-85463571D01*
X104364071Y-85987380D02*
X104364071Y-84987380D01*
X104745023Y-84987380D01*
X104840261Y-85035000D01*
X104887880Y-85082619D01*
X104935500Y-85177857D01*
X104935500Y-85320714D01*
X104887880Y-85415952D01*
X104840261Y-85463571D01*
X104745023Y-85511190D01*
X104364071Y-85511190D01*
X105316452Y-85082619D02*
X105364071Y-85035000D01*
X105459309Y-84987380D01*
X105697404Y-84987380D01*
X105792642Y-85035000D01*
X105840261Y-85082619D01*
X105887880Y-85177857D01*
X105887880Y-85273095D01*
X105840261Y-85415952D01*
X105268833Y-85987380D01*
X105887880Y-85987380D01*
X106316452Y-85892142D02*
X106364071Y-85939761D01*
X106316452Y-85987380D01*
X106268833Y-85939761D01*
X106316452Y-85892142D01*
X106316452Y-85987380D01*
X106745023Y-85082619D02*
X106792642Y-85035000D01*
X106887880Y-84987380D01*
X107125976Y-84987380D01*
X107221214Y-85035000D01*
X107268833Y-85082619D01*
X107316452Y-85177857D01*
X107316452Y-85273095D01*
X107268833Y-85415952D01*
X106697404Y-85987380D01*
X107316452Y-85987380D01*
X107935500Y-85606428D02*
X108316452Y-85606428D01*
X107935500Y-85796904D02*
X107745023Y-85606428D01*
X107935500Y-85415952D01*
X107935500Y-85796904D01*
X108316452Y-85796904D02*
X108316452Y-85415952D01*
X108506928Y-85606428D01*
X108316452Y-85796904D01*
X108983119Y-85987380D02*
X108983119Y-84987380D01*
X109364071Y-84987380D01*
X109459309Y-85035000D01*
X109506928Y-85082619D01*
X109554547Y-85177857D01*
X109554547Y-85320714D01*
X109506928Y-85415952D01*
X109459309Y-85463571D01*
X109364071Y-85511190D01*
X108983119Y-85511190D01*
X110316452Y-85463571D02*
X110459309Y-85511190D01*
X110506928Y-85558809D01*
X110554547Y-85654047D01*
X110554547Y-85796904D01*
X110506928Y-85892142D01*
X110459309Y-85939761D01*
X110364071Y-85987380D01*
X109983119Y-85987380D01*
X109983119Y-84987380D01*
X110316452Y-84987380D01*
X110411690Y-85035000D01*
X110459309Y-85082619D01*
X110506928Y-85177857D01*
X110506928Y-85273095D01*
X110459309Y-85368333D01*
X110411690Y-85415952D01*
X110316452Y-85463571D01*
X109983119Y-85463571D01*
X111411690Y-85320714D02*
X111411690Y-85987380D01*
X111173595Y-84939761D02*
X110935500Y-85654047D01*
X111554547Y-85654047D01*
X101745023Y-87637380D02*
X101411690Y-87161190D01*
X101173595Y-87637380D02*
X101173595Y-86637380D01*
X101554547Y-86637380D01*
X101649785Y-86685000D01*
X101697404Y-86732619D01*
X101745023Y-86827857D01*
X101745023Y-86970714D01*
X101697404Y-87065952D01*
X101649785Y-87113571D01*
X101554547Y-87161190D01*
X101173595Y-87161190D01*
X102125976Y-86732619D02*
X102173595Y-86685000D01*
X102268833Y-86637380D01*
X102506928Y-86637380D01*
X102602166Y-86685000D01*
X102649785Y-86732619D01*
X102697404Y-86827857D01*
X102697404Y-86923095D01*
X102649785Y-87065952D01*
X102078357Y-87637380D01*
X102697404Y-87637380D01*
X103125976Y-87542142D02*
X103173595Y-87589761D01*
X103125976Y-87637380D01*
X103078357Y-87589761D01*
X103125976Y-87542142D01*
X103125976Y-87637380D01*
X103125976Y-87018333D02*
X103173595Y-87065952D01*
X103125976Y-87113571D01*
X103078357Y-87065952D01*
X103125976Y-87018333D01*
X103125976Y-87113571D01*
X104364071Y-87637380D02*
X104364071Y-86637380D01*
X104745023Y-86637380D01*
X104840261Y-86685000D01*
X104887880Y-86732619D01*
X104935500Y-86827857D01*
X104935500Y-86970714D01*
X104887880Y-87065952D01*
X104840261Y-87113571D01*
X104745023Y-87161190D01*
X104364071Y-87161190D01*
X105316452Y-86732619D02*
X105364071Y-86685000D01*
X105459309Y-86637380D01*
X105697404Y-86637380D01*
X105792642Y-86685000D01*
X105840261Y-86732619D01*
X105887880Y-86827857D01*
X105887880Y-86923095D01*
X105840261Y-87065952D01*
X105268833Y-87637380D01*
X105887880Y-87637380D01*
X106316452Y-87542142D02*
X106364071Y-87589761D01*
X106316452Y-87637380D01*
X106268833Y-87589761D01*
X106316452Y-87542142D01*
X106316452Y-87637380D01*
X106745023Y-86732619D02*
X106792642Y-86685000D01*
X106887880Y-86637380D01*
X107125976Y-86637380D01*
X107221214Y-86685000D01*
X107268833Y-86732619D01*
X107316452Y-86827857D01*
X107316452Y-86923095D01*
X107268833Y-87065952D01*
X106697404Y-87637380D01*
X107316452Y-87637380D01*
X107935500Y-87256428D02*
X108316452Y-87256428D01*
X107935500Y-87446904D02*
X107745023Y-87256428D01*
X107935500Y-87065952D01*
X107935500Y-87446904D01*
X108316452Y-87446904D02*
X108316452Y-87065952D01*
X108506928Y-87256428D01*
X108316452Y-87446904D01*
X108983119Y-87637380D02*
X108983119Y-86637380D01*
X109364071Y-86637380D01*
X109459309Y-86685000D01*
X109506928Y-86732619D01*
X109554547Y-86827857D01*
X109554547Y-86970714D01*
X109506928Y-87065952D01*
X109459309Y-87113571D01*
X109364071Y-87161190D01*
X108983119Y-87161190D01*
X109935500Y-87351666D02*
X110411690Y-87351666D01*
X109840261Y-87637380D02*
X110173595Y-86637380D01*
X110506928Y-87637380D01*
X110983119Y-87065952D02*
X110887880Y-87018333D01*
X110840261Y-86970714D01*
X110792642Y-86875476D01*
X110792642Y-86827857D01*
X110840261Y-86732619D01*
X110887880Y-86685000D01*
X110983119Y-86637380D01*
X111173595Y-86637380D01*
X111268833Y-86685000D01*
X111316452Y-86732619D01*
X111364071Y-86827857D01*
X111364071Y-86875476D01*
X111316452Y-86970714D01*
X111268833Y-87018333D01*
X111173595Y-87065952D01*
X110983119Y-87065952D01*
X110887880Y-87113571D01*
X110840261Y-87161190D01*
X110792642Y-87256428D01*
X110792642Y-87446904D01*
X110840261Y-87542142D01*
X110887880Y-87589761D01*
X110983119Y-87637380D01*
X111173595Y-87637380D01*
X111268833Y-87589761D01*
X111316452Y-87542142D01*
X111364071Y-87446904D01*
X111364071Y-87256428D01*
X111316452Y-87161190D01*
X111268833Y-87113571D01*
X111173595Y-87065952D01*
X112506928Y-86589761D02*
X111649785Y-87875476D01*
X113411690Y-87542142D02*
X113364071Y-87589761D01*
X113221214Y-87637380D01*
X113125976Y-87637380D01*
X112983119Y-87589761D01*
X112887880Y-87494523D01*
X112840261Y-87399285D01*
X112792642Y-87208809D01*
X112792642Y-87065952D01*
X112840261Y-86875476D01*
X112887880Y-86780238D01*
X112983119Y-86685000D01*
X113125976Y-86637380D01*
X113221214Y-86637380D01*
X113364071Y-86685000D01*
X113411690Y-86732619D01*
X114316452Y-87637380D02*
X113840261Y-87637380D01*
X113840261Y-86637380D01*
X114649785Y-87637380D02*
X114649785Y-86637380D01*
X115221214Y-87637380D02*
X114792642Y-87065952D01*
X115221214Y-86637380D02*
X114649785Y-87208809D01*
X116364071Y-86589761D02*
X115506928Y-87875476D01*
X116649785Y-86732619D02*
X116697404Y-86685000D01*
X116792642Y-86637380D01*
X117030738Y-86637380D01*
X117125976Y-86685000D01*
X117173595Y-86732619D01*
X117221214Y-86827857D01*
X117221214Y-86923095D01*
X117173595Y-87065952D01*
X116602166Y-87637380D01*
X117221214Y-87637380D01*
X117840261Y-86637380D02*
X117935500Y-86637380D01*
X118030738Y-86685000D01*
X118078357Y-86732619D01*
X118125976Y-86827857D01*
X118173595Y-87018333D01*
X118173595Y-87256428D01*
X118125976Y-87446904D01*
X118078357Y-87542142D01*
X118030738Y-87589761D01*
X117935500Y-87637380D01*
X117840261Y-87637380D01*
X117745023Y-87589761D01*
X117697404Y-87542142D01*
X117649785Y-87446904D01*
X117602166Y-87256428D01*
X117602166Y-87018333D01*
X117649785Y-86827857D01*
X117697404Y-86732619D01*
X117745023Y-86685000D01*
X117840261Y-86637380D01*
X53231023Y-81606380D02*
X52897690Y-81130190D01*
X52659595Y-81606380D02*
X52659595Y-80606380D01*
X53040547Y-80606380D01*
X53135785Y-80654000D01*
X53183404Y-80701619D01*
X53231023Y-80796857D01*
X53231023Y-80939714D01*
X53183404Y-81034952D01*
X53135785Y-81082571D01*
X53040547Y-81130190D01*
X52659595Y-81130190D01*
X53564357Y-80606380D02*
X54183404Y-80606380D01*
X53850071Y-80987333D01*
X53992928Y-80987333D01*
X54088166Y-81034952D01*
X54135785Y-81082571D01*
X54183404Y-81177809D01*
X54183404Y-81415904D01*
X54135785Y-81511142D01*
X54088166Y-81558761D01*
X53992928Y-81606380D01*
X53707214Y-81606380D01*
X53611976Y-81558761D01*
X53564357Y-81511142D01*
X54611976Y-81511142D02*
X54659595Y-81558761D01*
X54611976Y-81606380D01*
X54564357Y-81558761D01*
X54611976Y-81511142D01*
X54611976Y-81606380D01*
X54611976Y-80987333D02*
X54659595Y-81034952D01*
X54611976Y-81082571D01*
X54564357Y-81034952D01*
X54611976Y-80987333D01*
X54611976Y-81082571D01*
X55850071Y-81606380D02*
X55850071Y-80606380D01*
X56231023Y-80606380D01*
X56326261Y-80654000D01*
X56373880Y-80701619D01*
X56421500Y-80796857D01*
X56421500Y-80939714D01*
X56373880Y-81034952D01*
X56326261Y-81082571D01*
X56231023Y-81130190D01*
X55850071Y-81130190D01*
X57373880Y-81606380D02*
X56802452Y-81606380D01*
X57088166Y-81606380D02*
X57088166Y-80606380D01*
X56992928Y-80749238D01*
X56897690Y-80844476D01*
X56802452Y-80892095D01*
X57802452Y-81511142D02*
X57850071Y-81558761D01*
X57802452Y-81606380D01*
X57754833Y-81558761D01*
X57802452Y-81511142D01*
X57802452Y-81606380D01*
X58707214Y-80939714D02*
X58707214Y-81606380D01*
X58469119Y-80558761D02*
X58231023Y-81273047D01*
X58850071Y-81273047D01*
X59421500Y-81225428D02*
X59802452Y-81225428D01*
X59421500Y-81415904D02*
X59231023Y-81225428D01*
X59421500Y-81034952D01*
X59421500Y-81415904D01*
X59802452Y-81415904D02*
X59802452Y-81034952D01*
X59992928Y-81225428D01*
X59802452Y-81415904D01*
X60469119Y-81606380D02*
X60469119Y-80606380D01*
X60850071Y-80606380D01*
X60945309Y-80654000D01*
X60992928Y-80701619D01*
X61040547Y-80796857D01*
X61040547Y-80939714D01*
X60992928Y-81034952D01*
X60945309Y-81082571D01*
X60850071Y-81130190D01*
X60469119Y-81130190D01*
X61802452Y-81082571D02*
X61945309Y-81130190D01*
X61992928Y-81177809D01*
X62040547Y-81273047D01*
X62040547Y-81415904D01*
X61992928Y-81511142D01*
X61945309Y-81558761D01*
X61850071Y-81606380D01*
X61469119Y-81606380D01*
X61469119Y-80606380D01*
X61802452Y-80606380D01*
X61897690Y-80654000D01*
X61945309Y-80701619D01*
X61992928Y-80796857D01*
X61992928Y-80892095D01*
X61945309Y-80987333D01*
X61897690Y-81034952D01*
X61802452Y-81082571D01*
X61469119Y-81082571D01*
X62992928Y-81606380D02*
X62421500Y-81606380D01*
X62707214Y-81606380D02*
X62707214Y-80606380D01*
X62611976Y-80749238D01*
X62516738Y-80844476D01*
X62421500Y-80892095D01*
X63611976Y-80606380D02*
X63707214Y-80606380D01*
X63802452Y-80654000D01*
X63850071Y-80701619D01*
X63897690Y-80796857D01*
X63945309Y-80987333D01*
X63945309Y-81225428D01*
X63897690Y-81415904D01*
X63850071Y-81511142D01*
X63802452Y-81558761D01*
X63707214Y-81606380D01*
X63611976Y-81606380D01*
X63516738Y-81558761D01*
X63469119Y-81511142D01*
X63421500Y-81415904D01*
X63373880Y-81225428D01*
X63373880Y-80987333D01*
X63421500Y-80796857D01*
X63469119Y-80701619D01*
X63516738Y-80654000D01*
X63611976Y-80606380D01*
X60992928Y-82208761D02*
X60135785Y-83494476D01*
X61088166Y-81889000D02*
X61564357Y-81889000D01*
X61326261Y-83256380D02*
X61326261Y-82256380D01*
X61564357Y-81889000D02*
X62564357Y-81889000D01*
X62373880Y-83256380D02*
X62040547Y-82780190D01*
X61802452Y-83256380D02*
X61802452Y-82256380D01*
X62183404Y-82256380D01*
X62278642Y-82304000D01*
X62326261Y-82351619D01*
X62373880Y-82446857D01*
X62373880Y-82589714D01*
X62326261Y-82684952D01*
X62278642Y-82732571D01*
X62183404Y-82780190D01*
X61802452Y-82780190D01*
X62564357Y-81889000D02*
X63611976Y-81889000D01*
X63469119Y-83351619D02*
X63373880Y-83304000D01*
X63278642Y-83208761D01*
X63135785Y-83065904D01*
X63040547Y-83018285D01*
X62945309Y-83018285D01*
X62992928Y-83256380D02*
X62897690Y-83208761D01*
X62802452Y-83113523D01*
X62754833Y-82923047D01*
X62754833Y-82589714D01*
X62802452Y-82399238D01*
X62897690Y-82304000D01*
X62992928Y-82256380D01*
X63183404Y-82256380D01*
X63278642Y-82304000D01*
X63373880Y-82399238D01*
X63421500Y-82589714D01*
X63421500Y-82923047D01*
X63373880Y-83113523D01*
X63278642Y-83208761D01*
X63183404Y-83256380D01*
X62992928Y-83256380D01*
X64564357Y-82208761D02*
X63707214Y-83494476D01*
X64945309Y-83256380D02*
X65135785Y-83256380D01*
X65231023Y-83208761D01*
X65278642Y-83161142D01*
X65373880Y-83018285D01*
X65421500Y-82827809D01*
X65421500Y-82446857D01*
X65373880Y-82351619D01*
X65326261Y-82304000D01*
X65231023Y-82256380D01*
X65040547Y-82256380D01*
X64945309Y-82304000D01*
X64897690Y-82351619D01*
X64850071Y-82446857D01*
X64850071Y-82684952D01*
X64897690Y-82780190D01*
X64945309Y-82827809D01*
X65040547Y-82875428D01*
X65231023Y-82875428D01*
X65326261Y-82827809D01*
X65373880Y-82780190D01*
X65421500Y-82684952D01*
X53231023Y-84906380D02*
X52897690Y-84430190D01*
X52659595Y-84906380D02*
X52659595Y-83906380D01*
X53040547Y-83906380D01*
X53135785Y-83954000D01*
X53183404Y-84001619D01*
X53231023Y-84096857D01*
X53231023Y-84239714D01*
X53183404Y-84334952D01*
X53135785Y-84382571D01*
X53040547Y-84430190D01*
X52659595Y-84430190D01*
X53564357Y-83906380D02*
X54231023Y-83906380D01*
X53802452Y-84906380D01*
X54611976Y-84811142D02*
X54659595Y-84858761D01*
X54611976Y-84906380D01*
X54564357Y-84858761D01*
X54611976Y-84811142D01*
X54611976Y-84906380D01*
X54611976Y-84287333D02*
X54659595Y-84334952D01*
X54611976Y-84382571D01*
X54564357Y-84334952D01*
X54611976Y-84287333D01*
X54611976Y-84382571D01*
X55850071Y-84906380D02*
X55850071Y-83906380D01*
X56231023Y-83906380D01*
X56326261Y-83954000D01*
X56373880Y-84001619D01*
X56421500Y-84096857D01*
X56421500Y-84239714D01*
X56373880Y-84334952D01*
X56326261Y-84382571D01*
X56231023Y-84430190D01*
X55850071Y-84430190D01*
X57373880Y-84906380D02*
X56802452Y-84906380D01*
X57088166Y-84906380D02*
X57088166Y-83906380D01*
X56992928Y-84049238D01*
X56897690Y-84144476D01*
X56802452Y-84192095D01*
X57802452Y-84811142D02*
X57850071Y-84858761D01*
X57802452Y-84906380D01*
X57754833Y-84858761D01*
X57802452Y-84811142D01*
X57802452Y-84906380D01*
X58707214Y-84239714D02*
X58707214Y-84906380D01*
X58469119Y-83858761D02*
X58231023Y-84573047D01*
X58850071Y-84573047D01*
X59421500Y-84525428D02*
X59802452Y-84525428D01*
X59421500Y-84715904D02*
X59231023Y-84525428D01*
X59421500Y-84334952D01*
X59421500Y-84715904D01*
X59802452Y-84715904D02*
X59802452Y-84334952D01*
X59992928Y-84525428D01*
X59802452Y-84715904D01*
X60469119Y-84906380D02*
X60469119Y-83906380D01*
X60850071Y-83906380D01*
X60945309Y-83954000D01*
X60992928Y-84001619D01*
X61040547Y-84096857D01*
X61040547Y-84239714D01*
X60992928Y-84334952D01*
X60945309Y-84382571D01*
X60850071Y-84430190D01*
X60469119Y-84430190D01*
X61421500Y-84620666D02*
X61897690Y-84620666D01*
X61326261Y-84906380D02*
X61659595Y-83906380D01*
X61992928Y-84906380D01*
X62373880Y-84906380D02*
X62564357Y-84906380D01*
X62659595Y-84858761D01*
X62707214Y-84811142D01*
X62802452Y-84668285D01*
X62850071Y-84477809D01*
X62850071Y-84096857D01*
X62802452Y-84001619D01*
X62754833Y-83954000D01*
X62659595Y-83906380D01*
X62469119Y-83906380D01*
X62373880Y-83954000D01*
X62326261Y-84001619D01*
X62278642Y-84096857D01*
X62278642Y-84334952D01*
X62326261Y-84430190D01*
X62373880Y-84477809D01*
X62469119Y-84525428D01*
X62659595Y-84525428D01*
X62754833Y-84477809D01*
X62802452Y-84430190D01*
X62850071Y-84334952D01*
X67831428Y-62426904D02*
X67450476Y-62426904D01*
X67412380Y-62807857D01*
X67450476Y-62769761D01*
X67526666Y-62731666D01*
X67717142Y-62731666D01*
X67793333Y-62769761D01*
X67831428Y-62807857D01*
X67869523Y-62884047D01*
X67869523Y-63074523D01*
X67831428Y-63150714D01*
X67793333Y-63188809D01*
X67717142Y-63226904D01*
X67526666Y-63226904D01*
X67450476Y-63188809D01*
X67412380Y-63150714D01*
X68098095Y-62426904D02*
X68364761Y-63226904D01*
X68631428Y-62426904D01*
X70269523Y-62426904D02*
X70345714Y-62426904D01*
X70421904Y-62465000D01*
X70460000Y-62503095D01*
X70498095Y-62579285D01*
X70536190Y-62731666D01*
X70536190Y-62922142D01*
X70498095Y-63074523D01*
X70460000Y-63150714D01*
X70421904Y-63188809D01*
X70345714Y-63226904D01*
X70269523Y-63226904D01*
X70193333Y-63188809D01*
X70155238Y-63150714D01*
X70117142Y-63074523D01*
X70079047Y-62922142D01*
X70079047Y-62731666D01*
X70117142Y-62579285D01*
X70155238Y-62503095D01*
X70193333Y-62465000D01*
X70269523Y-62426904D01*
X70764761Y-62426904D02*
X71031428Y-63226904D01*
X71298095Y-62426904D01*
X72707619Y-62426904D02*
X73202857Y-62426904D01*
X72936190Y-62731666D01*
X73050476Y-62731666D01*
X73126666Y-62769761D01*
X73164761Y-62807857D01*
X73202857Y-62884047D01*
X73202857Y-63074523D01*
X73164761Y-63150714D01*
X73126666Y-63188809D01*
X73050476Y-63226904D01*
X72821904Y-63226904D01*
X72745714Y-63188809D01*
X72707619Y-63150714D01*
X73431428Y-62426904D02*
X73698095Y-63226904D01*
X73964761Y-62426904D01*
X75260000Y-62094000D02*
X75640952Y-62094000D01*
X75450476Y-63226904D02*
X75450476Y-62426904D01*
X75640952Y-62094000D02*
X76440952Y-62094000D01*
X76288571Y-63226904D02*
X76021904Y-62845952D01*
X75831428Y-63226904D02*
X75831428Y-62426904D01*
X76136190Y-62426904D01*
X76212380Y-62465000D01*
X76250476Y-62503095D01*
X76288571Y-62579285D01*
X76288571Y-62693571D01*
X76250476Y-62769761D01*
X76212380Y-62807857D01*
X76136190Y-62845952D01*
X75831428Y-62845952D01*
X76440952Y-62094000D02*
X77279047Y-62094000D01*
X77164761Y-63303095D02*
X77088571Y-63265000D01*
X77012380Y-63188809D01*
X76898095Y-63074523D01*
X76821904Y-63036428D01*
X76745714Y-63036428D01*
X76783809Y-63226904D02*
X76707619Y-63188809D01*
X76631428Y-63112619D01*
X76593333Y-62960238D01*
X76593333Y-62693571D01*
X76631428Y-62541190D01*
X76707619Y-62465000D01*
X76783809Y-62426904D01*
X76936190Y-62426904D01*
X77012380Y-62465000D01*
X77088571Y-62541190D01*
X77126666Y-62693571D01*
X77126666Y-62960238D01*
X77088571Y-63112619D01*
X77012380Y-63188809D01*
X76936190Y-63226904D01*
X76783809Y-63226904D01*
X77888571Y-62094000D02*
X78688571Y-62094000D01*
X78536190Y-63226904D02*
X78269523Y-62845952D01*
X78079047Y-63226904D02*
X78079047Y-62426904D01*
X78383809Y-62426904D01*
X78460000Y-62465000D01*
X78498095Y-62503095D01*
X78536190Y-62579285D01*
X78536190Y-62693571D01*
X78498095Y-62769761D01*
X78460000Y-62807857D01*
X78383809Y-62845952D01*
X78079047Y-62845952D01*
X78688571Y-62094000D02*
X79450476Y-62094000D01*
X78840952Y-63188809D02*
X78955238Y-63226904D01*
X79145714Y-63226904D01*
X79221904Y-63188809D01*
X79260000Y-63150714D01*
X79298095Y-63074523D01*
X79298095Y-62998333D01*
X79260000Y-62922142D01*
X79221904Y-62884047D01*
X79145714Y-62845952D01*
X78993333Y-62807857D01*
X78917142Y-62769761D01*
X78879047Y-62731666D01*
X78840952Y-62655476D01*
X78840952Y-62579285D01*
X78879047Y-62503095D01*
X78917142Y-62465000D01*
X78993333Y-62426904D01*
X79183809Y-62426904D01*
X79298095Y-62465000D01*
X79450476Y-62094000D02*
X80060000Y-62094000D01*
X79526666Y-62426904D02*
X79983809Y-62426904D01*
X79755238Y-63226904D02*
X79755238Y-62426904D01*
X67298095Y-83811000D02*
X68098095Y-83811000D01*
X67945714Y-84867714D02*
X67907619Y-84905809D01*
X67793333Y-84943904D01*
X67717142Y-84943904D01*
X67602857Y-84905809D01*
X67526666Y-84829619D01*
X67488571Y-84753428D01*
X67450476Y-84601047D01*
X67450476Y-84486761D01*
X67488571Y-84334380D01*
X67526666Y-84258190D01*
X67602857Y-84182000D01*
X67717142Y-84143904D01*
X67793333Y-84143904D01*
X67907619Y-84182000D01*
X67945714Y-84220095D01*
X68098095Y-83811000D02*
X68860000Y-83811000D01*
X68250476Y-84905809D02*
X68364761Y-84943904D01*
X68555238Y-84943904D01*
X68631428Y-84905809D01*
X68669523Y-84867714D01*
X68707619Y-84791523D01*
X68707619Y-84715333D01*
X68669523Y-84639142D01*
X68631428Y-84601047D01*
X68555238Y-84562952D01*
X68402857Y-84524857D01*
X68326666Y-84486761D01*
X68288571Y-84448666D01*
X68250476Y-84372476D01*
X68250476Y-84296285D01*
X68288571Y-84220095D01*
X68326666Y-84182000D01*
X68402857Y-84143904D01*
X68593333Y-84143904D01*
X68707619Y-84182000D01*
X70726666Y-84867714D02*
X70688571Y-84905809D01*
X70574285Y-84943904D01*
X70498095Y-84943904D01*
X70383809Y-84905809D01*
X70307619Y-84829619D01*
X70269523Y-84753428D01*
X70231428Y-84601047D01*
X70231428Y-84486761D01*
X70269523Y-84334380D01*
X70307619Y-84258190D01*
X70383809Y-84182000D01*
X70498095Y-84143904D01*
X70574285Y-84143904D01*
X70688571Y-84182000D01*
X70726666Y-84220095D01*
X71069523Y-84943904D02*
X71069523Y-84143904D01*
X71526666Y-84943904D02*
X71183809Y-84486761D01*
X71526666Y-84143904D02*
X71069523Y-84601047D01*
X73050476Y-84905809D02*
X73164761Y-84943904D01*
X73355238Y-84943904D01*
X73431428Y-84905809D01*
X73469523Y-84867714D01*
X73507619Y-84791523D01*
X73507619Y-84715333D01*
X73469523Y-84639142D01*
X73431428Y-84601047D01*
X73355238Y-84562952D01*
X73202857Y-84524857D01*
X73126666Y-84486761D01*
X73088571Y-84448666D01*
X73050476Y-84372476D01*
X73050476Y-84296285D01*
X73088571Y-84220095D01*
X73126666Y-84182000D01*
X73202857Y-84143904D01*
X73393333Y-84143904D01*
X73507619Y-84182000D01*
X74002857Y-84143904D02*
X74155238Y-84143904D01*
X74231428Y-84182000D01*
X74307619Y-84258190D01*
X74345714Y-84410571D01*
X74345714Y-84677238D01*
X74307619Y-84829619D01*
X74231428Y-84905809D01*
X74155238Y-84943904D01*
X74002857Y-84943904D01*
X73926666Y-84905809D01*
X73850476Y-84829619D01*
X73812380Y-84677238D01*
X73812380Y-84410571D01*
X73850476Y-84258190D01*
X73926666Y-84182000D01*
X74002857Y-84143904D01*
X75869523Y-84905809D02*
X75983809Y-84943904D01*
X76174285Y-84943904D01*
X76250476Y-84905809D01*
X76288571Y-84867714D01*
X76326666Y-84791523D01*
X76326666Y-84715333D01*
X76288571Y-84639142D01*
X76250476Y-84601047D01*
X76174285Y-84562952D01*
X76021904Y-84524857D01*
X75945714Y-84486761D01*
X75907619Y-84448666D01*
X75869523Y-84372476D01*
X75869523Y-84296285D01*
X75907619Y-84220095D01*
X75945714Y-84182000D01*
X76021904Y-84143904D01*
X76212380Y-84143904D01*
X76326666Y-84182000D01*
X76669523Y-84943904D02*
X76669523Y-84143904D01*
X77660000Y-84943904D02*
X77660000Y-84143904D01*
X77926666Y-84715333D01*
X78193333Y-84143904D01*
X78193333Y-84943904D01*
X79031428Y-84867714D02*
X78993333Y-84905809D01*
X78879047Y-84943904D01*
X78802857Y-84943904D01*
X78688571Y-84905809D01*
X78612380Y-84829619D01*
X78574285Y-84753428D01*
X78536190Y-84601047D01*
X78536190Y-84486761D01*
X78574285Y-84334380D01*
X78612380Y-84258190D01*
X78688571Y-84182000D01*
X78802857Y-84143904D01*
X78879047Y-84143904D01*
X78993333Y-84182000D01*
X79031428Y-84220095D01*
X79526666Y-84143904D02*
X79679047Y-84143904D01*
X79755238Y-84182000D01*
X79831428Y-84258190D01*
X79869523Y-84410571D01*
X79869523Y-84677238D01*
X79831428Y-84829619D01*
X79755238Y-84905809D01*
X79679047Y-84943904D01*
X79526666Y-84943904D01*
X79450476Y-84905809D01*
X79374285Y-84829619D01*
X79336190Y-84677238D01*
X79336190Y-84410571D01*
X79374285Y-84258190D01*
X79450476Y-84182000D01*
X79526666Y-84143904D01*
X121309380Y-81040952D02*
X121309380Y-80421904D01*
X121690333Y-80755238D01*
X121690333Y-80612380D01*
X121737952Y-80517142D01*
X121785571Y-80469523D01*
X121880809Y-80421904D01*
X122118904Y-80421904D01*
X122214142Y-80469523D01*
X122261761Y-80517142D01*
X122309380Y-80612380D01*
X122309380Y-80898095D01*
X122261761Y-80993333D01*
X122214142Y-81040952D01*
X121309380Y-80136190D02*
X122309380Y-79802857D01*
X121309380Y-79469523D01*
X121309380Y-78183809D02*
X121309380Y-78088571D01*
X121357000Y-77993333D01*
X121404619Y-77945714D01*
X121499857Y-77898095D01*
X121690333Y-77850476D01*
X121928428Y-77850476D01*
X122118904Y-77898095D01*
X122214142Y-77945714D01*
X122261761Y-77993333D01*
X122309380Y-78088571D01*
X122309380Y-78183809D01*
X122261761Y-78279047D01*
X122214142Y-78326666D01*
X122118904Y-78374285D01*
X121928428Y-78421904D01*
X121690333Y-78421904D01*
X121499857Y-78374285D01*
X121404619Y-78326666D01*
X121357000Y-78279047D01*
X121309380Y-78183809D01*
X121309380Y-77564761D02*
X122309380Y-77231428D01*
X121309380Y-76898095D01*
X122309380Y-75279047D02*
X122309380Y-75850476D01*
X122309380Y-75564761D02*
X121309380Y-75564761D01*
X121452238Y-75660000D01*
X121547476Y-75755238D01*
X121595095Y-75850476D01*
X121309380Y-74945714D02*
X121309380Y-74326666D01*
X121690333Y-74660000D01*
X121690333Y-74517142D01*
X121737952Y-74421904D01*
X121785571Y-74374285D01*
X121880809Y-74326666D01*
X122118904Y-74326666D01*
X122214142Y-74374285D01*
X122261761Y-74421904D01*
X122309380Y-74517142D01*
X122309380Y-74802857D01*
X122261761Y-74898095D01*
X122214142Y-74945714D01*
X121309380Y-73231428D02*
X121309380Y-72612380D01*
X121690333Y-72945714D01*
X121690333Y-72802857D01*
X121737952Y-72707619D01*
X121785571Y-72660000D01*
X121880809Y-72612380D01*
X122118904Y-72612380D01*
X122214142Y-72660000D01*
X122261761Y-72707619D01*
X122309380Y-72802857D01*
X122309380Y-73088571D01*
X122261761Y-73183809D01*
X122214142Y-73231428D01*
X122309380Y-71660000D02*
X122309380Y-72231428D01*
X122309380Y-71945714D02*
X121309380Y-71945714D01*
X121452238Y-72040952D01*
X121547476Y-72136190D01*
X121595095Y-72231428D01*
X121309380Y-70564761D02*
X121309380Y-69945714D01*
X121690333Y-70279047D01*
X121690333Y-70136190D01*
X121737952Y-70040952D01*
X121785571Y-69993333D01*
X121880809Y-69945714D01*
X122118904Y-69945714D01*
X122214142Y-69993333D01*
X122261761Y-70040952D01*
X122309380Y-70136190D01*
X122309380Y-70421904D01*
X122261761Y-70517142D01*
X122214142Y-70564761D01*
X121642714Y-69088571D02*
X122309380Y-69088571D01*
X121261761Y-69326666D02*
X121976047Y-69564761D01*
X121976047Y-68945714D01*
X121309380Y-67898095D02*
X121309380Y-67279047D01*
X121690333Y-67612380D01*
X121690333Y-67469523D01*
X121737952Y-67374285D01*
X121785571Y-67326666D01*
X121880809Y-67279047D01*
X122118904Y-67279047D01*
X122214142Y-67326666D01*
X122261761Y-67374285D01*
X122309380Y-67469523D01*
X122309380Y-67755238D01*
X122261761Y-67850476D01*
X122214142Y-67898095D01*
X121309380Y-66421904D02*
X121309380Y-66612380D01*
X121357000Y-66707619D01*
X121404619Y-66755238D01*
X121547476Y-66850476D01*
X121737952Y-66898095D01*
X122118904Y-66898095D01*
X122214142Y-66850476D01*
X122261761Y-66802857D01*
X122309380Y-66707619D01*
X122309380Y-66517142D01*
X122261761Y-66421904D01*
X122214142Y-66374285D01*
X122118904Y-66326666D01*
X121880809Y-66326666D01*
X121785571Y-66374285D01*
X121737952Y-66421904D01*
X121690333Y-66517142D01*
X121690333Y-66707619D01*
X121737952Y-66802857D01*
X121785571Y-66850476D01*
X121880809Y-66898095D01*
X122959380Y-81040952D02*
X122959380Y-80421904D01*
X123340333Y-80755238D01*
X123340333Y-80612380D01*
X123387952Y-80517142D01*
X123435571Y-80469523D01*
X123530809Y-80421904D01*
X123768904Y-80421904D01*
X123864142Y-80469523D01*
X123911761Y-80517142D01*
X123959380Y-80612380D01*
X123959380Y-80898095D01*
X123911761Y-80993333D01*
X123864142Y-81040952D01*
X122959380Y-80136190D02*
X123959380Y-79802857D01*
X122959380Y-79469523D01*
X122959380Y-78183809D02*
X122959380Y-78088571D01*
X123007000Y-77993333D01*
X123054619Y-77945714D01*
X123149857Y-77898095D01*
X123340333Y-77850476D01*
X123578428Y-77850476D01*
X123768904Y-77898095D01*
X123864142Y-77945714D01*
X123911761Y-77993333D01*
X123959380Y-78088571D01*
X123959380Y-78183809D01*
X123911761Y-78279047D01*
X123864142Y-78326666D01*
X123768904Y-78374285D01*
X123578428Y-78421904D01*
X123340333Y-78421904D01*
X123149857Y-78374285D01*
X123054619Y-78326666D01*
X123007000Y-78279047D01*
X122959380Y-78183809D01*
X122959380Y-77564761D02*
X123959380Y-77231428D01*
X122959380Y-76898095D01*
X123054619Y-75850476D02*
X123007000Y-75802857D01*
X122959380Y-75707619D01*
X122959380Y-75469523D01*
X123007000Y-75374285D01*
X123054619Y-75326666D01*
X123149857Y-75279047D01*
X123245095Y-75279047D01*
X123387952Y-75326666D01*
X123959380Y-75898095D01*
X123959380Y-75279047D01*
X122959380Y-74945714D02*
X122959380Y-74326666D01*
X123340333Y-74660000D01*
X123340333Y-74517142D01*
X123387952Y-74421904D01*
X123435571Y-74374285D01*
X123530809Y-74326666D01*
X123768904Y-74326666D01*
X123864142Y-74374285D01*
X123911761Y-74421904D01*
X123959380Y-74517142D01*
X123959380Y-74802857D01*
X123911761Y-74898095D01*
X123864142Y-74945714D01*
X122959380Y-73231428D02*
X122959380Y-72612380D01*
X123340333Y-72945714D01*
X123340333Y-72802857D01*
X123387952Y-72707619D01*
X123435571Y-72660000D01*
X123530809Y-72612380D01*
X123768904Y-72612380D01*
X123864142Y-72660000D01*
X123911761Y-72707619D01*
X123959380Y-72802857D01*
X123959380Y-73088571D01*
X123911761Y-73183809D01*
X123864142Y-73231428D01*
X123054619Y-72231428D02*
X123007000Y-72183809D01*
X122959380Y-72088571D01*
X122959380Y-71850476D01*
X123007000Y-71755238D01*
X123054619Y-71707619D01*
X123149857Y-71660000D01*
X123245095Y-71660000D01*
X123387952Y-71707619D01*
X123959380Y-72279047D01*
X123959380Y-71660000D01*
X122959380Y-70564761D02*
X122959380Y-69945714D01*
X123340333Y-70279047D01*
X123340333Y-70136190D01*
X123387952Y-70040952D01*
X123435571Y-69993333D01*
X123530809Y-69945714D01*
X123768904Y-69945714D01*
X123864142Y-69993333D01*
X123911761Y-70040952D01*
X123959380Y-70136190D01*
X123959380Y-70421904D01*
X123911761Y-70517142D01*
X123864142Y-70564761D01*
X122959380Y-69040952D02*
X122959380Y-69517142D01*
X123435571Y-69564761D01*
X123387952Y-69517142D01*
X123340333Y-69421904D01*
X123340333Y-69183809D01*
X123387952Y-69088571D01*
X123435571Y-69040952D01*
X123530809Y-68993333D01*
X123768904Y-68993333D01*
X123864142Y-69040952D01*
X123911761Y-69088571D01*
X123959380Y-69183809D01*
X123959380Y-69421904D01*
X123911761Y-69517142D01*
X123864142Y-69564761D01*
X122959380Y-67898095D02*
X122959380Y-67279047D01*
X123340333Y-67612380D01*
X123340333Y-67469523D01*
X123387952Y-67374285D01*
X123435571Y-67326666D01*
X123530809Y-67279047D01*
X123768904Y-67279047D01*
X123864142Y-67326666D01*
X123911761Y-67374285D01*
X123959380Y-67469523D01*
X123959380Y-67755238D01*
X123911761Y-67850476D01*
X123864142Y-67898095D01*
X122959380Y-66945714D02*
X122959380Y-66279047D01*
X123959380Y-66707619D01*
X68025238Y-88606380D02*
X68644285Y-88606380D01*
X68310952Y-88987333D01*
X68453809Y-88987333D01*
X68549047Y-89034952D01*
X68596666Y-89082571D01*
X68644285Y-89177809D01*
X68644285Y-89415904D01*
X68596666Y-89511142D01*
X68549047Y-89558761D01*
X68453809Y-89606380D01*
X68168095Y-89606380D01*
X68072857Y-89558761D01*
X68025238Y-89511142D01*
X68930000Y-88606380D02*
X69263333Y-89606380D01*
X69596666Y-88606380D01*
X70882380Y-88606380D02*
X70977619Y-88606380D01*
X71072857Y-88654000D01*
X71120476Y-88701619D01*
X71168095Y-88796857D01*
X71215714Y-88987333D01*
X71215714Y-89225428D01*
X71168095Y-89415904D01*
X71120476Y-89511142D01*
X71072857Y-89558761D01*
X70977619Y-89606380D01*
X70882380Y-89606380D01*
X70787142Y-89558761D01*
X70739523Y-89511142D01*
X70691904Y-89415904D01*
X70644285Y-89225428D01*
X70644285Y-88987333D01*
X70691904Y-88796857D01*
X70739523Y-88701619D01*
X70787142Y-88654000D01*
X70882380Y-88606380D01*
X71501428Y-88606380D02*
X71834761Y-89606380D01*
X72168095Y-88606380D01*
X73310952Y-89606380D02*
X73501428Y-89606380D01*
X73596666Y-89558761D01*
X73644285Y-89511142D01*
X73739523Y-89368285D01*
X73787142Y-89177809D01*
X73787142Y-88796857D01*
X73739523Y-88701619D01*
X73691904Y-88654000D01*
X73596666Y-88606380D01*
X73406190Y-88606380D01*
X73310952Y-88654000D01*
X73263333Y-88701619D01*
X73215714Y-88796857D01*
X73215714Y-89034952D01*
X73263333Y-89130190D01*
X73310952Y-89177809D01*
X73406190Y-89225428D01*
X73596666Y-89225428D01*
X73691904Y-89177809D01*
X73739523Y-89130190D01*
X73787142Y-89034952D01*
X75501428Y-89606380D02*
X74930000Y-89606380D01*
X75215714Y-89606380D02*
X75215714Y-88606380D01*
X75120476Y-88749238D01*
X75025238Y-88844476D01*
X74930000Y-88892095D01*
X76120476Y-88606380D02*
X76215714Y-88606380D01*
X76310952Y-88654000D01*
X76358571Y-88701619D01*
X76406190Y-88796857D01*
X76453809Y-88987333D01*
X76453809Y-89225428D01*
X76406190Y-89415904D01*
X76358571Y-89511142D01*
X76310952Y-89558761D01*
X76215714Y-89606380D01*
X76120476Y-89606380D01*
X76025238Y-89558761D01*
X75977619Y-89511142D01*
X75930000Y-89415904D01*
X75882380Y-89225428D01*
X75882380Y-88987333D01*
X75930000Y-88796857D01*
X75977619Y-88701619D01*
X76025238Y-88654000D01*
X76120476Y-88606380D01*
X78168095Y-89606380D02*
X77596666Y-89606380D01*
X77882380Y-89606380D02*
X77882380Y-88606380D01*
X77787142Y-88749238D01*
X77691904Y-88844476D01*
X77596666Y-88892095D01*
X79120476Y-89606380D02*
X78549047Y-89606380D01*
X78834761Y-89606380D02*
X78834761Y-88606380D01*
X78739523Y-88749238D01*
X78644285Y-88844476D01*
X78549047Y-88892095D01*
X80834761Y-89606380D02*
X80263333Y-89606380D01*
X80549047Y-89606380D02*
X80549047Y-88606380D01*
X80453809Y-88749238D01*
X80358571Y-88844476D01*
X80263333Y-88892095D01*
X81215714Y-88701619D02*
X81263333Y-88654000D01*
X81358571Y-88606380D01*
X81596666Y-88606380D01*
X81691904Y-88654000D01*
X81739523Y-88701619D01*
X81787142Y-88796857D01*
X81787142Y-88892095D01*
X81739523Y-89034952D01*
X81168095Y-89606380D01*
X81787142Y-89606380D01*
X113269047Y-88606380D02*
X113888095Y-88606380D01*
X113554761Y-88987333D01*
X113697619Y-88987333D01*
X113792857Y-89034952D01*
X113840476Y-89082571D01*
X113888095Y-89177809D01*
X113888095Y-89415904D01*
X113840476Y-89511142D01*
X113792857Y-89558761D01*
X113697619Y-89606380D01*
X113411904Y-89606380D01*
X113316666Y-89558761D01*
X113269047Y-89511142D01*
X114173809Y-88606380D02*
X114507142Y-89606380D01*
X114840476Y-88606380D01*
X116126190Y-88606380D02*
X116221428Y-88606380D01*
X116316666Y-88654000D01*
X116364285Y-88701619D01*
X116411904Y-88796857D01*
X116459523Y-88987333D01*
X116459523Y-89225428D01*
X116411904Y-89415904D01*
X116364285Y-89511142D01*
X116316666Y-89558761D01*
X116221428Y-89606380D01*
X116126190Y-89606380D01*
X116030952Y-89558761D01*
X115983333Y-89511142D01*
X115935714Y-89415904D01*
X115888095Y-89225428D01*
X115888095Y-88987333D01*
X115935714Y-88796857D01*
X115983333Y-88701619D01*
X116030952Y-88654000D01*
X116126190Y-88606380D01*
X116745238Y-88606380D02*
X117078571Y-89606380D01*
X117411904Y-88606380D01*
X118459523Y-88701619D02*
X118507142Y-88654000D01*
X118602380Y-88606380D01*
X118840476Y-88606380D01*
X118935714Y-88654000D01*
X118983333Y-88701619D01*
X119030952Y-88796857D01*
X119030952Y-88892095D01*
X118983333Y-89034952D01*
X118411904Y-89606380D01*
X119030952Y-89606380D01*
X119935714Y-88606380D02*
X119459523Y-88606380D01*
X119411904Y-89082571D01*
X119459523Y-89034952D01*
X119554761Y-88987333D01*
X119792857Y-88987333D01*
X119888095Y-89034952D01*
X119935714Y-89082571D01*
X119983333Y-89177809D01*
X119983333Y-89415904D01*
X119935714Y-89511142D01*
X119888095Y-89558761D01*
X119792857Y-89606380D01*
X119554761Y-89606380D01*
X119459523Y-89558761D01*
X119411904Y-89511142D01*
X121126190Y-88701619D02*
X121173809Y-88654000D01*
X121269047Y-88606380D01*
X121507142Y-88606380D01*
X121602380Y-88654000D01*
X121650000Y-88701619D01*
X121697619Y-88796857D01*
X121697619Y-88892095D01*
X121650000Y-89034952D01*
X121078571Y-89606380D01*
X121697619Y-89606380D01*
X122554761Y-88606380D02*
X122364285Y-88606380D01*
X122269047Y-88654000D01*
X122221428Y-88701619D01*
X122126190Y-88844476D01*
X122078571Y-89034952D01*
X122078571Y-89415904D01*
X122126190Y-89511142D01*
X122173809Y-89558761D01*
X122269047Y-89606380D01*
X122459523Y-89606380D01*
X122554761Y-89558761D01*
X122602380Y-89511142D01*
X122650000Y-89415904D01*
X122650000Y-89177809D01*
X122602380Y-89082571D01*
X122554761Y-89034952D01*
X122459523Y-88987333D01*
X122269047Y-88987333D01*
X122173809Y-89034952D01*
X122126190Y-89082571D01*
X122078571Y-89177809D01*
X123792857Y-88701619D02*
X123840476Y-88654000D01*
X123935714Y-88606380D01*
X124173809Y-88606380D01*
X124269047Y-88654000D01*
X124316666Y-88701619D01*
X124364285Y-88796857D01*
X124364285Y-88892095D01*
X124316666Y-89034952D01*
X123745238Y-89606380D01*
X124364285Y-89606380D01*
X124697619Y-88606380D02*
X125364285Y-88606380D01*
X124935714Y-89606380D01*
X126459523Y-88701619D02*
X126507142Y-88654000D01*
X126602380Y-88606380D01*
X126840476Y-88606380D01*
X126935714Y-88654000D01*
X126983333Y-88701619D01*
X127030952Y-88796857D01*
X127030952Y-88892095D01*
X126983333Y-89034952D01*
X126411904Y-89606380D01*
X127030952Y-89606380D01*
X127602380Y-89034952D02*
X127507142Y-88987333D01*
X127459523Y-88939714D01*
X127411904Y-88844476D01*
X127411904Y-88796857D01*
X127459523Y-88701619D01*
X127507142Y-88654000D01*
X127602380Y-88606380D01*
X127792857Y-88606380D01*
X127888095Y-88654000D01*
X127935714Y-88701619D01*
X127983333Y-88796857D01*
X127983333Y-88844476D01*
X127935714Y-88939714D01*
X127888095Y-88987333D01*
X127792857Y-89034952D01*
X127602380Y-89034952D01*
X127507142Y-89082571D01*
X127459523Y-89130190D01*
X127411904Y-89225428D01*
X127411904Y-89415904D01*
X127459523Y-89511142D01*
X127507142Y-89558761D01*
X127602380Y-89606380D01*
X127792857Y-89606380D01*
X127888095Y-89558761D01*
X127935714Y-89511142D01*
X127983333Y-89415904D01*
X127983333Y-89225428D01*
X127935714Y-89130190D01*
X127888095Y-89082571D01*
X127792857Y-89034952D01*
X90409047Y-88606380D02*
X91028095Y-88606380D01*
X90694761Y-88987333D01*
X90837619Y-88987333D01*
X90932857Y-89034952D01*
X90980476Y-89082571D01*
X91028095Y-89177809D01*
X91028095Y-89415904D01*
X90980476Y-89511142D01*
X90932857Y-89558761D01*
X90837619Y-89606380D01*
X90551904Y-89606380D01*
X90456666Y-89558761D01*
X90409047Y-89511142D01*
X91313809Y-88606380D02*
X91647142Y-89606380D01*
X91980476Y-88606380D01*
X93266190Y-88606380D02*
X93361428Y-88606380D01*
X93456666Y-88654000D01*
X93504285Y-88701619D01*
X93551904Y-88796857D01*
X93599523Y-88987333D01*
X93599523Y-89225428D01*
X93551904Y-89415904D01*
X93504285Y-89511142D01*
X93456666Y-89558761D01*
X93361428Y-89606380D01*
X93266190Y-89606380D01*
X93170952Y-89558761D01*
X93123333Y-89511142D01*
X93075714Y-89415904D01*
X93028095Y-89225428D01*
X93028095Y-88987333D01*
X93075714Y-88796857D01*
X93123333Y-88701619D01*
X93170952Y-88654000D01*
X93266190Y-88606380D01*
X93885238Y-88606380D02*
X94218571Y-89606380D01*
X94551904Y-88606380D01*
X96170952Y-89606380D02*
X95599523Y-89606380D01*
X95885238Y-89606380D02*
X95885238Y-88606380D01*
X95790000Y-88749238D01*
X95694761Y-88844476D01*
X95599523Y-88892095D01*
X96742380Y-89034952D02*
X96647142Y-88987333D01*
X96599523Y-88939714D01*
X96551904Y-88844476D01*
X96551904Y-88796857D01*
X96599523Y-88701619D01*
X96647142Y-88654000D01*
X96742380Y-88606380D01*
X96932857Y-88606380D01*
X97028095Y-88654000D01*
X97075714Y-88701619D01*
X97123333Y-88796857D01*
X97123333Y-88844476D01*
X97075714Y-88939714D01*
X97028095Y-88987333D01*
X96932857Y-89034952D01*
X96742380Y-89034952D01*
X96647142Y-89082571D01*
X96599523Y-89130190D01*
X96551904Y-89225428D01*
X96551904Y-89415904D01*
X96599523Y-89511142D01*
X96647142Y-89558761D01*
X96742380Y-89606380D01*
X96932857Y-89606380D01*
X97028095Y-89558761D01*
X97075714Y-89511142D01*
X97123333Y-89415904D01*
X97123333Y-89225428D01*
X97075714Y-89130190D01*
X97028095Y-89082571D01*
X96932857Y-89034952D01*
X98837619Y-89606380D02*
X98266190Y-89606380D01*
X98551904Y-89606380D02*
X98551904Y-88606380D01*
X98456666Y-88749238D01*
X98361428Y-88844476D01*
X98266190Y-88892095D01*
X99313809Y-89606380D02*
X99504285Y-89606380D01*
X99599523Y-89558761D01*
X99647142Y-89511142D01*
X99742380Y-89368285D01*
X99790000Y-89177809D01*
X99790000Y-88796857D01*
X99742380Y-88701619D01*
X99694761Y-88654000D01*
X99599523Y-88606380D01*
X99409047Y-88606380D01*
X99313809Y-88654000D01*
X99266190Y-88701619D01*
X99218571Y-88796857D01*
X99218571Y-89034952D01*
X99266190Y-89130190D01*
X99313809Y-89177809D01*
X99409047Y-89225428D01*
X99599523Y-89225428D01*
X99694761Y-89177809D01*
X99742380Y-89130190D01*
X99790000Y-89034952D01*
X100932857Y-88701619D02*
X100980476Y-88654000D01*
X101075714Y-88606380D01*
X101313809Y-88606380D01*
X101409047Y-88654000D01*
X101456666Y-88701619D01*
X101504285Y-88796857D01*
X101504285Y-88892095D01*
X101456666Y-89034952D01*
X100885238Y-89606380D01*
X101504285Y-89606380D01*
X102123333Y-88606380D02*
X102218571Y-88606380D01*
X102313809Y-88654000D01*
X102361428Y-88701619D01*
X102409047Y-88796857D01*
X102456666Y-88987333D01*
X102456666Y-89225428D01*
X102409047Y-89415904D01*
X102361428Y-89511142D01*
X102313809Y-89558761D01*
X102218571Y-89606380D01*
X102123333Y-89606380D01*
X102028095Y-89558761D01*
X101980476Y-89511142D01*
X101932857Y-89415904D01*
X101885238Y-89225428D01*
X101885238Y-88987333D01*
X101932857Y-88796857D01*
X101980476Y-88701619D01*
X102028095Y-88654000D01*
X102123333Y-88606380D01*
X103599523Y-88701619D02*
X103647142Y-88654000D01*
X103742380Y-88606380D01*
X103980476Y-88606380D01*
X104075714Y-88654000D01*
X104123333Y-88701619D01*
X104170952Y-88796857D01*
X104170952Y-88892095D01*
X104123333Y-89034952D01*
X103551904Y-89606380D01*
X104170952Y-89606380D01*
X105123333Y-89606380D02*
X104551904Y-89606380D01*
X104837619Y-89606380D02*
X104837619Y-88606380D01*
X104742380Y-88749238D01*
X104647142Y-88844476D01*
X104551904Y-88892095D01*
X113792857Y-57951714D02*
X113792857Y-58618380D01*
X113554761Y-57570761D02*
X113316666Y-58285047D01*
X113935714Y-58285047D01*
X114745238Y-57951714D02*
X114745238Y-58618380D01*
X114507142Y-57570761D02*
X114269047Y-58285047D01*
X114888095Y-58285047D01*
X116459523Y-57951714D02*
X116459523Y-58618380D01*
X116221428Y-57570761D02*
X115983333Y-58285047D01*
X116602380Y-58285047D01*
X116888095Y-57618380D02*
X117507142Y-57618380D01*
X117173809Y-57999333D01*
X117316666Y-57999333D01*
X117411904Y-58046952D01*
X117459523Y-58094571D01*
X117507142Y-58189809D01*
X117507142Y-58427904D01*
X117459523Y-58523142D01*
X117411904Y-58570761D01*
X117316666Y-58618380D01*
X117030952Y-58618380D01*
X116935714Y-58570761D01*
X116888095Y-58523142D01*
X119126190Y-57951714D02*
X119126190Y-58618380D01*
X118888095Y-57570761D02*
X118650000Y-58285047D01*
X119269047Y-58285047D01*
X119602380Y-57713619D02*
X119650000Y-57666000D01*
X119745238Y-57618380D01*
X119983333Y-57618380D01*
X120078571Y-57666000D01*
X120126190Y-57713619D01*
X120173809Y-57808857D01*
X120173809Y-57904095D01*
X120126190Y-58046952D01*
X119554761Y-58618380D01*
X120173809Y-58618380D01*
X121269047Y-57618380D02*
X121888095Y-57618380D01*
X121554761Y-57999333D01*
X121697619Y-57999333D01*
X121792857Y-58046952D01*
X121840476Y-58094571D01*
X121888095Y-58189809D01*
X121888095Y-58427904D01*
X121840476Y-58523142D01*
X121792857Y-58570761D01*
X121697619Y-58618380D01*
X121411904Y-58618380D01*
X121316666Y-58570761D01*
X121269047Y-58523142D01*
X122459523Y-58046952D02*
X122364285Y-57999333D01*
X122316666Y-57951714D01*
X122269047Y-57856476D01*
X122269047Y-57808857D01*
X122316666Y-57713619D01*
X122364285Y-57666000D01*
X122459523Y-57618380D01*
X122650000Y-57618380D01*
X122745238Y-57666000D01*
X122792857Y-57713619D01*
X122840476Y-57808857D01*
X122840476Y-57856476D01*
X122792857Y-57951714D01*
X122745238Y-57999333D01*
X122650000Y-58046952D01*
X122459523Y-58046952D01*
X122364285Y-58094571D01*
X122316666Y-58142190D01*
X122269047Y-58237428D01*
X122269047Y-58427904D01*
X122316666Y-58523142D01*
X122364285Y-58570761D01*
X122459523Y-58618380D01*
X122650000Y-58618380D01*
X122745238Y-58570761D01*
X122792857Y-58523142D01*
X122840476Y-58427904D01*
X122840476Y-58237428D01*
X122792857Y-58142190D01*
X122745238Y-58094571D01*
X122650000Y-58046952D01*
X124221428Y-57618380D02*
X124316666Y-57618380D01*
X124411904Y-57666000D01*
X124459523Y-57713619D01*
X124507142Y-57808857D01*
X124554761Y-57999333D01*
X124554761Y-58237428D01*
X124507142Y-58427904D01*
X124459523Y-58523142D01*
X124411904Y-58570761D01*
X124316666Y-58618380D01*
X124221428Y-58618380D01*
X124126190Y-58570761D01*
X124078571Y-58523142D01*
X124030952Y-58427904D01*
X123983333Y-58237428D01*
X123983333Y-57999333D01*
X124030952Y-57808857D01*
X124078571Y-57713619D01*
X124126190Y-57666000D01*
X124221428Y-57618380D01*
X124840476Y-57618380D02*
X125173809Y-58618380D01*
X125507142Y-57618380D01*
X126507142Y-57618380D02*
X127126190Y-57618380D01*
X126792857Y-57999333D01*
X126935714Y-57999333D01*
X127030952Y-58046952D01*
X127078571Y-58094571D01*
X127126190Y-58189809D01*
X127126190Y-58427904D01*
X127078571Y-58523142D01*
X127030952Y-58570761D01*
X126935714Y-58618380D01*
X126650000Y-58618380D01*
X126554761Y-58570761D01*
X126507142Y-58523142D01*
X127411904Y-57618380D02*
X127745238Y-58618380D01*
X128078571Y-57618380D01*
X90932857Y-57951714D02*
X90932857Y-58618380D01*
X90694761Y-57570761D02*
X90456666Y-58285047D01*
X91075714Y-58285047D01*
X91599523Y-58046952D02*
X91504285Y-57999333D01*
X91456666Y-57951714D01*
X91409047Y-57856476D01*
X91409047Y-57808857D01*
X91456666Y-57713619D01*
X91504285Y-57666000D01*
X91599523Y-57618380D01*
X91790000Y-57618380D01*
X91885238Y-57666000D01*
X91932857Y-57713619D01*
X91980476Y-57808857D01*
X91980476Y-57856476D01*
X91932857Y-57951714D01*
X91885238Y-57999333D01*
X91790000Y-58046952D01*
X91599523Y-58046952D01*
X91504285Y-58094571D01*
X91456666Y-58142190D01*
X91409047Y-58237428D01*
X91409047Y-58427904D01*
X91456666Y-58523142D01*
X91504285Y-58570761D01*
X91599523Y-58618380D01*
X91790000Y-58618380D01*
X91885238Y-58570761D01*
X91932857Y-58523142D01*
X91980476Y-58427904D01*
X91980476Y-58237428D01*
X91932857Y-58142190D01*
X91885238Y-58094571D01*
X91790000Y-58046952D01*
X93599523Y-57951714D02*
X93599523Y-58618380D01*
X93361428Y-57570761D02*
X93123333Y-58285047D01*
X93742380Y-58285047D01*
X94028095Y-57618380D02*
X94694761Y-57618380D01*
X94266190Y-58618380D01*
X96266190Y-57951714D02*
X96266190Y-58618380D01*
X96028095Y-57570761D02*
X95790000Y-58285047D01*
X96409047Y-58285047D01*
X97218571Y-57618380D02*
X97028095Y-57618380D01*
X96932857Y-57666000D01*
X96885238Y-57713619D01*
X96790000Y-57856476D01*
X96742380Y-58046952D01*
X96742380Y-58427904D01*
X96790000Y-58523142D01*
X96837619Y-58570761D01*
X96932857Y-58618380D01*
X97123333Y-58618380D01*
X97218571Y-58570761D01*
X97266190Y-58523142D01*
X97313809Y-58427904D01*
X97313809Y-58189809D01*
X97266190Y-58094571D01*
X97218571Y-58046952D01*
X97123333Y-57999333D01*
X96932857Y-57999333D01*
X96837619Y-58046952D01*
X96790000Y-58094571D01*
X96742380Y-58189809D01*
X98932857Y-57951714D02*
X98932857Y-58618380D01*
X98694761Y-57570761D02*
X98456666Y-58285047D01*
X99075714Y-58285047D01*
X99932857Y-57618380D02*
X99456666Y-57618380D01*
X99409047Y-58094571D01*
X99456666Y-58046952D01*
X99551904Y-57999333D01*
X99790000Y-57999333D01*
X99885238Y-58046952D01*
X99932857Y-58094571D01*
X99980476Y-58189809D01*
X99980476Y-58427904D01*
X99932857Y-58523142D01*
X99885238Y-58570761D01*
X99790000Y-58618380D01*
X99551904Y-58618380D01*
X99456666Y-58570761D01*
X99409047Y-58523142D01*
X101361428Y-57618380D02*
X101456666Y-57618380D01*
X101551904Y-57666000D01*
X101599523Y-57713619D01*
X101647142Y-57808857D01*
X101694761Y-57999333D01*
X101694761Y-58237428D01*
X101647142Y-58427904D01*
X101599523Y-58523142D01*
X101551904Y-58570761D01*
X101456666Y-58618380D01*
X101361428Y-58618380D01*
X101266190Y-58570761D01*
X101218571Y-58523142D01*
X101170952Y-58427904D01*
X101123333Y-58237428D01*
X101123333Y-57999333D01*
X101170952Y-57808857D01*
X101218571Y-57713619D01*
X101266190Y-57666000D01*
X101361428Y-57618380D01*
X101980476Y-57618380D02*
X102313809Y-58618380D01*
X102647142Y-57618380D01*
X103647142Y-57618380D02*
X104266190Y-57618380D01*
X103932857Y-57999333D01*
X104075714Y-57999333D01*
X104170952Y-58046952D01*
X104218571Y-58094571D01*
X104266190Y-58189809D01*
X104266190Y-58427904D01*
X104218571Y-58523142D01*
X104170952Y-58570761D01*
X104075714Y-58618380D01*
X103790000Y-58618380D01*
X103694761Y-58570761D01*
X103647142Y-58523142D01*
X104551904Y-57618380D02*
X104885238Y-58618380D01*
X105218571Y-57618380D01*
X68453809Y-57618380D02*
X68263333Y-57618380D01*
X68168095Y-57666000D01*
X68120476Y-57713619D01*
X68025238Y-57856476D01*
X67977619Y-58046952D01*
X67977619Y-58427904D01*
X68025238Y-58523142D01*
X68072857Y-58570761D01*
X68168095Y-58618380D01*
X68358571Y-58618380D01*
X68453809Y-58570761D01*
X68501428Y-58523142D01*
X68549047Y-58427904D01*
X68549047Y-58189809D01*
X68501428Y-58094571D01*
X68453809Y-58046952D01*
X68358571Y-57999333D01*
X68168095Y-57999333D01*
X68072857Y-58046952D01*
X68025238Y-58094571D01*
X67977619Y-58189809D01*
X70930000Y-57951714D02*
X70930000Y-58618380D01*
X70691904Y-57570761D02*
X70453809Y-58285047D01*
X71072857Y-58285047D01*
X72882380Y-57618380D02*
X73501428Y-57618380D01*
X73168095Y-57999333D01*
X73310952Y-57999333D01*
X73406190Y-58046952D01*
X73453809Y-58094571D01*
X73501428Y-58189809D01*
X73501428Y-58427904D01*
X73453809Y-58523142D01*
X73406190Y-58570761D01*
X73310952Y-58618380D01*
X73025238Y-58618380D01*
X72930000Y-58570761D01*
X72882380Y-58523142D01*
X75406190Y-57713619D02*
X75453809Y-57666000D01*
X75549047Y-57618380D01*
X75787142Y-57618380D01*
X75882380Y-57666000D01*
X75930000Y-57713619D01*
X75977619Y-57808857D01*
X75977619Y-57904095D01*
X75930000Y-58046952D01*
X75358571Y-58618380D01*
X75977619Y-58618380D01*
X78120476Y-57618380D02*
X78215714Y-57618380D01*
X78310952Y-57666000D01*
X78358571Y-57713619D01*
X78406190Y-57808857D01*
X78453809Y-57999333D01*
X78453809Y-58237428D01*
X78406190Y-58427904D01*
X78358571Y-58523142D01*
X78310952Y-58570761D01*
X78215714Y-58618380D01*
X78120476Y-58618380D01*
X78025238Y-58570761D01*
X77977619Y-58523142D01*
X77930000Y-58427904D01*
X77882380Y-58237428D01*
X77882380Y-57999333D01*
X77930000Y-57808857D01*
X77977619Y-57713619D01*
X78025238Y-57666000D01*
X78120476Y-57618380D01*
X78739523Y-57618380D02*
X79072857Y-58618380D01*
X79406190Y-57618380D01*
X80406190Y-57618380D02*
X81025238Y-57618380D01*
X80691904Y-57999333D01*
X80834761Y-57999333D01*
X80929999Y-58046952D01*
X80977619Y-58094571D01*
X81025238Y-58189809D01*
X81025238Y-58427904D01*
X80977619Y-58523142D01*
X80929999Y-58570761D01*
X80834761Y-58618380D01*
X80549047Y-58618380D01*
X80453809Y-58570761D01*
X80406190Y-58523142D01*
X81310952Y-57618380D02*
X81644285Y-58618380D01*
X81977619Y-57618380D01*
D11*
X88900000Y-70104000D02*
G75*
G03*
X88900000Y-70104000I-254000J0D01*
G01*
D10*
X66492380Y-94154285D02*
X65492380Y-94154285D01*
X65492380Y-93773333D01*
X65540000Y-93678095D01*
X65587619Y-93630476D01*
X65682857Y-93582857D01*
X65825714Y-93582857D01*
X65920952Y-93630476D01*
X65968571Y-93678095D01*
X66016190Y-93773333D01*
X66016190Y-94154285D01*
X66492380Y-93154285D02*
X65492380Y-93154285D01*
X66206666Y-92820952D01*
X65492380Y-92487619D01*
X66492380Y-92487619D01*
X65492380Y-91820952D02*
X65492380Y-91630476D01*
X65540000Y-91535238D01*
X65635238Y-91440000D01*
X65825714Y-91392380D01*
X66159047Y-91392380D01*
X66349523Y-91440000D01*
X66444761Y-91535238D01*
X66492380Y-91630476D01*
X66492380Y-91820952D01*
X66444761Y-91916190D01*
X66349523Y-92011428D01*
X66159047Y-92059047D01*
X65825714Y-92059047D01*
X65635238Y-92011428D01*
X65540000Y-91916190D01*
X65492380Y-91820952D01*
X66492380Y-90963809D02*
X65492380Y-90963809D01*
X65492380Y-90725714D01*
X65540000Y-90582857D01*
X65635238Y-90487619D01*
X65730476Y-90440000D01*
X65920952Y-90392380D01*
X66063809Y-90392380D01*
X66254285Y-90440000D01*
X66349523Y-90487619D01*
X66444761Y-90582857D01*
X66492380Y-90725714D01*
X66492380Y-90963809D01*
X66492380Y-88678095D02*
X66492380Y-89249523D01*
X66492380Y-88963809D02*
X65492380Y-88963809D01*
X65635238Y-89059047D01*
X65730476Y-89154285D01*
X65778095Y-89249523D01*
X89352380Y-94154285D02*
X88352380Y-94154285D01*
X88352380Y-93773333D01*
X88400000Y-93678095D01*
X88447619Y-93630476D01*
X88542857Y-93582857D01*
X88685714Y-93582857D01*
X88780952Y-93630476D01*
X88828571Y-93678095D01*
X88876190Y-93773333D01*
X88876190Y-94154285D01*
X89352380Y-93154285D02*
X88352380Y-93154285D01*
X89066666Y-92820952D01*
X88352380Y-92487619D01*
X89352380Y-92487619D01*
X88352380Y-91820952D02*
X88352380Y-91630476D01*
X88400000Y-91535238D01*
X88495238Y-91440000D01*
X88685714Y-91392380D01*
X89019047Y-91392380D01*
X89209523Y-91440000D01*
X89304761Y-91535238D01*
X89352380Y-91630476D01*
X89352380Y-91820952D01*
X89304761Y-91916190D01*
X89209523Y-92011428D01*
X89019047Y-92059047D01*
X88685714Y-92059047D01*
X88495238Y-92011428D01*
X88400000Y-91916190D01*
X88352380Y-91820952D01*
X89352380Y-90963809D02*
X88352380Y-90963809D01*
X88352380Y-90725714D01*
X88400000Y-90582857D01*
X88495238Y-90487619D01*
X88590476Y-90440000D01*
X88780952Y-90392380D01*
X88923809Y-90392380D01*
X89114285Y-90440000D01*
X89209523Y-90487619D01*
X89304761Y-90582857D01*
X89352380Y-90725714D01*
X89352380Y-90963809D01*
X88447619Y-89249523D02*
X88400000Y-89201904D01*
X88352380Y-89106666D01*
X88352380Y-88868571D01*
X88400000Y-88773333D01*
X88447619Y-88725714D01*
X88542857Y-88678095D01*
X88638095Y-88678095D01*
X88780952Y-88725714D01*
X89352380Y-89297142D01*
X89352380Y-88678095D01*
X112212380Y-94154285D02*
X111212380Y-94154285D01*
X111212380Y-93773333D01*
X111260000Y-93678095D01*
X111307619Y-93630476D01*
X111402857Y-93582857D01*
X111545714Y-93582857D01*
X111640952Y-93630476D01*
X111688571Y-93678095D01*
X111736190Y-93773333D01*
X111736190Y-94154285D01*
X112212380Y-93154285D02*
X111212380Y-93154285D01*
X111926666Y-92820952D01*
X111212380Y-92487619D01*
X112212380Y-92487619D01*
X111212380Y-91820952D02*
X111212380Y-91630476D01*
X111260000Y-91535238D01*
X111355238Y-91440000D01*
X111545714Y-91392380D01*
X111879047Y-91392380D01*
X112069523Y-91440000D01*
X112164761Y-91535238D01*
X112212380Y-91630476D01*
X112212380Y-91820952D01*
X112164761Y-91916190D01*
X112069523Y-92011428D01*
X111879047Y-92059047D01*
X111545714Y-92059047D01*
X111355238Y-92011428D01*
X111260000Y-91916190D01*
X111212380Y-91820952D01*
X112212380Y-90963809D02*
X111212380Y-90963809D01*
X111212380Y-90725714D01*
X111260000Y-90582857D01*
X111355238Y-90487619D01*
X111450476Y-90440000D01*
X111640952Y-90392380D01*
X111783809Y-90392380D01*
X111974285Y-90440000D01*
X112069523Y-90487619D01*
X112164761Y-90582857D01*
X112212380Y-90725714D01*
X112212380Y-90963809D01*
X111212380Y-89297142D02*
X111212380Y-88678095D01*
X111593333Y-89011428D01*
X111593333Y-88868571D01*
X111640952Y-88773333D01*
X111688571Y-88725714D01*
X111783809Y-88678095D01*
X112021904Y-88678095D01*
X112117142Y-88725714D01*
X112164761Y-88773333D01*
X112212380Y-88868571D01*
X112212380Y-89154285D01*
X112164761Y-89249523D01*
X112117142Y-89297142D01*
X124539714Y-82748380D02*
X124539714Y-81748380D01*
X124920666Y-81748380D01*
X125015904Y-81796000D01*
X125063523Y-81843619D01*
X125111142Y-81938857D01*
X125111142Y-82081714D01*
X125063523Y-82176952D01*
X125015904Y-82224571D01*
X124920666Y-82272190D01*
X124539714Y-82272190D01*
X125539714Y-82748380D02*
X125539714Y-81748380D01*
X125873047Y-82462666D01*
X126206380Y-81748380D01*
X126206380Y-82748380D01*
X126873047Y-81748380D02*
X127063523Y-81748380D01*
X127158761Y-81796000D01*
X127254000Y-81891238D01*
X127301619Y-82081714D01*
X127301619Y-82415047D01*
X127254000Y-82605523D01*
X127158761Y-82700761D01*
X127063523Y-82748380D01*
X126873047Y-82748380D01*
X126777809Y-82700761D01*
X126682571Y-82605523D01*
X126634952Y-82415047D01*
X126634952Y-82081714D01*
X126682571Y-81891238D01*
X126777809Y-81796000D01*
X126873047Y-81748380D01*
X127730190Y-82748380D02*
X127730190Y-81748380D01*
X127968285Y-81748380D01*
X128111142Y-81796000D01*
X128206380Y-81891238D01*
X128254000Y-81986476D01*
X128301619Y-82176952D01*
X128301619Y-82319809D01*
X128254000Y-82510285D01*
X128206380Y-82605523D01*
X128111142Y-82700761D01*
X127968285Y-82748380D01*
X127730190Y-82748380D01*
X129396857Y-81748380D02*
X130063523Y-81748380D01*
X129634952Y-82748380D01*
X89352380Y-58594285D02*
X88352380Y-58594285D01*
X88352380Y-58213333D01*
X88400000Y-58118095D01*
X88447619Y-58070476D01*
X88542857Y-58022857D01*
X88685714Y-58022857D01*
X88780952Y-58070476D01*
X88828571Y-58118095D01*
X88876190Y-58213333D01*
X88876190Y-58594285D01*
X89352380Y-57594285D02*
X88352380Y-57594285D01*
X89066666Y-57260952D01*
X88352380Y-56927619D01*
X89352380Y-56927619D01*
X88352380Y-56260952D02*
X88352380Y-56070476D01*
X88400000Y-55975238D01*
X88495238Y-55880000D01*
X88685714Y-55832380D01*
X89019047Y-55832380D01*
X89209523Y-55880000D01*
X89304761Y-55975238D01*
X89352380Y-56070476D01*
X89352380Y-56260952D01*
X89304761Y-56356190D01*
X89209523Y-56451428D01*
X89019047Y-56499047D01*
X88685714Y-56499047D01*
X88495238Y-56451428D01*
X88400000Y-56356190D01*
X88352380Y-56260952D01*
X89352380Y-55403809D02*
X88352380Y-55403809D01*
X88352380Y-55165714D01*
X88400000Y-55022857D01*
X88495238Y-54927619D01*
X88590476Y-54880000D01*
X88780952Y-54832380D01*
X88923809Y-54832380D01*
X89114285Y-54880000D01*
X89209523Y-54927619D01*
X89304761Y-55022857D01*
X89352380Y-55165714D01*
X89352380Y-55403809D01*
X88352380Y-53165714D02*
X88352380Y-53641904D01*
X88828571Y-53689523D01*
X88780952Y-53641904D01*
X88733333Y-53546666D01*
X88733333Y-53308571D01*
X88780952Y-53213333D01*
X88828571Y-53165714D01*
X88923809Y-53118095D01*
X89161904Y-53118095D01*
X89257142Y-53165714D01*
X89304761Y-53213333D01*
X89352380Y-53308571D01*
X89352380Y-53546666D01*
X89304761Y-53641904D01*
X89257142Y-53689523D01*
X112212380Y-58594285D02*
X111212380Y-58594285D01*
X111212380Y-58213333D01*
X111260000Y-58118095D01*
X111307619Y-58070476D01*
X111402857Y-58022857D01*
X111545714Y-58022857D01*
X111640952Y-58070476D01*
X111688571Y-58118095D01*
X111736190Y-58213333D01*
X111736190Y-58594285D01*
X112212380Y-57594285D02*
X111212380Y-57594285D01*
X111926666Y-57260952D01*
X111212380Y-56927619D01*
X112212380Y-56927619D01*
X111212380Y-56260952D02*
X111212380Y-56070476D01*
X111260000Y-55975238D01*
X111355238Y-55880000D01*
X111545714Y-55832380D01*
X111879047Y-55832380D01*
X112069523Y-55880000D01*
X112164761Y-55975238D01*
X112212380Y-56070476D01*
X112212380Y-56260952D01*
X112164761Y-56356190D01*
X112069523Y-56451428D01*
X111879047Y-56499047D01*
X111545714Y-56499047D01*
X111355238Y-56451428D01*
X111260000Y-56356190D01*
X111212380Y-56260952D01*
X112212380Y-55403809D02*
X111212380Y-55403809D01*
X111212380Y-55165714D01*
X111260000Y-55022857D01*
X111355238Y-54927619D01*
X111450476Y-54880000D01*
X111640952Y-54832380D01*
X111783809Y-54832380D01*
X111974285Y-54880000D01*
X112069523Y-54927619D01*
X112164761Y-55022857D01*
X112212380Y-55165714D01*
X112212380Y-55403809D01*
X111545714Y-53213333D02*
X112212380Y-53213333D01*
X111164761Y-53451428D02*
X111879047Y-53689523D01*
X111879047Y-53070476D01*
X66492380Y-58594285D02*
X65492380Y-58594285D01*
X65492380Y-58213333D01*
X65540000Y-58118095D01*
X65587619Y-58070476D01*
X65682857Y-58022857D01*
X65825714Y-58022857D01*
X65920952Y-58070476D01*
X65968571Y-58118095D01*
X66016190Y-58213333D01*
X66016190Y-58594285D01*
X66492380Y-57594285D02*
X65492380Y-57594285D01*
X66206666Y-57260952D01*
X65492380Y-56927619D01*
X66492380Y-56927619D01*
X65492380Y-56260952D02*
X65492380Y-56070476D01*
X65540000Y-55975238D01*
X65635238Y-55880000D01*
X65825714Y-55832380D01*
X66159047Y-55832380D01*
X66349523Y-55880000D01*
X66444761Y-55975238D01*
X66492380Y-56070476D01*
X66492380Y-56260952D01*
X66444761Y-56356190D01*
X66349523Y-56451428D01*
X66159047Y-56499047D01*
X65825714Y-56499047D01*
X65635238Y-56451428D01*
X65540000Y-56356190D01*
X65492380Y-56260952D01*
X66492380Y-55403809D02*
X65492380Y-55403809D01*
X65492380Y-55165714D01*
X65540000Y-55022857D01*
X65635238Y-54927619D01*
X65730476Y-54880000D01*
X65920952Y-54832380D01*
X66063809Y-54832380D01*
X66254285Y-54880000D01*
X66349523Y-54927619D01*
X66444761Y-55022857D01*
X66492380Y-55165714D01*
X66492380Y-55403809D01*
X65492380Y-53213333D02*
X65492380Y-53403809D01*
X65540000Y-53499047D01*
X65587619Y-53546666D01*
X65730476Y-53641904D01*
X65920952Y-53689523D01*
X66301904Y-53689523D01*
X66397142Y-53641904D01*
X66444761Y-53594285D01*
X66492380Y-53499047D01*
X66492380Y-53308571D01*
X66444761Y-53213333D01*
X66397142Y-53165714D01*
X66301904Y-53118095D01*
X66063809Y-53118095D01*
X65968571Y-53165714D01*
X65920952Y-53213333D01*
X65873333Y-53308571D01*
X65873333Y-53499047D01*
X65920952Y-53594285D01*
X65968571Y-53641904D01*
X66063809Y-53689523D01*
X53472395Y-60168780D02*
X53472395Y-59502114D01*
X53472395Y-59168780D02*
X53424776Y-59216400D01*
X53472395Y-59264019D01*
X53520014Y-59216400D01*
X53472395Y-59168780D01*
X53472395Y-59264019D01*
X54520014Y-60073542D02*
X54472395Y-60121161D01*
X54329538Y-60168780D01*
X54234300Y-60168780D01*
X54091442Y-60121161D01*
X53996204Y-60025923D01*
X53948585Y-59930685D01*
X53900966Y-59740209D01*
X53900966Y-59597352D01*
X53948585Y-59406876D01*
X53996204Y-59311638D01*
X54091442Y-59216400D01*
X54234300Y-59168780D01*
X54329538Y-59168780D01*
X54472395Y-59216400D01*
X54520014Y-59264019D01*
X54948585Y-59644971D02*
X55281919Y-59644971D01*
X55424776Y-60168780D02*
X54948585Y-60168780D01*
X54948585Y-59168780D01*
X55424776Y-59168780D01*
X56615252Y-60168780D02*
X56615252Y-59168780D01*
X56996204Y-59168780D01*
X57091442Y-59216400D01*
X57139061Y-59264019D01*
X57186680Y-59359257D01*
X57186680Y-59502114D01*
X57139061Y-59597352D01*
X57091442Y-59644971D01*
X56996204Y-59692590D01*
X56615252Y-59692590D01*
X57615252Y-60168780D02*
X57615252Y-59502114D01*
X57615252Y-59168780D02*
X57567633Y-59216400D01*
X57615252Y-59264019D01*
X57662871Y-59216400D01*
X57615252Y-59168780D01*
X57615252Y-59264019D01*
X58234300Y-60168780D02*
X58139061Y-60121161D01*
X58091442Y-60025923D01*
X58091442Y-59168780D01*
X58758109Y-60168780D02*
X58662871Y-60121161D01*
X58615252Y-60025923D01*
X58615252Y-59168780D01*
X53472395Y-61818780D02*
X53472395Y-61152114D01*
X53472395Y-61342590D02*
X53520014Y-61247352D01*
X53567633Y-61199733D01*
X53662871Y-61152114D01*
X53758109Y-61152114D01*
X54615252Y-61818780D02*
X54043823Y-61818780D01*
X54329538Y-61818780D02*
X54329538Y-60818780D01*
X54234300Y-60961638D01*
X54139061Y-61056876D01*
X54043823Y-61104495D01*
X55043823Y-61723542D02*
X55091442Y-61771161D01*
X55043823Y-61818780D01*
X54996204Y-61771161D01*
X55043823Y-61723542D01*
X55043823Y-61818780D01*
X55710490Y-60818780D02*
X55805728Y-60818780D01*
X55900966Y-60866400D01*
X55948585Y-60914019D01*
X55996204Y-61009257D01*
X56043823Y-61199733D01*
X56043823Y-61437828D01*
X55996204Y-61628304D01*
X55948585Y-61723542D01*
X55900966Y-61771161D01*
X55805728Y-61818780D01*
X55710490Y-61818780D01*
X55615252Y-61771161D01*
X55567633Y-61723542D01*
X55520014Y-61628304D01*
X55472395Y-61437828D01*
X55472395Y-61199733D01*
X55520014Y-61009257D01*
X55567633Y-60914019D01*
X55615252Y-60866400D01*
X55710490Y-60818780D01*
X57186680Y-61533066D02*
X57662871Y-61533066D01*
X57091442Y-61818780D02*
X57424776Y-60818780D01*
X57758109Y-61818780D01*
X58615252Y-60866400D02*
X58520014Y-60818780D01*
X58377157Y-60818780D01*
X58234300Y-60866400D01*
X58139061Y-60961638D01*
X58091442Y-61056876D01*
X58043823Y-61247352D01*
X58043823Y-61390209D01*
X58091442Y-61580685D01*
X58139061Y-61675923D01*
X58234300Y-61771161D01*
X58377157Y-61818780D01*
X58472395Y-61818780D01*
X58615252Y-61771161D01*
X58662871Y-61723542D01*
X58662871Y-61390209D01*
X58472395Y-61390209D01*
X59615252Y-60866400D02*
X59520014Y-60818780D01*
X59377157Y-60818780D01*
X59234300Y-60866400D01*
X59139061Y-60961638D01*
X59091442Y-61056876D01*
X59043823Y-61247352D01*
X59043823Y-61390209D01*
X59091442Y-61580685D01*
X59139061Y-61675923D01*
X59234300Y-61771161D01*
X59377157Y-61818780D01*
X59472395Y-61818780D01*
X59615252Y-61771161D01*
X59662871Y-61723542D01*
X59662871Y-61390209D01*
X59472395Y-61390209D01*
X53424776Y-62564019D02*
X53472395Y-62516400D01*
X53567633Y-62468780D01*
X53805728Y-62468780D01*
X53900966Y-62516400D01*
X53948585Y-62564019D01*
X53996204Y-62659257D01*
X53996204Y-62754495D01*
X53948585Y-62897352D01*
X53377157Y-63468780D01*
X53996204Y-63468780D01*
X54615252Y-62468780D02*
X54710490Y-62468780D01*
X54805728Y-62516400D01*
X54853347Y-62564019D01*
X54900966Y-62659257D01*
X54948585Y-62849733D01*
X54948585Y-63087828D01*
X54900966Y-63278304D01*
X54853347Y-63373542D01*
X54805728Y-63421161D01*
X54710490Y-63468780D01*
X54615252Y-63468780D01*
X54520014Y-63421161D01*
X54472395Y-63373542D01*
X54424776Y-63278304D01*
X54377157Y-63087828D01*
X54377157Y-62849733D01*
X54424776Y-62659257D01*
X54472395Y-62564019D01*
X54520014Y-62516400D01*
X54615252Y-62468780D01*
X55329538Y-62564019D02*
X55377157Y-62516400D01*
X55472395Y-62468780D01*
X55710490Y-62468780D01*
X55805728Y-62516400D01*
X55853347Y-62564019D01*
X55900966Y-62659257D01*
X55900966Y-62754495D01*
X55853347Y-62897352D01*
X55281919Y-63468780D01*
X55900966Y-63468780D01*
X56520014Y-62468780D02*
X56615252Y-62468780D01*
X56710490Y-62516400D01*
X56758109Y-62564019D01*
X56805728Y-62659257D01*
X56853347Y-62849733D01*
X56853347Y-63087828D01*
X56805728Y-63278304D01*
X56758109Y-63373542D01*
X56710490Y-63421161D01*
X56615252Y-63468780D01*
X56520014Y-63468780D01*
X56424776Y-63421161D01*
X56377157Y-63373542D01*
X56329538Y-63278304D01*
X56281919Y-63087828D01*
X56281919Y-62849733D01*
X56329538Y-62659257D01*
X56377157Y-62564019D01*
X56424776Y-62516400D01*
X56520014Y-62468780D01*
X57281919Y-63087828D02*
X58043823Y-63087828D01*
X59043823Y-63468780D02*
X58472395Y-63468780D01*
X58758109Y-63468780D02*
X58758109Y-62468780D01*
X58662871Y-62611638D01*
X58567633Y-62706876D01*
X58472395Y-62754495D01*
X59996204Y-63468780D02*
X59424776Y-63468780D01*
X59710490Y-63468780D02*
X59710490Y-62468780D01*
X59615252Y-62611638D01*
X59520014Y-62706876D01*
X59424776Y-62754495D01*
%TO.C,R8*%
X96899000Y-86177000D02*
X96649000Y-86177000D01*
X96649000Y-86177000D02*
X96649000Y-85527000D01*
X96649000Y-85527000D02*
X96899000Y-85527000D01*
X96899000Y-85527000D02*
X96899000Y-86177000D01*
%TO.C,R7*%
X64391000Y-87051000D02*
X64641000Y-87051000D01*
X64641000Y-87051000D02*
X64641000Y-87701000D01*
X64641000Y-87701000D02*
X64391000Y-87701000D01*
X64391000Y-87701000D02*
X64391000Y-87051000D01*
%TO.C,R6*%
X63375000Y-78161000D02*
X63625000Y-78161000D01*
X63625000Y-78161000D02*
X63625000Y-78811000D01*
X63625000Y-78811000D02*
X63375000Y-78811000D01*
X63375000Y-78811000D02*
X63375000Y-78161000D01*
%TO.C,R5*%
X60073000Y-78161000D02*
X60323000Y-78161000D01*
X60323000Y-78161000D02*
X60323000Y-78811000D01*
X60323000Y-78811000D02*
X60073000Y-78811000D01*
X60073000Y-78811000D02*
X60073000Y-78161000D01*
%TO.C,IC2*%
X58700000Y-76960000D02*
X62200000Y-76960000D01*
X62200000Y-76960000D02*
X62200000Y-70360000D01*
X62200000Y-70360000D02*
X58700000Y-70360000D01*
X58700000Y-70360000D02*
X58700000Y-76960000D01*
%TO.C,C9*%
X80897000Y-76920000D02*
X80897000Y-78020000D01*
X80647000Y-76920000D02*
X80897000Y-76920000D01*
X80647000Y-78020000D02*
X80647000Y-76920000D01*
X80897000Y-78020000D02*
X80647000Y-78020000D01*
%TO.C,C8*%
X63371000Y-68030000D02*
X63371000Y-69130000D01*
X63121000Y-68030000D02*
X63371000Y-68030000D01*
X63121000Y-69130000D02*
X63121000Y-68030000D01*
X63371000Y-69130000D02*
X63121000Y-69130000D01*
%TO.C,C6*%
X103824500Y-76242000D02*
X103824500Y-75142000D01*
X104074500Y-76242000D02*
X103824500Y-76242000D01*
X104074500Y-75142000D02*
X104074500Y-76242000D01*
X103824500Y-75142000D02*
X104074500Y-75142000D01*
%TO.C,U1*%
X66710000Y-82160000D02*
X66710000Y-63660000D01*
X66710000Y-63660000D02*
X118710000Y-63660000D01*
X118710000Y-63660000D02*
X118710000Y-83660000D01*
X118710000Y-83660000D02*
X68210000Y-83660000D01*
X66710000Y-80160000D02*
X118710000Y-80160000D01*
X118710000Y-67160000D02*
X66710000Y-67160000D01*
X66710000Y-78660000D02*
X74210000Y-78660000D01*
X74210000Y-78660000D02*
X74210000Y-68660000D01*
X74210000Y-68660000D02*
X66710000Y-68660000D01*
X68210000Y-83660000D02*
X66710000Y-82160000D01*
%TO.C,D1*%
X88009000Y-60960000D02*
X87759000Y-61285000D01*
X88009000Y-60960000D02*
X87759000Y-60635000D01*
X87759000Y-61285000D02*
X87759000Y-60635000D01*
%TO.C,R4*%
X88009000Y-59761000D02*
X87759000Y-59761000D01*
X87759000Y-59761000D02*
X87759000Y-59111000D01*
X87759000Y-59111000D02*
X88009000Y-59111000D01*
X88009000Y-59111000D02*
X88009000Y-59761000D01*
%TO.C,R3*%
X64641000Y-85273000D02*
X64641000Y-85923000D01*
X64391000Y-85273000D02*
X64641000Y-85273000D01*
X64391000Y-85923000D02*
X64391000Y-85273000D01*
X64641000Y-85923000D02*
X64391000Y-85923000D01*
%TO.C,R2*%
X96649000Y-87955000D02*
X96649000Y-87305000D01*
X96899000Y-87955000D02*
X96649000Y-87955000D01*
X96899000Y-87305000D02*
X96899000Y-87955000D01*
X96649000Y-87305000D02*
X96899000Y-87305000D01*
%TO.C,J6*%
X67310000Y-57150000D02*
X67310000Y-54610000D01*
X82550000Y-57150000D02*
X67310000Y-57150000D01*
X82550000Y-54610000D02*
X82550000Y-57150000D01*
X67310000Y-54610000D02*
X82550000Y-54610000D01*
%TO.C,J5*%
X90170000Y-57150000D02*
X90170000Y-54610000D01*
X105410000Y-57150000D02*
X90170000Y-57150000D01*
X105410000Y-54610000D02*
X105410000Y-57150000D01*
X90170000Y-54610000D02*
X105410000Y-54610000D01*
%TO.C,J4*%
X113030000Y-57150000D02*
X113030000Y-54610000D01*
X128270000Y-57150000D02*
X113030000Y-57150000D01*
X128270000Y-54610000D02*
X128270000Y-57150000D01*
X113030000Y-54610000D02*
X128270000Y-54610000D01*
%TO.C,J3*%
X128270000Y-90170000D02*
X128270000Y-92710000D01*
X113030000Y-90170000D02*
X128270000Y-90170000D01*
X113030000Y-92710000D02*
X113030000Y-90170000D01*
X128270000Y-92710000D02*
X113030000Y-92710000D01*
%TO.C,J2*%
X105410000Y-90170000D02*
X105410000Y-92710000D01*
X90170000Y-90170000D02*
X105410000Y-90170000D01*
X90170000Y-92710000D02*
X90170000Y-90170000D01*
X105410000Y-92710000D02*
X90170000Y-92710000D01*
%TO.C,J1*%
X82550000Y-90170000D02*
X82550000Y-92710000D01*
X67310000Y-90170000D02*
X82550000Y-90170000D01*
X67310000Y-92710000D02*
X67310000Y-90170000D01*
X82550000Y-92710000D02*
X67310000Y-92710000D01*
%TO.C,R1*%
X103884000Y-74239000D02*
X103634000Y-74239000D01*
X103634000Y-74239000D02*
X103634000Y-73589000D01*
X103634000Y-73589000D02*
X103884000Y-73589000D01*
X103884000Y-73589000D02*
X103884000Y-74239000D01*
%TO.C,J7*%
X129540000Y-66040000D02*
X129540000Y-81280000D01*
X129540000Y-81280000D02*
X124460000Y-81280000D01*
X124460000Y-81280000D02*
X124460000Y-74930000D01*
X124460000Y-72390000D02*
X124460000Y-66040000D01*
X124460000Y-66040000D02*
X129540000Y-66040000D01*
%TO.C,J9*%
X67310000Y-59690000D02*
X80010000Y-59690000D01*
X80010000Y-59690000D02*
X80010000Y-62230000D01*
X80010000Y-62230000D02*
X67310000Y-62230000D01*
X67310000Y-62230000D02*
X67310000Y-59690000D01*
%TO.C,J8*%
X67310000Y-85090000D02*
X80010000Y-85090000D01*
X80010000Y-85090000D02*
X80010000Y-87630000D01*
X80010000Y-87630000D02*
X67310000Y-87630000D01*
X67310000Y-87630000D02*
X67310000Y-85090000D01*
%TO.C,IC1*%
X89210000Y-77160000D02*
X89210000Y-76810000D01*
X89560000Y-77160000D02*
X89210000Y-77160000D01*
X96210000Y-77160000D02*
X96210000Y-76810000D01*
X95860000Y-77160000D02*
X96210000Y-77160000D01*
X96210000Y-70160000D02*
X96210000Y-70510000D01*
X95860000Y-70160000D02*
X96210000Y-70160000D01*
X89210000Y-70510000D02*
X89560000Y-70160000D01*
%TO.C,C7*%
X100459000Y-75113000D02*
X100709000Y-75113000D01*
X100709000Y-75113000D02*
X100709000Y-75763000D01*
X100709000Y-75763000D02*
X100459000Y-75763000D01*
X100459000Y-75763000D02*
X100459000Y-75113000D01*
%TO.C,C5*%
X100459000Y-73589000D02*
X100709000Y-73589000D01*
X100709000Y-73589000D02*
X100709000Y-74239000D01*
X100709000Y-74239000D02*
X100459000Y-74239000D01*
X100459000Y-74239000D02*
X100459000Y-73589000D01*
%TO.C,C4*%
X85519800Y-73223000D02*
X85269800Y-73223000D01*
X85269800Y-73223000D02*
X85269800Y-72573000D01*
X85269800Y-72573000D02*
X85519800Y-72573000D01*
X85519800Y-72573000D02*
X85519800Y-73223000D01*
%TO.C,C3*%
X100459000Y-72065000D02*
X100709000Y-72065000D01*
X100709000Y-72065000D02*
X100709000Y-72715000D01*
X100709000Y-72715000D02*
X100459000Y-72715000D01*
X100459000Y-72715000D02*
X100459000Y-72065000D01*
%TO.C,C2*%
X96852200Y-78211800D02*
X97102200Y-78211800D01*
X97102200Y-78211800D02*
X97102200Y-78861800D01*
X97102200Y-78861800D02*
X96852200Y-78861800D01*
X96852200Y-78861800D02*
X96852200Y-78211800D01*
%TO.C,C1*%
X85519800Y-69921000D02*
X85269800Y-69921000D01*
X85269800Y-69921000D02*
X85269800Y-69271000D01*
X85269800Y-69271000D02*
X85519800Y-69271000D01*
X85519800Y-69271000D02*
X85519800Y-69921000D01*
%TO.C,R8*%
X98926666Y-86213904D02*
X98660000Y-85832952D01*
X98469523Y-86213904D02*
X98469523Y-85413904D01*
X98774285Y-85413904D01*
X98850476Y-85452000D01*
X98888571Y-85490095D01*
X98926666Y-85566285D01*
X98926666Y-85680571D01*
X98888571Y-85756761D01*
X98850476Y-85794857D01*
X98774285Y-85832952D01*
X98469523Y-85832952D01*
X99383809Y-85756761D02*
X99307619Y-85718666D01*
X99269523Y-85680571D01*
X99231428Y-85604380D01*
X99231428Y-85566285D01*
X99269523Y-85490095D01*
X99307619Y-85452000D01*
X99383809Y-85413904D01*
X99536190Y-85413904D01*
X99612380Y-85452000D01*
X99650476Y-85490095D01*
X99688571Y-85566285D01*
X99688571Y-85604380D01*
X99650476Y-85680571D01*
X99612380Y-85718666D01*
X99536190Y-85756761D01*
X99383809Y-85756761D01*
X99307619Y-85794857D01*
X99269523Y-85832952D01*
X99231428Y-85909142D01*
X99231428Y-86061523D01*
X99269523Y-86137714D01*
X99307619Y-86175809D01*
X99383809Y-86213904D01*
X99536190Y-86213904D01*
X99612380Y-86175809D01*
X99650476Y-86137714D01*
X99688571Y-86061523D01*
X99688571Y-85909142D01*
X99650476Y-85832952D01*
X99612380Y-85794857D01*
X99536190Y-85756761D01*
%TO.C,R7*%
X61842666Y-87737904D02*
X61576000Y-87356952D01*
X61385523Y-87737904D02*
X61385523Y-86937904D01*
X61690285Y-86937904D01*
X61766476Y-86976000D01*
X61804571Y-87014095D01*
X61842666Y-87090285D01*
X61842666Y-87204571D01*
X61804571Y-87280761D01*
X61766476Y-87318857D01*
X61690285Y-87356952D01*
X61385523Y-87356952D01*
X62109333Y-86937904D02*
X62642666Y-86937904D01*
X62299809Y-87737904D01*
%TO.C,R6*%
X63366666Y-80117904D02*
X63100000Y-79736952D01*
X62909523Y-80117904D02*
X62909523Y-79317904D01*
X63214285Y-79317904D01*
X63290476Y-79356000D01*
X63328571Y-79394095D01*
X63366666Y-79470285D01*
X63366666Y-79584571D01*
X63328571Y-79660761D01*
X63290476Y-79698857D01*
X63214285Y-79736952D01*
X62909523Y-79736952D01*
X64052380Y-79317904D02*
X63900000Y-79317904D01*
X63823809Y-79356000D01*
X63785714Y-79394095D01*
X63709523Y-79508380D01*
X63671428Y-79660761D01*
X63671428Y-79965523D01*
X63709523Y-80041714D01*
X63747619Y-80079809D01*
X63823809Y-80117904D01*
X63976190Y-80117904D01*
X64052380Y-80079809D01*
X64090476Y-80041714D01*
X64128571Y-79965523D01*
X64128571Y-79775047D01*
X64090476Y-79698857D01*
X64052380Y-79660761D01*
X63976190Y-79622666D01*
X63823809Y-79622666D01*
X63747619Y-79660761D01*
X63709523Y-79698857D01*
X63671428Y-79775047D01*
%TO.C,R5*%
X60064666Y-80117904D02*
X59798000Y-79736952D01*
X59607523Y-80117904D02*
X59607523Y-79317904D01*
X59912285Y-79317904D01*
X59988476Y-79356000D01*
X60026571Y-79394095D01*
X60064666Y-79470285D01*
X60064666Y-79584571D01*
X60026571Y-79660761D01*
X59988476Y-79698857D01*
X59912285Y-79736952D01*
X59607523Y-79736952D01*
X60788476Y-79317904D02*
X60407523Y-79317904D01*
X60369428Y-79698857D01*
X60407523Y-79660761D01*
X60483714Y-79622666D01*
X60674190Y-79622666D01*
X60750380Y-79660761D01*
X60788476Y-79698857D01*
X60826571Y-79775047D01*
X60826571Y-79965523D01*
X60788476Y-80041714D01*
X60750380Y-80079809D01*
X60674190Y-80117904D01*
X60483714Y-80117904D01*
X60407523Y-80079809D01*
X60369428Y-80041714D01*
%TO.C,IC2*%
X56623047Y-76815904D02*
X56623047Y-76015904D01*
X57461142Y-76739714D02*
X57423047Y-76777809D01*
X57308761Y-76815904D01*
X57232571Y-76815904D01*
X57118285Y-76777809D01*
X57042095Y-76701619D01*
X57004000Y-76625428D01*
X56965904Y-76473047D01*
X56965904Y-76358761D01*
X57004000Y-76206380D01*
X57042095Y-76130190D01*
X57118285Y-76054000D01*
X57232571Y-76015904D01*
X57308761Y-76015904D01*
X57423047Y-76054000D01*
X57461142Y-76092095D01*
X57765904Y-76092095D02*
X57804000Y-76054000D01*
X57880190Y-76015904D01*
X58070666Y-76015904D01*
X58146857Y-76054000D01*
X58184952Y-76092095D01*
X58223047Y-76168285D01*
X58223047Y-76244476D01*
X58184952Y-76358761D01*
X57727809Y-76815904D01*
X58223047Y-76815904D01*
%TO.C,C9*%
X83178666Y-77755714D02*
X83140571Y-77793809D01*
X83026285Y-77831904D01*
X82950095Y-77831904D01*
X82835809Y-77793809D01*
X82759619Y-77717619D01*
X82721523Y-77641428D01*
X82683428Y-77489047D01*
X82683428Y-77374761D01*
X82721523Y-77222380D01*
X82759619Y-77146190D01*
X82835809Y-77070000D01*
X82950095Y-77031904D01*
X83026285Y-77031904D01*
X83140571Y-77070000D01*
X83178666Y-77108095D01*
X83559619Y-77831904D02*
X83712000Y-77831904D01*
X83788190Y-77793809D01*
X83826285Y-77755714D01*
X83902476Y-77641428D01*
X83940571Y-77489047D01*
X83940571Y-77184285D01*
X83902476Y-77108095D01*
X83864380Y-77070000D01*
X83788190Y-77031904D01*
X83635809Y-77031904D01*
X83559619Y-77070000D01*
X83521523Y-77108095D01*
X83483428Y-77184285D01*
X83483428Y-77374761D01*
X83521523Y-77450952D01*
X83559619Y-77489047D01*
X83635809Y-77527142D01*
X83788190Y-77527142D01*
X83864380Y-77489047D01*
X83902476Y-77450952D01*
X83940571Y-77374761D01*
%TO.C,C8*%
X63112666Y-67341714D02*
X63074571Y-67379809D01*
X62960285Y-67417904D01*
X62884095Y-67417904D01*
X62769809Y-67379809D01*
X62693619Y-67303619D01*
X62655523Y-67227428D01*
X62617428Y-67075047D01*
X62617428Y-66960761D01*
X62655523Y-66808380D01*
X62693619Y-66732190D01*
X62769809Y-66656000D01*
X62884095Y-66617904D01*
X62960285Y-66617904D01*
X63074571Y-66656000D01*
X63112666Y-66694095D01*
X63569809Y-66960761D02*
X63493619Y-66922666D01*
X63455523Y-66884571D01*
X63417428Y-66808380D01*
X63417428Y-66770285D01*
X63455523Y-66694095D01*
X63493619Y-66656000D01*
X63569809Y-66617904D01*
X63722190Y-66617904D01*
X63798380Y-66656000D01*
X63836476Y-66694095D01*
X63874571Y-66770285D01*
X63874571Y-66808380D01*
X63836476Y-66884571D01*
X63798380Y-66922666D01*
X63722190Y-66960761D01*
X63569809Y-66960761D01*
X63493619Y-66998857D01*
X63455523Y-67036952D01*
X63417428Y-67113142D01*
X63417428Y-67265523D01*
X63455523Y-67341714D01*
X63493619Y-67379809D01*
X63569809Y-67417904D01*
X63722190Y-67417904D01*
X63798380Y-67379809D01*
X63836476Y-67341714D01*
X63874571Y-67265523D01*
X63874571Y-67113142D01*
X63836476Y-67036952D01*
X63798380Y-66998857D01*
X63722190Y-66960761D01*
%TO.C,C6*%
X106292666Y-75977714D02*
X106254571Y-76015809D01*
X106140285Y-76053904D01*
X106064095Y-76053904D01*
X105949809Y-76015809D01*
X105873619Y-75939619D01*
X105835523Y-75863428D01*
X105797428Y-75711047D01*
X105797428Y-75596761D01*
X105835523Y-75444380D01*
X105873619Y-75368190D01*
X105949809Y-75292000D01*
X106064095Y-75253904D01*
X106140285Y-75253904D01*
X106254571Y-75292000D01*
X106292666Y-75330095D01*
X106978380Y-75253904D02*
X106826000Y-75253904D01*
X106749809Y-75292000D01*
X106711714Y-75330095D01*
X106635523Y-75444380D01*
X106597428Y-75596761D01*
X106597428Y-75901523D01*
X106635523Y-75977714D01*
X106673619Y-76015809D01*
X106749809Y-76053904D01*
X106902190Y-76053904D01*
X106978380Y-76015809D01*
X107016476Y-75977714D01*
X107054571Y-75901523D01*
X107054571Y-75711047D01*
X107016476Y-75634857D01*
X106978380Y-75596761D01*
X106902190Y-75558666D01*
X106749809Y-75558666D01*
X106673619Y-75596761D01*
X106635523Y-75634857D01*
X106597428Y-75711047D01*
%TO.C,U1*%
X67125904Y-78079523D02*
X67773523Y-78079523D01*
X67849714Y-78041428D01*
X67887809Y-78003333D01*
X67925904Y-77927142D01*
X67925904Y-77774761D01*
X67887809Y-77698571D01*
X67849714Y-77660476D01*
X67773523Y-77622380D01*
X67125904Y-77622380D01*
X67925904Y-76822380D02*
X67925904Y-77279523D01*
X67925904Y-77050952D02*
X67125904Y-77050952D01*
X67240190Y-77127142D01*
X67316380Y-77203333D01*
X67354476Y-77279523D01*
%TO.C,D1*%
X86531523Y-62591904D02*
X86531523Y-61791904D01*
X86722000Y-61791904D01*
X86836285Y-61830000D01*
X86912476Y-61906190D01*
X86950571Y-61982380D01*
X86988666Y-62134761D01*
X86988666Y-62249047D01*
X86950571Y-62401428D01*
X86912476Y-62477619D01*
X86836285Y-62553809D01*
X86722000Y-62591904D01*
X86531523Y-62591904D01*
X87750571Y-62591904D02*
X87293428Y-62591904D01*
X87522000Y-62591904D02*
X87522000Y-61791904D01*
X87445809Y-61906190D01*
X87369619Y-61982380D01*
X87293428Y-62020476D01*
%TO.C,R4*%
X86988666Y-58527904D02*
X86722000Y-58146952D01*
X86531523Y-58527904D02*
X86531523Y-57727904D01*
X86836285Y-57727904D01*
X86912476Y-57766000D01*
X86950571Y-57804095D01*
X86988666Y-57880285D01*
X86988666Y-57994571D01*
X86950571Y-58070761D01*
X86912476Y-58108857D01*
X86836285Y-58146952D01*
X86531523Y-58146952D01*
X87674380Y-57994571D02*
X87674380Y-58527904D01*
X87483904Y-57689809D02*
X87293428Y-58261238D01*
X87788666Y-58261238D01*
%TO.C,R3*%
X61842666Y-85959904D02*
X61576000Y-85578952D01*
X61385523Y-85959904D02*
X61385523Y-85159904D01*
X61690285Y-85159904D01*
X61766476Y-85198000D01*
X61804571Y-85236095D01*
X61842666Y-85312285D01*
X61842666Y-85426571D01*
X61804571Y-85502761D01*
X61766476Y-85540857D01*
X61690285Y-85578952D01*
X61385523Y-85578952D01*
X62109333Y-85159904D02*
X62604571Y-85159904D01*
X62337904Y-85464666D01*
X62452190Y-85464666D01*
X62528380Y-85502761D01*
X62566476Y-85540857D01*
X62604571Y-85617047D01*
X62604571Y-85807523D01*
X62566476Y-85883714D01*
X62528380Y-85921809D01*
X62452190Y-85959904D01*
X62223619Y-85959904D01*
X62147428Y-85921809D01*
X62109333Y-85883714D01*
%TO.C,R2*%
X98926666Y-87991904D02*
X98660000Y-87610952D01*
X98469523Y-87991904D02*
X98469523Y-87191904D01*
X98774285Y-87191904D01*
X98850476Y-87230000D01*
X98888571Y-87268095D01*
X98926666Y-87344285D01*
X98926666Y-87458571D01*
X98888571Y-87534761D01*
X98850476Y-87572857D01*
X98774285Y-87610952D01*
X98469523Y-87610952D01*
X99231428Y-87268095D02*
X99269523Y-87230000D01*
X99345714Y-87191904D01*
X99536190Y-87191904D01*
X99612380Y-87230000D01*
X99650476Y-87268095D01*
X99688571Y-87344285D01*
X99688571Y-87420476D01*
X99650476Y-87534761D01*
X99193333Y-87991904D01*
X99688571Y-87991904D01*
%TO.C,R1*%
X106292666Y-74275904D02*
X106026000Y-73894952D01*
X105835523Y-74275904D02*
X105835523Y-73475904D01*
X106140285Y-73475904D01*
X106216476Y-73514000D01*
X106254571Y-73552095D01*
X106292666Y-73628285D01*
X106292666Y-73742571D01*
X106254571Y-73818761D01*
X106216476Y-73856857D01*
X106140285Y-73894952D01*
X105835523Y-73894952D01*
X107054571Y-74275904D02*
X106597428Y-74275904D01*
X106826000Y-74275904D02*
X106826000Y-73475904D01*
X106749809Y-73590190D01*
X106673619Y-73666380D01*
X106597428Y-73704476D01*
%TO.C,J9*%
X80732380Y-61293333D02*
X81446666Y-61293333D01*
X81589523Y-61340952D01*
X81684761Y-61436190D01*
X81732380Y-61579047D01*
X81732380Y-61674285D01*
X81732380Y-60769523D02*
X81732380Y-60579047D01*
X81684761Y-60483809D01*
X81637142Y-60436190D01*
X81494285Y-60340952D01*
X81303809Y-60293333D01*
X80922857Y-60293333D01*
X80827619Y-60340952D01*
X80780000Y-60388571D01*
X80732380Y-60483809D01*
X80732380Y-60674285D01*
X80780000Y-60769523D01*
X80827619Y-60817142D01*
X80922857Y-60864761D01*
X81160952Y-60864761D01*
X81256190Y-60817142D01*
X81303809Y-60769523D01*
X81351428Y-60674285D01*
X81351428Y-60483809D01*
X81303809Y-60388571D01*
X81256190Y-60340952D01*
X81160952Y-60293333D01*
%TO.C,J8*%
X80732380Y-86693333D02*
X81446666Y-86693333D01*
X81589523Y-86740952D01*
X81684761Y-86836190D01*
X81732380Y-86979047D01*
X81732380Y-87074285D01*
X81160952Y-86074285D02*
X81113333Y-86169523D01*
X81065714Y-86217142D01*
X80970476Y-86264761D01*
X80922857Y-86264761D01*
X80827619Y-86217142D01*
X80780000Y-86169523D01*
X80732380Y-86074285D01*
X80732380Y-85883809D01*
X80780000Y-85788571D01*
X80827619Y-85740952D01*
X80922857Y-85693333D01*
X80970476Y-85693333D01*
X81065714Y-85740952D01*
X81113333Y-85788571D01*
X81160952Y-85883809D01*
X81160952Y-86074285D01*
X81208571Y-86169523D01*
X81256190Y-86217142D01*
X81351428Y-86264761D01*
X81541904Y-86264761D01*
X81637142Y-86217142D01*
X81684761Y-86169523D01*
X81732380Y-86074285D01*
X81732380Y-85883809D01*
X81684761Y-85788571D01*
X81637142Y-85740952D01*
X81541904Y-85693333D01*
X81351428Y-85693333D01*
X81256190Y-85740952D01*
X81208571Y-85788571D01*
X81160952Y-85883809D01*
%TO.C,IC1*%
X88881047Y-69449904D02*
X88881047Y-68649904D01*
X89719142Y-69373714D02*
X89681047Y-69411809D01*
X89566761Y-69449904D01*
X89490571Y-69449904D01*
X89376285Y-69411809D01*
X89300095Y-69335619D01*
X89262000Y-69259428D01*
X89223904Y-69107047D01*
X89223904Y-68992761D01*
X89262000Y-68840380D01*
X89300095Y-68764190D01*
X89376285Y-68688000D01*
X89490571Y-68649904D01*
X89566761Y-68649904D01*
X89681047Y-68688000D01*
X89719142Y-68726095D01*
X90481047Y-69449904D02*
X90023904Y-69449904D01*
X90252476Y-69449904D02*
X90252476Y-68649904D01*
X90176285Y-68764190D01*
X90100095Y-68840380D01*
X90023904Y-68878476D01*
%TO.C,C7*%
X97656666Y-75977714D02*
X97618571Y-76015809D01*
X97504285Y-76053904D01*
X97428095Y-76053904D01*
X97313809Y-76015809D01*
X97237619Y-75939619D01*
X97199523Y-75863428D01*
X97161428Y-75711047D01*
X97161428Y-75596761D01*
X97199523Y-75444380D01*
X97237619Y-75368190D01*
X97313809Y-75292000D01*
X97428095Y-75253904D01*
X97504285Y-75253904D01*
X97618571Y-75292000D01*
X97656666Y-75330095D01*
X97923333Y-75253904D02*
X98456666Y-75253904D01*
X98113809Y-76053904D01*
%TO.C,C5*%
X97656666Y-74453714D02*
X97618571Y-74491809D01*
X97504285Y-74529904D01*
X97428095Y-74529904D01*
X97313809Y-74491809D01*
X97237619Y-74415619D01*
X97199523Y-74339428D01*
X97161428Y-74187047D01*
X97161428Y-74072761D01*
X97199523Y-73920380D01*
X97237619Y-73844190D01*
X97313809Y-73768000D01*
X97428095Y-73729904D01*
X97504285Y-73729904D01*
X97618571Y-73768000D01*
X97656666Y-73806095D01*
X98380476Y-73729904D02*
X97999523Y-73729904D01*
X97961428Y-74110857D01*
X97999523Y-74072761D01*
X98075714Y-74034666D01*
X98266190Y-74034666D01*
X98342380Y-74072761D01*
X98380476Y-74110857D01*
X98418571Y-74187047D01*
X98418571Y-74377523D01*
X98380476Y-74453714D01*
X98342380Y-74491809D01*
X98266190Y-74529904D01*
X98075714Y-74529904D01*
X97999523Y-74491809D01*
X97961428Y-74453714D01*
%TO.C,C4*%
X85210666Y-74453714D02*
X85172571Y-74491809D01*
X85058285Y-74529904D01*
X84982095Y-74529904D01*
X84867809Y-74491809D01*
X84791619Y-74415619D01*
X84753523Y-74339428D01*
X84715428Y-74187047D01*
X84715428Y-74072761D01*
X84753523Y-73920380D01*
X84791619Y-73844190D01*
X84867809Y-73768000D01*
X84982095Y-73729904D01*
X85058285Y-73729904D01*
X85172571Y-73768000D01*
X85210666Y-73806095D01*
X85896380Y-73996571D02*
X85896380Y-74529904D01*
X85705904Y-73691809D02*
X85515428Y-74263238D01*
X86010666Y-74263238D01*
%TO.C,C3*%
X97656666Y-72929714D02*
X97618571Y-72967809D01*
X97504285Y-73005904D01*
X97428095Y-73005904D01*
X97313809Y-72967809D01*
X97237619Y-72891619D01*
X97199523Y-72815428D01*
X97161428Y-72663047D01*
X97161428Y-72548761D01*
X97199523Y-72396380D01*
X97237619Y-72320190D01*
X97313809Y-72244000D01*
X97428095Y-72205904D01*
X97504285Y-72205904D01*
X97618571Y-72244000D01*
X97656666Y-72282095D01*
X97923333Y-72205904D02*
X98418571Y-72205904D01*
X98151904Y-72510666D01*
X98266190Y-72510666D01*
X98342380Y-72548761D01*
X98380476Y-72586857D01*
X98418571Y-72663047D01*
X98418571Y-72853523D01*
X98380476Y-72929714D01*
X98342380Y-72967809D01*
X98266190Y-73005904D01*
X98037619Y-73005904D01*
X97961428Y-72967809D01*
X97923333Y-72929714D01*
%TO.C,C2*%
X99180666Y-78771714D02*
X99142571Y-78809809D01*
X99028285Y-78847904D01*
X98952095Y-78847904D01*
X98837809Y-78809809D01*
X98761619Y-78733619D01*
X98723523Y-78657428D01*
X98685428Y-78505047D01*
X98685428Y-78390761D01*
X98723523Y-78238380D01*
X98761619Y-78162190D01*
X98837809Y-78086000D01*
X98952095Y-78047904D01*
X99028285Y-78047904D01*
X99142571Y-78086000D01*
X99180666Y-78124095D01*
X99485428Y-78124095D02*
X99523523Y-78086000D01*
X99599714Y-78047904D01*
X99790190Y-78047904D01*
X99866380Y-78086000D01*
X99904476Y-78124095D01*
X99942571Y-78200285D01*
X99942571Y-78276476D01*
X99904476Y-78390761D01*
X99447333Y-78847904D01*
X99942571Y-78847904D01*
%TO.C,C1*%
X85210666Y-71151714D02*
X85172571Y-71189809D01*
X85058285Y-71227904D01*
X84982095Y-71227904D01*
X84867809Y-71189809D01*
X84791619Y-71113619D01*
X84753523Y-71037428D01*
X84715428Y-70885047D01*
X84715428Y-70770761D01*
X84753523Y-70618380D01*
X84791619Y-70542190D01*
X84867809Y-70466000D01*
X84982095Y-70427904D01*
X85058285Y-70427904D01*
X85172571Y-70466000D01*
X85210666Y-70504095D01*
X85972571Y-71227904D02*
X85515428Y-71227904D01*
X85744000Y-71227904D02*
X85744000Y-70427904D01*
X85667809Y-70542190D01*
X85591619Y-70618380D01*
X85515428Y-70656476D01*
%TD*%
%LPC*%
D12*
%TO.C,R8*%
X95974000Y-85852000D03*
X97574000Y-85852000D03*
%TD*%
%TO.C,R7*%
X65316000Y-87376000D03*
X63716000Y-87376000D03*
%TD*%
%TO.C,R6*%
X64300000Y-78486000D03*
X62700000Y-78486000D03*
%TD*%
%TO.C,R5*%
X60998000Y-78486000D03*
X59398000Y-78486000D03*
%TD*%
D13*
%TO.C,IC2*%
X57400000Y-73660000D03*
D14*
X63500000Y-71360000D03*
X63500000Y-75960000D03*
X63500000Y-73660000D03*
%TD*%
D15*
%TO.C,C9*%
X79872000Y-77470000D03*
X81672000Y-77470000D03*
%TD*%
%TO.C,C8*%
X62346000Y-68580000D03*
X64146000Y-68580000D03*
%TD*%
%TO.C,C6*%
X104849500Y-75692000D03*
X103049500Y-75692000D03*
%TD*%
D16*
%TO.C,U1*%
X68580000Y-66040000D03*
X71120000Y-66040000D03*
X73660000Y-66040000D03*
X76200000Y-66040000D03*
X78740000Y-66040000D03*
X81280000Y-66040000D03*
X83820000Y-66040000D03*
X86360000Y-66040000D03*
X88900000Y-66040000D03*
X91440000Y-66040000D03*
X93980000Y-66040000D03*
X96520000Y-66040000D03*
X99060000Y-66040000D03*
X101600000Y-66040000D03*
X104140000Y-66040000D03*
X106680000Y-66040000D03*
X109220000Y-66040000D03*
X111760000Y-66040000D03*
X114300000Y-66040000D03*
X116840000Y-66040000D03*
X116840000Y-81280000D03*
X114300000Y-81280000D03*
X111760000Y-81280000D03*
X109220000Y-81280000D03*
X106680000Y-81280000D03*
X104140000Y-81280000D03*
X101600000Y-81280000D03*
X99060000Y-81280000D03*
X96520000Y-81280000D03*
X93980000Y-81280000D03*
X91440000Y-81280000D03*
X88900000Y-81280000D03*
X86360000Y-81280000D03*
X83820000Y-81280000D03*
X81280000Y-81280000D03*
X78740000Y-81280000D03*
X76200000Y-81280000D03*
X73660000Y-81280000D03*
X71120000Y-81280000D03*
G36*
G01*
X68905000Y-82330000D02*
X68255000Y-82330000D01*
G75*
G02*
X67930000Y-82005000I0J325000D01*
G01*
X67930000Y-80555000D01*
G75*
G02*
X68255000Y-80230000I325000J0D01*
G01*
X68905000Y-80230000D01*
G75*
G02*
X69230000Y-80555000I0J-325000D01*
G01*
X69230000Y-82005000D01*
G75*
G02*
X68905000Y-82330000I-325000J0D01*
G01*
G37*
%TD*%
D12*
%TO.C,D1*%
X87084000Y-60960000D03*
X88684000Y-60960000D03*
%TD*%
%TO.C,R4*%
X87084000Y-59436000D03*
X88684000Y-59436000D03*
%TD*%
%TO.C,R3*%
X63716000Y-85598000D03*
X65316000Y-85598000D03*
%TD*%
%TO.C,R2*%
X97574000Y-87630000D03*
X95974000Y-87630000D03*
%TD*%
D17*
%TO.C,J6*%
X81280000Y-55880000D03*
X78740000Y-55880000D03*
X76200000Y-55880000D03*
X73660000Y-55880000D03*
X71120000Y-55880000D03*
D18*
X68580000Y-55880000D03*
%TD*%
D17*
%TO.C,J5*%
X104140000Y-55880000D03*
X101600000Y-55880000D03*
X99060000Y-55880000D03*
X96520000Y-55880000D03*
X93980000Y-55880000D03*
D18*
X91440000Y-55880000D03*
%TD*%
D17*
%TO.C,J4*%
X127000000Y-55880000D03*
X124460000Y-55880000D03*
X121920000Y-55880000D03*
X119380000Y-55880000D03*
X116840000Y-55880000D03*
D18*
X114300000Y-55880000D03*
%TD*%
D17*
%TO.C,J3*%
X114300000Y-91440000D03*
X116840000Y-91440000D03*
X119380000Y-91440000D03*
X121920000Y-91440000D03*
X124460000Y-91440000D03*
D18*
X127000000Y-91440000D03*
%TD*%
D17*
%TO.C,J2*%
X91440000Y-91440000D03*
X93980000Y-91440000D03*
X96520000Y-91440000D03*
X99060000Y-91440000D03*
X101600000Y-91440000D03*
D18*
X104140000Y-91440000D03*
%TD*%
D17*
%TO.C,J1*%
X68580000Y-91440000D03*
X71120000Y-91440000D03*
X73660000Y-91440000D03*
X76200000Y-91440000D03*
X78740000Y-91440000D03*
D18*
X81280000Y-91440000D03*
%TD*%
D19*
%TO.C,X4*%
X55880000Y-54610000D03*
D20*
X55880000Y-52110000D03*
X58380000Y-54610000D03*
X55880000Y-57110000D03*
X53380000Y-54610000D03*
X54080000Y-52810000D03*
X57680000Y-52810000D03*
X54080000Y-56410000D03*
X57680000Y-56410000D03*
%TD*%
D19*
%TO.C,X3*%
X133350000Y-54610000D03*
D20*
X133350000Y-52110000D03*
X135850000Y-54610000D03*
X133350000Y-57110000D03*
X130850000Y-54610000D03*
X131550000Y-52810000D03*
X135150000Y-52810000D03*
X131550000Y-56410000D03*
X135150000Y-56410000D03*
%TD*%
D19*
%TO.C,X2*%
X133350000Y-92710000D03*
D20*
X133350000Y-90210000D03*
X135850000Y-92710000D03*
X133350000Y-95210000D03*
X130850000Y-92710000D03*
X131550000Y-90910000D03*
X135150000Y-90910000D03*
X131550000Y-94510000D03*
X135150000Y-94510000D03*
%TD*%
D19*
%TO.C,X1*%
X55880000Y-92710000D03*
D20*
X55880000Y-90210000D03*
X58380000Y-92710000D03*
X55880000Y-95210000D03*
X53380000Y-92710000D03*
X54080000Y-90910000D03*
X57680000Y-90910000D03*
X54080000Y-94510000D03*
X57680000Y-94510000D03*
%TD*%
D12*
%TO.C,R1*%
X102959000Y-73914000D03*
X104559000Y-73914000D03*
%TD*%
D17*
%TO.C,J7*%
X128270000Y-80010000D03*
X125730000Y-80010000D03*
X128270000Y-77470000D03*
X125730000Y-77470000D03*
X128270000Y-74930000D03*
X125730000Y-74930000D03*
X128270000Y-72390000D03*
X125730000Y-72390000D03*
X128270000Y-69850000D03*
X125730000Y-69850000D03*
X128270000Y-67310000D03*
D18*
X125730000Y-67310000D03*
%TD*%
D17*
%TO.C,J9*%
X78740000Y-60960000D03*
X76200000Y-60960000D03*
X73660000Y-60960000D03*
X71120000Y-60960000D03*
D18*
X68580000Y-60960000D03*
%TD*%
D17*
%TO.C,J8*%
X78740000Y-86360000D03*
X76200000Y-86360000D03*
X73660000Y-86360000D03*
X71120000Y-86360000D03*
D18*
X68580000Y-86360000D03*
%TD*%
D21*
%TO.C,IC1*%
X89310000Y-70910000D03*
X89310000Y-71410000D03*
X89310000Y-71910000D03*
X89310000Y-72410000D03*
X89310000Y-72910000D03*
X89310000Y-73410000D03*
X89310000Y-73910000D03*
X89310000Y-74410000D03*
X89310000Y-74910000D03*
X89310000Y-75410000D03*
X89310000Y-75910000D03*
X89310000Y-76410000D03*
D22*
X89960000Y-77060000D03*
X90460000Y-77060000D03*
X90960000Y-77060000D03*
X91460000Y-77060000D03*
X91960000Y-77060000D03*
X92460000Y-77060000D03*
X92960000Y-77060000D03*
X93460000Y-77060000D03*
X93960000Y-77060000D03*
X94460000Y-77060000D03*
X94960000Y-77060000D03*
X95460000Y-77060000D03*
D21*
X96110000Y-76410000D03*
X96110000Y-75910000D03*
X96110000Y-75410000D03*
X96110000Y-74910000D03*
X96110000Y-74410000D03*
X96110000Y-73910000D03*
X96110000Y-73410000D03*
X96110000Y-72910000D03*
X96110000Y-72410000D03*
X96110000Y-71910000D03*
X96110000Y-71410000D03*
X96110000Y-70910000D03*
D22*
X95460000Y-70260000D03*
X94960000Y-70260000D03*
X94460000Y-70260000D03*
X93960000Y-70260000D03*
X93460000Y-70260000D03*
X92960000Y-70260000D03*
X92460000Y-70260000D03*
X91960000Y-70260000D03*
X91460000Y-70260000D03*
X90960000Y-70260000D03*
X90460000Y-70260000D03*
X89960000Y-70260000D03*
D23*
X90610000Y-71560000D03*
X90610000Y-72960000D03*
X90610000Y-74360000D03*
X90610000Y-75760000D03*
X92010000Y-71560000D03*
X92010000Y-72960000D03*
X92010000Y-74360000D03*
X92010000Y-75760000D03*
X93410000Y-71560000D03*
X93410000Y-72960000D03*
X93410000Y-74360000D03*
X93410000Y-75760000D03*
X94810000Y-71560000D03*
X94810000Y-72960000D03*
X94810000Y-74360000D03*
X94810000Y-75760000D03*
%TD*%
D12*
%TO.C,C7*%
X101384000Y-75438000D03*
X99784000Y-75438000D03*
%TD*%
%TO.C,C5*%
X101384000Y-73914000D03*
X99784000Y-73914000D03*
%TD*%
%TO.C,C4*%
X84594800Y-72898000D03*
X86194800Y-72898000D03*
%TD*%
%TO.C,C3*%
X101384000Y-72390000D03*
X99784000Y-72390000D03*
%TD*%
%TO.C,C2*%
X97777200Y-78536800D03*
X96177200Y-78536800D03*
%TD*%
%TO.C,C1*%
X84594800Y-69596000D03*
X86194800Y-69596000D03*
%TD*%
M02*
