%TF.GenerationSoftware,KiCad,Pcbnew,5.1.6-c6e7f7d~87~ubuntu18.04.1*%
%TF.CreationDate,2020-11-08T03:55:42+00:00*%
%TF.ProjectId,icepill,69636570-696c-46c2-9e6b-696361645f70,1*%
%TF.SameCoordinates,Original*%
%TF.FileFunction,Copper,L2,Bot*%
%TF.FilePolarity,Positive*%
%FSLAX46Y46*%
G04 Gerber Fmt 4.6, Leading zero omitted, Abs format (unit mm)*
G04 Created by KiCad (PCBNEW 5.1.6-c6e7f7d~87~ubuntu18.04.1) date 2020-11-08 03:55:42*
%MOMM*%
%LPD*%
G01*
G04 APERTURE LIST*
%TA.AperFunction,ComponentPad*%
%ADD10O,1.200000X2.000000*%
%TD*%
%TA.AperFunction,ComponentPad*%
%ADD11C,1.900000*%
%TD*%
%TA.AperFunction,ComponentPad*%
%ADD12R,1.900000X1.900000*%
%TD*%
%TA.AperFunction,ViaPad*%
%ADD13C,0.800000*%
%TD*%
%TA.AperFunction,ViaPad*%
%ADD14C,0.600000*%
%TD*%
%TA.AperFunction,Conductor*%
%ADD15C,1.000000*%
%TD*%
%TA.AperFunction,Conductor*%
%ADD16C,0.500000*%
%TD*%
%TA.AperFunction,Conductor*%
%ADD17C,0.300000*%
%TD*%
%TA.AperFunction,Conductor*%
%ADD18C,0.200000*%
%TD*%
G04 APERTURE END LIST*
D10*
%TO.P,U1,40*%
%TO.N,/5V*%
X68580000Y-66040000D03*
%TO.P,U1,39*%
%TO.N,GND*%
X71120000Y-66040000D03*
%TO.P,U1,38*%
%TO.N,3v3*%
X73660000Y-66040000D03*
%TO.P,U1,37*%
%TO.N,/F_~IRQ*%
X76200000Y-66040000D03*
%TO.P,U1,36*%
%TO.N,/C_~RST*%
X78740000Y-66040000D03*
%TO.P,U1,35*%
%TO.N,/P6_1*%
X81280000Y-66040000D03*
%TO.P,U1,34*%
%TO.N,/P6_2*%
X83820000Y-66040000D03*
%TO.P,U1,33*%
%TO.N,/P6_3*%
X86360000Y-66040000D03*
%TO.P,U1,32*%
%TO.N,/P6_4*%
X88900000Y-66040000D03*
%TO.P,U1,31*%
%TO.N,/P5_1*%
X91440000Y-66040000D03*
%TO.P,U1,30*%
%TO.N,/P5_2*%
X93980000Y-66040000D03*
%TO.P,U1,29*%
%TO.N,/P5_3*%
X96520000Y-66040000D03*
%TO.P,U1,28*%
%TO.N,/P5_4*%
X99060000Y-66040000D03*
%TO.P,U1,27*%
%TO.N,/P4_1*%
X101600000Y-66040000D03*
%TO.P,U1,26*%
%TO.N,/P4_2*%
X104140000Y-66040000D03*
%TO.P,U1,25*%
%TO.N,Net-(U1-Pad25)*%
X106680000Y-66040000D03*
%TO.P,U1,24*%
%TO.N,/P4_3*%
X109220000Y-66040000D03*
%TO.P,U1,23*%
%TO.N,/P4_4*%
X111760000Y-66040000D03*
%TO.P,U1,22*%
%TO.N,/P7_7*%
X114300000Y-66040000D03*
%TO.P,U1,21*%
%TO.N,Net-(U1-Pad21)*%
X116840000Y-66040000D03*
%TO.P,U1,20*%
%TO.N,3v3*%
X116840000Y-81280000D03*
%TO.P,U1,19*%
%TO.N,GND*%
X114300000Y-81280000D03*
%TO.P,U1,18*%
%TO.N,Net-(U1-Pad18)*%
X111760000Y-81280000D03*
%TO.P,U1,17*%
%TO.N,/P3_1*%
X109220000Y-81280000D03*
%TO.P,U1,16*%
%TO.N,/P3_2*%
X106680000Y-81280000D03*
%TO.P,U1,15*%
%TO.N,/P3_3*%
X104140000Y-81280000D03*
%TO.P,U1,14*%
%TO.N,/P3_4*%
X101600000Y-81280000D03*
%TO.P,U1,13*%
%TO.N,/P2_1*%
X99060000Y-81280000D03*
%TO.P,U1,12*%
%TO.N,/P2_2*%
X96520000Y-81280000D03*
%TO.P,U1,11*%
%TO.N,/P2_3*%
X93980000Y-81280000D03*
%TO.P,U1,10*%
%TO.N,/P2_4*%
X91440000Y-81280000D03*
%TO.P,U1,9*%
%TO.N,/P1_1*%
X88900000Y-81280000D03*
%TO.P,U1,8*%
%TO.N,/P1_2*%
X86360000Y-81280000D03*
%TO.P,U1,7*%
%TO.N,/P1_3*%
X83820000Y-81280000D03*
%TO.P,U1,6*%
%TO.N,/P1_4*%
X81280000Y-81280000D03*
%TO.P,U1,5*%
%TO.N,/F_CLK*%
X78740000Y-81280000D03*
%TO.P,U1,4*%
%TO.N,/C_SI*%
X76200000Y-81280000D03*
%TO.P,U1,3*%
%TO.N,/C_SO*%
X73660000Y-81280000D03*
%TO.P,U1,2*%
%TO.N,/C_CK*%
X71120000Y-81280000D03*
%TO.P,U1,1*%
%TO.N,/C_~CS*%
%TA.AperFunction,ComponentPad*%
G36*
G01*
X68880000Y-82280000D02*
X68280000Y-82280000D01*
G75*
G02*
X67980000Y-81980000I0J300000D01*
G01*
X67980000Y-80580000D01*
G75*
G02*
X68280000Y-80280000I300000J0D01*
G01*
X68880000Y-80280000D01*
G75*
G02*
X69180000Y-80580000I0J-300000D01*
G01*
X69180000Y-81980000D01*
G75*
G02*
X68880000Y-82280000I-300000J0D01*
G01*
G37*
%TD.AperFunction*%
%TD*%
D11*
%TO.P,J6,6*%
%TO.N,3v3*%
X81280000Y-55880000D03*
%TO.P,J6,5*%
%TO.N,GND*%
X78740000Y-55880000D03*
%TO.P,J6,4*%
%TO.N,/P6_4*%
X76200000Y-55880000D03*
%TO.P,J6,3*%
%TO.N,/P6_3*%
X73660000Y-55880000D03*
%TO.P,J6,2*%
%TO.N,/P6_2*%
X71120000Y-55880000D03*
D12*
%TO.P,J6,1*%
%TO.N,/P6_1*%
X68580000Y-55880000D03*
%TD*%
D11*
%TO.P,J5,6*%
%TO.N,3v3*%
X104140000Y-55880000D03*
%TO.P,J5,5*%
%TO.N,GND*%
X101600000Y-55880000D03*
%TO.P,J5,4*%
%TO.N,/P5_4*%
X99060000Y-55880000D03*
%TO.P,J5,3*%
%TO.N,/P5_3*%
X96520000Y-55880000D03*
%TO.P,J5,2*%
%TO.N,/P5_2*%
X93980000Y-55880000D03*
D12*
%TO.P,J5,1*%
%TO.N,/P5_1*%
X91440000Y-55880000D03*
%TD*%
D11*
%TO.P,J4,6*%
%TO.N,3v3*%
X127000000Y-55880000D03*
%TO.P,J4,5*%
%TO.N,GND*%
X124460000Y-55880000D03*
%TO.P,J4,4*%
%TO.N,/P4_4*%
X121920000Y-55880000D03*
%TO.P,J4,3*%
%TO.N,/P4_3*%
X119380000Y-55880000D03*
%TO.P,J4,2*%
%TO.N,/P4_2*%
X116840000Y-55880000D03*
D12*
%TO.P,J4,1*%
%TO.N,/P4_1*%
X114300000Y-55880000D03*
%TD*%
D11*
%TO.P,J3,6*%
%TO.N,3v3*%
X114300000Y-91440000D03*
%TO.P,J3,5*%
%TO.N,GND*%
X116840000Y-91440000D03*
%TO.P,J3,4*%
%TO.N,/P3_4*%
X119380000Y-91440000D03*
%TO.P,J3,3*%
%TO.N,/P3_3*%
X121920000Y-91440000D03*
%TO.P,J3,2*%
%TO.N,/P3_2*%
X124460000Y-91440000D03*
D12*
%TO.P,J3,1*%
%TO.N,/P3_1*%
X127000000Y-91440000D03*
%TD*%
D11*
%TO.P,J2,6*%
%TO.N,3v3*%
X91440000Y-91440000D03*
%TO.P,J2,5*%
%TO.N,GND*%
X93980000Y-91440000D03*
%TO.P,J2,4*%
%TO.N,/P2_4*%
X96520000Y-91440000D03*
%TO.P,J2,3*%
%TO.N,/P2_3*%
X99060000Y-91440000D03*
%TO.P,J2,2*%
%TO.N,/P2_2*%
X101600000Y-91440000D03*
D12*
%TO.P,J2,1*%
%TO.N,/P2_1*%
X104140000Y-91440000D03*
%TD*%
D11*
%TO.P,J1,6*%
%TO.N,3v3*%
X68580000Y-91440000D03*
%TO.P,J1,5*%
%TO.N,GND*%
X71120000Y-91440000D03*
%TO.P,J1,4*%
%TO.N,/P1_4*%
X73660000Y-91440000D03*
%TO.P,J1,3*%
%TO.N,/P1_3*%
X76200000Y-91440000D03*
%TO.P,J1,2*%
%TO.N,/P1_2*%
X78740000Y-91440000D03*
D12*
%TO.P,J1,1*%
%TO.N,/P1_1*%
X81280000Y-91440000D03*
%TD*%
D11*
%TO.P,J7,12*%
%TO.N,3v3*%
X128270000Y-80010000D03*
%TO.P,J7,11*%
X125730000Y-80010000D03*
%TO.P,J7,10*%
%TO.N,GND*%
X128270000Y-77470000D03*
%TO.P,J7,9*%
X125730000Y-77470000D03*
%TO.P,J7,8*%
%TO.N,/P7_10*%
X128270000Y-74930000D03*
%TO.P,J7,7*%
%TO.N,/P7_4*%
X125730000Y-74930000D03*
%TO.P,J7,6*%
%TO.N,/P7_9*%
X128270000Y-72390000D03*
%TO.P,J7,5*%
%TO.N,/P7_3*%
X125730000Y-72390000D03*
%TO.P,J7,4*%
%TO.N,/P7_8*%
X128270000Y-69850000D03*
%TO.P,J7,3*%
%TO.N,/P7_2*%
X125730000Y-69850000D03*
%TO.P,J7,2*%
%TO.N,/P7_7*%
X128270000Y-67310000D03*
D12*
%TO.P,J7,1*%
%TO.N,/P7_1*%
X125730000Y-67310000D03*
%TD*%
D11*
%TO.P,J9,5*%
%TO.N,/C_~RST*%
X78740000Y-60960000D03*
%TO.P,J9,4*%
%TO.N,/F_~IRQ*%
X76200000Y-60960000D03*
%TO.P,J9,3*%
%TO.N,3v3*%
X73660000Y-60960000D03*
%TO.P,J9,2*%
%TO.N,GND*%
X71120000Y-60960000D03*
D12*
%TO.P,J9,1*%
%TO.N,/5V*%
X68580000Y-60960000D03*
%TD*%
D11*
%TO.P,J8,5*%
%TO.N,/F_CLK*%
X78740000Y-86360000D03*
%TO.P,J8,4*%
%TO.N,/C_SI*%
X76200000Y-86360000D03*
%TO.P,J8,3*%
%TO.N,/C_SO*%
X73660000Y-86360000D03*
%TO.P,J8,2*%
%TO.N,/C_CK*%
X71120000Y-86360000D03*
D12*
%TO.P,J8,1*%
%TO.N,/C_~CS*%
X68580000Y-86360000D03*
%TD*%
D13*
%TO.N,GND*%
%TO.C,IC1*%
X91110000Y-72060000D03*
X91110000Y-73660000D03*
X91110000Y-75260000D03*
X92710000Y-72060000D03*
X92710000Y-73660000D03*
X92710000Y-75260000D03*
X94310000Y-72060000D03*
X94310000Y-73660000D03*
X94310000Y-75260000D03*
%TD*%
%TO.N,GND*%
X102514400Y-72390000D03*
D14*
X101396800Y-74676000D03*
X101396800Y-73152000D03*
D13*
X83464400Y-72898000D03*
X83464400Y-69596000D03*
D14*
X101396800Y-76403200D03*
D13*
X99110800Y-79146400D03*
X104838500Y-77089000D03*
X61061600Y-68580000D03*
X65532000Y-78486000D03*
X79857600Y-76047600D03*
%TO.N,3v3*%
X98450400Y-72085200D03*
X87325200Y-69951600D03*
X96177200Y-77432000D03*
X91643200Y-79552800D03*
X100330000Y-64719200D03*
%TO.N,1v2*%
X98602800Y-74218800D03*
X104546400Y-72745600D03*
X87376000Y-72999600D03*
X86004400Y-75285600D03*
D14*
%TO.N,/C_SI*%
X89662000Y-79756000D03*
%TO.N,/C_~CS*%
X88900000Y-79248000D03*
%TO.N,/C_CK*%
X88011000Y-78867000D03*
%TO.N,/C_SO*%
X88011000Y-77978000D03*
D13*
%TO.N,/F_~IRQ*%
X76200000Y-70764400D03*
%TO.N,/P1_3*%
X70866000Y-89662000D03*
D14*
%TO.N,/P7_10*%
X95097600Y-77927200D03*
X102514400Y-78435200D03*
%TO.N,/P7_4*%
X89204800Y-77216000D03*
X101904800Y-77825600D03*
%TO.N,/P7_9*%
X97637600Y-72745600D03*
X99110800Y-71323200D03*
%TO.N,/P7_3*%
X98348800Y-73253600D03*
X103276400Y-71729600D03*
%TO.N,Net-(D1-Pad1)*%
X94337631Y-69637040D03*
D13*
X89154000Y-64211200D03*
%TD*%
D15*
%TO.N,3v3*%
X128270000Y-80010000D02*
X125730000Y-80010000D01*
D16*
X96177200Y-77432000D02*
X95859600Y-77114400D01*
X94081600Y-77114400D02*
X91643200Y-79552800D01*
X95859600Y-77114400D02*
X94081600Y-77114400D01*
X98552000Y-72186800D02*
X98450400Y-72085200D01*
X99669600Y-72186800D02*
X98552000Y-72186800D01*
X100330000Y-64719200D02*
X100330000Y-71526400D01*
X100330000Y-71526400D02*
X99669600Y-72186800D01*
%TO.N,1v2*%
X98602800Y-74218800D02*
X99872800Y-75488800D01*
X101803200Y-75488800D02*
X104546400Y-72745600D01*
X99872800Y-75488800D02*
X101803200Y-75488800D01*
X97485200Y-74218800D02*
X96113600Y-72847200D01*
X98602800Y-74218800D02*
X97485200Y-74218800D01*
X96113600Y-72847200D02*
X94843600Y-72847200D01*
D17*
X94843600Y-72847200D02*
X90474800Y-72847200D01*
D16*
X90474800Y-72847200D02*
X87528400Y-72847200D01*
X87528400Y-72847200D02*
X87376000Y-72999600D01*
X87376000Y-72999600D02*
X87376000Y-73914000D01*
X87376000Y-73914000D02*
X86004400Y-75285600D01*
D18*
%TO.N,/C_SI*%
X89662000Y-79756000D02*
X89518000Y-79900000D01*
X89400000Y-82700000D02*
X89900000Y-82200000D01*
X89900000Y-79994000D02*
X89662000Y-79756000D01*
X76200000Y-81280000D02*
X77620000Y-82700000D01*
X89900000Y-82200000D02*
X89900000Y-79994000D01*
X77620000Y-82700000D02*
X89400000Y-82700000D01*
%TO.N,/C_~CS*%
X68580000Y-81280000D02*
X70450000Y-83150000D01*
X70450000Y-83150000D02*
X90050000Y-83150000D01*
X90050000Y-83150000D02*
X90400000Y-82800000D01*
X90400000Y-82800000D02*
X90400000Y-79400000D01*
X89199999Y-78948001D02*
X88900000Y-79248000D01*
X90400000Y-79400000D02*
X89948001Y-78948001D01*
X89948001Y-78948001D02*
X89199999Y-78948001D01*
%TO.N,/C_CK*%
X71120000Y-81280000D02*
X72540000Y-82700000D01*
X72540000Y-82700000D02*
X74500000Y-82700000D01*
X74500000Y-82700000D02*
X74950000Y-82250000D01*
X74950000Y-82250000D02*
X74950000Y-80350000D01*
X74950000Y-80350000D02*
X75500000Y-79800000D01*
X87078000Y-79800000D02*
X88011000Y-78867000D01*
X75500000Y-79800000D02*
X87078000Y-79800000D01*
%TO.N,/C_SO*%
X88011000Y-77978000D02*
X86639000Y-79350000D01*
X73660000Y-80080000D02*
X73660000Y-81280000D01*
X86639000Y-79350000D02*
X74390000Y-79350000D01*
X74390000Y-79350000D02*
X73660000Y-80080000D01*
D17*
%TO.N,/F_~IRQ*%
X76200000Y-66040000D02*
X76200000Y-70764400D01*
D18*
%TO.N,/P1_3*%
X74422000Y-89662000D02*
X76200000Y-91440000D01*
X70866000Y-89662000D02*
X74422000Y-89662000D01*
%TO.N,/P7_10*%
X101549200Y-78435200D02*
X102514400Y-78435200D01*
X101447600Y-78333600D02*
X101549200Y-78435200D01*
X95097600Y-77927200D02*
X95504000Y-78333600D01*
X95504000Y-78333600D02*
X101447600Y-78333600D01*
%TO.N,/P7_4*%
X89204800Y-77216000D02*
X92964000Y-77216000D01*
X92964000Y-77216000D02*
X93726000Y-76454000D01*
X93726000Y-76454000D02*
X96520000Y-76454000D01*
X96520000Y-76454000D02*
X97891600Y-77825600D01*
X97891600Y-77825600D02*
X101904800Y-77825600D01*
%TO.N,/P7_9*%
X97637600Y-72745600D02*
X97637600Y-71780400D01*
X97637600Y-71780400D02*
X98094800Y-71323200D01*
X98094800Y-71323200D02*
X99110800Y-71323200D01*
%TO.N,/P7_3*%
X98348800Y-73253600D02*
X98755200Y-72847200D01*
X98755200Y-72847200D02*
X99974400Y-72847200D01*
X99974400Y-72847200D02*
X101346000Y-71475600D01*
X101346000Y-71475600D02*
X103022400Y-71475600D01*
X103022400Y-71475600D02*
X103276400Y-71729600D01*
D16*
%TO.N,Net-(D1-Pad1)*%
X94337631Y-69637040D02*
X92710000Y-68009409D01*
X92710000Y-68009409D02*
X92710000Y-64770000D01*
X92710000Y-64770000D02*
X92151200Y-64211200D01*
X92151200Y-64211200D02*
X89154000Y-64211200D01*
%TD*%
D18*
%TO.N,GND*%
G36*
X53239048Y-52442626D02*
G01*
X52866959Y-52999496D01*
X52610660Y-53618257D01*
X52480000Y-54275129D01*
X52480000Y-54944871D01*
X52610660Y-55601743D01*
X52866959Y-56220504D01*
X53239048Y-56777374D01*
X53712626Y-57250952D01*
X54269496Y-57623041D01*
X54888257Y-57879340D01*
X55545129Y-58010000D01*
X56214871Y-58010000D01*
X56871743Y-57879340D01*
X57490504Y-57623041D01*
X58047374Y-57250952D01*
X58520952Y-56777374D01*
X58893041Y-56220504D01*
X59149340Y-55601743D01*
X59280000Y-54944871D01*
X59280000Y-54930000D01*
X67228065Y-54930000D01*
X67228065Y-56830000D01*
X67235788Y-56908414D01*
X67258660Y-56983814D01*
X67295803Y-57053303D01*
X67345789Y-57114211D01*
X67406697Y-57164197D01*
X67476186Y-57201340D01*
X67551586Y-57224212D01*
X67630000Y-57231935D01*
X69530000Y-57231935D01*
X69608414Y-57224212D01*
X69683814Y-57201340D01*
X69753303Y-57164197D01*
X69814211Y-57114211D01*
X69864197Y-57053303D01*
X69901340Y-56983814D01*
X69924212Y-56908414D01*
X69931935Y-56830000D01*
X69931935Y-56531870D01*
X70071387Y-56740575D01*
X70259425Y-56928613D01*
X70480535Y-57076354D01*
X70726220Y-57178120D01*
X70987037Y-57230000D01*
X71252963Y-57230000D01*
X71513780Y-57178120D01*
X71759465Y-57076354D01*
X71980575Y-56928613D01*
X72168613Y-56740575D01*
X72316354Y-56519465D01*
X72390000Y-56341668D01*
X72463646Y-56519465D01*
X72611387Y-56740575D01*
X72799425Y-56928613D01*
X73020535Y-57076354D01*
X73266220Y-57178120D01*
X73527037Y-57230000D01*
X73792963Y-57230000D01*
X74053780Y-57178120D01*
X74299465Y-57076354D01*
X74520575Y-56928613D01*
X74708613Y-56740575D01*
X74856354Y-56519465D01*
X74930000Y-56341668D01*
X75003646Y-56519465D01*
X75151387Y-56740575D01*
X75339425Y-56928613D01*
X75560535Y-57076354D01*
X75806220Y-57178120D01*
X76067037Y-57230000D01*
X76332963Y-57230000D01*
X76593780Y-57178120D01*
X76839465Y-57076354D01*
X77024642Y-56952622D01*
X77950221Y-56952622D01*
X78053498Y-57165150D01*
X78317409Y-57274386D01*
X78597560Y-57330037D01*
X78883186Y-57329964D01*
X79163309Y-57274169D01*
X79426502Y-57165150D01*
X79529779Y-56952622D01*
X78740000Y-56162843D01*
X77950221Y-56952622D01*
X77024642Y-56952622D01*
X77060575Y-56928613D01*
X77248613Y-56740575D01*
X77396354Y-56519465D01*
X77415860Y-56472373D01*
X77454850Y-56566502D01*
X77667378Y-56669779D01*
X78457157Y-55880000D01*
X79022843Y-55880000D01*
X79812622Y-56669779D01*
X80025150Y-56566502D01*
X80064126Y-56472338D01*
X80083646Y-56519465D01*
X80231387Y-56740575D01*
X80419425Y-56928613D01*
X80640535Y-57076354D01*
X80886220Y-57178120D01*
X81147037Y-57230000D01*
X81412963Y-57230000D01*
X81673780Y-57178120D01*
X81919465Y-57076354D01*
X82140575Y-56928613D01*
X82328613Y-56740575D01*
X82476354Y-56519465D01*
X82578120Y-56273780D01*
X82630000Y-56012963D01*
X82630000Y-55747037D01*
X82578120Y-55486220D01*
X82476354Y-55240535D01*
X82328613Y-55019425D01*
X82239188Y-54930000D01*
X90088065Y-54930000D01*
X90088065Y-56830000D01*
X90095788Y-56908414D01*
X90118660Y-56983814D01*
X90155803Y-57053303D01*
X90205789Y-57114211D01*
X90266697Y-57164197D01*
X90336186Y-57201340D01*
X90411586Y-57224212D01*
X90490000Y-57231935D01*
X92390000Y-57231935D01*
X92468414Y-57224212D01*
X92543814Y-57201340D01*
X92613303Y-57164197D01*
X92674211Y-57114211D01*
X92724197Y-57053303D01*
X92761340Y-56983814D01*
X92784212Y-56908414D01*
X92791935Y-56830000D01*
X92791935Y-56531870D01*
X92931387Y-56740575D01*
X93119425Y-56928613D01*
X93340535Y-57076354D01*
X93586220Y-57178120D01*
X93847037Y-57230000D01*
X94112963Y-57230000D01*
X94373780Y-57178120D01*
X94619465Y-57076354D01*
X94840575Y-56928613D01*
X95028613Y-56740575D01*
X95176354Y-56519465D01*
X95250000Y-56341668D01*
X95323646Y-56519465D01*
X95471387Y-56740575D01*
X95659425Y-56928613D01*
X95880535Y-57076354D01*
X96126220Y-57178120D01*
X96387037Y-57230000D01*
X96652963Y-57230000D01*
X96913780Y-57178120D01*
X97159465Y-57076354D01*
X97380575Y-56928613D01*
X97568613Y-56740575D01*
X97716354Y-56519465D01*
X97790000Y-56341668D01*
X97863646Y-56519465D01*
X98011387Y-56740575D01*
X98199425Y-56928613D01*
X98420535Y-57076354D01*
X98666220Y-57178120D01*
X98927037Y-57230000D01*
X99192963Y-57230000D01*
X99453780Y-57178120D01*
X99699465Y-57076354D01*
X99884642Y-56952622D01*
X100810221Y-56952622D01*
X100913498Y-57165150D01*
X101177409Y-57274386D01*
X101457560Y-57330037D01*
X101743186Y-57329964D01*
X102023309Y-57274169D01*
X102286502Y-57165150D01*
X102389779Y-56952622D01*
X101600000Y-56162843D01*
X100810221Y-56952622D01*
X99884642Y-56952622D01*
X99920575Y-56928613D01*
X100108613Y-56740575D01*
X100256354Y-56519465D01*
X100275860Y-56472373D01*
X100314850Y-56566502D01*
X100527378Y-56669779D01*
X101317157Y-55880000D01*
X101882843Y-55880000D01*
X102672622Y-56669779D01*
X102885150Y-56566502D01*
X102924126Y-56472338D01*
X102943646Y-56519465D01*
X103091387Y-56740575D01*
X103279425Y-56928613D01*
X103500535Y-57076354D01*
X103746220Y-57178120D01*
X104007037Y-57230000D01*
X104272963Y-57230000D01*
X104533780Y-57178120D01*
X104779465Y-57076354D01*
X105000575Y-56928613D01*
X105188613Y-56740575D01*
X105336354Y-56519465D01*
X105438120Y-56273780D01*
X105490000Y-56012963D01*
X105490000Y-55747037D01*
X105438120Y-55486220D01*
X105336354Y-55240535D01*
X105188613Y-55019425D01*
X105099188Y-54930000D01*
X112948065Y-54930000D01*
X112948065Y-56830000D01*
X112955788Y-56908414D01*
X112978660Y-56983814D01*
X113015803Y-57053303D01*
X113065789Y-57114211D01*
X113126697Y-57164197D01*
X113196186Y-57201340D01*
X113271586Y-57224212D01*
X113350000Y-57231935D01*
X115250000Y-57231935D01*
X115328414Y-57224212D01*
X115403814Y-57201340D01*
X115473303Y-57164197D01*
X115534211Y-57114211D01*
X115584197Y-57053303D01*
X115621340Y-56983814D01*
X115644212Y-56908414D01*
X115651935Y-56830000D01*
X115651935Y-56531870D01*
X115791387Y-56740575D01*
X115979425Y-56928613D01*
X116200535Y-57076354D01*
X116446220Y-57178120D01*
X116707037Y-57230000D01*
X116972963Y-57230000D01*
X117233780Y-57178120D01*
X117479465Y-57076354D01*
X117700575Y-56928613D01*
X117888613Y-56740575D01*
X118036354Y-56519465D01*
X118110000Y-56341668D01*
X118183646Y-56519465D01*
X118331387Y-56740575D01*
X118519425Y-56928613D01*
X118740535Y-57076354D01*
X118986220Y-57178120D01*
X119247037Y-57230000D01*
X119512963Y-57230000D01*
X119773780Y-57178120D01*
X120019465Y-57076354D01*
X120240575Y-56928613D01*
X120428613Y-56740575D01*
X120576354Y-56519465D01*
X120650000Y-56341668D01*
X120723646Y-56519465D01*
X120871387Y-56740575D01*
X121059425Y-56928613D01*
X121280535Y-57076354D01*
X121526220Y-57178120D01*
X121787037Y-57230000D01*
X122052963Y-57230000D01*
X122313780Y-57178120D01*
X122559465Y-57076354D01*
X122744642Y-56952622D01*
X123670221Y-56952622D01*
X123773498Y-57165150D01*
X124037409Y-57274386D01*
X124317560Y-57330037D01*
X124603186Y-57329964D01*
X124883309Y-57274169D01*
X125146502Y-57165150D01*
X125249779Y-56952622D01*
X124460000Y-56162843D01*
X123670221Y-56952622D01*
X122744642Y-56952622D01*
X122780575Y-56928613D01*
X122968613Y-56740575D01*
X123116354Y-56519465D01*
X123135860Y-56472373D01*
X123174850Y-56566502D01*
X123387378Y-56669779D01*
X124177157Y-55880000D01*
X124742843Y-55880000D01*
X125532622Y-56669779D01*
X125745150Y-56566502D01*
X125784126Y-56472338D01*
X125803646Y-56519465D01*
X125951387Y-56740575D01*
X126139425Y-56928613D01*
X126360535Y-57076354D01*
X126606220Y-57178120D01*
X126867037Y-57230000D01*
X127132963Y-57230000D01*
X127393780Y-57178120D01*
X127639465Y-57076354D01*
X127860575Y-56928613D01*
X128048613Y-56740575D01*
X128196354Y-56519465D01*
X128298120Y-56273780D01*
X128350000Y-56012963D01*
X128350000Y-55747037D01*
X128298120Y-55486220D01*
X128196354Y-55240535D01*
X128048613Y-55019425D01*
X127860575Y-54831387D01*
X127639465Y-54683646D01*
X127393780Y-54581880D01*
X127132963Y-54530000D01*
X126867037Y-54530000D01*
X126606220Y-54581880D01*
X126360535Y-54683646D01*
X126139425Y-54831387D01*
X125951387Y-55019425D01*
X125803646Y-55240535D01*
X125784140Y-55287627D01*
X125745150Y-55193498D01*
X125532622Y-55090221D01*
X124742843Y-55880000D01*
X124177157Y-55880000D01*
X123387378Y-55090221D01*
X123174850Y-55193498D01*
X123135874Y-55287662D01*
X123116354Y-55240535D01*
X122968613Y-55019425D01*
X122780575Y-54831387D01*
X122744643Y-54807378D01*
X123670221Y-54807378D01*
X124460000Y-55597157D01*
X125249779Y-54807378D01*
X125146502Y-54594850D01*
X124882591Y-54485614D01*
X124602440Y-54429963D01*
X124316814Y-54430036D01*
X124036691Y-54485831D01*
X123773498Y-54594850D01*
X123670221Y-54807378D01*
X122744643Y-54807378D01*
X122559465Y-54683646D01*
X122313780Y-54581880D01*
X122052963Y-54530000D01*
X121787037Y-54530000D01*
X121526220Y-54581880D01*
X121280535Y-54683646D01*
X121059425Y-54831387D01*
X120871387Y-55019425D01*
X120723646Y-55240535D01*
X120650000Y-55418332D01*
X120576354Y-55240535D01*
X120428613Y-55019425D01*
X120240575Y-54831387D01*
X120019465Y-54683646D01*
X119773780Y-54581880D01*
X119512963Y-54530000D01*
X119247037Y-54530000D01*
X118986220Y-54581880D01*
X118740535Y-54683646D01*
X118519425Y-54831387D01*
X118331387Y-55019425D01*
X118183646Y-55240535D01*
X118110000Y-55418332D01*
X118036354Y-55240535D01*
X117888613Y-55019425D01*
X117700575Y-54831387D01*
X117479465Y-54683646D01*
X117233780Y-54581880D01*
X116972963Y-54530000D01*
X116707037Y-54530000D01*
X116446220Y-54581880D01*
X116200535Y-54683646D01*
X115979425Y-54831387D01*
X115791387Y-55019425D01*
X115651935Y-55228130D01*
X115651935Y-54930000D01*
X115644212Y-54851586D01*
X115621340Y-54776186D01*
X115584197Y-54706697D01*
X115534211Y-54645789D01*
X115473303Y-54595803D01*
X115403814Y-54558660D01*
X115328414Y-54535788D01*
X115250000Y-54528065D01*
X113350000Y-54528065D01*
X113271586Y-54535788D01*
X113196186Y-54558660D01*
X113126697Y-54595803D01*
X113065789Y-54645789D01*
X113015803Y-54706697D01*
X112978660Y-54776186D01*
X112955788Y-54851586D01*
X112948065Y-54930000D01*
X105099188Y-54930000D01*
X105000575Y-54831387D01*
X104779465Y-54683646D01*
X104533780Y-54581880D01*
X104272963Y-54530000D01*
X104007037Y-54530000D01*
X103746220Y-54581880D01*
X103500535Y-54683646D01*
X103279425Y-54831387D01*
X103091387Y-55019425D01*
X102943646Y-55240535D01*
X102924140Y-55287627D01*
X102885150Y-55193498D01*
X102672622Y-55090221D01*
X101882843Y-55880000D01*
X101317157Y-55880000D01*
X100527378Y-55090221D01*
X100314850Y-55193498D01*
X100275874Y-55287662D01*
X100256354Y-55240535D01*
X100108613Y-55019425D01*
X99920575Y-54831387D01*
X99884643Y-54807378D01*
X100810221Y-54807378D01*
X101600000Y-55597157D01*
X102389779Y-54807378D01*
X102286502Y-54594850D01*
X102022591Y-54485614D01*
X101742440Y-54429963D01*
X101456814Y-54430036D01*
X101176691Y-54485831D01*
X100913498Y-54594850D01*
X100810221Y-54807378D01*
X99884643Y-54807378D01*
X99699465Y-54683646D01*
X99453780Y-54581880D01*
X99192963Y-54530000D01*
X98927037Y-54530000D01*
X98666220Y-54581880D01*
X98420535Y-54683646D01*
X98199425Y-54831387D01*
X98011387Y-55019425D01*
X97863646Y-55240535D01*
X97790000Y-55418332D01*
X97716354Y-55240535D01*
X97568613Y-55019425D01*
X97380575Y-54831387D01*
X97159465Y-54683646D01*
X96913780Y-54581880D01*
X96652963Y-54530000D01*
X96387037Y-54530000D01*
X96126220Y-54581880D01*
X95880535Y-54683646D01*
X95659425Y-54831387D01*
X95471387Y-55019425D01*
X95323646Y-55240535D01*
X95250000Y-55418332D01*
X95176354Y-55240535D01*
X95028613Y-55019425D01*
X94840575Y-54831387D01*
X94619465Y-54683646D01*
X94373780Y-54581880D01*
X94112963Y-54530000D01*
X93847037Y-54530000D01*
X93586220Y-54581880D01*
X93340535Y-54683646D01*
X93119425Y-54831387D01*
X92931387Y-55019425D01*
X92791935Y-55228130D01*
X92791935Y-54930000D01*
X92784212Y-54851586D01*
X92761340Y-54776186D01*
X92724197Y-54706697D01*
X92674211Y-54645789D01*
X92613303Y-54595803D01*
X92543814Y-54558660D01*
X92468414Y-54535788D01*
X92390000Y-54528065D01*
X90490000Y-54528065D01*
X90411586Y-54535788D01*
X90336186Y-54558660D01*
X90266697Y-54595803D01*
X90205789Y-54645789D01*
X90155803Y-54706697D01*
X90118660Y-54776186D01*
X90095788Y-54851586D01*
X90088065Y-54930000D01*
X82239188Y-54930000D01*
X82140575Y-54831387D01*
X81919465Y-54683646D01*
X81673780Y-54581880D01*
X81412963Y-54530000D01*
X81147037Y-54530000D01*
X80886220Y-54581880D01*
X80640535Y-54683646D01*
X80419425Y-54831387D01*
X80231387Y-55019425D01*
X80083646Y-55240535D01*
X80064140Y-55287627D01*
X80025150Y-55193498D01*
X79812622Y-55090221D01*
X79022843Y-55880000D01*
X78457157Y-55880000D01*
X77667378Y-55090221D01*
X77454850Y-55193498D01*
X77415874Y-55287662D01*
X77396354Y-55240535D01*
X77248613Y-55019425D01*
X77060575Y-54831387D01*
X77024643Y-54807378D01*
X77950221Y-54807378D01*
X78740000Y-55597157D01*
X79529779Y-54807378D01*
X79426502Y-54594850D01*
X79162591Y-54485614D01*
X78882440Y-54429963D01*
X78596814Y-54430036D01*
X78316691Y-54485831D01*
X78053498Y-54594850D01*
X77950221Y-54807378D01*
X77024643Y-54807378D01*
X76839465Y-54683646D01*
X76593780Y-54581880D01*
X76332963Y-54530000D01*
X76067037Y-54530000D01*
X75806220Y-54581880D01*
X75560535Y-54683646D01*
X75339425Y-54831387D01*
X75151387Y-55019425D01*
X75003646Y-55240535D01*
X74930000Y-55418332D01*
X74856354Y-55240535D01*
X74708613Y-55019425D01*
X74520575Y-54831387D01*
X74299465Y-54683646D01*
X74053780Y-54581880D01*
X73792963Y-54530000D01*
X73527037Y-54530000D01*
X73266220Y-54581880D01*
X73020535Y-54683646D01*
X72799425Y-54831387D01*
X72611387Y-55019425D01*
X72463646Y-55240535D01*
X72390000Y-55418332D01*
X72316354Y-55240535D01*
X72168613Y-55019425D01*
X71980575Y-54831387D01*
X71759465Y-54683646D01*
X71513780Y-54581880D01*
X71252963Y-54530000D01*
X70987037Y-54530000D01*
X70726220Y-54581880D01*
X70480535Y-54683646D01*
X70259425Y-54831387D01*
X70071387Y-55019425D01*
X69931935Y-55228130D01*
X69931935Y-54930000D01*
X69924212Y-54851586D01*
X69901340Y-54776186D01*
X69864197Y-54706697D01*
X69814211Y-54645789D01*
X69753303Y-54595803D01*
X69683814Y-54558660D01*
X69608414Y-54535788D01*
X69530000Y-54528065D01*
X67630000Y-54528065D01*
X67551586Y-54535788D01*
X67476186Y-54558660D01*
X67406697Y-54595803D01*
X67345789Y-54645789D01*
X67295803Y-54706697D01*
X67258660Y-54776186D01*
X67235788Y-54851586D01*
X67228065Y-54930000D01*
X59280000Y-54930000D01*
X59280000Y-54275129D01*
X59149340Y-53618257D01*
X58893041Y-52999496D01*
X58520952Y-52442626D01*
X58248326Y-52170000D01*
X130981674Y-52170000D01*
X130709048Y-52442626D01*
X130336959Y-52999496D01*
X130080660Y-53618257D01*
X129950000Y-54275129D01*
X129950000Y-54944871D01*
X130080660Y-55601743D01*
X130336959Y-56220504D01*
X130709048Y-56777374D01*
X131182626Y-57250952D01*
X131739496Y-57623041D01*
X132358257Y-57879340D01*
X133015129Y-58010000D01*
X133684871Y-58010000D01*
X134341743Y-57879340D01*
X134960504Y-57623041D01*
X135517374Y-57250952D01*
X135990952Y-56777374D01*
X136363041Y-56220504D01*
X136619340Y-55601743D01*
X136750000Y-54944871D01*
X136750000Y-54275129D01*
X136619340Y-53618257D01*
X136363041Y-52999496D01*
X135990952Y-52442626D01*
X135718326Y-52170000D01*
X136155092Y-52170000D01*
X136335485Y-52187768D01*
X136504229Y-52238955D01*
X136659745Y-52322080D01*
X136796054Y-52433946D01*
X136907920Y-52570255D01*
X136991045Y-52725771D01*
X137042232Y-52894515D01*
X137060000Y-53074908D01*
X137060000Y-94245092D01*
X137042232Y-94425485D01*
X136991045Y-94594229D01*
X136907920Y-94749745D01*
X136796054Y-94886054D01*
X136659745Y-94997920D01*
X136504229Y-95081045D01*
X136335485Y-95132232D01*
X136155092Y-95150000D01*
X135718326Y-95150000D01*
X135990952Y-94877374D01*
X136363041Y-94320504D01*
X136619340Y-93701743D01*
X136750000Y-93044871D01*
X136750000Y-92375129D01*
X136619340Y-91718257D01*
X136363041Y-91099496D01*
X135990952Y-90542626D01*
X135517374Y-90069048D01*
X134960504Y-89696959D01*
X134341743Y-89440660D01*
X133684871Y-89310000D01*
X133015129Y-89310000D01*
X132358257Y-89440660D01*
X131739496Y-89696959D01*
X131182626Y-90069048D01*
X130709048Y-90542626D01*
X130336959Y-91099496D01*
X130080660Y-91718257D01*
X129950000Y-92375129D01*
X129950000Y-93044871D01*
X130080660Y-93701743D01*
X130336959Y-94320504D01*
X130709048Y-94877374D01*
X130981674Y-95150000D01*
X58248326Y-95150000D01*
X58520952Y-94877374D01*
X58893041Y-94320504D01*
X59149340Y-93701743D01*
X59280000Y-93044871D01*
X59280000Y-92375129D01*
X59149340Y-91718257D01*
X58979008Y-91307037D01*
X67230000Y-91307037D01*
X67230000Y-91572963D01*
X67281880Y-91833780D01*
X67383646Y-92079465D01*
X67531387Y-92300575D01*
X67719425Y-92488613D01*
X67940535Y-92636354D01*
X68186220Y-92738120D01*
X68447037Y-92790000D01*
X68712963Y-92790000D01*
X68973780Y-92738120D01*
X69219465Y-92636354D01*
X69404642Y-92512622D01*
X70330221Y-92512622D01*
X70433498Y-92725150D01*
X70697409Y-92834386D01*
X70977560Y-92890037D01*
X71263186Y-92889964D01*
X71543309Y-92834169D01*
X71806502Y-92725150D01*
X71909779Y-92512622D01*
X71120000Y-91722843D01*
X70330221Y-92512622D01*
X69404642Y-92512622D01*
X69440575Y-92488613D01*
X69628613Y-92300575D01*
X69776354Y-92079465D01*
X69795860Y-92032373D01*
X69834850Y-92126502D01*
X70047378Y-92229779D01*
X70837157Y-91440000D01*
X70047378Y-90650221D01*
X69834850Y-90753498D01*
X69795874Y-90847662D01*
X69776354Y-90800535D01*
X69628613Y-90579425D01*
X69440575Y-90391387D01*
X69219465Y-90243646D01*
X68973780Y-90141880D01*
X68712963Y-90090000D01*
X68447037Y-90090000D01*
X68186220Y-90141880D01*
X67940535Y-90243646D01*
X67719425Y-90391387D01*
X67531387Y-90579425D01*
X67383646Y-90800535D01*
X67281880Y-91046220D01*
X67230000Y-91307037D01*
X58979008Y-91307037D01*
X58893041Y-91099496D01*
X58520952Y-90542626D01*
X58047374Y-90069048D01*
X57490504Y-89696959D01*
X57215883Y-89583207D01*
X70066000Y-89583207D01*
X70066000Y-89740793D01*
X70096743Y-89895351D01*
X70157049Y-90040942D01*
X70244599Y-90171970D01*
X70356030Y-90283401D01*
X70367353Y-90290967D01*
X70330221Y-90367378D01*
X71120000Y-91157157D01*
X71909779Y-90367378D01*
X71809977Y-90162000D01*
X73217646Y-90162000D01*
X73020535Y-90243646D01*
X72799425Y-90391387D01*
X72611387Y-90579425D01*
X72463646Y-90800535D01*
X72444140Y-90847627D01*
X72405150Y-90753498D01*
X72192622Y-90650221D01*
X71402843Y-91440000D01*
X72192622Y-92229779D01*
X72405150Y-92126502D01*
X72444126Y-92032338D01*
X72463646Y-92079465D01*
X72611387Y-92300575D01*
X72799425Y-92488613D01*
X73020535Y-92636354D01*
X73266220Y-92738120D01*
X73527037Y-92790000D01*
X73792963Y-92790000D01*
X74053780Y-92738120D01*
X74299465Y-92636354D01*
X74520575Y-92488613D01*
X74708613Y-92300575D01*
X74856354Y-92079465D01*
X74930000Y-91901668D01*
X75003646Y-92079465D01*
X75151387Y-92300575D01*
X75339425Y-92488613D01*
X75560535Y-92636354D01*
X75806220Y-92738120D01*
X76067037Y-92790000D01*
X76332963Y-92790000D01*
X76593780Y-92738120D01*
X76839465Y-92636354D01*
X77060575Y-92488613D01*
X77248613Y-92300575D01*
X77396354Y-92079465D01*
X77470000Y-91901668D01*
X77543646Y-92079465D01*
X77691387Y-92300575D01*
X77879425Y-92488613D01*
X78100535Y-92636354D01*
X78346220Y-92738120D01*
X78607037Y-92790000D01*
X78872963Y-92790000D01*
X79133780Y-92738120D01*
X79379465Y-92636354D01*
X79600575Y-92488613D01*
X79788613Y-92300575D01*
X79928065Y-92091870D01*
X79928065Y-92390000D01*
X79935788Y-92468414D01*
X79958660Y-92543814D01*
X79995803Y-92613303D01*
X80045789Y-92674211D01*
X80106697Y-92724197D01*
X80176186Y-92761340D01*
X80251586Y-92784212D01*
X80330000Y-92791935D01*
X82230000Y-92791935D01*
X82308414Y-92784212D01*
X82383814Y-92761340D01*
X82453303Y-92724197D01*
X82514211Y-92674211D01*
X82564197Y-92613303D01*
X82601340Y-92543814D01*
X82624212Y-92468414D01*
X82631935Y-92390000D01*
X82631935Y-91307037D01*
X90090000Y-91307037D01*
X90090000Y-91572963D01*
X90141880Y-91833780D01*
X90243646Y-92079465D01*
X90391387Y-92300575D01*
X90579425Y-92488613D01*
X90800535Y-92636354D01*
X91046220Y-92738120D01*
X91307037Y-92790000D01*
X91572963Y-92790000D01*
X91833780Y-92738120D01*
X92079465Y-92636354D01*
X92264642Y-92512622D01*
X93190221Y-92512622D01*
X93293498Y-92725150D01*
X93557409Y-92834386D01*
X93837560Y-92890037D01*
X94123186Y-92889964D01*
X94403309Y-92834169D01*
X94666502Y-92725150D01*
X94769779Y-92512622D01*
X93980000Y-91722843D01*
X93190221Y-92512622D01*
X92264642Y-92512622D01*
X92300575Y-92488613D01*
X92488613Y-92300575D01*
X92636354Y-92079465D01*
X92655860Y-92032373D01*
X92694850Y-92126502D01*
X92907378Y-92229779D01*
X93697157Y-91440000D01*
X94262843Y-91440000D01*
X95052622Y-92229779D01*
X95265150Y-92126502D01*
X95304126Y-92032338D01*
X95323646Y-92079465D01*
X95471387Y-92300575D01*
X95659425Y-92488613D01*
X95880535Y-92636354D01*
X96126220Y-92738120D01*
X96387037Y-92790000D01*
X96652963Y-92790000D01*
X96913780Y-92738120D01*
X97159465Y-92636354D01*
X97380575Y-92488613D01*
X97568613Y-92300575D01*
X97716354Y-92079465D01*
X97790000Y-91901668D01*
X97863646Y-92079465D01*
X98011387Y-92300575D01*
X98199425Y-92488613D01*
X98420535Y-92636354D01*
X98666220Y-92738120D01*
X98927037Y-92790000D01*
X99192963Y-92790000D01*
X99453780Y-92738120D01*
X99699465Y-92636354D01*
X99920575Y-92488613D01*
X100108613Y-92300575D01*
X100256354Y-92079465D01*
X100330000Y-91901668D01*
X100403646Y-92079465D01*
X100551387Y-92300575D01*
X100739425Y-92488613D01*
X100960535Y-92636354D01*
X101206220Y-92738120D01*
X101467037Y-92790000D01*
X101732963Y-92790000D01*
X101993780Y-92738120D01*
X102239465Y-92636354D01*
X102460575Y-92488613D01*
X102648613Y-92300575D01*
X102788065Y-92091870D01*
X102788065Y-92390000D01*
X102795788Y-92468414D01*
X102818660Y-92543814D01*
X102855803Y-92613303D01*
X102905789Y-92674211D01*
X102966697Y-92724197D01*
X103036186Y-92761340D01*
X103111586Y-92784212D01*
X103190000Y-92791935D01*
X105090000Y-92791935D01*
X105168414Y-92784212D01*
X105243814Y-92761340D01*
X105313303Y-92724197D01*
X105374211Y-92674211D01*
X105424197Y-92613303D01*
X105461340Y-92543814D01*
X105484212Y-92468414D01*
X105491935Y-92390000D01*
X105491935Y-91307037D01*
X112950000Y-91307037D01*
X112950000Y-91572963D01*
X113001880Y-91833780D01*
X113103646Y-92079465D01*
X113251387Y-92300575D01*
X113439425Y-92488613D01*
X113660535Y-92636354D01*
X113906220Y-92738120D01*
X114167037Y-92790000D01*
X114432963Y-92790000D01*
X114693780Y-92738120D01*
X114939465Y-92636354D01*
X115124642Y-92512622D01*
X116050221Y-92512622D01*
X116153498Y-92725150D01*
X116417409Y-92834386D01*
X116697560Y-92890037D01*
X116983186Y-92889964D01*
X117263309Y-92834169D01*
X117526502Y-92725150D01*
X117629779Y-92512622D01*
X116840000Y-91722843D01*
X116050221Y-92512622D01*
X115124642Y-92512622D01*
X115160575Y-92488613D01*
X115348613Y-92300575D01*
X115496354Y-92079465D01*
X115515860Y-92032373D01*
X115554850Y-92126502D01*
X115767378Y-92229779D01*
X116557157Y-91440000D01*
X117122843Y-91440000D01*
X117912622Y-92229779D01*
X118125150Y-92126502D01*
X118164126Y-92032338D01*
X118183646Y-92079465D01*
X118331387Y-92300575D01*
X118519425Y-92488613D01*
X118740535Y-92636354D01*
X118986220Y-92738120D01*
X119247037Y-92790000D01*
X119512963Y-92790000D01*
X119773780Y-92738120D01*
X120019465Y-92636354D01*
X120240575Y-92488613D01*
X120428613Y-92300575D01*
X120576354Y-92079465D01*
X120650000Y-91901668D01*
X120723646Y-92079465D01*
X120871387Y-92300575D01*
X121059425Y-92488613D01*
X121280535Y-92636354D01*
X121526220Y-92738120D01*
X121787037Y-92790000D01*
X122052963Y-92790000D01*
X122313780Y-92738120D01*
X122559465Y-92636354D01*
X122780575Y-92488613D01*
X122968613Y-92300575D01*
X123116354Y-92079465D01*
X123190000Y-91901668D01*
X123263646Y-92079465D01*
X123411387Y-92300575D01*
X123599425Y-92488613D01*
X123820535Y-92636354D01*
X124066220Y-92738120D01*
X124327037Y-92790000D01*
X124592963Y-92790000D01*
X124853780Y-92738120D01*
X125099465Y-92636354D01*
X125320575Y-92488613D01*
X125508613Y-92300575D01*
X125648065Y-92091870D01*
X125648065Y-92390000D01*
X125655788Y-92468414D01*
X125678660Y-92543814D01*
X125715803Y-92613303D01*
X125765789Y-92674211D01*
X125826697Y-92724197D01*
X125896186Y-92761340D01*
X125971586Y-92784212D01*
X126050000Y-92791935D01*
X127950000Y-92791935D01*
X128028414Y-92784212D01*
X128103814Y-92761340D01*
X128173303Y-92724197D01*
X128234211Y-92674211D01*
X128284197Y-92613303D01*
X128321340Y-92543814D01*
X128344212Y-92468414D01*
X128351935Y-92390000D01*
X128351935Y-90490000D01*
X128344212Y-90411586D01*
X128321340Y-90336186D01*
X128284197Y-90266697D01*
X128234211Y-90205789D01*
X128173303Y-90155803D01*
X128103814Y-90118660D01*
X128028414Y-90095788D01*
X127950000Y-90088065D01*
X126050000Y-90088065D01*
X125971586Y-90095788D01*
X125896186Y-90118660D01*
X125826697Y-90155803D01*
X125765789Y-90205789D01*
X125715803Y-90266697D01*
X125678660Y-90336186D01*
X125655788Y-90411586D01*
X125648065Y-90490000D01*
X125648065Y-90788130D01*
X125508613Y-90579425D01*
X125320575Y-90391387D01*
X125099465Y-90243646D01*
X124853780Y-90141880D01*
X124592963Y-90090000D01*
X124327037Y-90090000D01*
X124066220Y-90141880D01*
X123820535Y-90243646D01*
X123599425Y-90391387D01*
X123411387Y-90579425D01*
X123263646Y-90800535D01*
X123190000Y-90978332D01*
X123116354Y-90800535D01*
X122968613Y-90579425D01*
X122780575Y-90391387D01*
X122559465Y-90243646D01*
X122313780Y-90141880D01*
X122052963Y-90090000D01*
X121787037Y-90090000D01*
X121526220Y-90141880D01*
X121280535Y-90243646D01*
X121059425Y-90391387D01*
X120871387Y-90579425D01*
X120723646Y-90800535D01*
X120650000Y-90978332D01*
X120576354Y-90800535D01*
X120428613Y-90579425D01*
X120240575Y-90391387D01*
X120019465Y-90243646D01*
X119773780Y-90141880D01*
X119512963Y-90090000D01*
X119247037Y-90090000D01*
X118986220Y-90141880D01*
X118740535Y-90243646D01*
X118519425Y-90391387D01*
X118331387Y-90579425D01*
X118183646Y-90800535D01*
X118164140Y-90847627D01*
X118125150Y-90753498D01*
X117912622Y-90650221D01*
X117122843Y-91440000D01*
X116557157Y-91440000D01*
X115767378Y-90650221D01*
X115554850Y-90753498D01*
X115515874Y-90847662D01*
X115496354Y-90800535D01*
X115348613Y-90579425D01*
X115160575Y-90391387D01*
X115124643Y-90367378D01*
X116050221Y-90367378D01*
X116840000Y-91157157D01*
X117629779Y-90367378D01*
X117526502Y-90154850D01*
X117262591Y-90045614D01*
X116982440Y-89989963D01*
X116696814Y-89990036D01*
X116416691Y-90045831D01*
X116153498Y-90154850D01*
X116050221Y-90367378D01*
X115124643Y-90367378D01*
X114939465Y-90243646D01*
X114693780Y-90141880D01*
X114432963Y-90090000D01*
X114167037Y-90090000D01*
X113906220Y-90141880D01*
X113660535Y-90243646D01*
X113439425Y-90391387D01*
X113251387Y-90579425D01*
X113103646Y-90800535D01*
X113001880Y-91046220D01*
X112950000Y-91307037D01*
X105491935Y-91307037D01*
X105491935Y-90490000D01*
X105484212Y-90411586D01*
X105461340Y-90336186D01*
X105424197Y-90266697D01*
X105374211Y-90205789D01*
X105313303Y-90155803D01*
X105243814Y-90118660D01*
X105168414Y-90095788D01*
X105090000Y-90088065D01*
X103190000Y-90088065D01*
X103111586Y-90095788D01*
X103036186Y-90118660D01*
X102966697Y-90155803D01*
X102905789Y-90205789D01*
X102855803Y-90266697D01*
X102818660Y-90336186D01*
X102795788Y-90411586D01*
X102788065Y-90490000D01*
X102788065Y-90788130D01*
X102648613Y-90579425D01*
X102460575Y-90391387D01*
X102239465Y-90243646D01*
X101993780Y-90141880D01*
X101732963Y-90090000D01*
X101467037Y-90090000D01*
X101206220Y-90141880D01*
X100960535Y-90243646D01*
X100739425Y-90391387D01*
X100551387Y-90579425D01*
X100403646Y-90800535D01*
X100330000Y-90978332D01*
X100256354Y-90800535D01*
X100108613Y-90579425D01*
X99920575Y-90391387D01*
X99699465Y-90243646D01*
X99453780Y-90141880D01*
X99192963Y-90090000D01*
X98927037Y-90090000D01*
X98666220Y-90141880D01*
X98420535Y-90243646D01*
X98199425Y-90391387D01*
X98011387Y-90579425D01*
X97863646Y-90800535D01*
X97790000Y-90978332D01*
X97716354Y-90800535D01*
X97568613Y-90579425D01*
X97380575Y-90391387D01*
X97159465Y-90243646D01*
X96913780Y-90141880D01*
X96652963Y-90090000D01*
X96387037Y-90090000D01*
X96126220Y-90141880D01*
X95880535Y-90243646D01*
X95659425Y-90391387D01*
X95471387Y-90579425D01*
X95323646Y-90800535D01*
X95304140Y-90847627D01*
X95265150Y-90753498D01*
X95052622Y-90650221D01*
X94262843Y-91440000D01*
X93697157Y-91440000D01*
X92907378Y-90650221D01*
X92694850Y-90753498D01*
X92655874Y-90847662D01*
X92636354Y-90800535D01*
X92488613Y-90579425D01*
X92300575Y-90391387D01*
X92264643Y-90367378D01*
X93190221Y-90367378D01*
X93980000Y-91157157D01*
X94769779Y-90367378D01*
X94666502Y-90154850D01*
X94402591Y-90045614D01*
X94122440Y-89989963D01*
X93836814Y-89990036D01*
X93556691Y-90045831D01*
X93293498Y-90154850D01*
X93190221Y-90367378D01*
X92264643Y-90367378D01*
X92079465Y-90243646D01*
X91833780Y-90141880D01*
X91572963Y-90090000D01*
X91307037Y-90090000D01*
X91046220Y-90141880D01*
X90800535Y-90243646D01*
X90579425Y-90391387D01*
X90391387Y-90579425D01*
X90243646Y-90800535D01*
X90141880Y-91046220D01*
X90090000Y-91307037D01*
X82631935Y-91307037D01*
X82631935Y-90490000D01*
X82624212Y-90411586D01*
X82601340Y-90336186D01*
X82564197Y-90266697D01*
X82514211Y-90205789D01*
X82453303Y-90155803D01*
X82383814Y-90118660D01*
X82308414Y-90095788D01*
X82230000Y-90088065D01*
X80330000Y-90088065D01*
X80251586Y-90095788D01*
X80176186Y-90118660D01*
X80106697Y-90155803D01*
X80045789Y-90205789D01*
X79995803Y-90266697D01*
X79958660Y-90336186D01*
X79935788Y-90411586D01*
X79928065Y-90490000D01*
X79928065Y-90788130D01*
X79788613Y-90579425D01*
X79600575Y-90391387D01*
X79379465Y-90243646D01*
X79133780Y-90141880D01*
X78872963Y-90090000D01*
X78607037Y-90090000D01*
X78346220Y-90141880D01*
X78100535Y-90243646D01*
X77879425Y-90391387D01*
X77691387Y-90579425D01*
X77543646Y-90800535D01*
X77470000Y-90978332D01*
X77396354Y-90800535D01*
X77248613Y-90579425D01*
X77060575Y-90391387D01*
X76839465Y-90243646D01*
X76593780Y-90141880D01*
X76332963Y-90090000D01*
X76067037Y-90090000D01*
X75806220Y-90141880D01*
X75666754Y-90199648D01*
X74792929Y-89325824D01*
X74777264Y-89306736D01*
X74701129Y-89244254D01*
X74614267Y-89197825D01*
X74520017Y-89169235D01*
X74446560Y-89162000D01*
X74422000Y-89159581D01*
X74397440Y-89162000D01*
X71494063Y-89162000D01*
X71487401Y-89152030D01*
X71375970Y-89040599D01*
X71244942Y-88953049D01*
X71099351Y-88892743D01*
X70944793Y-88862000D01*
X70787207Y-88862000D01*
X70632649Y-88892743D01*
X70487058Y-88953049D01*
X70356030Y-89040599D01*
X70244599Y-89152030D01*
X70157049Y-89283058D01*
X70096743Y-89428649D01*
X70066000Y-89583207D01*
X57215883Y-89583207D01*
X56871743Y-89440660D01*
X56214871Y-89310000D01*
X55545129Y-89310000D01*
X54888257Y-89440660D01*
X54269496Y-89696959D01*
X53712626Y-90069048D01*
X53239048Y-90542626D01*
X52866959Y-91099496D01*
X52610660Y-91718257D01*
X52480000Y-92375129D01*
X52480000Y-93044871D01*
X52610660Y-93701743D01*
X52866959Y-94320504D01*
X53239048Y-94877374D01*
X53511674Y-95150000D01*
X53074908Y-95150000D01*
X52894515Y-95132232D01*
X52725771Y-95081045D01*
X52570255Y-94997920D01*
X52433946Y-94886054D01*
X52322080Y-94749745D01*
X52238955Y-94594229D01*
X52187768Y-94425485D01*
X52170000Y-94245092D01*
X52170000Y-85410000D01*
X67228065Y-85410000D01*
X67228065Y-87310000D01*
X67235788Y-87388414D01*
X67258660Y-87463814D01*
X67295803Y-87533303D01*
X67345789Y-87594211D01*
X67406697Y-87644197D01*
X67476186Y-87681340D01*
X67551586Y-87704212D01*
X67630000Y-87711935D01*
X69530000Y-87711935D01*
X69608414Y-87704212D01*
X69683814Y-87681340D01*
X69753303Y-87644197D01*
X69814211Y-87594211D01*
X69864197Y-87533303D01*
X69901340Y-87463814D01*
X69924212Y-87388414D01*
X69931935Y-87310000D01*
X69931935Y-87011870D01*
X70071387Y-87220575D01*
X70259425Y-87408613D01*
X70480535Y-87556354D01*
X70726220Y-87658120D01*
X70987037Y-87710000D01*
X71252963Y-87710000D01*
X71513780Y-87658120D01*
X71759465Y-87556354D01*
X71980575Y-87408613D01*
X72168613Y-87220575D01*
X72316354Y-86999465D01*
X72390000Y-86821668D01*
X72463646Y-86999465D01*
X72611387Y-87220575D01*
X72799425Y-87408613D01*
X73020535Y-87556354D01*
X73266220Y-87658120D01*
X73527037Y-87710000D01*
X73792963Y-87710000D01*
X74053780Y-87658120D01*
X74299465Y-87556354D01*
X74520575Y-87408613D01*
X74708613Y-87220575D01*
X74856354Y-86999465D01*
X74930000Y-86821668D01*
X75003646Y-86999465D01*
X75151387Y-87220575D01*
X75339425Y-87408613D01*
X75560535Y-87556354D01*
X75806220Y-87658120D01*
X76067037Y-87710000D01*
X76332963Y-87710000D01*
X76593780Y-87658120D01*
X76839465Y-87556354D01*
X77060575Y-87408613D01*
X77248613Y-87220575D01*
X77396354Y-86999465D01*
X77470000Y-86821668D01*
X77543646Y-86999465D01*
X77691387Y-87220575D01*
X77879425Y-87408613D01*
X78100535Y-87556354D01*
X78346220Y-87658120D01*
X78607037Y-87710000D01*
X78872963Y-87710000D01*
X79133780Y-87658120D01*
X79379465Y-87556354D01*
X79600575Y-87408613D01*
X79788613Y-87220575D01*
X79936354Y-86999465D01*
X80038120Y-86753780D01*
X80090000Y-86492963D01*
X80090000Y-86227037D01*
X80038120Y-85966220D01*
X79936354Y-85720535D01*
X79788613Y-85499425D01*
X79600575Y-85311387D01*
X79379465Y-85163646D01*
X79133780Y-85061880D01*
X78872963Y-85010000D01*
X78607037Y-85010000D01*
X78346220Y-85061880D01*
X78100535Y-85163646D01*
X77879425Y-85311387D01*
X77691387Y-85499425D01*
X77543646Y-85720535D01*
X77470000Y-85898332D01*
X77396354Y-85720535D01*
X77248613Y-85499425D01*
X77060575Y-85311387D01*
X76839465Y-85163646D01*
X76593780Y-85061880D01*
X76332963Y-85010000D01*
X76067037Y-85010000D01*
X75806220Y-85061880D01*
X75560535Y-85163646D01*
X75339425Y-85311387D01*
X75151387Y-85499425D01*
X75003646Y-85720535D01*
X74930000Y-85898332D01*
X74856354Y-85720535D01*
X74708613Y-85499425D01*
X74520575Y-85311387D01*
X74299465Y-85163646D01*
X74053780Y-85061880D01*
X73792963Y-85010000D01*
X73527037Y-85010000D01*
X73266220Y-85061880D01*
X73020535Y-85163646D01*
X72799425Y-85311387D01*
X72611387Y-85499425D01*
X72463646Y-85720535D01*
X72390000Y-85898332D01*
X72316354Y-85720535D01*
X72168613Y-85499425D01*
X71980575Y-85311387D01*
X71759465Y-85163646D01*
X71513780Y-85061880D01*
X71252963Y-85010000D01*
X70987037Y-85010000D01*
X70726220Y-85061880D01*
X70480535Y-85163646D01*
X70259425Y-85311387D01*
X70071387Y-85499425D01*
X69931935Y-85708130D01*
X69931935Y-85410000D01*
X69924212Y-85331586D01*
X69901340Y-85256186D01*
X69864197Y-85186697D01*
X69814211Y-85125789D01*
X69753303Y-85075803D01*
X69683814Y-85038660D01*
X69608414Y-85015788D01*
X69530000Y-85008065D01*
X67630000Y-85008065D01*
X67551586Y-85015788D01*
X67476186Y-85038660D01*
X67406697Y-85075803D01*
X67345789Y-85125789D01*
X67295803Y-85186697D01*
X67258660Y-85256186D01*
X67235788Y-85331586D01*
X67228065Y-85410000D01*
X52170000Y-85410000D01*
X52170000Y-80580000D01*
X67578065Y-80580000D01*
X67578065Y-81980000D01*
X67591552Y-82116941D01*
X67631497Y-82248619D01*
X67696362Y-82369974D01*
X67783657Y-82476343D01*
X67890026Y-82563638D01*
X68011381Y-82628503D01*
X68143059Y-82668448D01*
X68280000Y-82681935D01*
X68880000Y-82681935D01*
X69016941Y-82668448D01*
X69148619Y-82628503D01*
X69196047Y-82603153D01*
X70079080Y-83486187D01*
X70094736Y-83505264D01*
X70170871Y-83567746D01*
X70257733Y-83614175D01*
X70351983Y-83642765D01*
X70425440Y-83650000D01*
X70425449Y-83650000D01*
X70449999Y-83652418D01*
X70474549Y-83650000D01*
X90025440Y-83650000D01*
X90050000Y-83652419D01*
X90074560Y-83650000D01*
X90148017Y-83642765D01*
X90242267Y-83614175D01*
X90329129Y-83567746D01*
X90405264Y-83505264D01*
X90420928Y-83486177D01*
X90736186Y-83170921D01*
X90755264Y-83155264D01*
X90817746Y-83079129D01*
X90864175Y-82992267D01*
X90892765Y-82898017D01*
X90900000Y-82824560D01*
X90900000Y-82824559D01*
X90902419Y-82800000D01*
X90900000Y-82775440D01*
X90900000Y-82525251D01*
X91055466Y-82608349D01*
X91243967Y-82665530D01*
X91440000Y-82684838D01*
X91636034Y-82665530D01*
X91824535Y-82608349D01*
X91998258Y-82515492D01*
X92150528Y-82390528D01*
X92275492Y-82238258D01*
X92368349Y-82064535D01*
X92425530Y-81876033D01*
X92440000Y-81729119D01*
X92440000Y-80830881D01*
X92980000Y-80830881D01*
X92980000Y-81729120D01*
X92994471Y-81876034D01*
X93051652Y-82064535D01*
X93144509Y-82238258D01*
X93269473Y-82390528D01*
X93421743Y-82515492D01*
X93595466Y-82608349D01*
X93783967Y-82665530D01*
X93980000Y-82684838D01*
X94176034Y-82665530D01*
X94364535Y-82608349D01*
X94538258Y-82515492D01*
X94690528Y-82390528D01*
X94815492Y-82238258D01*
X94908349Y-82064535D01*
X94965530Y-81876033D01*
X94980000Y-81729119D01*
X94980000Y-80830881D01*
X95520000Y-80830881D01*
X95520000Y-81729120D01*
X95534471Y-81876034D01*
X95591652Y-82064535D01*
X95684509Y-82238258D01*
X95809473Y-82390528D01*
X95961743Y-82515492D01*
X96135466Y-82608349D01*
X96323967Y-82665530D01*
X96520000Y-82684838D01*
X96716034Y-82665530D01*
X96904535Y-82608349D01*
X97078258Y-82515492D01*
X97230528Y-82390528D01*
X97355492Y-82238258D01*
X97448349Y-82064535D01*
X97505530Y-81876033D01*
X97520000Y-81729119D01*
X97520000Y-80830881D01*
X98060000Y-80830881D01*
X98060000Y-81729120D01*
X98074471Y-81876034D01*
X98131652Y-82064535D01*
X98224509Y-82238258D01*
X98349473Y-82390528D01*
X98501743Y-82515492D01*
X98675466Y-82608349D01*
X98863967Y-82665530D01*
X99060000Y-82684838D01*
X99256034Y-82665530D01*
X99444535Y-82608349D01*
X99618258Y-82515492D01*
X99770528Y-82390528D01*
X99895492Y-82238258D01*
X99988349Y-82064535D01*
X100045530Y-81876033D01*
X100060000Y-81729119D01*
X100060000Y-80830881D01*
X100600000Y-80830881D01*
X100600000Y-81729120D01*
X100614471Y-81876034D01*
X100671652Y-82064535D01*
X100764509Y-82238258D01*
X100889473Y-82390528D01*
X101041743Y-82515492D01*
X101215466Y-82608349D01*
X101403967Y-82665530D01*
X101600000Y-82684838D01*
X101796034Y-82665530D01*
X101984535Y-82608349D01*
X102158258Y-82515492D01*
X102310528Y-82390528D01*
X102435492Y-82238258D01*
X102528349Y-82064535D01*
X102585530Y-81876033D01*
X102600000Y-81729119D01*
X102600000Y-80830881D01*
X103140000Y-80830881D01*
X103140000Y-81729120D01*
X103154471Y-81876034D01*
X103211652Y-82064535D01*
X103304509Y-82238258D01*
X103429473Y-82390528D01*
X103581743Y-82515492D01*
X103755466Y-82608349D01*
X103943967Y-82665530D01*
X104140000Y-82684838D01*
X104336034Y-82665530D01*
X104524535Y-82608349D01*
X104698258Y-82515492D01*
X104850528Y-82390528D01*
X104975492Y-82238258D01*
X105068349Y-82064535D01*
X105125530Y-81876033D01*
X105140000Y-81729119D01*
X105140000Y-80830881D01*
X105680000Y-80830881D01*
X105680000Y-81729120D01*
X105694471Y-81876034D01*
X105751652Y-82064535D01*
X105844509Y-82238258D01*
X105969473Y-82390528D01*
X106121743Y-82515492D01*
X106295466Y-82608349D01*
X106483967Y-82665530D01*
X106680000Y-82684838D01*
X106876034Y-82665530D01*
X107064535Y-82608349D01*
X107238258Y-82515492D01*
X107390528Y-82390528D01*
X107515492Y-82238258D01*
X107608349Y-82064535D01*
X107665530Y-81876033D01*
X107680000Y-81729119D01*
X107680000Y-80830881D01*
X108220000Y-80830881D01*
X108220000Y-81729120D01*
X108234471Y-81876034D01*
X108291652Y-82064535D01*
X108384509Y-82238258D01*
X108509473Y-82390528D01*
X108661743Y-82515492D01*
X108835466Y-82608349D01*
X109023967Y-82665530D01*
X109220000Y-82684838D01*
X109416034Y-82665530D01*
X109604535Y-82608349D01*
X109778258Y-82515492D01*
X109930528Y-82390528D01*
X110055492Y-82238258D01*
X110148349Y-82064535D01*
X110205530Y-81876033D01*
X110220000Y-81729119D01*
X110220000Y-80830881D01*
X110760000Y-80830881D01*
X110760000Y-81729120D01*
X110774471Y-81876034D01*
X110831652Y-82064535D01*
X110924509Y-82238258D01*
X111049473Y-82390528D01*
X111201743Y-82515492D01*
X111375466Y-82608349D01*
X111563967Y-82665530D01*
X111760000Y-82684838D01*
X111956034Y-82665530D01*
X112144535Y-82608349D01*
X112318258Y-82515492D01*
X112470528Y-82390528D01*
X112595492Y-82238258D01*
X112688349Y-82064535D01*
X112745530Y-81876033D01*
X112760000Y-81729119D01*
X112760000Y-81480000D01*
X113200000Y-81480000D01*
X113200000Y-81880000D01*
X113260154Y-82090756D01*
X113360269Y-82285727D01*
X113496497Y-82457421D01*
X113663603Y-82599239D01*
X113855166Y-82705731D01*
X113933253Y-82717061D01*
X114100000Y-82634267D01*
X114100000Y-81480000D01*
X114500000Y-81480000D01*
X114500000Y-82634267D01*
X114666747Y-82717061D01*
X114744834Y-82705731D01*
X114936397Y-82599239D01*
X115103503Y-82457421D01*
X115239731Y-82285727D01*
X115339846Y-82090756D01*
X115400000Y-81880000D01*
X115400000Y-81480000D01*
X114500000Y-81480000D01*
X114100000Y-81480000D01*
X113200000Y-81480000D01*
X112760000Y-81480000D01*
X112760000Y-80830880D01*
X112745530Y-80683966D01*
X112744327Y-80680000D01*
X113200000Y-80680000D01*
X113200000Y-81080000D01*
X114100000Y-81080000D01*
X114100000Y-79925733D01*
X114500000Y-79925733D01*
X114500000Y-81080000D01*
X115400000Y-81080000D01*
X115400000Y-80830881D01*
X115840000Y-80830881D01*
X115840000Y-81729120D01*
X115854471Y-81876034D01*
X115911652Y-82064535D01*
X116004509Y-82238258D01*
X116129473Y-82390528D01*
X116281743Y-82515492D01*
X116455466Y-82608349D01*
X116643967Y-82665530D01*
X116840000Y-82684838D01*
X117036034Y-82665530D01*
X117224535Y-82608349D01*
X117398258Y-82515492D01*
X117550528Y-82390528D01*
X117675492Y-82238258D01*
X117768349Y-82064535D01*
X117825530Y-81876033D01*
X117840000Y-81729119D01*
X117840000Y-80830880D01*
X117825530Y-80683966D01*
X117768349Y-80495465D01*
X117675492Y-80321742D01*
X117550528Y-80169472D01*
X117398258Y-80044508D01*
X117224534Y-79951651D01*
X117036033Y-79894470D01*
X116859037Y-79877037D01*
X124380000Y-79877037D01*
X124380000Y-80142963D01*
X124431880Y-80403780D01*
X124533646Y-80649465D01*
X124681387Y-80870575D01*
X124869425Y-81058613D01*
X125090535Y-81206354D01*
X125336220Y-81308120D01*
X125597037Y-81360000D01*
X125862963Y-81360000D01*
X126123780Y-81308120D01*
X126369465Y-81206354D01*
X126590575Y-81058613D01*
X126739188Y-80910000D01*
X127260812Y-80910000D01*
X127409425Y-81058613D01*
X127630535Y-81206354D01*
X127876220Y-81308120D01*
X128137037Y-81360000D01*
X128402963Y-81360000D01*
X128663780Y-81308120D01*
X128909465Y-81206354D01*
X129130575Y-81058613D01*
X129318613Y-80870575D01*
X129466354Y-80649465D01*
X129568120Y-80403780D01*
X129620000Y-80142963D01*
X129620000Y-79877037D01*
X129568120Y-79616220D01*
X129466354Y-79370535D01*
X129318613Y-79149425D01*
X129130575Y-78961387D01*
X128909465Y-78813646D01*
X128862373Y-78794140D01*
X128956502Y-78755150D01*
X129059779Y-78542622D01*
X128270000Y-77752843D01*
X127480221Y-78542622D01*
X127583498Y-78755150D01*
X127677662Y-78794126D01*
X127630535Y-78813646D01*
X127409425Y-78961387D01*
X127260812Y-79110000D01*
X126739188Y-79110000D01*
X126590575Y-78961387D01*
X126369465Y-78813646D01*
X126322373Y-78794140D01*
X126416502Y-78755150D01*
X126519779Y-78542622D01*
X125730000Y-77752843D01*
X124940221Y-78542622D01*
X125043498Y-78755150D01*
X125137662Y-78794126D01*
X125090535Y-78813646D01*
X124869425Y-78961387D01*
X124681387Y-79149425D01*
X124533646Y-79370535D01*
X124431880Y-79616220D01*
X124380000Y-79877037D01*
X116859037Y-79877037D01*
X116840000Y-79875162D01*
X116643966Y-79894470D01*
X116455465Y-79951651D01*
X116281742Y-80044508D01*
X116129472Y-80169472D01*
X116004508Y-80321742D01*
X115911651Y-80495466D01*
X115854470Y-80683967D01*
X115840000Y-80830881D01*
X115400000Y-80830881D01*
X115400000Y-80680000D01*
X115339846Y-80469244D01*
X115239731Y-80274273D01*
X115103503Y-80102579D01*
X114936397Y-79960761D01*
X114744834Y-79854269D01*
X114666747Y-79842939D01*
X114500000Y-79925733D01*
X114100000Y-79925733D01*
X113933253Y-79842939D01*
X113855166Y-79854269D01*
X113663603Y-79960761D01*
X113496497Y-80102579D01*
X113360269Y-80274273D01*
X113260154Y-80469244D01*
X113200000Y-80680000D01*
X112744327Y-80680000D01*
X112688349Y-80495465D01*
X112595492Y-80321742D01*
X112470528Y-80169472D01*
X112318258Y-80044508D01*
X112144534Y-79951651D01*
X111956033Y-79894470D01*
X111760000Y-79875162D01*
X111563966Y-79894470D01*
X111375465Y-79951651D01*
X111201742Y-80044508D01*
X111049472Y-80169472D01*
X110924508Y-80321742D01*
X110831651Y-80495466D01*
X110774470Y-80683967D01*
X110760000Y-80830881D01*
X110220000Y-80830881D01*
X110220000Y-80830880D01*
X110205530Y-80683966D01*
X110148349Y-80495465D01*
X110055492Y-80321742D01*
X109930528Y-80169472D01*
X109778258Y-80044508D01*
X109604534Y-79951651D01*
X109416033Y-79894470D01*
X109220000Y-79875162D01*
X109023966Y-79894470D01*
X108835465Y-79951651D01*
X108661742Y-80044508D01*
X108509472Y-80169472D01*
X108384508Y-80321742D01*
X108291651Y-80495466D01*
X108234470Y-80683967D01*
X108220000Y-80830881D01*
X107680000Y-80830881D01*
X107680000Y-80830880D01*
X107665530Y-80683966D01*
X107608349Y-80495465D01*
X107515492Y-80321742D01*
X107390528Y-80169472D01*
X107238258Y-80044508D01*
X107064534Y-79951651D01*
X106876033Y-79894470D01*
X106680000Y-79875162D01*
X106483966Y-79894470D01*
X106295465Y-79951651D01*
X106121742Y-80044508D01*
X105969472Y-80169472D01*
X105844508Y-80321742D01*
X105751651Y-80495466D01*
X105694470Y-80683967D01*
X105680000Y-80830881D01*
X105140000Y-80830881D01*
X105140000Y-80830880D01*
X105125530Y-80683966D01*
X105068349Y-80495465D01*
X104975492Y-80321742D01*
X104850528Y-80169472D01*
X104698258Y-80044508D01*
X104524534Y-79951651D01*
X104336033Y-79894470D01*
X104140000Y-79875162D01*
X103943966Y-79894470D01*
X103755465Y-79951651D01*
X103581742Y-80044508D01*
X103429472Y-80169472D01*
X103304508Y-80321742D01*
X103211651Y-80495466D01*
X103154470Y-80683967D01*
X103140000Y-80830881D01*
X102600000Y-80830881D01*
X102600000Y-80830880D01*
X102585530Y-80683966D01*
X102528349Y-80495465D01*
X102435492Y-80321742D01*
X102310528Y-80169472D01*
X102158258Y-80044508D01*
X101984534Y-79951651D01*
X101796033Y-79894470D01*
X101600000Y-79875162D01*
X101403966Y-79894470D01*
X101215465Y-79951651D01*
X101041742Y-80044508D01*
X100889472Y-80169472D01*
X100764508Y-80321742D01*
X100671651Y-80495466D01*
X100614470Y-80683967D01*
X100600000Y-80830881D01*
X100060000Y-80830881D01*
X100060000Y-80830880D01*
X100045530Y-80683966D01*
X99988349Y-80495465D01*
X99895492Y-80321742D01*
X99770528Y-80169472D01*
X99618258Y-80044508D01*
X99444534Y-79951651D01*
X99256033Y-79894470D01*
X99060000Y-79875162D01*
X98863966Y-79894470D01*
X98675465Y-79951651D01*
X98501742Y-80044508D01*
X98349472Y-80169472D01*
X98224508Y-80321742D01*
X98131651Y-80495466D01*
X98074470Y-80683967D01*
X98060000Y-80830881D01*
X97520000Y-80830881D01*
X97520000Y-80830880D01*
X97505530Y-80683966D01*
X97448349Y-80495465D01*
X97355492Y-80321742D01*
X97230528Y-80169472D01*
X97078258Y-80044508D01*
X96904534Y-79951651D01*
X96716033Y-79894470D01*
X96520000Y-79875162D01*
X96323966Y-79894470D01*
X96135465Y-79951651D01*
X95961742Y-80044508D01*
X95809472Y-80169472D01*
X95684508Y-80321742D01*
X95591651Y-80495466D01*
X95534470Y-80683967D01*
X95520000Y-80830881D01*
X94980000Y-80830881D01*
X94980000Y-80830880D01*
X94965530Y-80683966D01*
X94908349Y-80495465D01*
X94815492Y-80321742D01*
X94690528Y-80169472D01*
X94538258Y-80044508D01*
X94364534Y-79951651D01*
X94176033Y-79894470D01*
X93980000Y-79875162D01*
X93783966Y-79894470D01*
X93595465Y-79951651D01*
X93421742Y-80044508D01*
X93269472Y-80169472D01*
X93144508Y-80321742D01*
X93051651Y-80495466D01*
X92994470Y-80683967D01*
X92980000Y-80830881D01*
X92440000Y-80830881D01*
X92440000Y-80830880D01*
X92425530Y-80683966D01*
X92368349Y-80495465D01*
X92275492Y-80321742D01*
X92153850Y-80173521D01*
X92264601Y-80062770D01*
X92352151Y-79931742D01*
X92412457Y-79786151D01*
X92433158Y-79682081D01*
X94350839Y-77764400D01*
X94416269Y-77764400D01*
X94397600Y-77858256D01*
X94397600Y-77996144D01*
X94424501Y-78131382D01*
X94477268Y-78258774D01*
X94553874Y-78373424D01*
X94651376Y-78470926D01*
X94766026Y-78547532D01*
X94893418Y-78600299D01*
X95028656Y-78627200D01*
X95090493Y-78627200D01*
X95133079Y-78669786D01*
X95148736Y-78688864D01*
X95224871Y-78751346D01*
X95311733Y-78797775D01*
X95405983Y-78826365D01*
X95479440Y-78833600D01*
X95479449Y-78833600D01*
X95503999Y-78836018D01*
X95528549Y-78833600D01*
X101246498Y-78833600D01*
X101270071Y-78852946D01*
X101356933Y-78899375D01*
X101451183Y-78927965D01*
X101524640Y-78935200D01*
X101524641Y-78935200D01*
X101549199Y-78937619D01*
X101573757Y-78935200D01*
X102024450Y-78935200D01*
X102068176Y-78978926D01*
X102182826Y-79055532D01*
X102310218Y-79108299D01*
X102445456Y-79135200D01*
X102583344Y-79135200D01*
X102718582Y-79108299D01*
X102845974Y-79055532D01*
X102960624Y-78978926D01*
X103058126Y-78881424D01*
X103134732Y-78766774D01*
X103187499Y-78639382D01*
X103214400Y-78504144D01*
X103214400Y-78366256D01*
X103187499Y-78231018D01*
X103134732Y-78103626D01*
X103058126Y-77988976D01*
X102960624Y-77891474D01*
X102845974Y-77814868D01*
X102718582Y-77762101D01*
X102601240Y-77738760D01*
X102577899Y-77621418D01*
X102525132Y-77494026D01*
X102448526Y-77379376D01*
X102396710Y-77327560D01*
X124279963Y-77327560D01*
X124280036Y-77613186D01*
X124335831Y-77893309D01*
X124444850Y-78156502D01*
X124657378Y-78259779D01*
X125447157Y-77470000D01*
X126012843Y-77470000D01*
X126802622Y-78259779D01*
X127000000Y-78163864D01*
X127197378Y-78259779D01*
X127987157Y-77470000D01*
X128552843Y-77470000D01*
X129342622Y-78259779D01*
X129555150Y-78156502D01*
X129664386Y-77892591D01*
X129720037Y-77612440D01*
X129719964Y-77326814D01*
X129664169Y-77046691D01*
X129555150Y-76783498D01*
X129342622Y-76680221D01*
X128552843Y-77470000D01*
X127987157Y-77470000D01*
X127197378Y-76680221D01*
X127000000Y-76776136D01*
X126802622Y-76680221D01*
X126012843Y-77470000D01*
X125447157Y-77470000D01*
X124657378Y-76680221D01*
X124444850Y-76783498D01*
X124335614Y-77047409D01*
X124279963Y-77327560D01*
X102396710Y-77327560D01*
X102351024Y-77281874D01*
X102236374Y-77205268D01*
X102108982Y-77152501D01*
X101973744Y-77125600D01*
X101835856Y-77125600D01*
X101700618Y-77152501D01*
X101573226Y-77205268D01*
X101458576Y-77281874D01*
X101414850Y-77325600D01*
X98098707Y-77325600D01*
X96890929Y-76117824D01*
X96875264Y-76098736D01*
X96799129Y-76036254D01*
X96712267Y-75989825D01*
X96618017Y-75961235D01*
X96544560Y-75954000D01*
X96520000Y-75951581D01*
X96495440Y-75954000D01*
X93750560Y-75954000D01*
X93726000Y-75951581D01*
X93701440Y-75954000D01*
X93627983Y-75961235D01*
X93533733Y-75989825D01*
X93446871Y-76036254D01*
X93370736Y-76098736D01*
X93355080Y-76117813D01*
X92756895Y-76716000D01*
X89694750Y-76716000D01*
X89651024Y-76672274D01*
X89536374Y-76595668D01*
X89408982Y-76542901D01*
X89273744Y-76516000D01*
X89135856Y-76516000D01*
X89000618Y-76542901D01*
X88873226Y-76595668D01*
X88758576Y-76672274D01*
X88661074Y-76769776D01*
X88584468Y-76884426D01*
X88531701Y-77011818D01*
X88504800Y-77147056D01*
X88504800Y-77284944D01*
X88531701Y-77420182D01*
X88584468Y-77547574D01*
X88661074Y-77662224D01*
X88758576Y-77759726D01*
X88873226Y-77836332D01*
X89000618Y-77889099D01*
X89135856Y-77916000D01*
X89273744Y-77916000D01*
X89408982Y-77889099D01*
X89536374Y-77836332D01*
X89651024Y-77759726D01*
X89694750Y-77716000D01*
X92560761Y-77716000D01*
X91513919Y-78762842D01*
X91409849Y-78783543D01*
X91264258Y-78843849D01*
X91133230Y-78931399D01*
X91021799Y-79042830D01*
X90934249Y-79173858D01*
X90887867Y-79285835D01*
X90864175Y-79207733D01*
X90817746Y-79120871D01*
X90755264Y-79044736D01*
X90736181Y-79029075D01*
X90318930Y-78611825D01*
X90303265Y-78592737D01*
X90227130Y-78530255D01*
X90140268Y-78483826D01*
X90046018Y-78455236D01*
X89972561Y-78448001D01*
X89948001Y-78445582D01*
X89923441Y-78448001D01*
X89224559Y-78448001D01*
X89199999Y-78445582D01*
X89175439Y-78448001D01*
X89101982Y-78455236D01*
X89007732Y-78483826D01*
X88920870Y-78530255D01*
X88899248Y-78548000D01*
X88831056Y-78548000D01*
X88695818Y-78574901D01*
X88654732Y-78591919D01*
X88631332Y-78535426D01*
X88555878Y-78422500D01*
X88631332Y-78309574D01*
X88684099Y-78182182D01*
X88711000Y-78046944D01*
X88711000Y-77909056D01*
X88684099Y-77773818D01*
X88631332Y-77646426D01*
X88554726Y-77531776D01*
X88457224Y-77434274D01*
X88342574Y-77357668D01*
X88215182Y-77304901D01*
X88079944Y-77278000D01*
X87942056Y-77278000D01*
X87806818Y-77304901D01*
X87679426Y-77357668D01*
X87564776Y-77434274D01*
X87467274Y-77531776D01*
X87390668Y-77646426D01*
X87337901Y-77773818D01*
X87311000Y-77909056D01*
X87311000Y-77970894D01*
X86431895Y-78850000D01*
X74414560Y-78850000D01*
X74390000Y-78847581D01*
X74365440Y-78850000D01*
X74291983Y-78857235D01*
X74197733Y-78885825D01*
X74110871Y-78932254D01*
X74034736Y-78994736D01*
X74019080Y-79013813D01*
X73323824Y-79709071D01*
X73304736Y-79724736D01*
X73242254Y-79800871D01*
X73195825Y-79887734D01*
X73182550Y-79931497D01*
X73167235Y-79981983D01*
X73164374Y-80011030D01*
X73101742Y-80044508D01*
X72949472Y-80169472D01*
X72824508Y-80321742D01*
X72731651Y-80495466D01*
X72674470Y-80683967D01*
X72660000Y-80830881D01*
X72660000Y-81729120D01*
X72674471Y-81876034D01*
X72731652Y-82064535D01*
X72804060Y-82200000D01*
X72747107Y-82200000D01*
X72120000Y-81572894D01*
X72120000Y-80830880D01*
X72105530Y-80683966D01*
X72048349Y-80495465D01*
X71955492Y-80321742D01*
X71830528Y-80169472D01*
X71678258Y-80044508D01*
X71504534Y-79951651D01*
X71316033Y-79894470D01*
X71120000Y-79875162D01*
X70923966Y-79894470D01*
X70735465Y-79951651D01*
X70561742Y-80044508D01*
X70409472Y-80169472D01*
X70284508Y-80321742D01*
X70191651Y-80495466D01*
X70134470Y-80683967D01*
X70120000Y-80830881D01*
X70120000Y-81729120D01*
X70134471Y-81876034D01*
X70191652Y-82064535D01*
X70284509Y-82238258D01*
X70409473Y-82390528D01*
X70561743Y-82515492D01*
X70735466Y-82608349D01*
X70872771Y-82650000D01*
X70657107Y-82650000D01*
X69581935Y-81574829D01*
X69581935Y-80580000D01*
X69568448Y-80443059D01*
X69528503Y-80311381D01*
X69463638Y-80190026D01*
X69376343Y-80083657D01*
X69269974Y-79996362D01*
X69148619Y-79931497D01*
X69016941Y-79891552D01*
X68880000Y-79878065D01*
X68280000Y-79878065D01*
X68143059Y-79891552D01*
X68011381Y-79931497D01*
X67890026Y-79996362D01*
X67783657Y-80083657D01*
X67696362Y-80190026D01*
X67631497Y-80311381D01*
X67591552Y-80443059D01*
X67578065Y-80580000D01*
X52170000Y-80580000D01*
X52170000Y-75206807D01*
X85204400Y-75206807D01*
X85204400Y-75364393D01*
X85235143Y-75518951D01*
X85295449Y-75664542D01*
X85382999Y-75795570D01*
X85494430Y-75907001D01*
X85625458Y-75994551D01*
X85771049Y-76054857D01*
X85925607Y-76085600D01*
X86083193Y-76085600D01*
X86237751Y-76054857D01*
X86383342Y-75994551D01*
X86514370Y-75907001D01*
X86625801Y-75795570D01*
X86713351Y-75664542D01*
X86773657Y-75518951D01*
X86794358Y-75414881D01*
X87813043Y-74396196D01*
X87837843Y-74375843D01*
X87862153Y-74346222D01*
X87919069Y-74276869D01*
X87950109Y-74218799D01*
X87979427Y-74163948D01*
X88016595Y-74041422D01*
X88026000Y-73945932D01*
X88026000Y-73945922D01*
X88029144Y-73914001D01*
X88026000Y-73882080D01*
X88026000Y-73497200D01*
X90506732Y-73497200D01*
X90602222Y-73487795D01*
X90724748Y-73450627D01*
X90824703Y-73397200D01*
X94493697Y-73397200D01*
X94593652Y-73450627D01*
X94716178Y-73487795D01*
X94811668Y-73497200D01*
X95844362Y-73497200D01*
X97003004Y-74655843D01*
X97023357Y-74680643D01*
X97048157Y-74700996D01*
X97048159Y-74700998D01*
X97101037Y-74744393D01*
X97122332Y-74761870D01*
X97235252Y-74822227D01*
X97357778Y-74859395D01*
X97453268Y-74868800D01*
X97453278Y-74868800D01*
X97485199Y-74871944D01*
X97517120Y-74868800D01*
X98135631Y-74868800D01*
X98223858Y-74927751D01*
X98369449Y-74988057D01*
X98473519Y-75008758D01*
X99390604Y-75925843D01*
X99410957Y-75950643D01*
X99435757Y-75970996D01*
X99435759Y-75970998D01*
X99445038Y-75978613D01*
X99509932Y-76031870D01*
X99622852Y-76092227D01*
X99745378Y-76129395D01*
X99840868Y-76138800D01*
X99840878Y-76138800D01*
X99872799Y-76141944D01*
X99904720Y-76138800D01*
X101771279Y-76138800D01*
X101803200Y-76141944D01*
X101835121Y-76138800D01*
X101835132Y-76138800D01*
X101930622Y-76129395D01*
X102053148Y-76092227D01*
X102166068Y-76031870D01*
X102265043Y-75950643D01*
X102285400Y-75925838D01*
X104675680Y-73535558D01*
X104779751Y-73514857D01*
X104925342Y-73454551D01*
X105056370Y-73367001D01*
X105167801Y-73255570D01*
X105255351Y-73124542D01*
X105315657Y-72978951D01*
X105346400Y-72824393D01*
X105346400Y-72666807D01*
X105315657Y-72512249D01*
X105255351Y-72366658D01*
X105167801Y-72235630D01*
X105056370Y-72124199D01*
X104925342Y-72036649D01*
X104779751Y-71976343D01*
X104625193Y-71945600D01*
X104467607Y-71945600D01*
X104313049Y-71976343D01*
X104167458Y-72036649D01*
X104036430Y-72124199D01*
X103924999Y-72235630D01*
X103837449Y-72366658D01*
X103777143Y-72512249D01*
X103756442Y-72616320D01*
X101533962Y-74838800D01*
X100142039Y-74838800D01*
X99392758Y-74089519D01*
X99372057Y-73985449D01*
X99311751Y-73839858D01*
X99224201Y-73708830D01*
X99112770Y-73597399D01*
X98996302Y-73519578D01*
X99021899Y-73457782D01*
X99043896Y-73347200D01*
X99949840Y-73347200D01*
X99974400Y-73349619D01*
X99998960Y-73347200D01*
X100072417Y-73339965D01*
X100166667Y-73311375D01*
X100253529Y-73264946D01*
X100329664Y-73202464D01*
X100345329Y-73183376D01*
X101553107Y-71975600D01*
X102620622Y-71975600D01*
X102656068Y-72061174D01*
X102732674Y-72175824D01*
X102830176Y-72273326D01*
X102944826Y-72349932D01*
X103072218Y-72402699D01*
X103207456Y-72429600D01*
X103345344Y-72429600D01*
X103480582Y-72402699D01*
X103607974Y-72349932D01*
X103722624Y-72273326D01*
X103820126Y-72175824D01*
X103896732Y-72061174D01*
X103949499Y-71933782D01*
X103976400Y-71798544D01*
X103976400Y-71660656D01*
X103949499Y-71525418D01*
X103896732Y-71398026D01*
X103820126Y-71283376D01*
X103722624Y-71185874D01*
X103607974Y-71109268D01*
X103480582Y-71056501D01*
X103345344Y-71029600D01*
X103248670Y-71029600D01*
X103214667Y-71011425D01*
X103120417Y-70982835D01*
X103046960Y-70975600D01*
X103022400Y-70973181D01*
X102997840Y-70975600D01*
X101370549Y-70975600D01*
X101345999Y-70973182D01*
X101321449Y-70975600D01*
X101321440Y-70975600D01*
X101247983Y-70982835D01*
X101153733Y-71011425D01*
X101066871Y-71057854D01*
X100990736Y-71120336D01*
X100980000Y-71133418D01*
X100980000Y-67224821D01*
X101041743Y-67275492D01*
X101215466Y-67368349D01*
X101403967Y-67425530D01*
X101600000Y-67444838D01*
X101796034Y-67425530D01*
X101984535Y-67368349D01*
X102158258Y-67275492D01*
X102310528Y-67150528D01*
X102435492Y-66998258D01*
X102528349Y-66824535D01*
X102585530Y-66636033D01*
X102600000Y-66489119D01*
X102600000Y-65590881D01*
X103140000Y-65590881D01*
X103140000Y-66489120D01*
X103154471Y-66636034D01*
X103211652Y-66824535D01*
X103304509Y-66998258D01*
X103429473Y-67150528D01*
X103581743Y-67275492D01*
X103755466Y-67368349D01*
X103943967Y-67425530D01*
X104140000Y-67444838D01*
X104336034Y-67425530D01*
X104524535Y-67368349D01*
X104698258Y-67275492D01*
X104850528Y-67150528D01*
X104975492Y-66998258D01*
X105068349Y-66824535D01*
X105125530Y-66636033D01*
X105140000Y-66489119D01*
X105140000Y-65590881D01*
X105680000Y-65590881D01*
X105680000Y-66489120D01*
X105694471Y-66636034D01*
X105751652Y-66824535D01*
X105844509Y-66998258D01*
X105969473Y-67150528D01*
X106121743Y-67275492D01*
X106295466Y-67368349D01*
X106483967Y-67425530D01*
X106680000Y-67444838D01*
X106876034Y-67425530D01*
X107064535Y-67368349D01*
X107238258Y-67275492D01*
X107390528Y-67150528D01*
X107515492Y-66998258D01*
X107608349Y-66824535D01*
X107665530Y-66636033D01*
X107680000Y-66489119D01*
X107680000Y-65590881D01*
X108220000Y-65590881D01*
X108220000Y-66489120D01*
X108234471Y-66636034D01*
X108291652Y-66824535D01*
X108384509Y-66998258D01*
X108509473Y-67150528D01*
X108661743Y-67275492D01*
X108835466Y-67368349D01*
X109023967Y-67425530D01*
X109220000Y-67444838D01*
X109416034Y-67425530D01*
X109604535Y-67368349D01*
X109778258Y-67275492D01*
X109930528Y-67150528D01*
X110055492Y-66998258D01*
X110148349Y-66824535D01*
X110205530Y-66636033D01*
X110220000Y-66489119D01*
X110220000Y-65590881D01*
X110760000Y-65590881D01*
X110760000Y-66489120D01*
X110774471Y-66636034D01*
X110831652Y-66824535D01*
X110924509Y-66998258D01*
X111049473Y-67150528D01*
X111201743Y-67275492D01*
X111375466Y-67368349D01*
X111563967Y-67425530D01*
X111760000Y-67444838D01*
X111956034Y-67425530D01*
X112144535Y-67368349D01*
X112318258Y-67275492D01*
X112470528Y-67150528D01*
X112595492Y-66998258D01*
X112688349Y-66824535D01*
X112745530Y-66636033D01*
X112760000Y-66489119D01*
X112760000Y-65590881D01*
X113300000Y-65590881D01*
X113300000Y-66489120D01*
X113314471Y-66636034D01*
X113371652Y-66824535D01*
X113464509Y-66998258D01*
X113589473Y-67150528D01*
X113741743Y-67275492D01*
X113915466Y-67368349D01*
X114103967Y-67425530D01*
X114300000Y-67444838D01*
X114496034Y-67425530D01*
X114684535Y-67368349D01*
X114858258Y-67275492D01*
X115010528Y-67150528D01*
X115135492Y-66998258D01*
X115228349Y-66824535D01*
X115285530Y-66636033D01*
X115300000Y-66489119D01*
X115300000Y-65590881D01*
X115840000Y-65590881D01*
X115840000Y-66489120D01*
X115854471Y-66636034D01*
X115911652Y-66824535D01*
X116004509Y-66998258D01*
X116129473Y-67150528D01*
X116281743Y-67275492D01*
X116455466Y-67368349D01*
X116643967Y-67425530D01*
X116840000Y-67444838D01*
X117036034Y-67425530D01*
X117224535Y-67368349D01*
X117398258Y-67275492D01*
X117550528Y-67150528D01*
X117675492Y-66998258D01*
X117768349Y-66824535D01*
X117825530Y-66636033D01*
X117840000Y-66489119D01*
X117840000Y-66360000D01*
X124378065Y-66360000D01*
X124378065Y-68260000D01*
X124385788Y-68338414D01*
X124408660Y-68413814D01*
X124445803Y-68483303D01*
X124495789Y-68544211D01*
X124556697Y-68594197D01*
X124626186Y-68631340D01*
X124701586Y-68654212D01*
X124780000Y-68661935D01*
X125078130Y-68661935D01*
X124869425Y-68801387D01*
X124681387Y-68989425D01*
X124533646Y-69210535D01*
X124431880Y-69456220D01*
X124380000Y-69717037D01*
X124380000Y-69982963D01*
X124431880Y-70243780D01*
X124533646Y-70489465D01*
X124681387Y-70710575D01*
X124869425Y-70898613D01*
X125090535Y-71046354D01*
X125268332Y-71120000D01*
X125090535Y-71193646D01*
X124869425Y-71341387D01*
X124681387Y-71529425D01*
X124533646Y-71750535D01*
X124431880Y-71996220D01*
X124380000Y-72257037D01*
X124380000Y-72522963D01*
X124431880Y-72783780D01*
X124533646Y-73029465D01*
X124681387Y-73250575D01*
X124869425Y-73438613D01*
X125090535Y-73586354D01*
X125268332Y-73660000D01*
X125090535Y-73733646D01*
X124869425Y-73881387D01*
X124681387Y-74069425D01*
X124533646Y-74290535D01*
X124431880Y-74536220D01*
X124380000Y-74797037D01*
X124380000Y-75062963D01*
X124431880Y-75323780D01*
X124533646Y-75569465D01*
X124681387Y-75790575D01*
X124869425Y-75978613D01*
X125090535Y-76126354D01*
X125137627Y-76145860D01*
X125043498Y-76184850D01*
X124940221Y-76397378D01*
X125730000Y-77187157D01*
X126519779Y-76397378D01*
X126416502Y-76184850D01*
X126322338Y-76145874D01*
X126369465Y-76126354D01*
X126590575Y-75978613D01*
X126778613Y-75790575D01*
X126926354Y-75569465D01*
X127000000Y-75391668D01*
X127073646Y-75569465D01*
X127221387Y-75790575D01*
X127409425Y-75978613D01*
X127630535Y-76126354D01*
X127677627Y-76145860D01*
X127583498Y-76184850D01*
X127480221Y-76397378D01*
X128270000Y-77187157D01*
X129059779Y-76397378D01*
X128956502Y-76184850D01*
X128862338Y-76145874D01*
X128909465Y-76126354D01*
X129130575Y-75978613D01*
X129318613Y-75790575D01*
X129466354Y-75569465D01*
X129568120Y-75323780D01*
X129620000Y-75062963D01*
X129620000Y-74797037D01*
X129568120Y-74536220D01*
X129466354Y-74290535D01*
X129318613Y-74069425D01*
X129130575Y-73881387D01*
X128909465Y-73733646D01*
X128731668Y-73660000D01*
X128909465Y-73586354D01*
X129130575Y-73438613D01*
X129318613Y-73250575D01*
X129466354Y-73029465D01*
X129568120Y-72783780D01*
X129620000Y-72522963D01*
X129620000Y-72257037D01*
X129568120Y-71996220D01*
X129466354Y-71750535D01*
X129318613Y-71529425D01*
X129130575Y-71341387D01*
X128909465Y-71193646D01*
X128731668Y-71120000D01*
X128909465Y-71046354D01*
X129130575Y-70898613D01*
X129318613Y-70710575D01*
X129466354Y-70489465D01*
X129568120Y-70243780D01*
X129620000Y-69982963D01*
X129620000Y-69717037D01*
X129568120Y-69456220D01*
X129466354Y-69210535D01*
X129318613Y-68989425D01*
X129130575Y-68801387D01*
X128909465Y-68653646D01*
X128731668Y-68580000D01*
X128909465Y-68506354D01*
X129130575Y-68358613D01*
X129318613Y-68170575D01*
X129466354Y-67949465D01*
X129568120Y-67703780D01*
X129620000Y-67442963D01*
X129620000Y-67177037D01*
X129568120Y-66916220D01*
X129466354Y-66670535D01*
X129318613Y-66449425D01*
X129130575Y-66261387D01*
X128909465Y-66113646D01*
X128663780Y-66011880D01*
X128402963Y-65960000D01*
X128137037Y-65960000D01*
X127876220Y-66011880D01*
X127630535Y-66113646D01*
X127409425Y-66261387D01*
X127221387Y-66449425D01*
X127081935Y-66658130D01*
X127081935Y-66360000D01*
X127074212Y-66281586D01*
X127051340Y-66206186D01*
X127014197Y-66136697D01*
X126964211Y-66075789D01*
X126903303Y-66025803D01*
X126833814Y-65988660D01*
X126758414Y-65965788D01*
X126680000Y-65958065D01*
X124780000Y-65958065D01*
X124701586Y-65965788D01*
X124626186Y-65988660D01*
X124556697Y-66025803D01*
X124495789Y-66075789D01*
X124445803Y-66136697D01*
X124408660Y-66206186D01*
X124385788Y-66281586D01*
X124378065Y-66360000D01*
X117840000Y-66360000D01*
X117840000Y-65590880D01*
X117825530Y-65443966D01*
X117768349Y-65255465D01*
X117675492Y-65081742D01*
X117550528Y-64929472D01*
X117398258Y-64804508D01*
X117224534Y-64711651D01*
X117036033Y-64654470D01*
X116840000Y-64635162D01*
X116643966Y-64654470D01*
X116455465Y-64711651D01*
X116281742Y-64804508D01*
X116129472Y-64929472D01*
X116004508Y-65081742D01*
X115911651Y-65255466D01*
X115854470Y-65443967D01*
X115840000Y-65590881D01*
X115300000Y-65590881D01*
X115300000Y-65590880D01*
X115285530Y-65443966D01*
X115228349Y-65255465D01*
X115135492Y-65081742D01*
X115010528Y-64929472D01*
X114858258Y-64804508D01*
X114684534Y-64711651D01*
X114496033Y-64654470D01*
X114300000Y-64635162D01*
X114103966Y-64654470D01*
X113915465Y-64711651D01*
X113741742Y-64804508D01*
X113589472Y-64929472D01*
X113464508Y-65081742D01*
X113371651Y-65255466D01*
X113314470Y-65443967D01*
X113300000Y-65590881D01*
X112760000Y-65590881D01*
X112760000Y-65590880D01*
X112745530Y-65443966D01*
X112688349Y-65255465D01*
X112595492Y-65081742D01*
X112470528Y-64929472D01*
X112318258Y-64804508D01*
X112144534Y-64711651D01*
X111956033Y-64654470D01*
X111760000Y-64635162D01*
X111563966Y-64654470D01*
X111375465Y-64711651D01*
X111201742Y-64804508D01*
X111049472Y-64929472D01*
X110924508Y-65081742D01*
X110831651Y-65255466D01*
X110774470Y-65443967D01*
X110760000Y-65590881D01*
X110220000Y-65590881D01*
X110220000Y-65590880D01*
X110205530Y-65443966D01*
X110148349Y-65255465D01*
X110055492Y-65081742D01*
X109930528Y-64929472D01*
X109778258Y-64804508D01*
X109604534Y-64711651D01*
X109416033Y-64654470D01*
X109220000Y-64635162D01*
X109023966Y-64654470D01*
X108835465Y-64711651D01*
X108661742Y-64804508D01*
X108509472Y-64929472D01*
X108384508Y-65081742D01*
X108291651Y-65255466D01*
X108234470Y-65443967D01*
X108220000Y-65590881D01*
X107680000Y-65590881D01*
X107680000Y-65590880D01*
X107665530Y-65443966D01*
X107608349Y-65255465D01*
X107515492Y-65081742D01*
X107390528Y-64929472D01*
X107238258Y-64804508D01*
X107064534Y-64711651D01*
X106876033Y-64654470D01*
X106680000Y-64635162D01*
X106483966Y-64654470D01*
X106295465Y-64711651D01*
X106121742Y-64804508D01*
X105969472Y-64929472D01*
X105844508Y-65081742D01*
X105751651Y-65255466D01*
X105694470Y-65443967D01*
X105680000Y-65590881D01*
X105140000Y-65590881D01*
X105140000Y-65590880D01*
X105125530Y-65443966D01*
X105068349Y-65255465D01*
X104975492Y-65081742D01*
X104850528Y-64929472D01*
X104698258Y-64804508D01*
X104524534Y-64711651D01*
X104336033Y-64654470D01*
X104140000Y-64635162D01*
X103943966Y-64654470D01*
X103755465Y-64711651D01*
X103581742Y-64804508D01*
X103429472Y-64929472D01*
X103304508Y-65081742D01*
X103211651Y-65255466D01*
X103154470Y-65443967D01*
X103140000Y-65590881D01*
X102600000Y-65590881D01*
X102600000Y-65590880D01*
X102585530Y-65443966D01*
X102528349Y-65255465D01*
X102435492Y-65081742D01*
X102310528Y-64929472D01*
X102158258Y-64804508D01*
X101984534Y-64711651D01*
X101796033Y-64654470D01*
X101600000Y-64635162D01*
X101403966Y-64654470D01*
X101215465Y-64711651D01*
X101130000Y-64757333D01*
X101130000Y-64640407D01*
X101099257Y-64485849D01*
X101038951Y-64340258D01*
X100951401Y-64209230D01*
X100839970Y-64097799D01*
X100708942Y-64010249D01*
X100563351Y-63949943D01*
X100408793Y-63919200D01*
X100251207Y-63919200D01*
X100096649Y-63949943D01*
X99951058Y-64010249D01*
X99820030Y-64097799D01*
X99708599Y-64209230D01*
X99621049Y-64340258D01*
X99560743Y-64485849D01*
X99530000Y-64640407D01*
X99530000Y-64757333D01*
X99444534Y-64711651D01*
X99256033Y-64654470D01*
X99060000Y-64635162D01*
X98863966Y-64654470D01*
X98675465Y-64711651D01*
X98501742Y-64804508D01*
X98349472Y-64929472D01*
X98224508Y-65081742D01*
X98131651Y-65255466D01*
X98074470Y-65443967D01*
X98060000Y-65590881D01*
X98060000Y-66489120D01*
X98074471Y-66636034D01*
X98131652Y-66824535D01*
X98224509Y-66998258D01*
X98349473Y-67150528D01*
X98501743Y-67275492D01*
X98675466Y-67368349D01*
X98863967Y-67425530D01*
X99060000Y-67444838D01*
X99256034Y-67425530D01*
X99444535Y-67368349D01*
X99618258Y-67275492D01*
X99680000Y-67224822D01*
X99680001Y-70915102D01*
X99654526Y-70876976D01*
X99557024Y-70779474D01*
X99442374Y-70702868D01*
X99314982Y-70650101D01*
X99179744Y-70623200D01*
X99041856Y-70623200D01*
X98906618Y-70650101D01*
X98779226Y-70702868D01*
X98664576Y-70779474D01*
X98620850Y-70823200D01*
X98119349Y-70823200D01*
X98094799Y-70820782D01*
X98070249Y-70823200D01*
X98070240Y-70823200D01*
X97996783Y-70830435D01*
X97902533Y-70859025D01*
X97815671Y-70905454D01*
X97739536Y-70967936D01*
X97723879Y-70987014D01*
X97301419Y-71409476D01*
X97282337Y-71425136D01*
X97219855Y-71501271D01*
X97180323Y-71575230D01*
X97173426Y-71588133D01*
X97144835Y-71682383D01*
X97135181Y-71780400D01*
X97137601Y-71804970D01*
X97137601Y-72255649D01*
X97093874Y-72299376D01*
X97017268Y-72414026D01*
X96964501Y-72541418D01*
X96937600Y-72676656D01*
X96937600Y-72751962D01*
X96595800Y-72410162D01*
X96575443Y-72385357D01*
X96476468Y-72304130D01*
X96363548Y-72243773D01*
X96241022Y-72206605D01*
X96145532Y-72197200D01*
X96145521Y-72197200D01*
X96113600Y-72194056D01*
X96081679Y-72197200D01*
X94811668Y-72197200D01*
X94716178Y-72206605D01*
X94593652Y-72243773D01*
X94493697Y-72297200D01*
X90824703Y-72297200D01*
X90724748Y-72243773D01*
X90602222Y-72206605D01*
X90506732Y-72197200D01*
X87560320Y-72197200D01*
X87528399Y-72194056D01*
X87496478Y-72197200D01*
X87496468Y-72197200D01*
X87460525Y-72200740D01*
X87454793Y-72199600D01*
X87297207Y-72199600D01*
X87142649Y-72230343D01*
X86997058Y-72290649D01*
X86866030Y-72378199D01*
X86754599Y-72489630D01*
X86667049Y-72620658D01*
X86606743Y-72766249D01*
X86576000Y-72920807D01*
X86576000Y-73078393D01*
X86606743Y-73232951D01*
X86667049Y-73378542D01*
X86726000Y-73466769D01*
X86726000Y-73644761D01*
X85875119Y-74495642D01*
X85771049Y-74516343D01*
X85625458Y-74576649D01*
X85494430Y-74664199D01*
X85382999Y-74775630D01*
X85295449Y-74906658D01*
X85235143Y-75052249D01*
X85204400Y-75206807D01*
X52170000Y-75206807D01*
X52170000Y-65590881D01*
X67580000Y-65590881D01*
X67580000Y-66489120D01*
X67594471Y-66636034D01*
X67651652Y-66824535D01*
X67744509Y-66998258D01*
X67869473Y-67150528D01*
X68021743Y-67275492D01*
X68195466Y-67368349D01*
X68383967Y-67425530D01*
X68580000Y-67444838D01*
X68776034Y-67425530D01*
X68964535Y-67368349D01*
X69138258Y-67275492D01*
X69290528Y-67150528D01*
X69415492Y-66998258D01*
X69508349Y-66824535D01*
X69565530Y-66636033D01*
X69580000Y-66489119D01*
X69580000Y-66240000D01*
X70020000Y-66240000D01*
X70020000Y-66640000D01*
X70080154Y-66850756D01*
X70180269Y-67045727D01*
X70316497Y-67217421D01*
X70483603Y-67359239D01*
X70675166Y-67465731D01*
X70753253Y-67477061D01*
X70920000Y-67394267D01*
X70920000Y-66240000D01*
X71320000Y-66240000D01*
X71320000Y-67394267D01*
X71486747Y-67477061D01*
X71564834Y-67465731D01*
X71756397Y-67359239D01*
X71923503Y-67217421D01*
X72059731Y-67045727D01*
X72159846Y-66850756D01*
X72220000Y-66640000D01*
X72220000Y-66240000D01*
X71320000Y-66240000D01*
X70920000Y-66240000D01*
X70020000Y-66240000D01*
X69580000Y-66240000D01*
X69580000Y-65590880D01*
X69565530Y-65443966D01*
X69564327Y-65440000D01*
X70020000Y-65440000D01*
X70020000Y-65840000D01*
X70920000Y-65840000D01*
X70920000Y-64685733D01*
X71320000Y-64685733D01*
X71320000Y-65840000D01*
X72220000Y-65840000D01*
X72220000Y-65590881D01*
X72660000Y-65590881D01*
X72660000Y-66489120D01*
X72674471Y-66636034D01*
X72731652Y-66824535D01*
X72824509Y-66998258D01*
X72949473Y-67150528D01*
X73101743Y-67275492D01*
X73275466Y-67368349D01*
X73463967Y-67425530D01*
X73660000Y-67444838D01*
X73856034Y-67425530D01*
X74044535Y-67368349D01*
X74218258Y-67275492D01*
X74370528Y-67150528D01*
X74495492Y-66998258D01*
X74588349Y-66824535D01*
X74645530Y-66636033D01*
X74660000Y-66489119D01*
X74660000Y-65590881D01*
X75200000Y-65590881D01*
X75200000Y-66489120D01*
X75214471Y-66636034D01*
X75271652Y-66824535D01*
X75364509Y-66998258D01*
X75489473Y-67150528D01*
X75641743Y-67275492D01*
X75650000Y-67279906D01*
X75650001Y-70183028D01*
X75578599Y-70254430D01*
X75491049Y-70385458D01*
X75430743Y-70531049D01*
X75400000Y-70685607D01*
X75400000Y-70843193D01*
X75430743Y-70997751D01*
X75491049Y-71143342D01*
X75578599Y-71274370D01*
X75690030Y-71385801D01*
X75821058Y-71473351D01*
X75966649Y-71533657D01*
X76121207Y-71564400D01*
X76278793Y-71564400D01*
X76433351Y-71533657D01*
X76578942Y-71473351D01*
X76709970Y-71385801D01*
X76821401Y-71274370D01*
X76908951Y-71143342D01*
X76969257Y-70997751D01*
X77000000Y-70843193D01*
X77000000Y-70685607D01*
X76969257Y-70531049D01*
X76908951Y-70385458D01*
X76821401Y-70254430D01*
X76750000Y-70183029D01*
X76750000Y-69872807D01*
X86525200Y-69872807D01*
X86525200Y-70030393D01*
X86555943Y-70184951D01*
X86616249Y-70330542D01*
X86703799Y-70461570D01*
X86815230Y-70573001D01*
X86946258Y-70660551D01*
X87091849Y-70720857D01*
X87246407Y-70751600D01*
X87403993Y-70751600D01*
X87558551Y-70720857D01*
X87704142Y-70660551D01*
X87835170Y-70573001D01*
X87946601Y-70461570D01*
X88034151Y-70330542D01*
X88094457Y-70184951D01*
X88125200Y-70030393D01*
X88125200Y-69872807D01*
X88094457Y-69718249D01*
X88034151Y-69572658D01*
X87946601Y-69441630D01*
X87835170Y-69330199D01*
X87704142Y-69242649D01*
X87558551Y-69182343D01*
X87403993Y-69151600D01*
X87246407Y-69151600D01*
X87091849Y-69182343D01*
X86946258Y-69242649D01*
X86815230Y-69330199D01*
X86703799Y-69441630D01*
X86616249Y-69572658D01*
X86555943Y-69718249D01*
X86525200Y-69872807D01*
X76750000Y-69872807D01*
X76750000Y-67279906D01*
X76758258Y-67275492D01*
X76910528Y-67150528D01*
X77035492Y-66998258D01*
X77128349Y-66824535D01*
X77185530Y-66636033D01*
X77200000Y-66489119D01*
X77200000Y-65590881D01*
X77740000Y-65590881D01*
X77740000Y-66489120D01*
X77754471Y-66636034D01*
X77811652Y-66824535D01*
X77904509Y-66998258D01*
X78029473Y-67150528D01*
X78181743Y-67275492D01*
X78355466Y-67368349D01*
X78543967Y-67425530D01*
X78740000Y-67444838D01*
X78936034Y-67425530D01*
X79124535Y-67368349D01*
X79298258Y-67275492D01*
X79450528Y-67150528D01*
X79575492Y-66998258D01*
X79668349Y-66824535D01*
X79725530Y-66636033D01*
X79740000Y-66489119D01*
X79740000Y-65590881D01*
X80280000Y-65590881D01*
X80280000Y-66489120D01*
X80294471Y-66636034D01*
X80351652Y-66824535D01*
X80444509Y-66998258D01*
X80569473Y-67150528D01*
X80721743Y-67275492D01*
X80895466Y-67368349D01*
X81083967Y-67425530D01*
X81280000Y-67444838D01*
X81476034Y-67425530D01*
X81664535Y-67368349D01*
X81838258Y-67275492D01*
X81990528Y-67150528D01*
X82115492Y-66998258D01*
X82208349Y-66824535D01*
X82265530Y-66636033D01*
X82280000Y-66489119D01*
X82280000Y-65590881D01*
X82820000Y-65590881D01*
X82820000Y-66489120D01*
X82834471Y-66636034D01*
X82891652Y-66824535D01*
X82984509Y-66998258D01*
X83109473Y-67150528D01*
X83261743Y-67275492D01*
X83435466Y-67368349D01*
X83623967Y-67425530D01*
X83820000Y-67444838D01*
X84016034Y-67425530D01*
X84204535Y-67368349D01*
X84378258Y-67275492D01*
X84530528Y-67150528D01*
X84655492Y-66998258D01*
X84748349Y-66824535D01*
X84805530Y-66636033D01*
X84820000Y-66489119D01*
X84820000Y-65590881D01*
X85360000Y-65590881D01*
X85360000Y-66489120D01*
X85374471Y-66636034D01*
X85431652Y-66824535D01*
X85524509Y-66998258D01*
X85649473Y-67150528D01*
X85801743Y-67275492D01*
X85975466Y-67368349D01*
X86163967Y-67425530D01*
X86360000Y-67444838D01*
X86556034Y-67425530D01*
X86744535Y-67368349D01*
X86918258Y-67275492D01*
X87070528Y-67150528D01*
X87195492Y-66998258D01*
X87288349Y-66824535D01*
X87345530Y-66636033D01*
X87360000Y-66489119D01*
X87360000Y-65590881D01*
X87900000Y-65590881D01*
X87900000Y-66489120D01*
X87914471Y-66636034D01*
X87971652Y-66824535D01*
X88064509Y-66998258D01*
X88189473Y-67150528D01*
X88341743Y-67275492D01*
X88515466Y-67368349D01*
X88703967Y-67425530D01*
X88900000Y-67444838D01*
X89096034Y-67425530D01*
X89284535Y-67368349D01*
X89458258Y-67275492D01*
X89610528Y-67150528D01*
X89735492Y-66998258D01*
X89828349Y-66824535D01*
X89885530Y-66636033D01*
X89900000Y-66489119D01*
X89900000Y-65590880D01*
X89885530Y-65443966D01*
X89828349Y-65255465D01*
X89735492Y-65081742D01*
X89610528Y-64929472D01*
X89569448Y-64895759D01*
X89621169Y-64861200D01*
X90812662Y-64861200D01*
X90729472Y-64929472D01*
X90604508Y-65081742D01*
X90511651Y-65255466D01*
X90454470Y-65443967D01*
X90440000Y-65590881D01*
X90440000Y-66489120D01*
X90454471Y-66636034D01*
X90511652Y-66824535D01*
X90604509Y-66998258D01*
X90729473Y-67150528D01*
X90881743Y-67275492D01*
X91055466Y-67368349D01*
X91243967Y-67425530D01*
X91440000Y-67444838D01*
X91636034Y-67425530D01*
X91824535Y-67368349D01*
X91998258Y-67275492D01*
X92060000Y-67224822D01*
X92060000Y-67977487D01*
X92056856Y-68009409D01*
X92060000Y-68041330D01*
X92060000Y-68041340D01*
X92069405Y-68136830D01*
X92106573Y-68259356D01*
X92166930Y-68372277D01*
X92201019Y-68413814D01*
X92248157Y-68471252D01*
X92272962Y-68491609D01*
X93694200Y-69912847D01*
X93717299Y-69968614D01*
X93793905Y-70083264D01*
X93891407Y-70180766D01*
X94006057Y-70257372D01*
X94133449Y-70310139D01*
X94268687Y-70337040D01*
X94406575Y-70337040D01*
X94541813Y-70310139D01*
X94669205Y-70257372D01*
X94783855Y-70180766D01*
X94881357Y-70083264D01*
X94957963Y-69968614D01*
X95010730Y-69841222D01*
X95037631Y-69705984D01*
X95037631Y-69568096D01*
X95010730Y-69432858D01*
X94957963Y-69305466D01*
X94881357Y-69190816D01*
X94783855Y-69093314D01*
X94669205Y-69016708D01*
X94613438Y-68993609D01*
X93360000Y-67740171D01*
X93360000Y-67224821D01*
X93421743Y-67275492D01*
X93595466Y-67368349D01*
X93783967Y-67425530D01*
X93980000Y-67444838D01*
X94176034Y-67425530D01*
X94364535Y-67368349D01*
X94538258Y-67275492D01*
X94690528Y-67150528D01*
X94815492Y-66998258D01*
X94908349Y-66824535D01*
X94965530Y-66636033D01*
X94980000Y-66489119D01*
X94980000Y-65590881D01*
X95520000Y-65590881D01*
X95520000Y-66489120D01*
X95534471Y-66636034D01*
X95591652Y-66824535D01*
X95684509Y-66998258D01*
X95809473Y-67150528D01*
X95961743Y-67275492D01*
X96135466Y-67368349D01*
X96323967Y-67425530D01*
X96520000Y-67444838D01*
X96716034Y-67425530D01*
X96904535Y-67368349D01*
X97078258Y-67275492D01*
X97230528Y-67150528D01*
X97355492Y-66998258D01*
X97448349Y-66824535D01*
X97505530Y-66636033D01*
X97520000Y-66489119D01*
X97520000Y-65590880D01*
X97505530Y-65443966D01*
X97448349Y-65255465D01*
X97355492Y-65081742D01*
X97230528Y-64929472D01*
X97078258Y-64804508D01*
X96904534Y-64711651D01*
X96716033Y-64654470D01*
X96520000Y-64635162D01*
X96323966Y-64654470D01*
X96135465Y-64711651D01*
X95961742Y-64804508D01*
X95809472Y-64929472D01*
X95684508Y-65081742D01*
X95591651Y-65255466D01*
X95534470Y-65443967D01*
X95520000Y-65590881D01*
X94980000Y-65590881D01*
X94980000Y-65590880D01*
X94965530Y-65443966D01*
X94908349Y-65255465D01*
X94815492Y-65081742D01*
X94690528Y-64929472D01*
X94538258Y-64804508D01*
X94364534Y-64711651D01*
X94176033Y-64654470D01*
X93980000Y-64635162D01*
X93783966Y-64654470D01*
X93595465Y-64711651D01*
X93421742Y-64804508D01*
X93360000Y-64855178D01*
X93360000Y-64801924D01*
X93363144Y-64770000D01*
X93360000Y-64738076D01*
X93360000Y-64738068D01*
X93350595Y-64642578D01*
X93313427Y-64520052D01*
X93253070Y-64407132D01*
X93192199Y-64332960D01*
X93192196Y-64332957D01*
X93171843Y-64308157D01*
X93147043Y-64287804D01*
X92633400Y-63774162D01*
X92613043Y-63749357D01*
X92514068Y-63668130D01*
X92401148Y-63607773D01*
X92278622Y-63570605D01*
X92183132Y-63561200D01*
X92183121Y-63561200D01*
X92151200Y-63558056D01*
X92119279Y-63561200D01*
X89621169Y-63561200D01*
X89532942Y-63502249D01*
X89387351Y-63441943D01*
X89232793Y-63411200D01*
X89075207Y-63411200D01*
X88920649Y-63441943D01*
X88775058Y-63502249D01*
X88644030Y-63589799D01*
X88532599Y-63701230D01*
X88445049Y-63832258D01*
X88384743Y-63977849D01*
X88354000Y-64132407D01*
X88354000Y-64289993D01*
X88384743Y-64444551D01*
X88445049Y-64590142D01*
X88524423Y-64708934D01*
X88515465Y-64711651D01*
X88341742Y-64804508D01*
X88189472Y-64929472D01*
X88064508Y-65081742D01*
X87971651Y-65255466D01*
X87914470Y-65443967D01*
X87900000Y-65590881D01*
X87360000Y-65590881D01*
X87360000Y-65590880D01*
X87345530Y-65443966D01*
X87288349Y-65255465D01*
X87195492Y-65081742D01*
X87070528Y-64929472D01*
X86918258Y-64804508D01*
X86744534Y-64711651D01*
X86556033Y-64654470D01*
X86360000Y-64635162D01*
X86163966Y-64654470D01*
X85975465Y-64711651D01*
X85801742Y-64804508D01*
X85649472Y-64929472D01*
X85524508Y-65081742D01*
X85431651Y-65255466D01*
X85374470Y-65443967D01*
X85360000Y-65590881D01*
X84820000Y-65590881D01*
X84820000Y-65590880D01*
X84805530Y-65443966D01*
X84748349Y-65255465D01*
X84655492Y-65081742D01*
X84530528Y-64929472D01*
X84378258Y-64804508D01*
X84204534Y-64711651D01*
X84016033Y-64654470D01*
X83820000Y-64635162D01*
X83623966Y-64654470D01*
X83435465Y-64711651D01*
X83261742Y-64804508D01*
X83109472Y-64929472D01*
X82984508Y-65081742D01*
X82891651Y-65255466D01*
X82834470Y-65443967D01*
X82820000Y-65590881D01*
X82280000Y-65590881D01*
X82280000Y-65590880D01*
X82265530Y-65443966D01*
X82208349Y-65255465D01*
X82115492Y-65081742D01*
X81990528Y-64929472D01*
X81838258Y-64804508D01*
X81664534Y-64711651D01*
X81476033Y-64654470D01*
X81280000Y-64635162D01*
X81083966Y-64654470D01*
X80895465Y-64711651D01*
X80721742Y-64804508D01*
X80569472Y-64929472D01*
X80444508Y-65081742D01*
X80351651Y-65255466D01*
X80294470Y-65443967D01*
X80280000Y-65590881D01*
X79740000Y-65590881D01*
X79740000Y-65590880D01*
X79725530Y-65443966D01*
X79668349Y-65255465D01*
X79575492Y-65081742D01*
X79450528Y-64929472D01*
X79298258Y-64804508D01*
X79124534Y-64711651D01*
X78936033Y-64654470D01*
X78740000Y-64635162D01*
X78543966Y-64654470D01*
X78355465Y-64711651D01*
X78181742Y-64804508D01*
X78029472Y-64929472D01*
X77904508Y-65081742D01*
X77811651Y-65255466D01*
X77754470Y-65443967D01*
X77740000Y-65590881D01*
X77200000Y-65590881D01*
X77200000Y-65590880D01*
X77185530Y-65443966D01*
X77128349Y-65255465D01*
X77035492Y-65081742D01*
X76910528Y-64929472D01*
X76758258Y-64804508D01*
X76584534Y-64711651D01*
X76396033Y-64654470D01*
X76200000Y-64635162D01*
X76003966Y-64654470D01*
X75815465Y-64711651D01*
X75641742Y-64804508D01*
X75489472Y-64929472D01*
X75364508Y-65081742D01*
X75271651Y-65255466D01*
X75214470Y-65443967D01*
X75200000Y-65590881D01*
X74660000Y-65590881D01*
X74660000Y-65590880D01*
X74645530Y-65443966D01*
X74588349Y-65255465D01*
X74495492Y-65081742D01*
X74370528Y-64929472D01*
X74218258Y-64804508D01*
X74044534Y-64711651D01*
X73856033Y-64654470D01*
X73660000Y-64635162D01*
X73463966Y-64654470D01*
X73275465Y-64711651D01*
X73101742Y-64804508D01*
X72949472Y-64929472D01*
X72824508Y-65081742D01*
X72731651Y-65255466D01*
X72674470Y-65443967D01*
X72660000Y-65590881D01*
X72220000Y-65590881D01*
X72220000Y-65440000D01*
X72159846Y-65229244D01*
X72059731Y-65034273D01*
X71923503Y-64862579D01*
X71756397Y-64720761D01*
X71564834Y-64614269D01*
X71486747Y-64602939D01*
X71320000Y-64685733D01*
X70920000Y-64685733D01*
X70753253Y-64602939D01*
X70675166Y-64614269D01*
X70483603Y-64720761D01*
X70316497Y-64862579D01*
X70180269Y-65034273D01*
X70080154Y-65229244D01*
X70020000Y-65440000D01*
X69564327Y-65440000D01*
X69508349Y-65255465D01*
X69415492Y-65081742D01*
X69290528Y-64929472D01*
X69138258Y-64804508D01*
X68964534Y-64711651D01*
X68776033Y-64654470D01*
X68580000Y-64635162D01*
X68383966Y-64654470D01*
X68195465Y-64711651D01*
X68021742Y-64804508D01*
X67869472Y-64929472D01*
X67744508Y-65081742D01*
X67651651Y-65255466D01*
X67594470Y-65443967D01*
X67580000Y-65590881D01*
X52170000Y-65590881D01*
X52170000Y-60010000D01*
X67228065Y-60010000D01*
X67228065Y-61910000D01*
X67235788Y-61988414D01*
X67258660Y-62063814D01*
X67295803Y-62133303D01*
X67345789Y-62194211D01*
X67406697Y-62244197D01*
X67476186Y-62281340D01*
X67551586Y-62304212D01*
X67630000Y-62311935D01*
X69530000Y-62311935D01*
X69608414Y-62304212D01*
X69683814Y-62281340D01*
X69753303Y-62244197D01*
X69814211Y-62194211D01*
X69864197Y-62133303D01*
X69901340Y-62063814D01*
X69910801Y-62032622D01*
X70330221Y-62032622D01*
X70433498Y-62245150D01*
X70697409Y-62354386D01*
X70977560Y-62410037D01*
X71263186Y-62409964D01*
X71543309Y-62354169D01*
X71806502Y-62245150D01*
X71909779Y-62032622D01*
X71120000Y-61242843D01*
X70330221Y-62032622D01*
X69910801Y-62032622D01*
X69924212Y-61988414D01*
X69931935Y-61910000D01*
X69931935Y-61693680D01*
X70047378Y-61749779D01*
X70837157Y-60960000D01*
X71402843Y-60960000D01*
X72192622Y-61749779D01*
X72405150Y-61646502D01*
X72444126Y-61552338D01*
X72463646Y-61599465D01*
X72611387Y-61820575D01*
X72799425Y-62008613D01*
X73020535Y-62156354D01*
X73266220Y-62258120D01*
X73527037Y-62310000D01*
X73792963Y-62310000D01*
X74053780Y-62258120D01*
X74299465Y-62156354D01*
X74520575Y-62008613D01*
X74708613Y-61820575D01*
X74856354Y-61599465D01*
X74930000Y-61421668D01*
X75003646Y-61599465D01*
X75151387Y-61820575D01*
X75339425Y-62008613D01*
X75560535Y-62156354D01*
X75806220Y-62258120D01*
X76067037Y-62310000D01*
X76332963Y-62310000D01*
X76593780Y-62258120D01*
X76839465Y-62156354D01*
X77060575Y-62008613D01*
X77248613Y-61820575D01*
X77396354Y-61599465D01*
X77470000Y-61421668D01*
X77543646Y-61599465D01*
X77691387Y-61820575D01*
X77879425Y-62008613D01*
X78100535Y-62156354D01*
X78346220Y-62258120D01*
X78607037Y-62310000D01*
X78872963Y-62310000D01*
X79133780Y-62258120D01*
X79379465Y-62156354D01*
X79600575Y-62008613D01*
X79788613Y-61820575D01*
X79936354Y-61599465D01*
X80038120Y-61353780D01*
X80090000Y-61092963D01*
X80090000Y-60827037D01*
X80038120Y-60566220D01*
X79936354Y-60320535D01*
X79788613Y-60099425D01*
X79600575Y-59911387D01*
X79379465Y-59763646D01*
X79133780Y-59661880D01*
X78872963Y-59610000D01*
X78607037Y-59610000D01*
X78346220Y-59661880D01*
X78100535Y-59763646D01*
X77879425Y-59911387D01*
X77691387Y-60099425D01*
X77543646Y-60320535D01*
X77470000Y-60498332D01*
X77396354Y-60320535D01*
X77248613Y-60099425D01*
X77060575Y-59911387D01*
X76839465Y-59763646D01*
X76593780Y-59661880D01*
X76332963Y-59610000D01*
X76067037Y-59610000D01*
X75806220Y-59661880D01*
X75560535Y-59763646D01*
X75339425Y-59911387D01*
X75151387Y-60099425D01*
X75003646Y-60320535D01*
X74930000Y-60498332D01*
X74856354Y-60320535D01*
X74708613Y-60099425D01*
X74520575Y-59911387D01*
X74299465Y-59763646D01*
X74053780Y-59661880D01*
X73792963Y-59610000D01*
X73527037Y-59610000D01*
X73266220Y-59661880D01*
X73020535Y-59763646D01*
X72799425Y-59911387D01*
X72611387Y-60099425D01*
X72463646Y-60320535D01*
X72444140Y-60367627D01*
X72405150Y-60273498D01*
X72192622Y-60170221D01*
X71402843Y-60960000D01*
X70837157Y-60960000D01*
X70047378Y-60170221D01*
X69931935Y-60226320D01*
X69931935Y-60010000D01*
X69924212Y-59931586D01*
X69910802Y-59887378D01*
X70330221Y-59887378D01*
X71120000Y-60677157D01*
X71909779Y-59887378D01*
X71806502Y-59674850D01*
X71542591Y-59565614D01*
X71262440Y-59509963D01*
X70976814Y-59510036D01*
X70696691Y-59565831D01*
X70433498Y-59674850D01*
X70330221Y-59887378D01*
X69910802Y-59887378D01*
X69901340Y-59856186D01*
X69864197Y-59786697D01*
X69814211Y-59725789D01*
X69753303Y-59675803D01*
X69683814Y-59638660D01*
X69608414Y-59615788D01*
X69530000Y-59608065D01*
X67630000Y-59608065D01*
X67551586Y-59615788D01*
X67476186Y-59638660D01*
X67406697Y-59675803D01*
X67345789Y-59725789D01*
X67295803Y-59786697D01*
X67258660Y-59856186D01*
X67235788Y-59931586D01*
X67228065Y-60010000D01*
X52170000Y-60010000D01*
X52170000Y-53074908D01*
X52187768Y-52894515D01*
X52238955Y-52725771D01*
X52322080Y-52570255D01*
X52433946Y-52433946D01*
X52570255Y-52322080D01*
X52725771Y-52238955D01*
X52894515Y-52187768D01*
X53074908Y-52170000D01*
X53511674Y-52170000D01*
X53239048Y-52442626D01*
G37*
X53239048Y-52442626D02*
X52866959Y-52999496D01*
X52610660Y-53618257D01*
X52480000Y-54275129D01*
X52480000Y-54944871D01*
X52610660Y-55601743D01*
X52866959Y-56220504D01*
X53239048Y-56777374D01*
X53712626Y-57250952D01*
X54269496Y-57623041D01*
X54888257Y-57879340D01*
X55545129Y-58010000D01*
X56214871Y-58010000D01*
X56871743Y-57879340D01*
X57490504Y-57623041D01*
X58047374Y-57250952D01*
X58520952Y-56777374D01*
X58893041Y-56220504D01*
X59149340Y-55601743D01*
X59280000Y-54944871D01*
X59280000Y-54930000D01*
X67228065Y-54930000D01*
X67228065Y-56830000D01*
X67235788Y-56908414D01*
X67258660Y-56983814D01*
X67295803Y-57053303D01*
X67345789Y-57114211D01*
X67406697Y-57164197D01*
X67476186Y-57201340D01*
X67551586Y-57224212D01*
X67630000Y-57231935D01*
X69530000Y-57231935D01*
X69608414Y-57224212D01*
X69683814Y-57201340D01*
X69753303Y-57164197D01*
X69814211Y-57114211D01*
X69864197Y-57053303D01*
X69901340Y-56983814D01*
X69924212Y-56908414D01*
X69931935Y-56830000D01*
X69931935Y-56531870D01*
X70071387Y-56740575D01*
X70259425Y-56928613D01*
X70480535Y-57076354D01*
X70726220Y-57178120D01*
X70987037Y-57230000D01*
X71252963Y-57230000D01*
X71513780Y-57178120D01*
X71759465Y-57076354D01*
X71980575Y-56928613D01*
X72168613Y-56740575D01*
X72316354Y-56519465D01*
X72390000Y-56341668D01*
X72463646Y-56519465D01*
X72611387Y-56740575D01*
X72799425Y-56928613D01*
X73020535Y-57076354D01*
X73266220Y-57178120D01*
X73527037Y-57230000D01*
X73792963Y-57230000D01*
X74053780Y-57178120D01*
X74299465Y-57076354D01*
X74520575Y-56928613D01*
X74708613Y-56740575D01*
X74856354Y-56519465D01*
X74930000Y-56341668D01*
X75003646Y-56519465D01*
X75151387Y-56740575D01*
X75339425Y-56928613D01*
X75560535Y-57076354D01*
X75806220Y-57178120D01*
X76067037Y-57230000D01*
X76332963Y-57230000D01*
X76593780Y-57178120D01*
X76839465Y-57076354D01*
X77024642Y-56952622D01*
X77950221Y-56952622D01*
X78053498Y-57165150D01*
X78317409Y-57274386D01*
X78597560Y-57330037D01*
X78883186Y-57329964D01*
X79163309Y-57274169D01*
X79426502Y-57165150D01*
X79529779Y-56952622D01*
X78740000Y-56162843D01*
X77950221Y-56952622D01*
X77024642Y-56952622D01*
X77060575Y-56928613D01*
X77248613Y-56740575D01*
X77396354Y-56519465D01*
X77415860Y-56472373D01*
X77454850Y-56566502D01*
X77667378Y-56669779D01*
X78457157Y-55880000D01*
X79022843Y-55880000D01*
X79812622Y-56669779D01*
X80025150Y-56566502D01*
X80064126Y-56472338D01*
X80083646Y-56519465D01*
X80231387Y-56740575D01*
X80419425Y-56928613D01*
X80640535Y-57076354D01*
X80886220Y-57178120D01*
X81147037Y-57230000D01*
X81412963Y-57230000D01*
X81673780Y-57178120D01*
X81919465Y-57076354D01*
X82140575Y-56928613D01*
X82328613Y-56740575D01*
X82476354Y-56519465D01*
X82578120Y-56273780D01*
X82630000Y-56012963D01*
X82630000Y-55747037D01*
X82578120Y-55486220D01*
X82476354Y-55240535D01*
X82328613Y-55019425D01*
X82239188Y-54930000D01*
X90088065Y-54930000D01*
X90088065Y-56830000D01*
X90095788Y-56908414D01*
X90118660Y-56983814D01*
X90155803Y-57053303D01*
X90205789Y-57114211D01*
X90266697Y-57164197D01*
X90336186Y-57201340D01*
X90411586Y-57224212D01*
X90490000Y-57231935D01*
X92390000Y-57231935D01*
X92468414Y-57224212D01*
X92543814Y-57201340D01*
X92613303Y-57164197D01*
X92674211Y-57114211D01*
X92724197Y-57053303D01*
X92761340Y-56983814D01*
X92784212Y-56908414D01*
X92791935Y-56830000D01*
X92791935Y-56531870D01*
X92931387Y-56740575D01*
X93119425Y-56928613D01*
X93340535Y-57076354D01*
X93586220Y-57178120D01*
X93847037Y-57230000D01*
X94112963Y-57230000D01*
X94373780Y-57178120D01*
X94619465Y-57076354D01*
X94840575Y-56928613D01*
X95028613Y-56740575D01*
X95176354Y-56519465D01*
X95250000Y-56341668D01*
X95323646Y-56519465D01*
X95471387Y-56740575D01*
X95659425Y-56928613D01*
X95880535Y-57076354D01*
X96126220Y-57178120D01*
X96387037Y-57230000D01*
X96652963Y-57230000D01*
X96913780Y-57178120D01*
X97159465Y-57076354D01*
X97380575Y-56928613D01*
X97568613Y-56740575D01*
X97716354Y-56519465D01*
X97790000Y-56341668D01*
X97863646Y-56519465D01*
X98011387Y-56740575D01*
X98199425Y-56928613D01*
X98420535Y-57076354D01*
X98666220Y-57178120D01*
X98927037Y-57230000D01*
X99192963Y-57230000D01*
X99453780Y-57178120D01*
X99699465Y-57076354D01*
X99884642Y-56952622D01*
X100810221Y-56952622D01*
X100913498Y-57165150D01*
X101177409Y-57274386D01*
X101457560Y-57330037D01*
X101743186Y-57329964D01*
X102023309Y-57274169D01*
X102286502Y-57165150D01*
X102389779Y-56952622D01*
X101600000Y-56162843D01*
X100810221Y-56952622D01*
X99884642Y-56952622D01*
X99920575Y-56928613D01*
X100108613Y-56740575D01*
X100256354Y-56519465D01*
X100275860Y-56472373D01*
X100314850Y-56566502D01*
X100527378Y-56669779D01*
X101317157Y-55880000D01*
X101882843Y-55880000D01*
X102672622Y-56669779D01*
X102885150Y-56566502D01*
X102924126Y-56472338D01*
X102943646Y-56519465D01*
X103091387Y-56740575D01*
X103279425Y-56928613D01*
X103500535Y-57076354D01*
X103746220Y-57178120D01*
X104007037Y-57230000D01*
X104272963Y-57230000D01*
X104533780Y-57178120D01*
X104779465Y-57076354D01*
X105000575Y-56928613D01*
X105188613Y-56740575D01*
X105336354Y-56519465D01*
X105438120Y-56273780D01*
X105490000Y-56012963D01*
X105490000Y-55747037D01*
X105438120Y-55486220D01*
X105336354Y-55240535D01*
X105188613Y-55019425D01*
X105099188Y-54930000D01*
X112948065Y-54930000D01*
X112948065Y-56830000D01*
X112955788Y-56908414D01*
X112978660Y-56983814D01*
X113015803Y-57053303D01*
X113065789Y-57114211D01*
X113126697Y-57164197D01*
X113196186Y-57201340D01*
X113271586Y-57224212D01*
X113350000Y-57231935D01*
X115250000Y-57231935D01*
X115328414Y-57224212D01*
X115403814Y-57201340D01*
X115473303Y-57164197D01*
X115534211Y-57114211D01*
X115584197Y-57053303D01*
X115621340Y-56983814D01*
X115644212Y-56908414D01*
X115651935Y-56830000D01*
X115651935Y-56531870D01*
X115791387Y-56740575D01*
X115979425Y-56928613D01*
X116200535Y-57076354D01*
X116446220Y-57178120D01*
X116707037Y-57230000D01*
X116972963Y-57230000D01*
X117233780Y-57178120D01*
X117479465Y-57076354D01*
X117700575Y-56928613D01*
X117888613Y-56740575D01*
X118036354Y-56519465D01*
X118110000Y-56341668D01*
X118183646Y-56519465D01*
X118331387Y-56740575D01*
X118519425Y-56928613D01*
X118740535Y-57076354D01*
X118986220Y-57178120D01*
X119247037Y-57230000D01*
X119512963Y-57230000D01*
X119773780Y-57178120D01*
X120019465Y-57076354D01*
X120240575Y-56928613D01*
X120428613Y-56740575D01*
X120576354Y-56519465D01*
X120650000Y-56341668D01*
X120723646Y-56519465D01*
X120871387Y-56740575D01*
X121059425Y-56928613D01*
X121280535Y-57076354D01*
X121526220Y-57178120D01*
X121787037Y-57230000D01*
X122052963Y-57230000D01*
X122313780Y-57178120D01*
X122559465Y-57076354D01*
X122744642Y-56952622D01*
X123670221Y-56952622D01*
X123773498Y-57165150D01*
X124037409Y-57274386D01*
X124317560Y-57330037D01*
X124603186Y-57329964D01*
X124883309Y-57274169D01*
X125146502Y-57165150D01*
X125249779Y-56952622D01*
X124460000Y-56162843D01*
X123670221Y-56952622D01*
X122744642Y-56952622D01*
X122780575Y-56928613D01*
X122968613Y-56740575D01*
X123116354Y-56519465D01*
X123135860Y-56472373D01*
X123174850Y-56566502D01*
X123387378Y-56669779D01*
X124177157Y-55880000D01*
X124742843Y-55880000D01*
X125532622Y-56669779D01*
X125745150Y-56566502D01*
X125784126Y-56472338D01*
X125803646Y-56519465D01*
X125951387Y-56740575D01*
X126139425Y-56928613D01*
X126360535Y-57076354D01*
X126606220Y-57178120D01*
X126867037Y-57230000D01*
X127132963Y-57230000D01*
X127393780Y-57178120D01*
X127639465Y-57076354D01*
X127860575Y-56928613D01*
X128048613Y-56740575D01*
X128196354Y-56519465D01*
X128298120Y-56273780D01*
X128350000Y-56012963D01*
X128350000Y-55747037D01*
X128298120Y-55486220D01*
X128196354Y-55240535D01*
X128048613Y-55019425D01*
X127860575Y-54831387D01*
X127639465Y-54683646D01*
X127393780Y-54581880D01*
X127132963Y-54530000D01*
X126867037Y-54530000D01*
X126606220Y-54581880D01*
X126360535Y-54683646D01*
X126139425Y-54831387D01*
X125951387Y-55019425D01*
X125803646Y-55240535D01*
X125784140Y-55287627D01*
X125745150Y-55193498D01*
X125532622Y-55090221D01*
X124742843Y-55880000D01*
X124177157Y-55880000D01*
X123387378Y-55090221D01*
X123174850Y-55193498D01*
X123135874Y-55287662D01*
X123116354Y-55240535D01*
X122968613Y-55019425D01*
X122780575Y-54831387D01*
X122744643Y-54807378D01*
X123670221Y-54807378D01*
X124460000Y-55597157D01*
X125249779Y-54807378D01*
X125146502Y-54594850D01*
X124882591Y-54485614D01*
X124602440Y-54429963D01*
X124316814Y-54430036D01*
X124036691Y-54485831D01*
X123773498Y-54594850D01*
X123670221Y-54807378D01*
X122744643Y-54807378D01*
X122559465Y-54683646D01*
X122313780Y-54581880D01*
X122052963Y-54530000D01*
X121787037Y-54530000D01*
X121526220Y-54581880D01*
X121280535Y-54683646D01*
X121059425Y-54831387D01*
X120871387Y-55019425D01*
X120723646Y-55240535D01*
X120650000Y-55418332D01*
X120576354Y-55240535D01*
X120428613Y-55019425D01*
X120240575Y-54831387D01*
X120019465Y-54683646D01*
X119773780Y-54581880D01*
X119512963Y-54530000D01*
X119247037Y-54530000D01*
X118986220Y-54581880D01*
X118740535Y-54683646D01*
X118519425Y-54831387D01*
X118331387Y-55019425D01*
X118183646Y-55240535D01*
X118110000Y-55418332D01*
X118036354Y-55240535D01*
X117888613Y-55019425D01*
X117700575Y-54831387D01*
X117479465Y-54683646D01*
X117233780Y-54581880D01*
X116972963Y-54530000D01*
X116707037Y-54530000D01*
X116446220Y-54581880D01*
X116200535Y-54683646D01*
X115979425Y-54831387D01*
X115791387Y-55019425D01*
X115651935Y-55228130D01*
X115651935Y-54930000D01*
X115644212Y-54851586D01*
X115621340Y-54776186D01*
X115584197Y-54706697D01*
X115534211Y-54645789D01*
X115473303Y-54595803D01*
X115403814Y-54558660D01*
X115328414Y-54535788D01*
X115250000Y-54528065D01*
X113350000Y-54528065D01*
X113271586Y-54535788D01*
X113196186Y-54558660D01*
X113126697Y-54595803D01*
X113065789Y-54645789D01*
X113015803Y-54706697D01*
X112978660Y-54776186D01*
X112955788Y-54851586D01*
X112948065Y-54930000D01*
X105099188Y-54930000D01*
X105000575Y-54831387D01*
X104779465Y-54683646D01*
X104533780Y-54581880D01*
X104272963Y-54530000D01*
X104007037Y-54530000D01*
X103746220Y-54581880D01*
X103500535Y-54683646D01*
X103279425Y-54831387D01*
X103091387Y-55019425D01*
X102943646Y-55240535D01*
X102924140Y-55287627D01*
X102885150Y-55193498D01*
X102672622Y-55090221D01*
X101882843Y-55880000D01*
X101317157Y-55880000D01*
X100527378Y-55090221D01*
X100314850Y-55193498D01*
X100275874Y-55287662D01*
X100256354Y-55240535D01*
X100108613Y-55019425D01*
X99920575Y-54831387D01*
X99884643Y-54807378D01*
X100810221Y-54807378D01*
X101600000Y-55597157D01*
X102389779Y-54807378D01*
X102286502Y-54594850D01*
X102022591Y-54485614D01*
X101742440Y-54429963D01*
X101456814Y-54430036D01*
X101176691Y-54485831D01*
X100913498Y-54594850D01*
X100810221Y-54807378D01*
X99884643Y-54807378D01*
X99699465Y-54683646D01*
X99453780Y-54581880D01*
X99192963Y-54530000D01*
X98927037Y-54530000D01*
X98666220Y-54581880D01*
X98420535Y-54683646D01*
X98199425Y-54831387D01*
X98011387Y-55019425D01*
X97863646Y-55240535D01*
X97790000Y-55418332D01*
X97716354Y-55240535D01*
X97568613Y-55019425D01*
X97380575Y-54831387D01*
X97159465Y-54683646D01*
X96913780Y-54581880D01*
X96652963Y-54530000D01*
X96387037Y-54530000D01*
X96126220Y-54581880D01*
X95880535Y-54683646D01*
X95659425Y-54831387D01*
X95471387Y-55019425D01*
X95323646Y-55240535D01*
X95250000Y-55418332D01*
X95176354Y-55240535D01*
X95028613Y-55019425D01*
X94840575Y-54831387D01*
X94619465Y-54683646D01*
X94373780Y-54581880D01*
X94112963Y-54530000D01*
X93847037Y-54530000D01*
X93586220Y-54581880D01*
X93340535Y-54683646D01*
X93119425Y-54831387D01*
X92931387Y-55019425D01*
X92791935Y-55228130D01*
X92791935Y-54930000D01*
X92784212Y-54851586D01*
X92761340Y-54776186D01*
X92724197Y-54706697D01*
X92674211Y-54645789D01*
X92613303Y-54595803D01*
X92543814Y-54558660D01*
X92468414Y-54535788D01*
X92390000Y-54528065D01*
X90490000Y-54528065D01*
X90411586Y-54535788D01*
X90336186Y-54558660D01*
X90266697Y-54595803D01*
X90205789Y-54645789D01*
X90155803Y-54706697D01*
X90118660Y-54776186D01*
X90095788Y-54851586D01*
X90088065Y-54930000D01*
X82239188Y-54930000D01*
X82140575Y-54831387D01*
X81919465Y-54683646D01*
X81673780Y-54581880D01*
X81412963Y-54530000D01*
X81147037Y-54530000D01*
X80886220Y-54581880D01*
X80640535Y-54683646D01*
X80419425Y-54831387D01*
X80231387Y-55019425D01*
X80083646Y-55240535D01*
X80064140Y-55287627D01*
X80025150Y-55193498D01*
X79812622Y-55090221D01*
X79022843Y-55880000D01*
X78457157Y-55880000D01*
X77667378Y-55090221D01*
X77454850Y-55193498D01*
X77415874Y-55287662D01*
X77396354Y-55240535D01*
X77248613Y-55019425D01*
X77060575Y-54831387D01*
X77024643Y-54807378D01*
X77950221Y-54807378D01*
X78740000Y-55597157D01*
X79529779Y-54807378D01*
X79426502Y-54594850D01*
X79162591Y-54485614D01*
X78882440Y-54429963D01*
X78596814Y-54430036D01*
X78316691Y-54485831D01*
X78053498Y-54594850D01*
X77950221Y-54807378D01*
X77024643Y-54807378D01*
X76839465Y-54683646D01*
X76593780Y-54581880D01*
X76332963Y-54530000D01*
X76067037Y-54530000D01*
X75806220Y-54581880D01*
X75560535Y-54683646D01*
X75339425Y-54831387D01*
X75151387Y-55019425D01*
X75003646Y-55240535D01*
X74930000Y-55418332D01*
X74856354Y-55240535D01*
X74708613Y-55019425D01*
X74520575Y-54831387D01*
X74299465Y-54683646D01*
X74053780Y-54581880D01*
X73792963Y-54530000D01*
X73527037Y-54530000D01*
X73266220Y-54581880D01*
X73020535Y-54683646D01*
X72799425Y-54831387D01*
X72611387Y-55019425D01*
X72463646Y-55240535D01*
X72390000Y-55418332D01*
X72316354Y-55240535D01*
X72168613Y-55019425D01*
X71980575Y-54831387D01*
X71759465Y-54683646D01*
X71513780Y-54581880D01*
X71252963Y-54530000D01*
X70987037Y-54530000D01*
X70726220Y-54581880D01*
X70480535Y-54683646D01*
X70259425Y-54831387D01*
X70071387Y-55019425D01*
X69931935Y-55228130D01*
X69931935Y-54930000D01*
X69924212Y-54851586D01*
X69901340Y-54776186D01*
X69864197Y-54706697D01*
X69814211Y-54645789D01*
X69753303Y-54595803D01*
X69683814Y-54558660D01*
X69608414Y-54535788D01*
X69530000Y-54528065D01*
X67630000Y-54528065D01*
X67551586Y-54535788D01*
X67476186Y-54558660D01*
X67406697Y-54595803D01*
X67345789Y-54645789D01*
X67295803Y-54706697D01*
X67258660Y-54776186D01*
X67235788Y-54851586D01*
X67228065Y-54930000D01*
X59280000Y-54930000D01*
X59280000Y-54275129D01*
X59149340Y-53618257D01*
X58893041Y-52999496D01*
X58520952Y-52442626D01*
X58248326Y-52170000D01*
X130981674Y-52170000D01*
X130709048Y-52442626D01*
X130336959Y-52999496D01*
X130080660Y-53618257D01*
X129950000Y-54275129D01*
X129950000Y-54944871D01*
X130080660Y-55601743D01*
X130336959Y-56220504D01*
X130709048Y-56777374D01*
X131182626Y-57250952D01*
X131739496Y-57623041D01*
X132358257Y-57879340D01*
X133015129Y-58010000D01*
X133684871Y-58010000D01*
X134341743Y-57879340D01*
X134960504Y-57623041D01*
X135517374Y-57250952D01*
X135990952Y-56777374D01*
X136363041Y-56220504D01*
X136619340Y-55601743D01*
X136750000Y-54944871D01*
X136750000Y-54275129D01*
X136619340Y-53618257D01*
X136363041Y-52999496D01*
X135990952Y-52442626D01*
X135718326Y-52170000D01*
X136155092Y-52170000D01*
X136335485Y-52187768D01*
X136504229Y-52238955D01*
X136659745Y-52322080D01*
X136796054Y-52433946D01*
X136907920Y-52570255D01*
X136991045Y-52725771D01*
X137042232Y-52894515D01*
X137060000Y-53074908D01*
X137060000Y-94245092D01*
X137042232Y-94425485D01*
X136991045Y-94594229D01*
X136907920Y-94749745D01*
X136796054Y-94886054D01*
X136659745Y-94997920D01*
X136504229Y-95081045D01*
X136335485Y-95132232D01*
X136155092Y-95150000D01*
X135718326Y-95150000D01*
X135990952Y-94877374D01*
X136363041Y-94320504D01*
X136619340Y-93701743D01*
X136750000Y-93044871D01*
X136750000Y-92375129D01*
X136619340Y-91718257D01*
X136363041Y-91099496D01*
X135990952Y-90542626D01*
X135517374Y-90069048D01*
X134960504Y-89696959D01*
X134341743Y-89440660D01*
X133684871Y-89310000D01*
X133015129Y-89310000D01*
X132358257Y-89440660D01*
X131739496Y-89696959D01*
X131182626Y-90069048D01*
X130709048Y-90542626D01*
X130336959Y-91099496D01*
X130080660Y-91718257D01*
X129950000Y-92375129D01*
X129950000Y-93044871D01*
X130080660Y-93701743D01*
X130336959Y-94320504D01*
X130709048Y-94877374D01*
X130981674Y-95150000D01*
X58248326Y-95150000D01*
X58520952Y-94877374D01*
X58893041Y-94320504D01*
X59149340Y-93701743D01*
X59280000Y-93044871D01*
X59280000Y-92375129D01*
X59149340Y-91718257D01*
X58979008Y-91307037D01*
X67230000Y-91307037D01*
X67230000Y-91572963D01*
X67281880Y-91833780D01*
X67383646Y-92079465D01*
X67531387Y-92300575D01*
X67719425Y-92488613D01*
X67940535Y-92636354D01*
X68186220Y-92738120D01*
X68447037Y-92790000D01*
X68712963Y-92790000D01*
X68973780Y-92738120D01*
X69219465Y-92636354D01*
X69404642Y-92512622D01*
X70330221Y-92512622D01*
X70433498Y-92725150D01*
X70697409Y-92834386D01*
X70977560Y-92890037D01*
X71263186Y-92889964D01*
X71543309Y-92834169D01*
X71806502Y-92725150D01*
X71909779Y-92512622D01*
X71120000Y-91722843D01*
X70330221Y-92512622D01*
X69404642Y-92512622D01*
X69440575Y-92488613D01*
X69628613Y-92300575D01*
X69776354Y-92079465D01*
X69795860Y-92032373D01*
X69834850Y-92126502D01*
X70047378Y-92229779D01*
X70837157Y-91440000D01*
X70047378Y-90650221D01*
X69834850Y-90753498D01*
X69795874Y-90847662D01*
X69776354Y-90800535D01*
X69628613Y-90579425D01*
X69440575Y-90391387D01*
X69219465Y-90243646D01*
X68973780Y-90141880D01*
X68712963Y-90090000D01*
X68447037Y-90090000D01*
X68186220Y-90141880D01*
X67940535Y-90243646D01*
X67719425Y-90391387D01*
X67531387Y-90579425D01*
X67383646Y-90800535D01*
X67281880Y-91046220D01*
X67230000Y-91307037D01*
X58979008Y-91307037D01*
X58893041Y-91099496D01*
X58520952Y-90542626D01*
X58047374Y-90069048D01*
X57490504Y-89696959D01*
X57215883Y-89583207D01*
X70066000Y-89583207D01*
X70066000Y-89740793D01*
X70096743Y-89895351D01*
X70157049Y-90040942D01*
X70244599Y-90171970D01*
X70356030Y-90283401D01*
X70367353Y-90290967D01*
X70330221Y-90367378D01*
X71120000Y-91157157D01*
X71909779Y-90367378D01*
X71809977Y-90162000D01*
X73217646Y-90162000D01*
X73020535Y-90243646D01*
X72799425Y-90391387D01*
X72611387Y-90579425D01*
X72463646Y-90800535D01*
X72444140Y-90847627D01*
X72405150Y-90753498D01*
X72192622Y-90650221D01*
X71402843Y-91440000D01*
X72192622Y-92229779D01*
X72405150Y-92126502D01*
X72444126Y-92032338D01*
X72463646Y-92079465D01*
X72611387Y-92300575D01*
X72799425Y-92488613D01*
X73020535Y-92636354D01*
X73266220Y-92738120D01*
X73527037Y-92790000D01*
X73792963Y-92790000D01*
X74053780Y-92738120D01*
X74299465Y-92636354D01*
X74520575Y-92488613D01*
X74708613Y-92300575D01*
X74856354Y-92079465D01*
X74930000Y-91901668D01*
X75003646Y-92079465D01*
X75151387Y-92300575D01*
X75339425Y-92488613D01*
X75560535Y-92636354D01*
X75806220Y-92738120D01*
X76067037Y-92790000D01*
X76332963Y-92790000D01*
X76593780Y-92738120D01*
X76839465Y-92636354D01*
X77060575Y-92488613D01*
X77248613Y-92300575D01*
X77396354Y-92079465D01*
X77470000Y-91901668D01*
X77543646Y-92079465D01*
X77691387Y-92300575D01*
X77879425Y-92488613D01*
X78100535Y-92636354D01*
X78346220Y-92738120D01*
X78607037Y-92790000D01*
X78872963Y-92790000D01*
X79133780Y-92738120D01*
X79379465Y-92636354D01*
X79600575Y-92488613D01*
X79788613Y-92300575D01*
X79928065Y-92091870D01*
X79928065Y-92390000D01*
X79935788Y-92468414D01*
X79958660Y-92543814D01*
X79995803Y-92613303D01*
X80045789Y-92674211D01*
X80106697Y-92724197D01*
X80176186Y-92761340D01*
X80251586Y-92784212D01*
X80330000Y-92791935D01*
X82230000Y-92791935D01*
X82308414Y-92784212D01*
X82383814Y-92761340D01*
X82453303Y-92724197D01*
X82514211Y-92674211D01*
X82564197Y-92613303D01*
X82601340Y-92543814D01*
X82624212Y-92468414D01*
X82631935Y-92390000D01*
X82631935Y-91307037D01*
X90090000Y-91307037D01*
X90090000Y-91572963D01*
X90141880Y-91833780D01*
X90243646Y-92079465D01*
X90391387Y-92300575D01*
X90579425Y-92488613D01*
X90800535Y-92636354D01*
X91046220Y-92738120D01*
X91307037Y-92790000D01*
X91572963Y-92790000D01*
X91833780Y-92738120D01*
X92079465Y-92636354D01*
X92264642Y-92512622D01*
X93190221Y-92512622D01*
X93293498Y-92725150D01*
X93557409Y-92834386D01*
X93837560Y-92890037D01*
X94123186Y-92889964D01*
X94403309Y-92834169D01*
X94666502Y-92725150D01*
X94769779Y-92512622D01*
X93980000Y-91722843D01*
X93190221Y-92512622D01*
X92264642Y-92512622D01*
X92300575Y-92488613D01*
X92488613Y-92300575D01*
X92636354Y-92079465D01*
X92655860Y-92032373D01*
X92694850Y-92126502D01*
X92907378Y-92229779D01*
X93697157Y-91440000D01*
X94262843Y-91440000D01*
X95052622Y-92229779D01*
X95265150Y-92126502D01*
X95304126Y-92032338D01*
X95323646Y-92079465D01*
X95471387Y-92300575D01*
X95659425Y-92488613D01*
X95880535Y-92636354D01*
X96126220Y-92738120D01*
X96387037Y-92790000D01*
X96652963Y-92790000D01*
X96913780Y-92738120D01*
X97159465Y-92636354D01*
X97380575Y-92488613D01*
X97568613Y-92300575D01*
X97716354Y-92079465D01*
X97790000Y-91901668D01*
X97863646Y-92079465D01*
X98011387Y-92300575D01*
X98199425Y-92488613D01*
X98420535Y-92636354D01*
X98666220Y-92738120D01*
X98927037Y-92790000D01*
X99192963Y-92790000D01*
X99453780Y-92738120D01*
X99699465Y-92636354D01*
X99920575Y-92488613D01*
X100108613Y-92300575D01*
X100256354Y-92079465D01*
X100330000Y-91901668D01*
X100403646Y-92079465D01*
X100551387Y-92300575D01*
X100739425Y-92488613D01*
X100960535Y-92636354D01*
X101206220Y-92738120D01*
X101467037Y-92790000D01*
X101732963Y-92790000D01*
X101993780Y-92738120D01*
X102239465Y-92636354D01*
X102460575Y-92488613D01*
X102648613Y-92300575D01*
X102788065Y-92091870D01*
X102788065Y-92390000D01*
X102795788Y-92468414D01*
X102818660Y-92543814D01*
X102855803Y-92613303D01*
X102905789Y-92674211D01*
X102966697Y-92724197D01*
X103036186Y-92761340D01*
X103111586Y-92784212D01*
X103190000Y-92791935D01*
X105090000Y-92791935D01*
X105168414Y-92784212D01*
X105243814Y-92761340D01*
X105313303Y-92724197D01*
X105374211Y-92674211D01*
X105424197Y-92613303D01*
X105461340Y-92543814D01*
X105484212Y-92468414D01*
X105491935Y-92390000D01*
X105491935Y-91307037D01*
X112950000Y-91307037D01*
X112950000Y-91572963D01*
X113001880Y-91833780D01*
X113103646Y-92079465D01*
X113251387Y-92300575D01*
X113439425Y-92488613D01*
X113660535Y-92636354D01*
X113906220Y-92738120D01*
X114167037Y-92790000D01*
X114432963Y-92790000D01*
X114693780Y-92738120D01*
X114939465Y-92636354D01*
X115124642Y-92512622D01*
X116050221Y-92512622D01*
X116153498Y-92725150D01*
X116417409Y-92834386D01*
X116697560Y-92890037D01*
X116983186Y-92889964D01*
X117263309Y-92834169D01*
X117526502Y-92725150D01*
X117629779Y-92512622D01*
X116840000Y-91722843D01*
X116050221Y-92512622D01*
X115124642Y-92512622D01*
X115160575Y-92488613D01*
X115348613Y-92300575D01*
X115496354Y-92079465D01*
X115515860Y-92032373D01*
X115554850Y-92126502D01*
X115767378Y-92229779D01*
X116557157Y-91440000D01*
X117122843Y-91440000D01*
X117912622Y-92229779D01*
X118125150Y-92126502D01*
X118164126Y-92032338D01*
X118183646Y-92079465D01*
X118331387Y-92300575D01*
X118519425Y-92488613D01*
X118740535Y-92636354D01*
X118986220Y-92738120D01*
X119247037Y-92790000D01*
X119512963Y-92790000D01*
X119773780Y-92738120D01*
X120019465Y-92636354D01*
X120240575Y-92488613D01*
X120428613Y-92300575D01*
X120576354Y-92079465D01*
X120650000Y-91901668D01*
X120723646Y-92079465D01*
X120871387Y-92300575D01*
X121059425Y-92488613D01*
X121280535Y-92636354D01*
X121526220Y-92738120D01*
X121787037Y-92790000D01*
X122052963Y-92790000D01*
X122313780Y-92738120D01*
X122559465Y-92636354D01*
X122780575Y-92488613D01*
X122968613Y-92300575D01*
X123116354Y-92079465D01*
X123190000Y-91901668D01*
X123263646Y-92079465D01*
X123411387Y-92300575D01*
X123599425Y-92488613D01*
X123820535Y-92636354D01*
X124066220Y-92738120D01*
X124327037Y-92790000D01*
X124592963Y-92790000D01*
X124853780Y-92738120D01*
X125099465Y-92636354D01*
X125320575Y-92488613D01*
X125508613Y-92300575D01*
X125648065Y-92091870D01*
X125648065Y-92390000D01*
X125655788Y-92468414D01*
X125678660Y-92543814D01*
X125715803Y-92613303D01*
X125765789Y-92674211D01*
X125826697Y-92724197D01*
X125896186Y-92761340D01*
X125971586Y-92784212D01*
X126050000Y-92791935D01*
X127950000Y-92791935D01*
X128028414Y-92784212D01*
X128103814Y-92761340D01*
X128173303Y-92724197D01*
X128234211Y-92674211D01*
X128284197Y-92613303D01*
X128321340Y-92543814D01*
X128344212Y-92468414D01*
X128351935Y-92390000D01*
X128351935Y-90490000D01*
X128344212Y-90411586D01*
X128321340Y-90336186D01*
X128284197Y-90266697D01*
X128234211Y-90205789D01*
X128173303Y-90155803D01*
X128103814Y-90118660D01*
X128028414Y-90095788D01*
X127950000Y-90088065D01*
X126050000Y-90088065D01*
X125971586Y-90095788D01*
X125896186Y-90118660D01*
X125826697Y-90155803D01*
X125765789Y-90205789D01*
X125715803Y-90266697D01*
X125678660Y-90336186D01*
X125655788Y-90411586D01*
X125648065Y-90490000D01*
X125648065Y-90788130D01*
X125508613Y-90579425D01*
X125320575Y-90391387D01*
X125099465Y-90243646D01*
X124853780Y-90141880D01*
X124592963Y-90090000D01*
X124327037Y-90090000D01*
X124066220Y-90141880D01*
X123820535Y-90243646D01*
X123599425Y-90391387D01*
X123411387Y-90579425D01*
X123263646Y-90800535D01*
X123190000Y-90978332D01*
X123116354Y-90800535D01*
X122968613Y-90579425D01*
X122780575Y-90391387D01*
X122559465Y-90243646D01*
X122313780Y-90141880D01*
X122052963Y-90090000D01*
X121787037Y-90090000D01*
X121526220Y-90141880D01*
X121280535Y-90243646D01*
X121059425Y-90391387D01*
X120871387Y-90579425D01*
X120723646Y-90800535D01*
X120650000Y-90978332D01*
X120576354Y-90800535D01*
X120428613Y-90579425D01*
X120240575Y-90391387D01*
X120019465Y-90243646D01*
X119773780Y-90141880D01*
X119512963Y-90090000D01*
X119247037Y-90090000D01*
X118986220Y-90141880D01*
X118740535Y-90243646D01*
X118519425Y-90391387D01*
X118331387Y-90579425D01*
X118183646Y-90800535D01*
X118164140Y-90847627D01*
X118125150Y-90753498D01*
X117912622Y-90650221D01*
X117122843Y-91440000D01*
X116557157Y-91440000D01*
X115767378Y-90650221D01*
X115554850Y-90753498D01*
X115515874Y-90847662D01*
X115496354Y-90800535D01*
X115348613Y-90579425D01*
X115160575Y-90391387D01*
X115124643Y-90367378D01*
X116050221Y-90367378D01*
X116840000Y-91157157D01*
X117629779Y-90367378D01*
X117526502Y-90154850D01*
X117262591Y-90045614D01*
X116982440Y-89989963D01*
X116696814Y-89990036D01*
X116416691Y-90045831D01*
X116153498Y-90154850D01*
X116050221Y-90367378D01*
X115124643Y-90367378D01*
X114939465Y-90243646D01*
X114693780Y-90141880D01*
X114432963Y-90090000D01*
X114167037Y-90090000D01*
X113906220Y-90141880D01*
X113660535Y-90243646D01*
X113439425Y-90391387D01*
X113251387Y-90579425D01*
X113103646Y-90800535D01*
X113001880Y-91046220D01*
X112950000Y-91307037D01*
X105491935Y-91307037D01*
X105491935Y-90490000D01*
X105484212Y-90411586D01*
X105461340Y-90336186D01*
X105424197Y-90266697D01*
X105374211Y-90205789D01*
X105313303Y-90155803D01*
X105243814Y-90118660D01*
X105168414Y-90095788D01*
X105090000Y-90088065D01*
X103190000Y-90088065D01*
X103111586Y-90095788D01*
X103036186Y-90118660D01*
X102966697Y-90155803D01*
X102905789Y-90205789D01*
X102855803Y-90266697D01*
X102818660Y-90336186D01*
X102795788Y-90411586D01*
X102788065Y-90490000D01*
X102788065Y-90788130D01*
X102648613Y-90579425D01*
X102460575Y-90391387D01*
X102239465Y-90243646D01*
X101993780Y-90141880D01*
X101732963Y-90090000D01*
X101467037Y-90090000D01*
X101206220Y-90141880D01*
X100960535Y-90243646D01*
X100739425Y-90391387D01*
X100551387Y-90579425D01*
X100403646Y-90800535D01*
X100330000Y-90978332D01*
X100256354Y-90800535D01*
X100108613Y-90579425D01*
X99920575Y-90391387D01*
X99699465Y-90243646D01*
X99453780Y-90141880D01*
X99192963Y-90090000D01*
X98927037Y-90090000D01*
X98666220Y-90141880D01*
X98420535Y-90243646D01*
X98199425Y-90391387D01*
X98011387Y-90579425D01*
X97863646Y-90800535D01*
X97790000Y-90978332D01*
X97716354Y-90800535D01*
X97568613Y-90579425D01*
X97380575Y-90391387D01*
X97159465Y-90243646D01*
X96913780Y-90141880D01*
X96652963Y-90090000D01*
X96387037Y-90090000D01*
X96126220Y-90141880D01*
X95880535Y-90243646D01*
X95659425Y-90391387D01*
X95471387Y-90579425D01*
X95323646Y-90800535D01*
X95304140Y-90847627D01*
X95265150Y-90753498D01*
X95052622Y-90650221D01*
X94262843Y-91440000D01*
X93697157Y-91440000D01*
X92907378Y-90650221D01*
X92694850Y-90753498D01*
X92655874Y-90847662D01*
X92636354Y-90800535D01*
X92488613Y-90579425D01*
X92300575Y-90391387D01*
X92264643Y-90367378D01*
X93190221Y-90367378D01*
X93980000Y-91157157D01*
X94769779Y-90367378D01*
X94666502Y-90154850D01*
X94402591Y-90045614D01*
X94122440Y-89989963D01*
X93836814Y-89990036D01*
X93556691Y-90045831D01*
X93293498Y-90154850D01*
X93190221Y-90367378D01*
X92264643Y-90367378D01*
X92079465Y-90243646D01*
X91833780Y-90141880D01*
X91572963Y-90090000D01*
X91307037Y-90090000D01*
X91046220Y-90141880D01*
X90800535Y-90243646D01*
X90579425Y-90391387D01*
X90391387Y-90579425D01*
X90243646Y-90800535D01*
X90141880Y-91046220D01*
X90090000Y-91307037D01*
X82631935Y-91307037D01*
X82631935Y-90490000D01*
X82624212Y-90411586D01*
X82601340Y-90336186D01*
X82564197Y-90266697D01*
X82514211Y-90205789D01*
X82453303Y-90155803D01*
X82383814Y-90118660D01*
X82308414Y-90095788D01*
X82230000Y-90088065D01*
X80330000Y-90088065D01*
X80251586Y-90095788D01*
X80176186Y-90118660D01*
X80106697Y-90155803D01*
X80045789Y-90205789D01*
X79995803Y-90266697D01*
X79958660Y-90336186D01*
X79935788Y-90411586D01*
X79928065Y-90490000D01*
X79928065Y-90788130D01*
X79788613Y-90579425D01*
X79600575Y-90391387D01*
X79379465Y-90243646D01*
X79133780Y-90141880D01*
X78872963Y-90090000D01*
X78607037Y-90090000D01*
X78346220Y-90141880D01*
X78100535Y-90243646D01*
X77879425Y-90391387D01*
X77691387Y-90579425D01*
X77543646Y-90800535D01*
X77470000Y-90978332D01*
X77396354Y-90800535D01*
X77248613Y-90579425D01*
X77060575Y-90391387D01*
X76839465Y-90243646D01*
X76593780Y-90141880D01*
X76332963Y-90090000D01*
X76067037Y-90090000D01*
X75806220Y-90141880D01*
X75666754Y-90199648D01*
X74792929Y-89325824D01*
X74777264Y-89306736D01*
X74701129Y-89244254D01*
X74614267Y-89197825D01*
X74520017Y-89169235D01*
X74446560Y-89162000D01*
X74422000Y-89159581D01*
X74397440Y-89162000D01*
X71494063Y-89162000D01*
X71487401Y-89152030D01*
X71375970Y-89040599D01*
X71244942Y-88953049D01*
X71099351Y-88892743D01*
X70944793Y-88862000D01*
X70787207Y-88862000D01*
X70632649Y-88892743D01*
X70487058Y-88953049D01*
X70356030Y-89040599D01*
X70244599Y-89152030D01*
X70157049Y-89283058D01*
X70096743Y-89428649D01*
X70066000Y-89583207D01*
X57215883Y-89583207D01*
X56871743Y-89440660D01*
X56214871Y-89310000D01*
X55545129Y-89310000D01*
X54888257Y-89440660D01*
X54269496Y-89696959D01*
X53712626Y-90069048D01*
X53239048Y-90542626D01*
X52866959Y-91099496D01*
X52610660Y-91718257D01*
X52480000Y-92375129D01*
X52480000Y-93044871D01*
X52610660Y-93701743D01*
X52866959Y-94320504D01*
X53239048Y-94877374D01*
X53511674Y-95150000D01*
X53074908Y-95150000D01*
X52894515Y-95132232D01*
X52725771Y-95081045D01*
X52570255Y-94997920D01*
X52433946Y-94886054D01*
X52322080Y-94749745D01*
X52238955Y-94594229D01*
X52187768Y-94425485D01*
X52170000Y-94245092D01*
X52170000Y-85410000D01*
X67228065Y-85410000D01*
X67228065Y-87310000D01*
X67235788Y-87388414D01*
X67258660Y-87463814D01*
X67295803Y-87533303D01*
X67345789Y-87594211D01*
X67406697Y-87644197D01*
X67476186Y-87681340D01*
X67551586Y-87704212D01*
X67630000Y-87711935D01*
X69530000Y-87711935D01*
X69608414Y-87704212D01*
X69683814Y-87681340D01*
X69753303Y-87644197D01*
X69814211Y-87594211D01*
X69864197Y-87533303D01*
X69901340Y-87463814D01*
X69924212Y-87388414D01*
X69931935Y-87310000D01*
X69931935Y-87011870D01*
X70071387Y-87220575D01*
X70259425Y-87408613D01*
X70480535Y-87556354D01*
X70726220Y-87658120D01*
X70987037Y-87710000D01*
X71252963Y-87710000D01*
X71513780Y-87658120D01*
X71759465Y-87556354D01*
X71980575Y-87408613D01*
X72168613Y-87220575D01*
X72316354Y-86999465D01*
X72390000Y-86821668D01*
X72463646Y-86999465D01*
X72611387Y-87220575D01*
X72799425Y-87408613D01*
X73020535Y-87556354D01*
X73266220Y-87658120D01*
X73527037Y-87710000D01*
X73792963Y-87710000D01*
X74053780Y-87658120D01*
X74299465Y-87556354D01*
X74520575Y-87408613D01*
X74708613Y-87220575D01*
X74856354Y-86999465D01*
X74930000Y-86821668D01*
X75003646Y-86999465D01*
X75151387Y-87220575D01*
X75339425Y-87408613D01*
X75560535Y-87556354D01*
X75806220Y-87658120D01*
X76067037Y-87710000D01*
X76332963Y-87710000D01*
X76593780Y-87658120D01*
X76839465Y-87556354D01*
X77060575Y-87408613D01*
X77248613Y-87220575D01*
X77396354Y-86999465D01*
X77470000Y-86821668D01*
X77543646Y-86999465D01*
X77691387Y-87220575D01*
X77879425Y-87408613D01*
X78100535Y-87556354D01*
X78346220Y-87658120D01*
X78607037Y-87710000D01*
X78872963Y-87710000D01*
X79133780Y-87658120D01*
X79379465Y-87556354D01*
X79600575Y-87408613D01*
X79788613Y-87220575D01*
X79936354Y-86999465D01*
X80038120Y-86753780D01*
X80090000Y-86492963D01*
X80090000Y-86227037D01*
X80038120Y-85966220D01*
X79936354Y-85720535D01*
X79788613Y-85499425D01*
X79600575Y-85311387D01*
X79379465Y-85163646D01*
X79133780Y-85061880D01*
X78872963Y-85010000D01*
X78607037Y-85010000D01*
X78346220Y-85061880D01*
X78100535Y-85163646D01*
X77879425Y-85311387D01*
X77691387Y-85499425D01*
X77543646Y-85720535D01*
X77470000Y-85898332D01*
X77396354Y-85720535D01*
X77248613Y-85499425D01*
X77060575Y-85311387D01*
X76839465Y-85163646D01*
X76593780Y-85061880D01*
X76332963Y-85010000D01*
X76067037Y-85010000D01*
X75806220Y-85061880D01*
X75560535Y-85163646D01*
X75339425Y-85311387D01*
X75151387Y-85499425D01*
X75003646Y-85720535D01*
X74930000Y-85898332D01*
X74856354Y-85720535D01*
X74708613Y-85499425D01*
X74520575Y-85311387D01*
X74299465Y-85163646D01*
X74053780Y-85061880D01*
X73792963Y-85010000D01*
X73527037Y-85010000D01*
X73266220Y-85061880D01*
X73020535Y-85163646D01*
X72799425Y-85311387D01*
X72611387Y-85499425D01*
X72463646Y-85720535D01*
X72390000Y-85898332D01*
X72316354Y-85720535D01*
X72168613Y-85499425D01*
X71980575Y-85311387D01*
X71759465Y-85163646D01*
X71513780Y-85061880D01*
X71252963Y-85010000D01*
X70987037Y-85010000D01*
X70726220Y-85061880D01*
X70480535Y-85163646D01*
X70259425Y-85311387D01*
X70071387Y-85499425D01*
X69931935Y-85708130D01*
X69931935Y-85410000D01*
X69924212Y-85331586D01*
X69901340Y-85256186D01*
X69864197Y-85186697D01*
X69814211Y-85125789D01*
X69753303Y-85075803D01*
X69683814Y-85038660D01*
X69608414Y-85015788D01*
X69530000Y-85008065D01*
X67630000Y-85008065D01*
X67551586Y-85015788D01*
X67476186Y-85038660D01*
X67406697Y-85075803D01*
X67345789Y-85125789D01*
X67295803Y-85186697D01*
X67258660Y-85256186D01*
X67235788Y-85331586D01*
X67228065Y-85410000D01*
X52170000Y-85410000D01*
X52170000Y-80580000D01*
X67578065Y-80580000D01*
X67578065Y-81980000D01*
X67591552Y-82116941D01*
X67631497Y-82248619D01*
X67696362Y-82369974D01*
X67783657Y-82476343D01*
X67890026Y-82563638D01*
X68011381Y-82628503D01*
X68143059Y-82668448D01*
X68280000Y-82681935D01*
X68880000Y-82681935D01*
X69016941Y-82668448D01*
X69148619Y-82628503D01*
X69196047Y-82603153D01*
X70079080Y-83486187D01*
X70094736Y-83505264D01*
X70170871Y-83567746D01*
X70257733Y-83614175D01*
X70351983Y-83642765D01*
X70425440Y-83650000D01*
X70425449Y-83650000D01*
X70449999Y-83652418D01*
X70474549Y-83650000D01*
X90025440Y-83650000D01*
X90050000Y-83652419D01*
X90074560Y-83650000D01*
X90148017Y-83642765D01*
X90242267Y-83614175D01*
X90329129Y-83567746D01*
X90405264Y-83505264D01*
X90420928Y-83486177D01*
X90736186Y-83170921D01*
X90755264Y-83155264D01*
X90817746Y-83079129D01*
X90864175Y-82992267D01*
X90892765Y-82898017D01*
X90900000Y-82824560D01*
X90900000Y-82824559D01*
X90902419Y-82800000D01*
X90900000Y-82775440D01*
X90900000Y-82525251D01*
X91055466Y-82608349D01*
X91243967Y-82665530D01*
X91440000Y-82684838D01*
X91636034Y-82665530D01*
X91824535Y-82608349D01*
X91998258Y-82515492D01*
X92150528Y-82390528D01*
X92275492Y-82238258D01*
X92368349Y-82064535D01*
X92425530Y-81876033D01*
X92440000Y-81729119D01*
X92440000Y-80830881D01*
X92980000Y-80830881D01*
X92980000Y-81729120D01*
X92994471Y-81876034D01*
X93051652Y-82064535D01*
X93144509Y-82238258D01*
X93269473Y-82390528D01*
X93421743Y-82515492D01*
X93595466Y-82608349D01*
X93783967Y-82665530D01*
X93980000Y-82684838D01*
X94176034Y-82665530D01*
X94364535Y-82608349D01*
X94538258Y-82515492D01*
X94690528Y-82390528D01*
X94815492Y-82238258D01*
X94908349Y-82064535D01*
X94965530Y-81876033D01*
X94980000Y-81729119D01*
X94980000Y-80830881D01*
X95520000Y-80830881D01*
X95520000Y-81729120D01*
X95534471Y-81876034D01*
X95591652Y-82064535D01*
X95684509Y-82238258D01*
X95809473Y-82390528D01*
X95961743Y-82515492D01*
X96135466Y-82608349D01*
X96323967Y-82665530D01*
X96520000Y-82684838D01*
X96716034Y-82665530D01*
X96904535Y-82608349D01*
X97078258Y-82515492D01*
X97230528Y-82390528D01*
X97355492Y-82238258D01*
X97448349Y-82064535D01*
X97505530Y-81876033D01*
X97520000Y-81729119D01*
X97520000Y-80830881D01*
X98060000Y-80830881D01*
X98060000Y-81729120D01*
X98074471Y-81876034D01*
X98131652Y-82064535D01*
X98224509Y-82238258D01*
X98349473Y-82390528D01*
X98501743Y-82515492D01*
X98675466Y-82608349D01*
X98863967Y-82665530D01*
X99060000Y-82684838D01*
X99256034Y-82665530D01*
X99444535Y-82608349D01*
X99618258Y-82515492D01*
X99770528Y-82390528D01*
X99895492Y-82238258D01*
X99988349Y-82064535D01*
X100045530Y-81876033D01*
X100060000Y-81729119D01*
X100060000Y-80830881D01*
X100600000Y-80830881D01*
X100600000Y-81729120D01*
X100614471Y-81876034D01*
X100671652Y-82064535D01*
X100764509Y-82238258D01*
X100889473Y-82390528D01*
X101041743Y-82515492D01*
X101215466Y-82608349D01*
X101403967Y-82665530D01*
X101600000Y-82684838D01*
X101796034Y-82665530D01*
X101984535Y-82608349D01*
X102158258Y-82515492D01*
X102310528Y-82390528D01*
X102435492Y-82238258D01*
X102528349Y-82064535D01*
X102585530Y-81876033D01*
X102600000Y-81729119D01*
X102600000Y-80830881D01*
X103140000Y-80830881D01*
X103140000Y-81729120D01*
X103154471Y-81876034D01*
X103211652Y-82064535D01*
X103304509Y-82238258D01*
X103429473Y-82390528D01*
X103581743Y-82515492D01*
X103755466Y-82608349D01*
X103943967Y-82665530D01*
X104140000Y-82684838D01*
X104336034Y-82665530D01*
X104524535Y-82608349D01*
X104698258Y-82515492D01*
X104850528Y-82390528D01*
X104975492Y-82238258D01*
X105068349Y-82064535D01*
X105125530Y-81876033D01*
X105140000Y-81729119D01*
X105140000Y-80830881D01*
X105680000Y-80830881D01*
X105680000Y-81729120D01*
X105694471Y-81876034D01*
X105751652Y-82064535D01*
X105844509Y-82238258D01*
X105969473Y-82390528D01*
X106121743Y-82515492D01*
X106295466Y-82608349D01*
X106483967Y-82665530D01*
X106680000Y-82684838D01*
X106876034Y-82665530D01*
X107064535Y-82608349D01*
X107238258Y-82515492D01*
X107390528Y-82390528D01*
X107515492Y-82238258D01*
X107608349Y-82064535D01*
X107665530Y-81876033D01*
X107680000Y-81729119D01*
X107680000Y-80830881D01*
X108220000Y-80830881D01*
X108220000Y-81729120D01*
X108234471Y-81876034D01*
X108291652Y-82064535D01*
X108384509Y-82238258D01*
X108509473Y-82390528D01*
X108661743Y-82515492D01*
X108835466Y-82608349D01*
X109023967Y-82665530D01*
X109220000Y-82684838D01*
X109416034Y-82665530D01*
X109604535Y-82608349D01*
X109778258Y-82515492D01*
X109930528Y-82390528D01*
X110055492Y-82238258D01*
X110148349Y-82064535D01*
X110205530Y-81876033D01*
X110220000Y-81729119D01*
X110220000Y-80830881D01*
X110760000Y-80830881D01*
X110760000Y-81729120D01*
X110774471Y-81876034D01*
X110831652Y-82064535D01*
X110924509Y-82238258D01*
X111049473Y-82390528D01*
X111201743Y-82515492D01*
X111375466Y-82608349D01*
X111563967Y-82665530D01*
X111760000Y-82684838D01*
X111956034Y-82665530D01*
X112144535Y-82608349D01*
X112318258Y-82515492D01*
X112470528Y-82390528D01*
X112595492Y-82238258D01*
X112688349Y-82064535D01*
X112745530Y-81876033D01*
X112760000Y-81729119D01*
X112760000Y-81480000D01*
X113200000Y-81480000D01*
X113200000Y-81880000D01*
X113260154Y-82090756D01*
X113360269Y-82285727D01*
X113496497Y-82457421D01*
X113663603Y-82599239D01*
X113855166Y-82705731D01*
X113933253Y-82717061D01*
X114100000Y-82634267D01*
X114100000Y-81480000D01*
X114500000Y-81480000D01*
X114500000Y-82634267D01*
X114666747Y-82717061D01*
X114744834Y-82705731D01*
X114936397Y-82599239D01*
X115103503Y-82457421D01*
X115239731Y-82285727D01*
X115339846Y-82090756D01*
X115400000Y-81880000D01*
X115400000Y-81480000D01*
X114500000Y-81480000D01*
X114100000Y-81480000D01*
X113200000Y-81480000D01*
X112760000Y-81480000D01*
X112760000Y-80830880D01*
X112745530Y-80683966D01*
X112744327Y-80680000D01*
X113200000Y-80680000D01*
X113200000Y-81080000D01*
X114100000Y-81080000D01*
X114100000Y-79925733D01*
X114500000Y-79925733D01*
X114500000Y-81080000D01*
X115400000Y-81080000D01*
X115400000Y-80830881D01*
X115840000Y-80830881D01*
X115840000Y-81729120D01*
X115854471Y-81876034D01*
X115911652Y-82064535D01*
X116004509Y-82238258D01*
X116129473Y-82390528D01*
X116281743Y-82515492D01*
X116455466Y-82608349D01*
X116643967Y-82665530D01*
X116840000Y-82684838D01*
X117036034Y-82665530D01*
X117224535Y-82608349D01*
X117398258Y-82515492D01*
X117550528Y-82390528D01*
X117675492Y-82238258D01*
X117768349Y-82064535D01*
X117825530Y-81876033D01*
X117840000Y-81729119D01*
X117840000Y-80830880D01*
X117825530Y-80683966D01*
X117768349Y-80495465D01*
X117675492Y-80321742D01*
X117550528Y-80169472D01*
X117398258Y-80044508D01*
X117224534Y-79951651D01*
X117036033Y-79894470D01*
X116859037Y-79877037D01*
X124380000Y-79877037D01*
X124380000Y-80142963D01*
X124431880Y-80403780D01*
X124533646Y-80649465D01*
X124681387Y-80870575D01*
X124869425Y-81058613D01*
X125090535Y-81206354D01*
X125336220Y-81308120D01*
X125597037Y-81360000D01*
X125862963Y-81360000D01*
X126123780Y-81308120D01*
X126369465Y-81206354D01*
X126590575Y-81058613D01*
X126739188Y-80910000D01*
X127260812Y-80910000D01*
X127409425Y-81058613D01*
X127630535Y-81206354D01*
X127876220Y-81308120D01*
X128137037Y-81360000D01*
X128402963Y-81360000D01*
X128663780Y-81308120D01*
X128909465Y-81206354D01*
X129130575Y-81058613D01*
X129318613Y-80870575D01*
X129466354Y-80649465D01*
X129568120Y-80403780D01*
X129620000Y-80142963D01*
X129620000Y-79877037D01*
X129568120Y-79616220D01*
X129466354Y-79370535D01*
X129318613Y-79149425D01*
X129130575Y-78961387D01*
X128909465Y-78813646D01*
X128862373Y-78794140D01*
X128956502Y-78755150D01*
X129059779Y-78542622D01*
X128270000Y-77752843D01*
X127480221Y-78542622D01*
X127583498Y-78755150D01*
X127677662Y-78794126D01*
X127630535Y-78813646D01*
X127409425Y-78961387D01*
X127260812Y-79110000D01*
X126739188Y-79110000D01*
X126590575Y-78961387D01*
X126369465Y-78813646D01*
X126322373Y-78794140D01*
X126416502Y-78755150D01*
X126519779Y-78542622D01*
X125730000Y-77752843D01*
X124940221Y-78542622D01*
X125043498Y-78755150D01*
X125137662Y-78794126D01*
X125090535Y-78813646D01*
X124869425Y-78961387D01*
X124681387Y-79149425D01*
X124533646Y-79370535D01*
X124431880Y-79616220D01*
X124380000Y-79877037D01*
X116859037Y-79877037D01*
X116840000Y-79875162D01*
X116643966Y-79894470D01*
X116455465Y-79951651D01*
X116281742Y-80044508D01*
X116129472Y-80169472D01*
X116004508Y-80321742D01*
X115911651Y-80495466D01*
X115854470Y-80683967D01*
X115840000Y-80830881D01*
X115400000Y-80830881D01*
X115400000Y-80680000D01*
X115339846Y-80469244D01*
X115239731Y-80274273D01*
X115103503Y-80102579D01*
X114936397Y-79960761D01*
X114744834Y-79854269D01*
X114666747Y-79842939D01*
X114500000Y-79925733D01*
X114100000Y-79925733D01*
X113933253Y-79842939D01*
X113855166Y-79854269D01*
X113663603Y-79960761D01*
X113496497Y-80102579D01*
X113360269Y-80274273D01*
X113260154Y-80469244D01*
X113200000Y-80680000D01*
X112744327Y-80680000D01*
X112688349Y-80495465D01*
X112595492Y-80321742D01*
X112470528Y-80169472D01*
X112318258Y-80044508D01*
X112144534Y-79951651D01*
X111956033Y-79894470D01*
X111760000Y-79875162D01*
X111563966Y-79894470D01*
X111375465Y-79951651D01*
X111201742Y-80044508D01*
X111049472Y-80169472D01*
X110924508Y-80321742D01*
X110831651Y-80495466D01*
X110774470Y-80683967D01*
X110760000Y-80830881D01*
X110220000Y-80830881D01*
X110220000Y-80830880D01*
X110205530Y-80683966D01*
X110148349Y-80495465D01*
X110055492Y-80321742D01*
X109930528Y-80169472D01*
X109778258Y-80044508D01*
X109604534Y-79951651D01*
X109416033Y-79894470D01*
X109220000Y-79875162D01*
X109023966Y-79894470D01*
X108835465Y-79951651D01*
X108661742Y-80044508D01*
X108509472Y-80169472D01*
X108384508Y-80321742D01*
X108291651Y-80495466D01*
X108234470Y-80683967D01*
X108220000Y-80830881D01*
X107680000Y-80830881D01*
X107680000Y-80830880D01*
X107665530Y-80683966D01*
X107608349Y-80495465D01*
X107515492Y-80321742D01*
X107390528Y-80169472D01*
X107238258Y-80044508D01*
X107064534Y-79951651D01*
X106876033Y-79894470D01*
X106680000Y-79875162D01*
X106483966Y-79894470D01*
X106295465Y-79951651D01*
X106121742Y-80044508D01*
X105969472Y-80169472D01*
X105844508Y-80321742D01*
X105751651Y-80495466D01*
X105694470Y-80683967D01*
X105680000Y-80830881D01*
X105140000Y-80830881D01*
X105140000Y-80830880D01*
X105125530Y-80683966D01*
X105068349Y-80495465D01*
X104975492Y-80321742D01*
X104850528Y-80169472D01*
X104698258Y-80044508D01*
X104524534Y-79951651D01*
X104336033Y-79894470D01*
X104140000Y-79875162D01*
X103943966Y-79894470D01*
X103755465Y-79951651D01*
X103581742Y-80044508D01*
X103429472Y-80169472D01*
X103304508Y-80321742D01*
X103211651Y-80495466D01*
X103154470Y-80683967D01*
X103140000Y-80830881D01*
X102600000Y-80830881D01*
X102600000Y-80830880D01*
X102585530Y-80683966D01*
X102528349Y-80495465D01*
X102435492Y-80321742D01*
X102310528Y-80169472D01*
X102158258Y-80044508D01*
X101984534Y-79951651D01*
X101796033Y-79894470D01*
X101600000Y-79875162D01*
X101403966Y-79894470D01*
X101215465Y-79951651D01*
X101041742Y-80044508D01*
X100889472Y-80169472D01*
X100764508Y-80321742D01*
X100671651Y-80495466D01*
X100614470Y-80683967D01*
X100600000Y-80830881D01*
X100060000Y-80830881D01*
X100060000Y-80830880D01*
X100045530Y-80683966D01*
X99988349Y-80495465D01*
X99895492Y-80321742D01*
X99770528Y-80169472D01*
X99618258Y-80044508D01*
X99444534Y-79951651D01*
X99256033Y-79894470D01*
X99060000Y-79875162D01*
X98863966Y-79894470D01*
X98675465Y-79951651D01*
X98501742Y-80044508D01*
X98349472Y-80169472D01*
X98224508Y-80321742D01*
X98131651Y-80495466D01*
X98074470Y-80683967D01*
X98060000Y-80830881D01*
X97520000Y-80830881D01*
X97520000Y-80830880D01*
X97505530Y-80683966D01*
X97448349Y-80495465D01*
X97355492Y-80321742D01*
X97230528Y-80169472D01*
X97078258Y-80044508D01*
X96904534Y-79951651D01*
X96716033Y-79894470D01*
X96520000Y-79875162D01*
X96323966Y-79894470D01*
X96135465Y-79951651D01*
X95961742Y-80044508D01*
X95809472Y-80169472D01*
X95684508Y-80321742D01*
X95591651Y-80495466D01*
X95534470Y-80683967D01*
X95520000Y-80830881D01*
X94980000Y-80830881D01*
X94980000Y-80830880D01*
X94965530Y-80683966D01*
X94908349Y-80495465D01*
X94815492Y-80321742D01*
X94690528Y-80169472D01*
X94538258Y-80044508D01*
X94364534Y-79951651D01*
X94176033Y-79894470D01*
X93980000Y-79875162D01*
X93783966Y-79894470D01*
X93595465Y-79951651D01*
X93421742Y-80044508D01*
X93269472Y-80169472D01*
X93144508Y-80321742D01*
X93051651Y-80495466D01*
X92994470Y-80683967D01*
X92980000Y-80830881D01*
X92440000Y-80830881D01*
X92440000Y-80830880D01*
X92425530Y-80683966D01*
X92368349Y-80495465D01*
X92275492Y-80321742D01*
X92153850Y-80173521D01*
X92264601Y-80062770D01*
X92352151Y-79931742D01*
X92412457Y-79786151D01*
X92433158Y-79682081D01*
X94350839Y-77764400D01*
X94416269Y-77764400D01*
X94397600Y-77858256D01*
X94397600Y-77996144D01*
X94424501Y-78131382D01*
X94477268Y-78258774D01*
X94553874Y-78373424D01*
X94651376Y-78470926D01*
X94766026Y-78547532D01*
X94893418Y-78600299D01*
X95028656Y-78627200D01*
X95090493Y-78627200D01*
X95133079Y-78669786D01*
X95148736Y-78688864D01*
X95224871Y-78751346D01*
X95311733Y-78797775D01*
X95405983Y-78826365D01*
X95479440Y-78833600D01*
X95479449Y-78833600D01*
X95503999Y-78836018D01*
X95528549Y-78833600D01*
X101246498Y-78833600D01*
X101270071Y-78852946D01*
X101356933Y-78899375D01*
X101451183Y-78927965D01*
X101524640Y-78935200D01*
X101524641Y-78935200D01*
X101549199Y-78937619D01*
X101573757Y-78935200D01*
X102024450Y-78935200D01*
X102068176Y-78978926D01*
X102182826Y-79055532D01*
X102310218Y-79108299D01*
X102445456Y-79135200D01*
X102583344Y-79135200D01*
X102718582Y-79108299D01*
X102845974Y-79055532D01*
X102960624Y-78978926D01*
X103058126Y-78881424D01*
X103134732Y-78766774D01*
X103187499Y-78639382D01*
X103214400Y-78504144D01*
X103214400Y-78366256D01*
X103187499Y-78231018D01*
X103134732Y-78103626D01*
X103058126Y-77988976D01*
X102960624Y-77891474D01*
X102845974Y-77814868D01*
X102718582Y-77762101D01*
X102601240Y-77738760D01*
X102577899Y-77621418D01*
X102525132Y-77494026D01*
X102448526Y-77379376D01*
X102396710Y-77327560D01*
X124279963Y-77327560D01*
X124280036Y-77613186D01*
X124335831Y-77893309D01*
X124444850Y-78156502D01*
X124657378Y-78259779D01*
X125447157Y-77470000D01*
X126012843Y-77470000D01*
X126802622Y-78259779D01*
X127000000Y-78163864D01*
X127197378Y-78259779D01*
X127987157Y-77470000D01*
X128552843Y-77470000D01*
X129342622Y-78259779D01*
X129555150Y-78156502D01*
X129664386Y-77892591D01*
X129720037Y-77612440D01*
X129719964Y-77326814D01*
X129664169Y-77046691D01*
X129555150Y-76783498D01*
X129342622Y-76680221D01*
X128552843Y-77470000D01*
X127987157Y-77470000D01*
X127197378Y-76680221D01*
X127000000Y-76776136D01*
X126802622Y-76680221D01*
X126012843Y-77470000D01*
X125447157Y-77470000D01*
X124657378Y-76680221D01*
X124444850Y-76783498D01*
X124335614Y-77047409D01*
X124279963Y-77327560D01*
X102396710Y-77327560D01*
X102351024Y-77281874D01*
X102236374Y-77205268D01*
X102108982Y-77152501D01*
X101973744Y-77125600D01*
X101835856Y-77125600D01*
X101700618Y-77152501D01*
X101573226Y-77205268D01*
X101458576Y-77281874D01*
X101414850Y-77325600D01*
X98098707Y-77325600D01*
X96890929Y-76117824D01*
X96875264Y-76098736D01*
X96799129Y-76036254D01*
X96712267Y-75989825D01*
X96618017Y-75961235D01*
X96544560Y-75954000D01*
X96520000Y-75951581D01*
X96495440Y-75954000D01*
X93750560Y-75954000D01*
X93726000Y-75951581D01*
X93701440Y-75954000D01*
X93627983Y-75961235D01*
X93533733Y-75989825D01*
X93446871Y-76036254D01*
X93370736Y-76098736D01*
X93355080Y-76117813D01*
X92756895Y-76716000D01*
X89694750Y-76716000D01*
X89651024Y-76672274D01*
X89536374Y-76595668D01*
X89408982Y-76542901D01*
X89273744Y-76516000D01*
X89135856Y-76516000D01*
X89000618Y-76542901D01*
X88873226Y-76595668D01*
X88758576Y-76672274D01*
X88661074Y-76769776D01*
X88584468Y-76884426D01*
X88531701Y-77011818D01*
X88504800Y-77147056D01*
X88504800Y-77284944D01*
X88531701Y-77420182D01*
X88584468Y-77547574D01*
X88661074Y-77662224D01*
X88758576Y-77759726D01*
X88873226Y-77836332D01*
X89000618Y-77889099D01*
X89135856Y-77916000D01*
X89273744Y-77916000D01*
X89408982Y-77889099D01*
X89536374Y-77836332D01*
X89651024Y-77759726D01*
X89694750Y-77716000D01*
X92560761Y-77716000D01*
X91513919Y-78762842D01*
X91409849Y-78783543D01*
X91264258Y-78843849D01*
X91133230Y-78931399D01*
X91021799Y-79042830D01*
X90934249Y-79173858D01*
X90887867Y-79285835D01*
X90864175Y-79207733D01*
X90817746Y-79120871D01*
X90755264Y-79044736D01*
X90736181Y-79029075D01*
X90318930Y-78611825D01*
X90303265Y-78592737D01*
X90227130Y-78530255D01*
X90140268Y-78483826D01*
X90046018Y-78455236D01*
X89972561Y-78448001D01*
X89948001Y-78445582D01*
X89923441Y-78448001D01*
X89224559Y-78448001D01*
X89199999Y-78445582D01*
X89175439Y-78448001D01*
X89101982Y-78455236D01*
X89007732Y-78483826D01*
X88920870Y-78530255D01*
X88899248Y-78548000D01*
X88831056Y-78548000D01*
X88695818Y-78574901D01*
X88654732Y-78591919D01*
X88631332Y-78535426D01*
X88555878Y-78422500D01*
X88631332Y-78309574D01*
X88684099Y-78182182D01*
X88711000Y-78046944D01*
X88711000Y-77909056D01*
X88684099Y-77773818D01*
X88631332Y-77646426D01*
X88554726Y-77531776D01*
X88457224Y-77434274D01*
X88342574Y-77357668D01*
X88215182Y-77304901D01*
X88079944Y-77278000D01*
X87942056Y-77278000D01*
X87806818Y-77304901D01*
X87679426Y-77357668D01*
X87564776Y-77434274D01*
X87467274Y-77531776D01*
X87390668Y-77646426D01*
X87337901Y-77773818D01*
X87311000Y-77909056D01*
X87311000Y-77970894D01*
X86431895Y-78850000D01*
X74414560Y-78850000D01*
X74390000Y-78847581D01*
X74365440Y-78850000D01*
X74291983Y-78857235D01*
X74197733Y-78885825D01*
X74110871Y-78932254D01*
X74034736Y-78994736D01*
X74019080Y-79013813D01*
X73323824Y-79709071D01*
X73304736Y-79724736D01*
X73242254Y-79800871D01*
X73195825Y-79887734D01*
X73182550Y-79931497D01*
X73167235Y-79981983D01*
X73164374Y-80011030D01*
X73101742Y-80044508D01*
X72949472Y-80169472D01*
X72824508Y-80321742D01*
X72731651Y-80495466D01*
X72674470Y-80683967D01*
X72660000Y-80830881D01*
X72660000Y-81729120D01*
X72674471Y-81876034D01*
X72731652Y-82064535D01*
X72804060Y-82200000D01*
X72747107Y-82200000D01*
X72120000Y-81572894D01*
X72120000Y-80830880D01*
X72105530Y-80683966D01*
X72048349Y-80495465D01*
X71955492Y-80321742D01*
X71830528Y-80169472D01*
X71678258Y-80044508D01*
X71504534Y-79951651D01*
X71316033Y-79894470D01*
X71120000Y-79875162D01*
X70923966Y-79894470D01*
X70735465Y-79951651D01*
X70561742Y-80044508D01*
X70409472Y-80169472D01*
X70284508Y-80321742D01*
X70191651Y-80495466D01*
X70134470Y-80683967D01*
X70120000Y-80830881D01*
X70120000Y-81729120D01*
X70134471Y-81876034D01*
X70191652Y-82064535D01*
X70284509Y-82238258D01*
X70409473Y-82390528D01*
X70561743Y-82515492D01*
X70735466Y-82608349D01*
X70872771Y-82650000D01*
X70657107Y-82650000D01*
X69581935Y-81574829D01*
X69581935Y-80580000D01*
X69568448Y-80443059D01*
X69528503Y-80311381D01*
X69463638Y-80190026D01*
X69376343Y-80083657D01*
X69269974Y-79996362D01*
X69148619Y-79931497D01*
X69016941Y-79891552D01*
X68880000Y-79878065D01*
X68280000Y-79878065D01*
X68143059Y-79891552D01*
X68011381Y-79931497D01*
X67890026Y-79996362D01*
X67783657Y-80083657D01*
X67696362Y-80190026D01*
X67631497Y-80311381D01*
X67591552Y-80443059D01*
X67578065Y-80580000D01*
X52170000Y-80580000D01*
X52170000Y-75206807D01*
X85204400Y-75206807D01*
X85204400Y-75364393D01*
X85235143Y-75518951D01*
X85295449Y-75664542D01*
X85382999Y-75795570D01*
X85494430Y-75907001D01*
X85625458Y-75994551D01*
X85771049Y-76054857D01*
X85925607Y-76085600D01*
X86083193Y-76085600D01*
X86237751Y-76054857D01*
X86383342Y-75994551D01*
X86514370Y-75907001D01*
X86625801Y-75795570D01*
X86713351Y-75664542D01*
X86773657Y-75518951D01*
X86794358Y-75414881D01*
X87813043Y-74396196D01*
X87837843Y-74375843D01*
X87862153Y-74346222D01*
X87919069Y-74276869D01*
X87950109Y-74218799D01*
X87979427Y-74163948D01*
X88016595Y-74041422D01*
X88026000Y-73945932D01*
X88026000Y-73945922D01*
X88029144Y-73914001D01*
X88026000Y-73882080D01*
X88026000Y-73497200D01*
X90506732Y-73497200D01*
X90602222Y-73487795D01*
X90724748Y-73450627D01*
X90824703Y-73397200D01*
X94493697Y-73397200D01*
X94593652Y-73450627D01*
X94716178Y-73487795D01*
X94811668Y-73497200D01*
X95844362Y-73497200D01*
X97003004Y-74655843D01*
X97023357Y-74680643D01*
X97048157Y-74700996D01*
X97048159Y-74700998D01*
X97101037Y-74744393D01*
X97122332Y-74761870D01*
X97235252Y-74822227D01*
X97357778Y-74859395D01*
X97453268Y-74868800D01*
X97453278Y-74868800D01*
X97485199Y-74871944D01*
X97517120Y-74868800D01*
X98135631Y-74868800D01*
X98223858Y-74927751D01*
X98369449Y-74988057D01*
X98473519Y-75008758D01*
X99390604Y-75925843D01*
X99410957Y-75950643D01*
X99435757Y-75970996D01*
X99435759Y-75970998D01*
X99445038Y-75978613D01*
X99509932Y-76031870D01*
X99622852Y-76092227D01*
X99745378Y-76129395D01*
X99840868Y-76138800D01*
X99840878Y-76138800D01*
X99872799Y-76141944D01*
X99904720Y-76138800D01*
X101771279Y-76138800D01*
X101803200Y-76141944D01*
X101835121Y-76138800D01*
X101835132Y-76138800D01*
X101930622Y-76129395D01*
X102053148Y-76092227D01*
X102166068Y-76031870D01*
X102265043Y-75950643D01*
X102285400Y-75925838D01*
X104675680Y-73535558D01*
X104779751Y-73514857D01*
X104925342Y-73454551D01*
X105056370Y-73367001D01*
X105167801Y-73255570D01*
X105255351Y-73124542D01*
X105315657Y-72978951D01*
X105346400Y-72824393D01*
X105346400Y-72666807D01*
X105315657Y-72512249D01*
X105255351Y-72366658D01*
X105167801Y-72235630D01*
X105056370Y-72124199D01*
X104925342Y-72036649D01*
X104779751Y-71976343D01*
X104625193Y-71945600D01*
X104467607Y-71945600D01*
X104313049Y-71976343D01*
X104167458Y-72036649D01*
X104036430Y-72124199D01*
X103924999Y-72235630D01*
X103837449Y-72366658D01*
X103777143Y-72512249D01*
X103756442Y-72616320D01*
X101533962Y-74838800D01*
X100142039Y-74838800D01*
X99392758Y-74089519D01*
X99372057Y-73985449D01*
X99311751Y-73839858D01*
X99224201Y-73708830D01*
X99112770Y-73597399D01*
X98996302Y-73519578D01*
X99021899Y-73457782D01*
X99043896Y-73347200D01*
X99949840Y-73347200D01*
X99974400Y-73349619D01*
X99998960Y-73347200D01*
X100072417Y-73339965D01*
X100166667Y-73311375D01*
X100253529Y-73264946D01*
X100329664Y-73202464D01*
X100345329Y-73183376D01*
X101553107Y-71975600D01*
X102620622Y-71975600D01*
X102656068Y-72061174D01*
X102732674Y-72175824D01*
X102830176Y-72273326D01*
X102944826Y-72349932D01*
X103072218Y-72402699D01*
X103207456Y-72429600D01*
X103345344Y-72429600D01*
X103480582Y-72402699D01*
X103607974Y-72349932D01*
X103722624Y-72273326D01*
X103820126Y-72175824D01*
X103896732Y-72061174D01*
X103949499Y-71933782D01*
X103976400Y-71798544D01*
X103976400Y-71660656D01*
X103949499Y-71525418D01*
X103896732Y-71398026D01*
X103820126Y-71283376D01*
X103722624Y-71185874D01*
X103607974Y-71109268D01*
X103480582Y-71056501D01*
X103345344Y-71029600D01*
X103248670Y-71029600D01*
X103214667Y-71011425D01*
X103120417Y-70982835D01*
X103046960Y-70975600D01*
X103022400Y-70973181D01*
X102997840Y-70975600D01*
X101370549Y-70975600D01*
X101345999Y-70973182D01*
X101321449Y-70975600D01*
X101321440Y-70975600D01*
X101247983Y-70982835D01*
X101153733Y-71011425D01*
X101066871Y-71057854D01*
X100990736Y-71120336D01*
X100980000Y-71133418D01*
X100980000Y-67224821D01*
X101041743Y-67275492D01*
X101215466Y-67368349D01*
X101403967Y-67425530D01*
X101600000Y-67444838D01*
X101796034Y-67425530D01*
X101984535Y-67368349D01*
X102158258Y-67275492D01*
X102310528Y-67150528D01*
X102435492Y-66998258D01*
X102528349Y-66824535D01*
X102585530Y-66636033D01*
X102600000Y-66489119D01*
X102600000Y-65590881D01*
X103140000Y-65590881D01*
X103140000Y-66489120D01*
X103154471Y-66636034D01*
X103211652Y-66824535D01*
X103304509Y-66998258D01*
X103429473Y-67150528D01*
X103581743Y-67275492D01*
X103755466Y-67368349D01*
X103943967Y-67425530D01*
X104140000Y-67444838D01*
X104336034Y-67425530D01*
X104524535Y-67368349D01*
X104698258Y-67275492D01*
X104850528Y-67150528D01*
X104975492Y-66998258D01*
X105068349Y-66824535D01*
X105125530Y-66636033D01*
X105140000Y-66489119D01*
X105140000Y-65590881D01*
X105680000Y-65590881D01*
X105680000Y-66489120D01*
X105694471Y-66636034D01*
X105751652Y-66824535D01*
X105844509Y-66998258D01*
X105969473Y-67150528D01*
X106121743Y-67275492D01*
X106295466Y-67368349D01*
X106483967Y-67425530D01*
X106680000Y-67444838D01*
X106876034Y-67425530D01*
X107064535Y-67368349D01*
X107238258Y-67275492D01*
X107390528Y-67150528D01*
X107515492Y-66998258D01*
X107608349Y-66824535D01*
X107665530Y-66636033D01*
X107680000Y-66489119D01*
X107680000Y-65590881D01*
X108220000Y-65590881D01*
X108220000Y-66489120D01*
X108234471Y-66636034D01*
X108291652Y-66824535D01*
X108384509Y-66998258D01*
X108509473Y-67150528D01*
X108661743Y-67275492D01*
X108835466Y-67368349D01*
X109023967Y-67425530D01*
X109220000Y-67444838D01*
X109416034Y-67425530D01*
X109604535Y-67368349D01*
X109778258Y-67275492D01*
X109930528Y-67150528D01*
X110055492Y-66998258D01*
X110148349Y-66824535D01*
X110205530Y-66636033D01*
X110220000Y-66489119D01*
X110220000Y-65590881D01*
X110760000Y-65590881D01*
X110760000Y-66489120D01*
X110774471Y-66636034D01*
X110831652Y-66824535D01*
X110924509Y-66998258D01*
X111049473Y-67150528D01*
X111201743Y-67275492D01*
X111375466Y-67368349D01*
X111563967Y-67425530D01*
X111760000Y-67444838D01*
X111956034Y-67425530D01*
X112144535Y-67368349D01*
X112318258Y-67275492D01*
X112470528Y-67150528D01*
X112595492Y-66998258D01*
X112688349Y-66824535D01*
X112745530Y-66636033D01*
X112760000Y-66489119D01*
X112760000Y-65590881D01*
X113300000Y-65590881D01*
X113300000Y-66489120D01*
X113314471Y-66636034D01*
X113371652Y-66824535D01*
X113464509Y-66998258D01*
X113589473Y-67150528D01*
X113741743Y-67275492D01*
X113915466Y-67368349D01*
X114103967Y-67425530D01*
X114300000Y-67444838D01*
X114496034Y-67425530D01*
X114684535Y-67368349D01*
X114858258Y-67275492D01*
X115010528Y-67150528D01*
X115135492Y-66998258D01*
X115228349Y-66824535D01*
X115285530Y-66636033D01*
X115300000Y-66489119D01*
X115300000Y-65590881D01*
X115840000Y-65590881D01*
X115840000Y-66489120D01*
X115854471Y-66636034D01*
X115911652Y-66824535D01*
X116004509Y-66998258D01*
X116129473Y-67150528D01*
X116281743Y-67275492D01*
X116455466Y-67368349D01*
X116643967Y-67425530D01*
X116840000Y-67444838D01*
X117036034Y-67425530D01*
X117224535Y-67368349D01*
X117398258Y-67275492D01*
X117550528Y-67150528D01*
X117675492Y-66998258D01*
X117768349Y-66824535D01*
X117825530Y-66636033D01*
X117840000Y-66489119D01*
X117840000Y-66360000D01*
X124378065Y-66360000D01*
X124378065Y-68260000D01*
X124385788Y-68338414D01*
X124408660Y-68413814D01*
X124445803Y-68483303D01*
X124495789Y-68544211D01*
X124556697Y-68594197D01*
X124626186Y-68631340D01*
X124701586Y-68654212D01*
X124780000Y-68661935D01*
X125078130Y-68661935D01*
X124869425Y-68801387D01*
X124681387Y-68989425D01*
X124533646Y-69210535D01*
X124431880Y-69456220D01*
X124380000Y-69717037D01*
X124380000Y-69982963D01*
X124431880Y-70243780D01*
X124533646Y-70489465D01*
X124681387Y-70710575D01*
X124869425Y-70898613D01*
X125090535Y-71046354D01*
X125268332Y-71120000D01*
X125090535Y-71193646D01*
X124869425Y-71341387D01*
X124681387Y-71529425D01*
X124533646Y-71750535D01*
X124431880Y-71996220D01*
X124380000Y-72257037D01*
X124380000Y-72522963D01*
X124431880Y-72783780D01*
X124533646Y-73029465D01*
X124681387Y-73250575D01*
X124869425Y-73438613D01*
X125090535Y-73586354D01*
X125268332Y-73660000D01*
X125090535Y-73733646D01*
X124869425Y-73881387D01*
X124681387Y-74069425D01*
X124533646Y-74290535D01*
X124431880Y-74536220D01*
X124380000Y-74797037D01*
X124380000Y-75062963D01*
X124431880Y-75323780D01*
X124533646Y-75569465D01*
X124681387Y-75790575D01*
X124869425Y-75978613D01*
X125090535Y-76126354D01*
X125137627Y-76145860D01*
X125043498Y-76184850D01*
X124940221Y-76397378D01*
X125730000Y-77187157D01*
X126519779Y-76397378D01*
X126416502Y-76184850D01*
X126322338Y-76145874D01*
X126369465Y-76126354D01*
X126590575Y-75978613D01*
X126778613Y-75790575D01*
X126926354Y-75569465D01*
X127000000Y-75391668D01*
X127073646Y-75569465D01*
X127221387Y-75790575D01*
X127409425Y-75978613D01*
X127630535Y-76126354D01*
X127677627Y-76145860D01*
X127583498Y-76184850D01*
X127480221Y-76397378D01*
X128270000Y-77187157D01*
X129059779Y-76397378D01*
X128956502Y-76184850D01*
X128862338Y-76145874D01*
X128909465Y-76126354D01*
X129130575Y-75978613D01*
X129318613Y-75790575D01*
X129466354Y-75569465D01*
X129568120Y-75323780D01*
X129620000Y-75062963D01*
X129620000Y-74797037D01*
X129568120Y-74536220D01*
X129466354Y-74290535D01*
X129318613Y-74069425D01*
X129130575Y-73881387D01*
X128909465Y-73733646D01*
X128731668Y-73660000D01*
X128909465Y-73586354D01*
X129130575Y-73438613D01*
X129318613Y-73250575D01*
X129466354Y-73029465D01*
X129568120Y-72783780D01*
X129620000Y-72522963D01*
X129620000Y-72257037D01*
X129568120Y-71996220D01*
X129466354Y-71750535D01*
X129318613Y-71529425D01*
X129130575Y-71341387D01*
X128909465Y-71193646D01*
X128731668Y-71120000D01*
X128909465Y-71046354D01*
X129130575Y-70898613D01*
X129318613Y-70710575D01*
X129466354Y-70489465D01*
X129568120Y-70243780D01*
X129620000Y-69982963D01*
X129620000Y-69717037D01*
X129568120Y-69456220D01*
X129466354Y-69210535D01*
X129318613Y-68989425D01*
X129130575Y-68801387D01*
X128909465Y-68653646D01*
X128731668Y-68580000D01*
X128909465Y-68506354D01*
X129130575Y-68358613D01*
X129318613Y-68170575D01*
X129466354Y-67949465D01*
X129568120Y-67703780D01*
X129620000Y-67442963D01*
X129620000Y-67177037D01*
X129568120Y-66916220D01*
X129466354Y-66670535D01*
X129318613Y-66449425D01*
X129130575Y-66261387D01*
X128909465Y-66113646D01*
X128663780Y-66011880D01*
X128402963Y-65960000D01*
X128137037Y-65960000D01*
X127876220Y-66011880D01*
X127630535Y-66113646D01*
X127409425Y-66261387D01*
X127221387Y-66449425D01*
X127081935Y-66658130D01*
X127081935Y-66360000D01*
X127074212Y-66281586D01*
X127051340Y-66206186D01*
X127014197Y-66136697D01*
X126964211Y-66075789D01*
X126903303Y-66025803D01*
X126833814Y-65988660D01*
X126758414Y-65965788D01*
X126680000Y-65958065D01*
X124780000Y-65958065D01*
X124701586Y-65965788D01*
X124626186Y-65988660D01*
X124556697Y-66025803D01*
X124495789Y-66075789D01*
X124445803Y-66136697D01*
X124408660Y-66206186D01*
X124385788Y-66281586D01*
X124378065Y-66360000D01*
X117840000Y-66360000D01*
X117840000Y-65590880D01*
X117825530Y-65443966D01*
X117768349Y-65255465D01*
X117675492Y-65081742D01*
X117550528Y-64929472D01*
X117398258Y-64804508D01*
X117224534Y-64711651D01*
X117036033Y-64654470D01*
X116840000Y-64635162D01*
X116643966Y-64654470D01*
X116455465Y-64711651D01*
X116281742Y-64804508D01*
X116129472Y-64929472D01*
X116004508Y-65081742D01*
X115911651Y-65255466D01*
X115854470Y-65443967D01*
X115840000Y-65590881D01*
X115300000Y-65590881D01*
X115300000Y-65590880D01*
X115285530Y-65443966D01*
X115228349Y-65255465D01*
X115135492Y-65081742D01*
X115010528Y-64929472D01*
X114858258Y-64804508D01*
X114684534Y-64711651D01*
X114496033Y-64654470D01*
X114300000Y-64635162D01*
X114103966Y-64654470D01*
X113915465Y-64711651D01*
X113741742Y-64804508D01*
X113589472Y-64929472D01*
X113464508Y-65081742D01*
X113371651Y-65255466D01*
X113314470Y-65443967D01*
X113300000Y-65590881D01*
X112760000Y-65590881D01*
X112760000Y-65590880D01*
X112745530Y-65443966D01*
X112688349Y-65255465D01*
X112595492Y-65081742D01*
X112470528Y-64929472D01*
X112318258Y-64804508D01*
X112144534Y-64711651D01*
X111956033Y-64654470D01*
X111760000Y-64635162D01*
X111563966Y-64654470D01*
X111375465Y-64711651D01*
X111201742Y-64804508D01*
X111049472Y-64929472D01*
X110924508Y-65081742D01*
X110831651Y-65255466D01*
X110774470Y-65443967D01*
X110760000Y-65590881D01*
X110220000Y-65590881D01*
X110220000Y-65590880D01*
X110205530Y-65443966D01*
X110148349Y-65255465D01*
X110055492Y-65081742D01*
X109930528Y-64929472D01*
X109778258Y-64804508D01*
X109604534Y-64711651D01*
X109416033Y-64654470D01*
X109220000Y-64635162D01*
X109023966Y-64654470D01*
X108835465Y-64711651D01*
X108661742Y-64804508D01*
X108509472Y-64929472D01*
X108384508Y-65081742D01*
X108291651Y-65255466D01*
X108234470Y-65443967D01*
X108220000Y-65590881D01*
X107680000Y-65590881D01*
X107680000Y-65590880D01*
X107665530Y-65443966D01*
X107608349Y-65255465D01*
X107515492Y-65081742D01*
X107390528Y-64929472D01*
X107238258Y-64804508D01*
X107064534Y-64711651D01*
X106876033Y-64654470D01*
X106680000Y-64635162D01*
X106483966Y-64654470D01*
X106295465Y-64711651D01*
X106121742Y-64804508D01*
X105969472Y-64929472D01*
X105844508Y-65081742D01*
X105751651Y-65255466D01*
X105694470Y-65443967D01*
X105680000Y-65590881D01*
X105140000Y-65590881D01*
X105140000Y-65590880D01*
X105125530Y-65443966D01*
X105068349Y-65255465D01*
X104975492Y-65081742D01*
X104850528Y-64929472D01*
X104698258Y-64804508D01*
X104524534Y-64711651D01*
X104336033Y-64654470D01*
X104140000Y-64635162D01*
X103943966Y-64654470D01*
X103755465Y-64711651D01*
X103581742Y-64804508D01*
X103429472Y-64929472D01*
X103304508Y-65081742D01*
X103211651Y-65255466D01*
X103154470Y-65443967D01*
X103140000Y-65590881D01*
X102600000Y-65590881D01*
X102600000Y-65590880D01*
X102585530Y-65443966D01*
X102528349Y-65255465D01*
X102435492Y-65081742D01*
X102310528Y-64929472D01*
X102158258Y-64804508D01*
X101984534Y-64711651D01*
X101796033Y-64654470D01*
X101600000Y-64635162D01*
X101403966Y-64654470D01*
X101215465Y-64711651D01*
X101130000Y-64757333D01*
X101130000Y-64640407D01*
X101099257Y-64485849D01*
X101038951Y-64340258D01*
X100951401Y-64209230D01*
X100839970Y-64097799D01*
X100708942Y-64010249D01*
X100563351Y-63949943D01*
X100408793Y-63919200D01*
X100251207Y-63919200D01*
X100096649Y-63949943D01*
X99951058Y-64010249D01*
X99820030Y-64097799D01*
X99708599Y-64209230D01*
X99621049Y-64340258D01*
X99560743Y-64485849D01*
X99530000Y-64640407D01*
X99530000Y-64757333D01*
X99444534Y-64711651D01*
X99256033Y-64654470D01*
X99060000Y-64635162D01*
X98863966Y-64654470D01*
X98675465Y-64711651D01*
X98501742Y-64804508D01*
X98349472Y-64929472D01*
X98224508Y-65081742D01*
X98131651Y-65255466D01*
X98074470Y-65443967D01*
X98060000Y-65590881D01*
X98060000Y-66489120D01*
X98074471Y-66636034D01*
X98131652Y-66824535D01*
X98224509Y-66998258D01*
X98349473Y-67150528D01*
X98501743Y-67275492D01*
X98675466Y-67368349D01*
X98863967Y-67425530D01*
X99060000Y-67444838D01*
X99256034Y-67425530D01*
X99444535Y-67368349D01*
X99618258Y-67275492D01*
X99680000Y-67224822D01*
X99680001Y-70915102D01*
X99654526Y-70876976D01*
X99557024Y-70779474D01*
X99442374Y-70702868D01*
X99314982Y-70650101D01*
X99179744Y-70623200D01*
X99041856Y-70623200D01*
X98906618Y-70650101D01*
X98779226Y-70702868D01*
X98664576Y-70779474D01*
X98620850Y-70823200D01*
X98119349Y-70823200D01*
X98094799Y-70820782D01*
X98070249Y-70823200D01*
X98070240Y-70823200D01*
X97996783Y-70830435D01*
X97902533Y-70859025D01*
X97815671Y-70905454D01*
X97739536Y-70967936D01*
X97723879Y-70987014D01*
X97301419Y-71409476D01*
X97282337Y-71425136D01*
X97219855Y-71501271D01*
X97180323Y-71575230D01*
X97173426Y-71588133D01*
X97144835Y-71682383D01*
X97135181Y-71780400D01*
X97137601Y-71804970D01*
X97137601Y-72255649D01*
X97093874Y-72299376D01*
X97017268Y-72414026D01*
X96964501Y-72541418D01*
X96937600Y-72676656D01*
X96937600Y-72751962D01*
X96595800Y-72410162D01*
X96575443Y-72385357D01*
X96476468Y-72304130D01*
X96363548Y-72243773D01*
X96241022Y-72206605D01*
X96145532Y-72197200D01*
X96145521Y-72197200D01*
X96113600Y-72194056D01*
X96081679Y-72197200D01*
X94811668Y-72197200D01*
X94716178Y-72206605D01*
X94593652Y-72243773D01*
X94493697Y-72297200D01*
X90824703Y-72297200D01*
X90724748Y-72243773D01*
X90602222Y-72206605D01*
X90506732Y-72197200D01*
X87560320Y-72197200D01*
X87528399Y-72194056D01*
X87496478Y-72197200D01*
X87496468Y-72197200D01*
X87460525Y-72200740D01*
X87454793Y-72199600D01*
X87297207Y-72199600D01*
X87142649Y-72230343D01*
X86997058Y-72290649D01*
X86866030Y-72378199D01*
X86754599Y-72489630D01*
X86667049Y-72620658D01*
X86606743Y-72766249D01*
X86576000Y-72920807D01*
X86576000Y-73078393D01*
X86606743Y-73232951D01*
X86667049Y-73378542D01*
X86726000Y-73466769D01*
X86726000Y-73644761D01*
X85875119Y-74495642D01*
X85771049Y-74516343D01*
X85625458Y-74576649D01*
X85494430Y-74664199D01*
X85382999Y-74775630D01*
X85295449Y-74906658D01*
X85235143Y-75052249D01*
X85204400Y-75206807D01*
X52170000Y-75206807D01*
X52170000Y-65590881D01*
X67580000Y-65590881D01*
X67580000Y-66489120D01*
X67594471Y-66636034D01*
X67651652Y-66824535D01*
X67744509Y-66998258D01*
X67869473Y-67150528D01*
X68021743Y-67275492D01*
X68195466Y-67368349D01*
X68383967Y-67425530D01*
X68580000Y-67444838D01*
X68776034Y-67425530D01*
X68964535Y-67368349D01*
X69138258Y-67275492D01*
X69290528Y-67150528D01*
X69415492Y-66998258D01*
X69508349Y-66824535D01*
X69565530Y-66636033D01*
X69580000Y-66489119D01*
X69580000Y-66240000D01*
X70020000Y-66240000D01*
X70020000Y-66640000D01*
X70080154Y-66850756D01*
X70180269Y-67045727D01*
X70316497Y-67217421D01*
X70483603Y-67359239D01*
X70675166Y-67465731D01*
X70753253Y-67477061D01*
X70920000Y-67394267D01*
X70920000Y-66240000D01*
X71320000Y-66240000D01*
X71320000Y-67394267D01*
X71486747Y-67477061D01*
X71564834Y-67465731D01*
X71756397Y-67359239D01*
X71923503Y-67217421D01*
X72059731Y-67045727D01*
X72159846Y-66850756D01*
X72220000Y-66640000D01*
X72220000Y-66240000D01*
X71320000Y-66240000D01*
X70920000Y-66240000D01*
X70020000Y-66240000D01*
X69580000Y-66240000D01*
X69580000Y-65590880D01*
X69565530Y-65443966D01*
X69564327Y-65440000D01*
X70020000Y-65440000D01*
X70020000Y-65840000D01*
X70920000Y-65840000D01*
X70920000Y-64685733D01*
X71320000Y-64685733D01*
X71320000Y-65840000D01*
X72220000Y-65840000D01*
X72220000Y-65590881D01*
X72660000Y-65590881D01*
X72660000Y-66489120D01*
X72674471Y-66636034D01*
X72731652Y-66824535D01*
X72824509Y-66998258D01*
X72949473Y-67150528D01*
X73101743Y-67275492D01*
X73275466Y-67368349D01*
X73463967Y-67425530D01*
X73660000Y-67444838D01*
X73856034Y-67425530D01*
X74044535Y-67368349D01*
X74218258Y-67275492D01*
X74370528Y-67150528D01*
X74495492Y-66998258D01*
X74588349Y-66824535D01*
X74645530Y-66636033D01*
X74660000Y-66489119D01*
X74660000Y-65590881D01*
X75200000Y-65590881D01*
X75200000Y-66489120D01*
X75214471Y-66636034D01*
X75271652Y-66824535D01*
X75364509Y-66998258D01*
X75489473Y-67150528D01*
X75641743Y-67275492D01*
X75650000Y-67279906D01*
X75650001Y-70183028D01*
X75578599Y-70254430D01*
X75491049Y-70385458D01*
X75430743Y-70531049D01*
X75400000Y-70685607D01*
X75400000Y-70843193D01*
X75430743Y-70997751D01*
X75491049Y-71143342D01*
X75578599Y-71274370D01*
X75690030Y-71385801D01*
X75821058Y-71473351D01*
X75966649Y-71533657D01*
X76121207Y-71564400D01*
X76278793Y-71564400D01*
X76433351Y-71533657D01*
X76578942Y-71473351D01*
X76709970Y-71385801D01*
X76821401Y-71274370D01*
X76908951Y-71143342D01*
X76969257Y-70997751D01*
X77000000Y-70843193D01*
X77000000Y-70685607D01*
X76969257Y-70531049D01*
X76908951Y-70385458D01*
X76821401Y-70254430D01*
X76750000Y-70183029D01*
X76750000Y-69872807D01*
X86525200Y-69872807D01*
X86525200Y-70030393D01*
X86555943Y-70184951D01*
X86616249Y-70330542D01*
X86703799Y-70461570D01*
X86815230Y-70573001D01*
X86946258Y-70660551D01*
X87091849Y-70720857D01*
X87246407Y-70751600D01*
X87403993Y-70751600D01*
X87558551Y-70720857D01*
X87704142Y-70660551D01*
X87835170Y-70573001D01*
X87946601Y-70461570D01*
X88034151Y-70330542D01*
X88094457Y-70184951D01*
X88125200Y-70030393D01*
X88125200Y-69872807D01*
X88094457Y-69718249D01*
X88034151Y-69572658D01*
X87946601Y-69441630D01*
X87835170Y-69330199D01*
X87704142Y-69242649D01*
X87558551Y-69182343D01*
X87403993Y-69151600D01*
X87246407Y-69151600D01*
X87091849Y-69182343D01*
X86946258Y-69242649D01*
X86815230Y-69330199D01*
X86703799Y-69441630D01*
X86616249Y-69572658D01*
X86555943Y-69718249D01*
X86525200Y-69872807D01*
X76750000Y-69872807D01*
X76750000Y-67279906D01*
X76758258Y-67275492D01*
X76910528Y-67150528D01*
X77035492Y-66998258D01*
X77128349Y-66824535D01*
X77185530Y-66636033D01*
X77200000Y-66489119D01*
X77200000Y-65590881D01*
X77740000Y-65590881D01*
X77740000Y-66489120D01*
X77754471Y-66636034D01*
X77811652Y-66824535D01*
X77904509Y-66998258D01*
X78029473Y-67150528D01*
X78181743Y-67275492D01*
X78355466Y-67368349D01*
X78543967Y-67425530D01*
X78740000Y-67444838D01*
X78936034Y-67425530D01*
X79124535Y-67368349D01*
X79298258Y-67275492D01*
X79450528Y-67150528D01*
X79575492Y-66998258D01*
X79668349Y-66824535D01*
X79725530Y-66636033D01*
X79740000Y-66489119D01*
X79740000Y-65590881D01*
X80280000Y-65590881D01*
X80280000Y-66489120D01*
X80294471Y-66636034D01*
X80351652Y-66824535D01*
X80444509Y-66998258D01*
X80569473Y-67150528D01*
X80721743Y-67275492D01*
X80895466Y-67368349D01*
X81083967Y-67425530D01*
X81280000Y-67444838D01*
X81476034Y-67425530D01*
X81664535Y-67368349D01*
X81838258Y-67275492D01*
X81990528Y-67150528D01*
X82115492Y-66998258D01*
X82208349Y-66824535D01*
X82265530Y-66636033D01*
X82280000Y-66489119D01*
X82280000Y-65590881D01*
X82820000Y-65590881D01*
X82820000Y-66489120D01*
X82834471Y-66636034D01*
X82891652Y-66824535D01*
X82984509Y-66998258D01*
X83109473Y-67150528D01*
X83261743Y-67275492D01*
X83435466Y-67368349D01*
X83623967Y-67425530D01*
X83820000Y-67444838D01*
X84016034Y-67425530D01*
X84204535Y-67368349D01*
X84378258Y-67275492D01*
X84530528Y-67150528D01*
X84655492Y-66998258D01*
X84748349Y-66824535D01*
X84805530Y-66636033D01*
X84820000Y-66489119D01*
X84820000Y-65590881D01*
X85360000Y-65590881D01*
X85360000Y-66489120D01*
X85374471Y-66636034D01*
X85431652Y-66824535D01*
X85524509Y-66998258D01*
X85649473Y-67150528D01*
X85801743Y-67275492D01*
X85975466Y-67368349D01*
X86163967Y-67425530D01*
X86360000Y-67444838D01*
X86556034Y-67425530D01*
X86744535Y-67368349D01*
X86918258Y-67275492D01*
X87070528Y-67150528D01*
X87195492Y-66998258D01*
X87288349Y-66824535D01*
X87345530Y-66636033D01*
X87360000Y-66489119D01*
X87360000Y-65590881D01*
X87900000Y-65590881D01*
X87900000Y-66489120D01*
X87914471Y-66636034D01*
X87971652Y-66824535D01*
X88064509Y-66998258D01*
X88189473Y-67150528D01*
X88341743Y-67275492D01*
X88515466Y-67368349D01*
X88703967Y-67425530D01*
X88900000Y-67444838D01*
X89096034Y-67425530D01*
X89284535Y-67368349D01*
X89458258Y-67275492D01*
X89610528Y-67150528D01*
X89735492Y-66998258D01*
X89828349Y-66824535D01*
X89885530Y-66636033D01*
X89900000Y-66489119D01*
X89900000Y-65590880D01*
X89885530Y-65443966D01*
X89828349Y-65255465D01*
X89735492Y-65081742D01*
X89610528Y-64929472D01*
X89569448Y-64895759D01*
X89621169Y-64861200D01*
X90812662Y-64861200D01*
X90729472Y-64929472D01*
X90604508Y-65081742D01*
X90511651Y-65255466D01*
X90454470Y-65443967D01*
X90440000Y-65590881D01*
X90440000Y-66489120D01*
X90454471Y-66636034D01*
X90511652Y-66824535D01*
X90604509Y-66998258D01*
X90729473Y-67150528D01*
X90881743Y-67275492D01*
X91055466Y-67368349D01*
X91243967Y-67425530D01*
X91440000Y-67444838D01*
X91636034Y-67425530D01*
X91824535Y-67368349D01*
X91998258Y-67275492D01*
X92060000Y-67224822D01*
X92060000Y-67977487D01*
X92056856Y-68009409D01*
X92060000Y-68041330D01*
X92060000Y-68041340D01*
X92069405Y-68136830D01*
X92106573Y-68259356D01*
X92166930Y-68372277D01*
X92201019Y-68413814D01*
X92248157Y-68471252D01*
X92272962Y-68491609D01*
X93694200Y-69912847D01*
X93717299Y-69968614D01*
X93793905Y-70083264D01*
X93891407Y-70180766D01*
X94006057Y-70257372D01*
X94133449Y-70310139D01*
X94268687Y-70337040D01*
X94406575Y-70337040D01*
X94541813Y-70310139D01*
X94669205Y-70257372D01*
X94783855Y-70180766D01*
X94881357Y-70083264D01*
X94957963Y-69968614D01*
X95010730Y-69841222D01*
X95037631Y-69705984D01*
X95037631Y-69568096D01*
X95010730Y-69432858D01*
X94957963Y-69305466D01*
X94881357Y-69190816D01*
X94783855Y-69093314D01*
X94669205Y-69016708D01*
X94613438Y-68993609D01*
X93360000Y-67740171D01*
X93360000Y-67224821D01*
X93421743Y-67275492D01*
X93595466Y-67368349D01*
X93783967Y-67425530D01*
X93980000Y-67444838D01*
X94176034Y-67425530D01*
X94364535Y-67368349D01*
X94538258Y-67275492D01*
X94690528Y-67150528D01*
X94815492Y-66998258D01*
X94908349Y-66824535D01*
X94965530Y-66636033D01*
X94980000Y-66489119D01*
X94980000Y-65590881D01*
X95520000Y-65590881D01*
X95520000Y-66489120D01*
X95534471Y-66636034D01*
X95591652Y-66824535D01*
X95684509Y-66998258D01*
X95809473Y-67150528D01*
X95961743Y-67275492D01*
X96135466Y-67368349D01*
X96323967Y-67425530D01*
X96520000Y-67444838D01*
X96716034Y-67425530D01*
X96904535Y-67368349D01*
X97078258Y-67275492D01*
X97230528Y-67150528D01*
X97355492Y-66998258D01*
X97448349Y-66824535D01*
X97505530Y-66636033D01*
X97520000Y-66489119D01*
X97520000Y-65590880D01*
X97505530Y-65443966D01*
X97448349Y-65255465D01*
X97355492Y-65081742D01*
X97230528Y-64929472D01*
X97078258Y-64804508D01*
X96904534Y-64711651D01*
X96716033Y-64654470D01*
X96520000Y-64635162D01*
X96323966Y-64654470D01*
X96135465Y-64711651D01*
X95961742Y-64804508D01*
X95809472Y-64929472D01*
X95684508Y-65081742D01*
X95591651Y-65255466D01*
X95534470Y-65443967D01*
X95520000Y-65590881D01*
X94980000Y-65590881D01*
X94980000Y-65590880D01*
X94965530Y-65443966D01*
X94908349Y-65255465D01*
X94815492Y-65081742D01*
X94690528Y-64929472D01*
X94538258Y-64804508D01*
X94364534Y-64711651D01*
X94176033Y-64654470D01*
X93980000Y-64635162D01*
X93783966Y-64654470D01*
X93595465Y-64711651D01*
X93421742Y-64804508D01*
X93360000Y-64855178D01*
X93360000Y-64801924D01*
X93363144Y-64770000D01*
X93360000Y-64738076D01*
X93360000Y-64738068D01*
X93350595Y-64642578D01*
X93313427Y-64520052D01*
X93253070Y-64407132D01*
X93192199Y-64332960D01*
X93192196Y-64332957D01*
X93171843Y-64308157D01*
X93147043Y-64287804D01*
X92633400Y-63774162D01*
X92613043Y-63749357D01*
X92514068Y-63668130D01*
X92401148Y-63607773D01*
X92278622Y-63570605D01*
X92183132Y-63561200D01*
X92183121Y-63561200D01*
X92151200Y-63558056D01*
X92119279Y-63561200D01*
X89621169Y-63561200D01*
X89532942Y-63502249D01*
X89387351Y-63441943D01*
X89232793Y-63411200D01*
X89075207Y-63411200D01*
X88920649Y-63441943D01*
X88775058Y-63502249D01*
X88644030Y-63589799D01*
X88532599Y-63701230D01*
X88445049Y-63832258D01*
X88384743Y-63977849D01*
X88354000Y-64132407D01*
X88354000Y-64289993D01*
X88384743Y-64444551D01*
X88445049Y-64590142D01*
X88524423Y-64708934D01*
X88515465Y-64711651D01*
X88341742Y-64804508D01*
X88189472Y-64929472D01*
X88064508Y-65081742D01*
X87971651Y-65255466D01*
X87914470Y-65443967D01*
X87900000Y-65590881D01*
X87360000Y-65590881D01*
X87360000Y-65590880D01*
X87345530Y-65443966D01*
X87288349Y-65255465D01*
X87195492Y-65081742D01*
X87070528Y-64929472D01*
X86918258Y-64804508D01*
X86744534Y-64711651D01*
X86556033Y-64654470D01*
X86360000Y-64635162D01*
X86163966Y-64654470D01*
X85975465Y-64711651D01*
X85801742Y-64804508D01*
X85649472Y-64929472D01*
X85524508Y-65081742D01*
X85431651Y-65255466D01*
X85374470Y-65443967D01*
X85360000Y-65590881D01*
X84820000Y-65590881D01*
X84820000Y-65590880D01*
X84805530Y-65443966D01*
X84748349Y-65255465D01*
X84655492Y-65081742D01*
X84530528Y-64929472D01*
X84378258Y-64804508D01*
X84204534Y-64711651D01*
X84016033Y-64654470D01*
X83820000Y-64635162D01*
X83623966Y-64654470D01*
X83435465Y-64711651D01*
X83261742Y-64804508D01*
X83109472Y-64929472D01*
X82984508Y-65081742D01*
X82891651Y-65255466D01*
X82834470Y-65443967D01*
X82820000Y-65590881D01*
X82280000Y-65590881D01*
X82280000Y-65590880D01*
X82265530Y-65443966D01*
X82208349Y-65255465D01*
X82115492Y-65081742D01*
X81990528Y-64929472D01*
X81838258Y-64804508D01*
X81664534Y-64711651D01*
X81476033Y-64654470D01*
X81280000Y-64635162D01*
X81083966Y-64654470D01*
X80895465Y-64711651D01*
X80721742Y-64804508D01*
X80569472Y-64929472D01*
X80444508Y-65081742D01*
X80351651Y-65255466D01*
X80294470Y-65443967D01*
X80280000Y-65590881D01*
X79740000Y-65590881D01*
X79740000Y-65590880D01*
X79725530Y-65443966D01*
X79668349Y-65255465D01*
X79575492Y-65081742D01*
X79450528Y-64929472D01*
X79298258Y-64804508D01*
X79124534Y-64711651D01*
X78936033Y-64654470D01*
X78740000Y-64635162D01*
X78543966Y-64654470D01*
X78355465Y-64711651D01*
X78181742Y-64804508D01*
X78029472Y-64929472D01*
X77904508Y-65081742D01*
X77811651Y-65255466D01*
X77754470Y-65443967D01*
X77740000Y-65590881D01*
X77200000Y-65590881D01*
X77200000Y-65590880D01*
X77185530Y-65443966D01*
X77128349Y-65255465D01*
X77035492Y-65081742D01*
X76910528Y-64929472D01*
X76758258Y-64804508D01*
X76584534Y-64711651D01*
X76396033Y-64654470D01*
X76200000Y-64635162D01*
X76003966Y-64654470D01*
X75815465Y-64711651D01*
X75641742Y-64804508D01*
X75489472Y-64929472D01*
X75364508Y-65081742D01*
X75271651Y-65255466D01*
X75214470Y-65443967D01*
X75200000Y-65590881D01*
X74660000Y-65590881D01*
X74660000Y-65590880D01*
X74645530Y-65443966D01*
X74588349Y-65255465D01*
X74495492Y-65081742D01*
X74370528Y-64929472D01*
X74218258Y-64804508D01*
X74044534Y-64711651D01*
X73856033Y-64654470D01*
X73660000Y-64635162D01*
X73463966Y-64654470D01*
X73275465Y-64711651D01*
X73101742Y-64804508D01*
X72949472Y-64929472D01*
X72824508Y-65081742D01*
X72731651Y-65255466D01*
X72674470Y-65443967D01*
X72660000Y-65590881D01*
X72220000Y-65590881D01*
X72220000Y-65440000D01*
X72159846Y-65229244D01*
X72059731Y-65034273D01*
X71923503Y-64862579D01*
X71756397Y-64720761D01*
X71564834Y-64614269D01*
X71486747Y-64602939D01*
X71320000Y-64685733D01*
X70920000Y-64685733D01*
X70753253Y-64602939D01*
X70675166Y-64614269D01*
X70483603Y-64720761D01*
X70316497Y-64862579D01*
X70180269Y-65034273D01*
X70080154Y-65229244D01*
X70020000Y-65440000D01*
X69564327Y-65440000D01*
X69508349Y-65255465D01*
X69415492Y-65081742D01*
X69290528Y-64929472D01*
X69138258Y-64804508D01*
X68964534Y-64711651D01*
X68776033Y-64654470D01*
X68580000Y-64635162D01*
X68383966Y-64654470D01*
X68195465Y-64711651D01*
X68021742Y-64804508D01*
X67869472Y-64929472D01*
X67744508Y-65081742D01*
X67651651Y-65255466D01*
X67594470Y-65443967D01*
X67580000Y-65590881D01*
X52170000Y-65590881D01*
X52170000Y-60010000D01*
X67228065Y-60010000D01*
X67228065Y-61910000D01*
X67235788Y-61988414D01*
X67258660Y-62063814D01*
X67295803Y-62133303D01*
X67345789Y-62194211D01*
X67406697Y-62244197D01*
X67476186Y-62281340D01*
X67551586Y-62304212D01*
X67630000Y-62311935D01*
X69530000Y-62311935D01*
X69608414Y-62304212D01*
X69683814Y-62281340D01*
X69753303Y-62244197D01*
X69814211Y-62194211D01*
X69864197Y-62133303D01*
X69901340Y-62063814D01*
X69910801Y-62032622D01*
X70330221Y-62032622D01*
X70433498Y-62245150D01*
X70697409Y-62354386D01*
X70977560Y-62410037D01*
X71263186Y-62409964D01*
X71543309Y-62354169D01*
X71806502Y-62245150D01*
X71909779Y-62032622D01*
X71120000Y-61242843D01*
X70330221Y-62032622D01*
X69910801Y-62032622D01*
X69924212Y-61988414D01*
X69931935Y-61910000D01*
X69931935Y-61693680D01*
X70047378Y-61749779D01*
X70837157Y-60960000D01*
X71402843Y-60960000D01*
X72192622Y-61749779D01*
X72405150Y-61646502D01*
X72444126Y-61552338D01*
X72463646Y-61599465D01*
X72611387Y-61820575D01*
X72799425Y-62008613D01*
X73020535Y-62156354D01*
X73266220Y-62258120D01*
X73527037Y-62310000D01*
X73792963Y-62310000D01*
X74053780Y-62258120D01*
X74299465Y-62156354D01*
X74520575Y-62008613D01*
X74708613Y-61820575D01*
X74856354Y-61599465D01*
X74930000Y-61421668D01*
X75003646Y-61599465D01*
X75151387Y-61820575D01*
X75339425Y-62008613D01*
X75560535Y-62156354D01*
X75806220Y-62258120D01*
X76067037Y-62310000D01*
X76332963Y-62310000D01*
X76593780Y-62258120D01*
X76839465Y-62156354D01*
X77060575Y-62008613D01*
X77248613Y-61820575D01*
X77396354Y-61599465D01*
X77470000Y-61421668D01*
X77543646Y-61599465D01*
X77691387Y-61820575D01*
X77879425Y-62008613D01*
X78100535Y-62156354D01*
X78346220Y-62258120D01*
X78607037Y-62310000D01*
X78872963Y-62310000D01*
X79133780Y-62258120D01*
X79379465Y-62156354D01*
X79600575Y-62008613D01*
X79788613Y-61820575D01*
X79936354Y-61599465D01*
X80038120Y-61353780D01*
X80090000Y-61092963D01*
X80090000Y-60827037D01*
X80038120Y-60566220D01*
X79936354Y-60320535D01*
X79788613Y-60099425D01*
X79600575Y-59911387D01*
X79379465Y-59763646D01*
X79133780Y-59661880D01*
X78872963Y-59610000D01*
X78607037Y-59610000D01*
X78346220Y-59661880D01*
X78100535Y-59763646D01*
X77879425Y-59911387D01*
X77691387Y-60099425D01*
X77543646Y-60320535D01*
X77470000Y-60498332D01*
X77396354Y-60320535D01*
X77248613Y-60099425D01*
X77060575Y-59911387D01*
X76839465Y-59763646D01*
X76593780Y-59661880D01*
X76332963Y-59610000D01*
X76067037Y-59610000D01*
X75806220Y-59661880D01*
X75560535Y-59763646D01*
X75339425Y-59911387D01*
X75151387Y-60099425D01*
X75003646Y-60320535D01*
X74930000Y-60498332D01*
X74856354Y-60320535D01*
X74708613Y-60099425D01*
X74520575Y-59911387D01*
X74299465Y-59763646D01*
X74053780Y-59661880D01*
X73792963Y-59610000D01*
X73527037Y-59610000D01*
X73266220Y-59661880D01*
X73020535Y-59763646D01*
X72799425Y-59911387D01*
X72611387Y-60099425D01*
X72463646Y-60320535D01*
X72444140Y-60367627D01*
X72405150Y-60273498D01*
X72192622Y-60170221D01*
X71402843Y-60960000D01*
X70837157Y-60960000D01*
X70047378Y-60170221D01*
X69931935Y-60226320D01*
X69931935Y-60010000D01*
X69924212Y-59931586D01*
X69910802Y-59887378D01*
X70330221Y-59887378D01*
X71120000Y-60677157D01*
X71909779Y-59887378D01*
X71806502Y-59674850D01*
X71542591Y-59565614D01*
X71262440Y-59509963D01*
X70976814Y-59510036D01*
X70696691Y-59565831D01*
X70433498Y-59674850D01*
X70330221Y-59887378D01*
X69910802Y-59887378D01*
X69901340Y-59856186D01*
X69864197Y-59786697D01*
X69814211Y-59725789D01*
X69753303Y-59675803D01*
X69683814Y-59638660D01*
X69608414Y-59615788D01*
X69530000Y-59608065D01*
X67630000Y-59608065D01*
X67551586Y-59615788D01*
X67476186Y-59638660D01*
X67406697Y-59675803D01*
X67345789Y-59725789D01*
X67295803Y-59786697D01*
X67258660Y-59856186D01*
X67235788Y-59931586D01*
X67228065Y-60010000D01*
X52170000Y-60010000D01*
X52170000Y-53074908D01*
X52187768Y-52894515D01*
X52238955Y-52725771D01*
X52322080Y-52570255D01*
X52433946Y-52433946D01*
X52570255Y-52322080D01*
X52725771Y-52238955D01*
X52894515Y-52187768D01*
X53074908Y-52170000D01*
X53511674Y-52170000D01*
X53239048Y-52442626D01*
%TD*%
M02*
