%TF.GenerationSoftware,KiCad,Pcbnew,5.1.6-c6e7f7d~87~ubuntu18.04.1*%
%TF.CreationDate,2020-11-08T03:55:42+00:00*%
%TF.ProjectId,icepill,69636570-696c-46c2-9e6b-696361645f70,1*%
%TF.SameCoordinates,Original*%
%TF.FileFunction,Soldermask,Bot*%
%TF.FilePolarity,Negative*%
%FSLAX46Y46*%
G04 Gerber Fmt 4.6, Leading zero omitted, Abs format (unit mm)*
G04 Created by KiCad (PCBNEW 5.1.6-c6e7f7d~87~ubuntu18.04.1) date 2020-11-08 03:55:42*
%MOMM*%
%LPD*%
G01*
G04 APERTURE LIST*
%ADD10O,1.300000X2.100000*%
%ADD11C,2.000000*%
%ADD12R,2.000000X2.000000*%
%ADD13C,6.300000*%
%ADD14C,0.700000*%
G04 APERTURE END LIST*
D10*
%TO.C,U1*%
X68580000Y-66040000D03*
X71120000Y-66040000D03*
X73660000Y-66040000D03*
X76200000Y-66040000D03*
X78740000Y-66040000D03*
X81280000Y-66040000D03*
X83820000Y-66040000D03*
X86360000Y-66040000D03*
X88900000Y-66040000D03*
X91440000Y-66040000D03*
X93980000Y-66040000D03*
X96520000Y-66040000D03*
X99060000Y-66040000D03*
X101600000Y-66040000D03*
X104140000Y-66040000D03*
X106680000Y-66040000D03*
X109220000Y-66040000D03*
X111760000Y-66040000D03*
X114300000Y-66040000D03*
X116840000Y-66040000D03*
X116840000Y-81280000D03*
X114300000Y-81280000D03*
X111760000Y-81280000D03*
X109220000Y-81280000D03*
X106680000Y-81280000D03*
X104140000Y-81280000D03*
X101600000Y-81280000D03*
X99060000Y-81280000D03*
X96520000Y-81280000D03*
X93980000Y-81280000D03*
X91440000Y-81280000D03*
X88900000Y-81280000D03*
X86360000Y-81280000D03*
X83820000Y-81280000D03*
X81280000Y-81280000D03*
X78740000Y-81280000D03*
X76200000Y-81280000D03*
X73660000Y-81280000D03*
X71120000Y-81280000D03*
G36*
G01*
X68905000Y-82330000D02*
X68255000Y-82330000D01*
G75*
G02*
X67930000Y-82005000I0J325000D01*
G01*
X67930000Y-80555000D01*
G75*
G02*
X68255000Y-80230000I325000J0D01*
G01*
X68905000Y-80230000D01*
G75*
G02*
X69230000Y-80555000I0J-325000D01*
G01*
X69230000Y-82005000D01*
G75*
G02*
X68905000Y-82330000I-325000J0D01*
G01*
G37*
%TD*%
D11*
%TO.C,J6*%
X81280000Y-55880000D03*
X78740000Y-55880000D03*
X76200000Y-55880000D03*
X73660000Y-55880000D03*
X71120000Y-55880000D03*
D12*
X68580000Y-55880000D03*
%TD*%
D11*
%TO.C,J5*%
X104140000Y-55880000D03*
X101600000Y-55880000D03*
X99060000Y-55880000D03*
X96520000Y-55880000D03*
X93980000Y-55880000D03*
D12*
X91440000Y-55880000D03*
%TD*%
D11*
%TO.C,J4*%
X127000000Y-55880000D03*
X124460000Y-55880000D03*
X121920000Y-55880000D03*
X119380000Y-55880000D03*
X116840000Y-55880000D03*
D12*
X114300000Y-55880000D03*
%TD*%
D11*
%TO.C,J3*%
X114300000Y-91440000D03*
X116840000Y-91440000D03*
X119380000Y-91440000D03*
X121920000Y-91440000D03*
X124460000Y-91440000D03*
D12*
X127000000Y-91440000D03*
%TD*%
D11*
%TO.C,J2*%
X91440000Y-91440000D03*
X93980000Y-91440000D03*
X96520000Y-91440000D03*
X99060000Y-91440000D03*
X101600000Y-91440000D03*
D12*
X104140000Y-91440000D03*
%TD*%
D11*
%TO.C,J1*%
X68580000Y-91440000D03*
X71120000Y-91440000D03*
X73660000Y-91440000D03*
X76200000Y-91440000D03*
X78740000Y-91440000D03*
D12*
X81280000Y-91440000D03*
%TD*%
D13*
%TO.C,X4*%
X55880000Y-54610000D03*
D14*
X55880000Y-52110000D03*
X58380000Y-54610000D03*
X55880000Y-57110000D03*
X53380000Y-54610000D03*
X54080000Y-52810000D03*
X57680000Y-52810000D03*
X54080000Y-56410000D03*
X57680000Y-56410000D03*
%TD*%
D13*
%TO.C,X3*%
X133350000Y-54610000D03*
D14*
X133350000Y-52110000D03*
X135850000Y-54610000D03*
X133350000Y-57110000D03*
X130850000Y-54610000D03*
X131550000Y-52810000D03*
X135150000Y-52810000D03*
X131550000Y-56410000D03*
X135150000Y-56410000D03*
%TD*%
D13*
%TO.C,X2*%
X133350000Y-92710000D03*
D14*
X133350000Y-90210000D03*
X135850000Y-92710000D03*
X133350000Y-95210000D03*
X130850000Y-92710000D03*
X131550000Y-90910000D03*
X135150000Y-90910000D03*
X131550000Y-94510000D03*
X135150000Y-94510000D03*
%TD*%
D13*
%TO.C,X1*%
X55880000Y-92710000D03*
D14*
X55880000Y-90210000D03*
X58380000Y-92710000D03*
X55880000Y-95210000D03*
X53380000Y-92710000D03*
X54080000Y-90910000D03*
X57680000Y-90910000D03*
X54080000Y-94510000D03*
X57680000Y-94510000D03*
%TD*%
D11*
%TO.C,J7*%
X128270000Y-80010000D03*
X125730000Y-80010000D03*
X128270000Y-77470000D03*
X125730000Y-77470000D03*
X128270000Y-74930000D03*
X125730000Y-74930000D03*
X128270000Y-72390000D03*
X125730000Y-72390000D03*
X128270000Y-69850000D03*
X125730000Y-69850000D03*
X128270000Y-67310000D03*
D12*
X125730000Y-67310000D03*
%TD*%
D11*
%TO.C,J9*%
X78740000Y-60960000D03*
X76200000Y-60960000D03*
X73660000Y-60960000D03*
X71120000Y-60960000D03*
D12*
X68580000Y-60960000D03*
%TD*%
D11*
%TO.C,J8*%
X78740000Y-86360000D03*
X76200000Y-86360000D03*
X73660000Y-86360000D03*
X71120000Y-86360000D03*
D12*
X68580000Y-86360000D03*
%TD*%
M02*
